<svg width="32" height="32" viewBox="0 0 32 32" fill="none" xmlns="http://www.w3.org/2000/svg">
  <path d="M17.8185 23.1781C12.6085 9.27014 17.8112 0.819458 17.8112 0.819458C6.21311 6.94614 3.3418 22.8341 3.3418 22.8341C3.3418 22.8341 9.73048 19.6015 17.8185 23.1781Z" fill="#F2F2F2"/>
  <path d="M17.6699 22.8888C21.9759 20.5108 26.6646 21.7621 26.6646 21.7621C27.9286 7.05146 17.6699 0.819458 17.6699 0.819458C17.6699 0.819458 22.7186 12.5088 17.6699 22.8888Z" fill="#CDD6E0"/>
  <path d="M17.6698 25.7812C17.3665 25.7812 17.1211 25.5352 17.1211 25.2325V0.590572C17.1211 0.28726 17.3664 0.0412598 17.6698 0.0412598C17.9725 0.0412598 18.2178 0.28726 18.2178 0.590572V25.2326C18.2178 25.5352 17.9725 25.7812 17.6698 25.7812Z" fill="#ACB3BA"/>
  <path d="M24.4993 31.9586H7.50131L0 24.4579H32L24.4993 31.9586Z" fill="#FFD15C"/>
  <path d="M5.22656 29.6852C6.49725 30.9552 7.49988 31.9585 7.49988 31.9585H24.4979C24.4979 31.9585 25.5006 30.9552 26.7712 29.6852H5.22656Z" fill="#F8B64C"/>
</svg>
