<svg width="32" height="32" viewBox="0 0 32 32" fill="none" xmlns="http://www.w3.org/2000/svg">
  <path d="M26.6172 29.3333C25.4729 29.413 24.3484 29.0041 23.5225 28.208C22.1772 26.7707 22.3372 24.356 22.5065 21.8C22.5612 20.9733 22.6172 20.136 22.6172 19.332C22.6172 11.9987 20.1079 11.9987 19.2839 11.9987C18.9157 11.9987 18.6172 11.7002 18.6172 11.332C18.6172 10.9638 18.9157 10.6653 19.2839 10.6653C23.9506 10.6653 23.9506 17.188 23.9506 19.332C23.9506 20.1653 23.8946 21.0307 23.8372 21.888C23.6879 24.1467 23.5466 26.2813 24.4959 27.296C25.0726 27.8186 25.8426 28.0741 26.6172 28C27.1614 28.0399 27.6941 27.8293 28.0639 27.428C29.2359 26.0667 28.6946 22.444 28.2986 19.7987C28.114 18.763 27.9978 17.7163 27.9506 16.6654V12.6654C27.9506 12.4556 28.0494 12.2579 28.2173 12.1321C29.52 11.1641 29.4173 10.3987 29.3253 9.78675C29.3016 9.63669 29.2878 9.48525 29.284 9.33344C27.7082 6.52712 24.9664 4.56656 21.8013 3.98275C21.4423 3.89994 21.2185 3.54175 21.3013 3.18275C21.3842 2.82375 21.7423 2.59994 22.1013 2.68275C27.976 4.03475 30.6173 8.37075 30.6173 9.33344C30.6214 9.42287 30.6312 9.51194 30.6466 9.60012C30.9171 10.9017 30.3799 12.2384 29.2839 12.9908V16.6668C29.3345 17.6505 29.4458 18.6302 29.6172 19.6001C30.0745 22.6668 30.6452 26.4734 29.0732 28.2961C28.454 28.9961 27.5507 29.3776 26.6172 29.3333Z" fill="#455A64"/>
  <path d="M28.616 13.3333C28.4391 13.3336 28.2692 13.2636 28.144 13.1386C24.4213 9.41594 24.8733 7.46662 26.8107 5.52931C27.0755 5.2735 27.4976 5.28087 27.7534 5.54569C28.0029 5.80406 28.0029 6.21362 27.7534 6.472C26.6241 7.60131 25.5587 8.66669 29.0867 12.196C29.3474 12.456 29.3479 12.8781 29.0879 13.1388C28.9625 13.2645 28.7922 13.335 28.6147 13.3347L28.616 13.3333Z" fill="#455A64"/>
  <path d="M16.6172 0H5.9505C4.10956 0 2.61719 1.49238 2.61719 3.33331V28.6666C2.61719 29.0348 2.91569 29.3333 3.28387 29.3333H19.2839C19.6521 29.3333 19.9506 29.0348 19.9506 28.6666V3.33331C19.9505 1.49238 18.4581 0 16.6172 0Z" fill="#F44336"/>
  <path d="M5.94989 2.66675H16.6166C16.9848 2.66675 17.2833 2.96525 17.2833 3.33344V11.3334C17.2833 11.7016 16.9848 12.0001 16.6166 12.0001H5.94989C5.5817 12.0001 5.2832 11.7016 5.2832 11.3334V3.33344C5.2832 2.96519 5.5817 2.66675 5.94989 2.66675Z" fill="#CFD8DC"/>
  <path d="M19.2832 28H3.2832C2.17864 28 1.2832 28.8954 1.2832 30V31.3333C1.2832 31.7015 1.5817 32 1.94989 32H20.6166C20.9848 32 21.2833 31.7015 21.2833 31.3333V30C21.2832 28.8954 20.3878 28 19.2832 28Z" fill="#455A64"/>
</svg>
