<svg width="22" height="22" viewBox="0 0 22 22" fill="none" xmlns="http://www.w3.org/2000/svg">
  <path d="M20.9994 15.92V18.92C21.0006 19.1985 20.9435 19.4741 20.832 19.7293C20.7204 19.9845 20.5567 20.2136 20.3515 20.4018C20.1463 20.5901 19.904 20.7335 19.6402 20.8227C19.3764 20.9119 19.0968 20.945 18.8194 20.92C15.7423 20.5856 12.7864 19.5341 10.1894 17.85C7.77327 16.3146 5.72478 14.2661 4.18945 11.85C2.49942 9.24118 1.44769 6.27097 1.11944 3.17997C1.09446 2.90344 1.12732 2.62474 1.21595 2.3616C1.30457 2.09846 1.44702 1.85666 1.63421 1.6516C1.82141 1.44653 2.04925 1.28268 2.30324 1.1705C2.55722 1.05831 2.83179 1.00024 3.10945 0.999975H6.10945C6.59475 0.995198 7.06524 1.16705 7.43321 1.48351C7.80118 1.79996 8.04152 2.23942 8.10944 2.71997C8.23607 3.68004 8.47089 4.6227 8.80945 5.52997C8.94399 5.8879 8.97311 6.27689 8.89335 6.65086C8.8136 7.02482 8.62831 7.36809 8.35944 7.63998L7.08945 8.90997C8.513 11.4135 10.5859 13.4864 13.0894 14.91L14.3594 13.64C14.6313 13.3711 14.9746 13.1858 15.3486 13.1061C15.7225 13.0263 16.1115 13.0554 16.4694 13.19C17.3767 13.5285 18.3194 13.7634 19.2794 13.89C19.7652 13.9585 20.2088 14.2032 20.526 14.5775C20.8431 14.9518 21.0116 15.4296 20.9994 15.92Z" stroke="#FE504F" stroke-width="2" stroke-linecap="round" stroke-linejoin="round"/>
</svg>
