<svg width="32" height="32" viewBox="0 0 32 32" fill="none" xmlns="http://www.w3.org/2000/svg">
  <path d="M15.3285 18.8972L13.0132 17.0135C12.4025 16.5166 12.0056 15.8043 11.9044 15.0235C11.8525 14.623 11.88 14.2163 11.9853 13.8264C12.0905 13.4366 12.2716 13.0713 12.5181 12.7514L13.467 11.5201L13.7376 11.1378L22.8881 10.2988L22.9635 10.5215C23.1766 11.1512 23.1767 11.8334 22.9638 12.4631C22.751 13.0928 22.3369 13.6351 21.7856 14.0063C21.2266 14.3827 20.5582 14.562 19.8859 14.5158L15.8359 14.2381L18.0518 16.7538L15.3285 18.8972Z" fill="#0A9ACD"/>
  <path d="M12.0906 6.35925L14.7906 6.59194C16.8563 6.80269 18.8733 7.35155 20.761 8.21657C21.6902 8.64232 22.442 9.37849 22.8871 10.2985L11.4828 11.7769L10.8223 11.8777L11.0973 8.80175L12.0906 6.35925Z" fill="#E82F3E"/>
  <path d="M7.19336 9.81178L7.75348 10.2434L9.24104 10.0505L12.2395 6.85016L11.0959 6.75735L9.65423 5.45935" fill="#0A9ACD"/>
  <path d="M18.0515 16.7534L15.328 18.8972L16.8723 20.1534L15.5855 21.0198C15.3983 21.1458 15.24 21.3102 15.1212 21.5021C15.0024 21.6939 14.9258 21.9088 14.8964 22.1326C14.867 22.3563 14.8855 22.5837 14.9507 22.7998C15.0159 23.0158 15.1263 23.2155 15.2746 23.3856L20.1824 22.308L20.8734 20.2227L20.8312 20.1555C20.0498 18.9102 19.116 17.7673 18.0515 16.7534Z" fill="#EA9D2D"/>
  <path d="M6.07227 8.94858L7.3027 6.77234L8.85452 7.0754L8.98308 8.06708L7.19252 9.8117L6.07227 8.94858Z" fill="#FBB540"/>
  <path d="M8.85504 7.07556L9.65392 5.45944L8.53366 4.59631L7.24609 6.92438L8.85504 7.07556Z" fill="#C38325"/>
  <path d="M2.38145 15.9777C2.2526 15.9779 2.12867 15.9283 2.0355 15.8393C1.94232 15.7503 1.8871 15.6287 1.88136 15.5C1.87561 15.3713 1.91978 15.2453 2.00465 15.1484C2.08952 15.0514 2.20854 14.991 2.33689 14.9796L28.2495 13.5665C28.3149 13.5606 28.3809 13.5676 28.4436 13.5871C28.5063 13.6066 28.5645 13.6383 28.615 13.6804C28.6654 13.7224 28.7071 13.774 28.7376 13.8322C28.7682 13.8903 28.7869 13.9539 28.7929 14.0193C28.7988 14.0847 28.7918 14.1507 28.7723 14.2134C28.7528 14.2761 28.7211 14.3343 28.679 14.3848C28.637 14.4352 28.5854 14.4769 28.5272 14.5075C28.4691 14.538 28.4055 14.5567 28.3401 14.5627L2.42758 15.9758C2.41199 15.9771 2.39662 15.9777 2.38145 15.9777Z" fill="#CBCBCB"/>
  <path d="M27.43 15.6844C27.3086 15.6843 27.1914 15.64 27.1003 15.5598C27.0091 15.4796 26.9503 15.369 26.9347 15.2486L26.6776 13.2652C26.6613 13.134 26.6976 13.0018 26.7786 12.8973C26.8595 12.7928 26.9785 12.7246 27.1096 12.7076C27.2406 12.6907 27.3731 12.7262 27.478 12.8066C27.5829 12.887 27.6517 13.0056 27.6693 13.1366L27.9265 15.1201C27.9349 15.1852 27.9304 15.2514 27.9133 15.3148C27.8962 15.3782 27.8668 15.4376 27.8267 15.4896C27.7866 15.5416 27.7367 15.5852 27.6797 15.6179C27.6228 15.6506 27.56 15.6718 27.4948 15.6802C27.4733 15.683 27.4517 15.6844 27.43 15.6844Z" fill="#A8A8A8"/>
  <path d="M2.19162 28.8544C2.0684 28.8545 1.9495 28.809 1.85774 28.7268C1.76597 28.6446 1.7078 28.5314 1.69438 28.4089C1.68096 28.2864 1.71325 28.1633 1.78503 28.0631C1.85682 27.963 1.96306 27.8929 2.08337 27.8662L30.3896 21.56C30.4539 21.5452 30.5205 21.5433 30.5855 21.5543C30.6505 21.5653 30.7127 21.5892 30.7685 21.6243C30.8243 21.6595 30.8726 21.7054 30.9105 21.7593C30.9485 21.8133 30.9755 21.8742 30.9898 21.9386C31.0041 22.0029 31.0056 22.0695 30.9941 22.1345C30.9826 22.1994 30.9583 22.2614 30.9228 22.317C30.8872 22.3725 30.841 22.4205 30.7868 22.4581C30.7326 22.4957 30.6715 22.5222 30.607 22.536L2.30074 28.8423C2.26492 28.8503 2.22832 28.8544 2.19162 28.8544Z" fill="#EAEAE8"/>
  <path d="M5.06981 30.2631C4.94672 30.2629 4.82801 30.2174 4.7364 30.1352C4.64479 30.053 4.58672 29.9399 4.57329 29.8176C4.55987 29.6952 4.59205 29.5722 4.66367 29.4721C4.73528 29.372 4.8413 29.3019 4.96143 29.2751L7.40162 28.7313C7.53079 28.7032 7.66584 28.7273 7.77723 28.7985C7.88862 28.8697 7.9673 28.9821 7.99604 29.1111C8.02479 29.2402 8.00126 29.3753 7.93062 29.4871C7.85997 29.5988 7.74795 29.678 7.61906 29.7074L5.17887 30.2511C5.14306 30.2591 5.10649 30.2631 5.06981 30.2631Z" fill="#CBCBCB"/>
  <path d="M10.4354 29.0669C10.3122 29.0669 10.1934 29.0214 10.1017 28.9392C10.01 28.8569 9.95192 28.7438 9.93852 28.6213C9.92511 28.4989 9.95737 28.3758 10.0291 28.2757C10.1008 28.1756 10.207 28.1055 10.3272 28.0788L17.6478 26.4476C17.7121 26.4328 17.7786 26.4308 17.8437 26.4419C17.9087 26.4529 17.9709 26.4767 18.0267 26.5119C18.0825 26.5471 18.1307 26.593 18.1687 26.6469C18.2067 26.7008 18.2336 26.7617 18.248 26.8261C18.2623 26.8905 18.2638 26.9571 18.2523 27.022C18.2408 27.087 18.2165 27.149 18.1809 27.2045C18.1453 27.2601 18.0991 27.308 18.0449 27.3456C17.9907 27.3832 17.9296 27.4097 17.8652 27.4236L10.5446 29.0549C10.5088 29.0629 10.4721 29.0669 10.4354 29.0669Z" fill="#EAEAE8"/>
  <path d="M20.1971 26.8923C20.074 26.8923 19.9552 26.8468 19.8635 26.7646C19.7718 26.6823 19.7136 26.5692 19.7002 26.4467C19.6868 26.3243 19.7191 26.2012 19.7908 26.1011C19.8625 26.001 19.9687 25.9309 20.0889 25.9042L22.5291 25.3604C22.6581 25.3327 22.7929 25.357 22.9041 25.4282C23.0152 25.4994 23.0937 25.6117 23.1224 25.7406C23.1511 25.8694 23.1276 26.0043 23.0572 26.116C22.9868 26.2276 22.8751 26.3069 22.7465 26.3365L20.3063 26.8802C20.2705 26.8883 20.2339 26.8923 20.1971 26.8923Z" fill="#CBCBCB"/>
  <path d="M24.5897 25.9138C24.4665 25.9137 24.3477 25.8682 24.256 25.786C24.1643 25.7038 24.1062 25.5906 24.0928 25.4682C24.0794 25.3458 24.1117 25.2227 24.1834 25.1226C24.2551 25.0224 24.3613 24.9523 24.4815 24.9256L28.8738 23.947C28.9379 23.9327 29.0042 23.9312 29.0689 23.9426C29.1336 23.9539 29.1954 23.9779 29.2508 24.0131C29.3062 24.0483 29.3541 24.0941 29.3918 24.1479C29.4296 24.2016 29.4563 24.2623 29.4706 24.3264C29.4849 24.3905 29.4864 24.4567 29.4751 24.5214C29.4637 24.5861 29.4398 24.6479 29.4045 24.7033C29.3693 24.7587 29.3235 24.8067 29.2698 24.8444C29.216 24.8821 29.1554 24.9089 29.0913 24.9231L24.699 25.9017C24.6631 25.9097 24.6265 25.9138 24.5897 25.9138Z" fill="#EAEAE8"/>
  <path d="M17.2167 29.6057C17.0936 29.6057 16.9747 29.5602 16.883 29.478C16.7913 29.3958 16.7332 29.2826 16.7198 29.1602C16.7064 29.0377 16.7386 28.9147 16.8103 28.8145C16.8821 28.7144 16.9882 28.6443 17.1085 28.6176L23.4529 27.2041C23.5821 27.176 23.7171 27.2001 23.8285 27.2713C23.9399 27.3425 24.0186 27.4549 24.0474 27.5839C24.0761 27.7129 24.0526 27.8481 23.9819 27.9598C23.9113 28.0716 23.7993 28.1508 23.6704 28.1801L17.3259 29.5938C17.2901 29.6018 17.2534 29.6058 17.2167 29.6057Z" fill="#EAEAE8"/>
  <path d="M12.3886 30.6811C12.2654 30.6811 12.1466 30.6356 12.0549 30.5534C11.9632 30.4712 11.9051 30.358 11.8916 30.2356C11.8782 30.1132 11.9105 29.9901 11.9822 29.8899C12.0539 29.7898 12.1601 29.7197 12.2803 29.693L14.3928 29.2224C14.522 29.1943 14.6571 29.2184 14.7684 29.2896C14.8798 29.3608 14.9585 29.4732 14.9873 29.6022C15.016 29.7312 14.9925 29.8664 14.9218 29.9781C14.8512 30.0899 14.7392 30.1691 14.6103 30.1985L12.4978 30.6691C12.4619 30.6771 12.4253 30.6811 12.3886 30.6811Z" fill="#CBCBCB"/>
  <path d="M21.8729 18.3227C21.7497 18.3227 21.6309 18.2772 21.5392 18.195C21.4475 18.1127 21.3894 17.9996 21.376 17.8771C21.3626 17.7547 21.3949 17.6316 21.4666 17.5315C21.5383 17.4314 21.6445 17.3613 21.7647 17.3346L25.181 16.5735C25.3101 16.5453 25.4452 16.5695 25.5566 16.6407C25.668 16.7119 25.7466 16.8243 25.7754 16.9533C25.8041 17.0823 25.7806 17.2175 25.71 17.3292C25.6393 17.441 25.5273 17.5202 25.3984 17.5495L21.9821 18.3107C21.9463 18.3187 21.9096 18.3227 21.8729 18.3227Z" fill="#B0D2FD"/>
  <path d="M22.7968 20.1662C22.6736 20.1662 22.5548 20.1207 22.4631 20.0385C22.3714 19.9563 22.3133 19.8431 22.2998 19.7207C22.2864 19.5982 22.3187 19.4752 22.3904 19.375C22.4621 19.2749 22.5683 19.2048 22.6886 19.1781L24.1527 18.8519C24.2818 18.8238 24.4169 18.8479 24.5283 18.9191C24.6397 18.9903 24.7183 19.1027 24.7471 19.2317C24.7758 19.3608 24.7523 19.4959 24.6817 19.6077C24.611 19.7194 24.499 19.7986 24.3701 19.828L22.9059 20.1542C22.8701 20.1622 22.8335 20.1662 22.7968 20.1662Z" fill="#B0D2FD"/>
  <path d="M13.8928 3.19621C13.7696 3.19626 13.6507 3.15081 13.5589 3.06858C13.4671 2.98635 13.409 2.87314 13.3956 2.75065C13.3821 2.62817 13.4144 2.50504 13.4862 2.4049C13.558 2.30475 13.6642 2.23464 13.7845 2.20802L19.1529 1.01196C19.217 0.997682 19.2833 0.996173 19.348 1.00751C19.4126 1.01885 19.4745 1.04282 19.5299 1.07805C19.5853 1.11328 19.6332 1.15908 19.6709 1.21283C19.7086 1.26658 19.7354 1.32724 19.7497 1.39133C19.7639 1.45542 19.7655 1.5217 19.7541 1.58638C19.7428 1.65105 19.7188 1.71286 19.6836 1.76828C19.6483 1.82369 19.6025 1.87162 19.5488 1.90934C19.495 1.94705 19.4344 1.97381 19.3703 1.98808L14.0021 3.18408C13.9662 3.19213 13.9296 3.1962 13.8928 3.19621Z" fill="#B0D2FD"/>
  <path d="M15.7909 4.82217C15.6678 4.82215 15.5489 4.77667 15.4572 4.69445C15.3655 4.61223 15.3074 4.49905 15.294 4.37662C15.2806 4.25418 15.3128 4.1311 15.3846 4.03098C15.4563 3.93085 15.5624 3.86073 15.6827 3.83404L17.1468 3.50786C17.2111 3.49306 17.2777 3.49113 17.3427 3.50218C17.4077 3.51322 17.4699 3.53703 17.5257 3.57222C17.5815 3.6074 17.6298 3.65328 17.6677 3.70721C17.7057 3.76114 17.7327 3.82204 17.747 3.88643C17.7613 3.95081 17.7628 4.01739 17.7513 4.08234C17.7398 4.14728 17.7155 4.20931 17.6799 4.26485C17.6444 4.32039 17.5981 4.36834 17.544 4.40593C17.4898 4.44353 17.4287 4.47003 17.3642 4.48392L15.9001 4.8101C15.8643 4.81813 15.8277 4.82217 15.7909 4.82217Z" fill="#B0D2FD"/>
  <path d="M19.2072 4.06107C19.084 4.06112 18.9651 4.01567 18.8734 3.93345C18.7816 3.85122 18.7234 3.738 18.71 3.61552C18.6966 3.49303 18.7289 3.36991 18.8007 3.26976C18.8724 3.16962 18.9787 3.09951 19.099 3.07289L22.0272 2.42058C22.0915 2.40578 22.1581 2.40385 22.2231 2.4149C22.2881 2.42594 22.3503 2.44975 22.4061 2.48494C22.4619 2.52012 22.5102 2.566 22.5482 2.61993C22.5861 2.67386 22.6131 2.73476 22.6274 2.79915C22.6418 2.86353 22.6432 2.93011 22.6317 2.99506C22.6202 3.06 22.596 3.12203 22.5604 3.17757C22.5248 3.23311 22.4786 3.28106 22.4244 3.31865C22.3702 3.35625 22.3091 3.38275 22.2446 3.39663L19.3164 4.04895C19.2806 4.05699 19.244 4.06105 19.2072 4.06107Z" fill="#B0D2FD"/>
  <path d="M6.09563 9.11399L5.43725 8.72649C5.13243 8.54694 4.87263 8.30015 4.67766 8.00494C4.4827 7.70973 4.35772 7.3739 4.31225 7.02305C4.2443 6.49885 4.35712 5.96714 4.6321 5.5157C4.90709 5.06426 5.32779 4.72009 5.82475 4.53999L8.4065 3.60449L8.53507 4.59624L6.09563 9.11399Z" fill="#E82F3E"/>
  <path d="M4.53972 12.6769L3.54803 12.8055L2.98791 12.3739L1.62891 13.5584L2.57209 15.9623L4.86116 15.1562L4.53972 12.6769Z" fill="#EA9D2D"/>
  <path d="M11.3362 6.82755L8.37933 11.1707L4.54102 12.677L4.86245 15.1562L10.124 12.9616L13.6775 9.7193C13.9724 9.4502 14.1981 9.11395 14.3354 8.73906C14.4728 8.36416 14.5177 7.96168 14.4663 7.56574C14.4081 7.11676 14.1739 6.70928 13.8153 6.43293C13.6377 6.2961 13.4349 6.1956 13.2185 6.13716C13.0021 6.07871 12.7763 6.06347 12.554 6.0923L12.5279 6.09568C12.2888 6.12663 12.0591 6.20785 11.8537 6.33399C11.6483 6.46014 11.4719 6.62835 11.3362 6.82755Z" fill="#E82F3E"/>
  <path d="M11.4102 11.7861L13.6755 9.71912L12.8168 11.6037L11.4102 11.7861Z" fill="#961B20"/>
</svg>
