<svg width="32" height="32" viewBox="0 0 32 32" fill="none" xmlns="http://www.w3.org/2000/svg">
  <g clip-path="url(#clip0)">
    <path d="M14.7842 8.41843C13.2082 8.50349 11.9072 9.10202 11.149 10.0674L10.1875 9.74987C10.893 8.69008 12.0595 7.94565 13.4955 7.62256L14.7842 8.41843Z" fill="#FFF9E2"/>
    <path d="M7.2534 17.1458L10.9756 13.0191L11.6096 11.921C12.0848 11.098 11.8028 10.0456 10.9798 9.57054C10.1568 9.09537 9.10451 9.37738 8.6294 10.2003L5.2168 16.1111C5.60054 16.0192 7.25527 17.1452 7.2534 17.1458Z" fill="#FFE07D"/>
    <path d="M16.1191 7.52063C18.2684 7.79762 20.2238 8.94363 21.3087 10.502C21.4611 10.7209 21.4072 11.0219 21.1883 11.1742C21.1043 11.2328 21.0081 11.2608 20.9129 11.2608C20.7602 11.2608 20.61 11.1886 20.5161 11.0538C19.7461 9.9478 18.4497 9.07955 16.9594 8.67173L16.1191 7.52063Z" fill="#FFF9E2"/>
    <path d="M22.1164 13.8373L22.7549 13.4687C22.1263 13.1783 21.0659 11.3426 21.1281 10.654L20.4908 11.022C19.9271 11.3474 19.2436 11.2775 18.7614 10.8982L18.3581 10.5623C17.3321 11.1546 16.9805 12.4666 17.5729 13.4927L18.5166 15.1272C19.109 16.1532 20.421 16.5047 21.4471 15.9124C21.4471 15.9124 21.3819 15.5585 21.3586 15.3946C21.2722 14.7882 21.5534 14.1624 22.1164 13.8373Z" fill="#F1B986"/>
    <path d="M23.6772 7.57593L22.1669 8.60276C20.9158 9.45343 20.9403 11.5871 21.395 12.3746C21.8497 13.1621 23.6853 14.2503 25.0475 13.5921L26.6919 12.7976L23.6772 7.57593Z" fill="#F1D0A5"/>
    <path d="M27.6327 12.3434C29.2666 11.554 29.8783 9.53391 28.949 7.96887C28.0244 6.41175 26.0112 5.9897 24.5137 7.00791L25.185 10.187L27.6025 12.358L27.6327 12.3434Z" fill="#DD636E"/>
    <path d="M24.5135 7.00781L23.6163 7.61787C23.1805 7.91418 23.0472 8.49649 23.3107 8.95286L23.8106 9.81873C24.0884 10.2999 24.7037 10.4648 25.1849 10.187L26.0579 9.68287L24.5135 7.00781Z" fill="#D3EFFB"/>
    <path d="M27.6043 12.3583L26.0599 9.68323L25.1868 10.1873C24.7056 10.4651 24.5407 11.0804 24.8186 11.5616L25.3184 12.4274C25.5819 12.8838 26.1529 13.0595 26.6274 12.8302L27.6043 12.3583Z" fill="#B1E4F9"/>
    <path d="M18.1816 10.113L17.6387 9.17272L15.1909 4.93295C14.9194 4.4626 14.3658 4.23332 13.8412 4.37388L3.5962 7.11899C3.29635 7.19934 3.10319 7.49514 3.1576 7.80078C3.31309 8.6734 4.17542 9.20865 5.01321 8.9842L5.39592 8.88163C5.40204 8.87996 5.40861 8.88176 5.41312 8.88627C5.41762 8.89077 5.41936 8.89734 5.41775 8.90346C5.27893 9.42144 5.59848 9.95431 6.1278 10.0714C6.62641 10.1817 7.11954 9.85747 7.25173 9.36414L7.53458 8.30859L11.0581 7.67439C11.8548 7.531 12.5804 7.18408 13.1781 6.68734C13.2615 6.618 13.387 6.67975 13.3841 6.78824C13.3677 7.40641 13.5163 8.03437 13.8428 8.60322C13.8293 8.57947 13.8044 8.53517 14.1105 9.06423C14.5413 9.80873 14.3972 10.728 13.8157 11.3078L14.1839 13.2763L18.1816 10.113Z" fill="#F1B986"/>
    <path d="M21.3583 15.3947C20.9428 15.6969 20.4311 15.7909 19.9439 15.6602C19.515 15.5453 19.1565 15.2703 18.9345 14.8857L17.9908 13.2512C17.5027 12.4056 17.8442 11.3049 18.7612 10.8981C18.6312 10.7959 18.5158 10.6711 18.4214 10.5255C18.4067 10.5028 18.3926 10.4797 18.3789 10.4561L18.1807 10.1129C18.1588 10.1215 18.1373 10.1319 18.1163 10.1441L15.3256 11.7553C14.8096 12.0531 14.1474 11.8758 13.8495 11.3598C13.8389 11.3415 13.8273 11.3241 13.8148 11.3077C13.7029 11.4194 13.5747 11.5184 13.4313 11.6012L3.69336 17.2234L18.9974 17.782L21.7829 16.259C21.5399 16.0036 21.402 15.7016 21.3583 15.3947Z" fill="#707DD3"/>
    <path d="M12.758 16.6772C12.6735 16.6772 12.588 16.6551 12.5103 16.6086C10.2549 15.2585 9.10725 12.9786 9.65473 10.9356C9.72369 10.678 9.98845 10.5251 10.2462 10.5941C10.5038 10.6631 10.6566 10.9279 10.5876 11.1855C10.0409 13.2263 11.721 15.6224 14.6375 16.4921L12.758 16.6772Z" fill="#FFF9E2"/>
    <path d="M33 15.5858C33 15.5193 32.9451 15.4661 32.8788 15.4672C30.9991 15.4977 30.9586 16.2388 28.9997 16.2388C26.9996 16.2388 26.9996 15.4662 24.9995 15.4662C22.9995 15.4662 22.9995 16.2388 20.9994 16.2388C18.9995 16.2388 18.9995 15.4662 16.9995 15.4662C14.9996 15.4662 14.9996 16.2388 12.9997 16.2388C10.9998 16.2388 10.9998 15.4662 8.99981 15.4662C6.99984 15.4662 6.99984 16.2388 4.99981 16.2388C3.04118 16.2388 3.00074 15.4977 1.1213 15.4672C1.05486 15.4661 1 15.5194 1 15.5858V27.5489C1 27.6144 1.05305 27.6674 1.11847 27.6674H32.8815C32.9469 27.6674 33 27.6144 33 27.5489V15.5858Z" fill="#D3EFFB"/>
    <path d="M31.8788 15.4673C30.6065 15.488 30.1768 15.8342 29.4245 16.0558V20.3186C29.4245 23.6661 26.7109 26.3798 23.3633 26.3798H0V27.5491C0 27.6145 0.0530543 27.6676 0.118471 27.6676H31.8815C31.9469 27.6676 32 27.6145 32 27.549V15.5858C32 15.5195 31.9451 15.4662 31.8788 15.4673Z" fill="#B1E4F9"/>
    <path d="M11.9984 20.5993C10.9084 20.5993 10.3325 20.3768 9.82438 20.1805C9.35339 19.9986 8.90836 19.8266 7.99845 19.8266C7.08855 19.8266 6.64357 19.9985 6.17259 20.1805C5.66445 20.3768 5.08858 20.5993 3.99852 20.5993C3.73177 20.5993 3.51562 20.3831 3.51562 20.1164C3.51562 19.8497 3.73177 19.6335 3.99852 19.6335C4.90849 19.6335 5.35347 19.4616 5.82445 19.2796C6.33259 19.0833 6.90846 18.8608 7.99845 18.8608C9.08851 18.8608 9.66438 19.0834 10.1725 19.2796C10.6435 19.4616 11.0885 19.6335 11.9984 19.6335C12.9082 19.6335 13.3532 19.4616 13.8242 19.2796C14.3323 19.0834 14.9081 18.8608 15.9981 18.8608C16.2649 18.8608 16.481 19.0771 16.481 19.3437C16.481 19.6104 16.2649 19.8266 15.9981 19.8266C15.0882 19.8266 14.6433 19.9985 14.1723 20.1805C13.6642 20.3768 13.0884 20.5993 11.9984 20.5993Z" fill="#B1E4F9"/>
    <path d="M28.0005 24.4764C26.9104 24.4764 26.3345 24.2539 25.8264 24.0576C25.3553 23.8756 24.9103 23.7037 24.0003 23.7037C23.0903 23.7037 22.6453 23.8756 22.1742 24.0576C21.6662 24.2539 21.0903 24.4764 20.0002 24.4764C18.9102 24.4764 18.3343 24.2538 17.8261 24.0576C17.3552 23.8756 16.9101 23.7037 16.0002 23.7037C15.0903 23.7037 14.6454 23.8756 14.1744 24.0576C13.6663 24.2538 13.0905 24.4764 12.0005 24.4764C11.7337 24.4764 11.5176 24.2601 11.5176 23.9935C11.5176 23.7268 11.7337 23.5106 12.0005 23.5106C12.9104 23.5106 13.3553 23.3387 13.8263 23.1567C14.3344 22.9604 14.9102 22.7379 16.0002 22.7379C17.0903 22.7379 17.6661 22.9604 18.1743 23.1567C18.6453 23.3387 19.0903 23.5106 20.0002 23.5106C20.9101 23.5106 21.3551 23.3387 21.8261 23.1567C22.3343 22.9604 22.9102 22.7379 24.0003 22.7379C25.0904 22.7379 25.6663 22.9604 26.1744 23.1567C26.6455 23.3386 27.0906 23.5106 28.0005 23.5106C28.2673 23.5106 28.4834 23.7268 28.4834 23.9935C28.4834 24.2601 28.2673 24.4764 28.0005 24.4764Z" fill="#B1E4F9"/>
    <path d="M28.0004 24.4765C28.2672 24.4765 28.4833 24.2603 28.4833 23.9936C28.4833 23.8867 28.4486 23.7879 28.3898 23.7079C28.2063 23.9795 28.0013 24.2354 27.7773 24.4733C27.8492 24.4754 27.9236 24.4765 28.0004 24.4765Z" fill="#90D8F9"/>
  </g>
  <defs>
    <clipPath id="clip0">
      <rect width="32" height="32" fill="white"/>
    </clipPath>
  </defs>
</svg>
