<svg width="32" height="32" viewBox="0 0 32 32" fill="none" xmlns="http://www.w3.org/2000/svg">
  <g clip-path="url(#clip0)">
    <path d="M4.35832 11.5405H5.56735V15.937H4.35832C3.81205 15.937 3.36914 15.494 3.36914 14.9478V12.5298C3.36908 11.9835 3.81205 11.5405 4.35832 11.5405Z" fill="#CF4737"/>
    <path d="M14.912 6.59473H12.7138C11.4999 6.59473 10.5156 7.57897 10.5156 8.79294V18.6849H17.1103V8.79294C17.1103 7.57897 16.126 6.59473 14.912 6.59473Z" fill="#3E8CC7"/>
    <path d="M16.5605 1.09924L12.2333 1.64876C12.1871 1.82844 12.1641 2.01311 12.1641 2.19829V4.3965C12.1641 5.61047 13.1483 6.59471 14.3623 6.59471C15.5763 6.59471 16.5605 5.61047 16.5605 4.3965V2.19835C16.583 1.83231 16.583 1.46522 16.5605 1.09924Z" fill="#FEC9A3"/>
    <path d="M12.1641 1.64863V3.84684L14.3623 1.64863H16.0109C16.9215 1.64863 17.6595 0.910557 17.6595 0H13.8127C12.9021 0 12.1641 0.73807 12.1641 1.64863Z" fill="#75462E"/>
    <path d="M17.1089 18.6847H10.5143V24.1802L5.56836 26.3784L6.66746 28.5766L11.9091 26.3927C12.7285 26.0515 13.2621 25.2508 13.2621 24.3633V21.9233C13.2621 21.349 13.7276 20.883 14.3024 20.883C14.6783 20.883 15.025 21.0858 15.2091 21.4133L19.8567 29.6758L22.0549 28.5767L17.1089 18.6847Z" fill="#75462E"/>
    <path d="M5.26344 31.2662L3.36914 27.4776L5.56735 26.3785L7.5199 30.2836C7.67432 30.593 7.67432 30.9568 7.5199 31.2662C7.3336 31.6388 6.95275 31.8741 6.53672 31.8741H6.24655C5.83002 31.8741 5.44924 31.6388 5.26344 31.2662Z" fill="#3E8CC7"/>
    <path d="M24.2499 30.2254L20.9526 31.874L19.8535 29.6758L23.1508 28.0272C23.7581 27.7238 24.4961 27.9695 24.7995 28.5767C25.1029 29.184 24.8566 29.922 24.2499 30.2254Z" fill="#3E8CC7"/>
    <path d="M24.6448 10.0474C24.1941 9.44678 23.3412 9.32479 22.7406 9.77538C22.6889 9.81388 22.6406 9.85619 22.595 9.90174L19.8571 12.6396L17.1094 9.34229V13.7387L17.3495 14.0987C18.2365 15.428 20.033 15.7874 21.3629 14.9005C21.5217 14.7945 21.6696 14.6735 21.8042 14.5383L24.5185 11.8241C24.9965 11.3455 25.0504 10.5888 24.6448 10.0474Z" fill="#FEC9A3"/>
    <path d="M12.4091 6.04504H8.31445V7.14415H12.4091C13.2038 7.14471 13.8473 7.78935 13.8468 8.58398C13.8468 8.80103 13.7974 9.01539 13.7028 9.2105L10.2489 16.3217L8.86397 16.4866V17.5857L10.4302 17.3598C10.7912 17.3076 11.1022 17.0801 11.2617 16.752L14.6892 9.69134C15.3014 8.43068 14.7755 6.91223 13.5148 6.30003C13.1703 6.13241 12.7922 6.04561 12.4091 6.04504Z" fill="#75462E"/>
    <path d="M5.56836 16.4867C5.56836 17.3973 6.30643 18.1353 7.21698 18.1353H8.86561C9.77623 18.1353 10.5142 17.3972 10.5142 16.4867V15.9371H5.56836C5.56836 15.9371 5.56836 16.4867 5.56836 16.4867Z" fill="#75462E"/>
    <path d="M10.4189 7.69383C10.1859 7.03494 9.56273 6.59416 8.86366 6.59473H7.21503C6.30441 6.59473 5.56641 7.3328 5.56641 8.24335V15.9371H10.5124V8.24335L10.4189 7.69383Z" fill="#DE4C3C"/>
    <path d="M27.5603 32L28.6309 31.7511L23.1354 8.11949L22.0649 8.36844L27.5603 32Z" fill="#75462E"/>
    <path d="M8.04136 1.6488C6.67571 1.6488 5.56836 2.75616 5.56836 4.12181C5.56836 5.48746 6.67571 6.59481 8.04136 6.59481C9.407 6.59481 10.5144 5.48746 10.5144 4.12181C10.5144 2.75616 9.407 1.6488 8.04136 1.6488ZM8.04136 4.94612C7.58633 4.94612 7.21705 4.57684 7.21705 4.12181C7.21705 3.66678 7.58633 3.29749 8.04136 3.29749C8.49639 3.29749 8.86567 3.66678 8.86567 4.12181C8.86567 4.57684 8.49639 4.94612 8.04136 4.94612Z" fill="#3E8CC7"/>
    <path d="M14.2503 9.10758L11.0629 11.0508L14.7999 13.7387C15.4308 14.1607 15.6 15.0136 15.178 15.6445C15.1648 15.6643 15.1511 15.6835 15.1368 15.7028C14.6993 16.2847 13.8844 16.4243 13.2782 16.0215L8.67787 12.7599C8.10741 12.3785 7.76506 11.7372 7.76563 11.0508C7.76563 10.3644 8.10854 9.7231 8.68006 9.34225L12.7308 6.82475C13.337 6.42191 14.152 6.56152 14.5894 7.14348C15.0428 7.75181 14.9175 8.61243 14.3091 9.06634C14.2899 9.08065 14.2701 9.09439 14.2503 9.10758Z" fill="#FEC9A3"/>
  </g>
  <defs>
    <clipPath id="clip0">
      <rect width="32" height="32" fill="white"/>
    </clipPath>
  </defs>
</svg>
