<?xml version="1.0" encoding="UTF-8"?>
<!DOCTYPE svg PUBLIC "-//W3C//DTD SVG 1.1//EN" "http://www.w3.org/Graphics/SVG/1.1/DTD/svg11.dtd">
<svg xmlns="http://www.w3.org/2000/svg" xml:space="preserve" width="754px" height="810px" version="1.1" style="shape-rendering:geometricPrecision; text-rendering:geometricPrecision; image-rendering:optimizeQuality; fill-rule:evenodd; clip-rule:evenodd"
viewBox="0 0 781 839"
 xmlns:xlink="http://www.w3.org/1999/xlink">
 <defs>
  <style type="text/css">
   <![CDATA[
    .fil2 {fill:#AB9D6D}
    .fil3 {fill:#B5181F}
    .fil1 {fill:#D9EAFA}
    .fil4 {fill:#FDFEFF}
    .fil0 {fill:white}
   ]]>
  </style>
 </defs>
 <g id="Ebene_x0020_1">
  <metadata id="CorelCorpID_0Corel-Layer"/>
  <g id="_1133892192">
   <path class="fil0" d="M460 734l4 -1 9 0 0 52 -13 -1 0 -50zm-54 -1l8 0 4 1 0 39 15 1 1 10 -4 1 -24 0 0 -52zm-96 0l8 0 4 1 0 50 -4 1 -8 0 0 -52zm38 0c9,0 24,0 32,1l0 10 -10 0 0 41 -12 -1 0 -40 -10 0 0 -11zm-96 0c8,0 24,0 31,1l0 10 -9 0 0 41 -13 0 0 -41 -9 0 0 -11zm271 12c-2,0 -8,-4 -10,0 -2,8 18,11 16,28 -1,16 -19,14 -31,8 1,-4 4,-5 5,-9 5,1 8,5 13,1 5,-8 -16,-11 -16,-26 -1,-16 16,-16 28,-12l-5 10zm-159 -94l54 0c2,5 0,15 0,21l326 0 0 12 -325 0c-1,6 1,17 -1,22l-54 0c-3,-5 -1,-16 -1,-22l-326 0 0 -12 327 0c-1,-6 -3,-16 0,-21zm-1 -122l23 0 0 76 30 0 0 21 -53 0 0 -97zm-229 97l-21 0 0 -98c6,0 5,1 12,10 3,4 26,33 29,35 0,-9 -1,-37 1,-44l20 0 0 98c-7,-1 -14,-13 -21,-21 -7,-8 -13,-16 -20,-24l0 44zm511 -30c3,9 12,21 13,30 -27,0 -22,3 -29,-13 -4,-9 -3,-10 -12,-10l0 22 -23 0c-1,-24 1,-62 0,-89 0,-9 -2,-7 23,-7 19,0 33,5 38,21 3,7 4,18 2,26 -2,11 -6,14 -12,20zm-163 -24c23,6 27,50 -14,53 -8,1 -23,1 -32,0l-1 -96c21,-3 60,-3 59,26 -1,11 -6,12 -12,17zm60 3l23 0 0 18 -23 1 1 12 29 0 0 20 -52 0c-2,-24 0,-51 0,-75 0,-26 -4,-22 14,-22 12,0 24,0 37,0l0 19 -28 0 -1 27zm-231 0l23 0 0 18 -23 1 1 12 29 0 0 20 -52 0c-2,-24 0,-51 0,-75 0,-26 -4,-22 14,-22 12,0 24,0 36,0l1 19 -28 0 -1 27zm-250 0l23 0 0 19 -23 0 0 12 30 0 0 20 -52 0 0 -97 51 0 0 19 -28 0 -1 27zm684 42c-13,9 -31,14 -49,5 -13,-7 -20,-22 -20,-42 -1,-32 11,-53 42,-52 13,0 15,4 24,7l-11 16c-2,2 0,0 -2,2 -18,-12 -29,1 -29,21 -1,19 3,37 24,32l0 -12 -11 -1 0 -18 32 0 0 42zm-480 1c-7,3 -11,8 -23,9 -9,0 -18,-2 -25,-5 -13,-8 -20,-22 -20,-43 -1,-50 36,-62 66,-43 -2,4 -10,13 -13,17 -5,-5 -14,-6 -21,-2 -11,8 -10,38 -4,48 4,7 10,9 20,7l0 -13 -11 0 0 -18 32 0 -1 43zm-225 -162c-4,-1 -2,2 -3,-4l0 -347c0,-31 11,-48 29,-59 20,-13 53,-9 79,-9l528 0c32,0 48,8 61,27 14,20 10,51 10,78 0,12 1,159 0,171l-1 3c0,0 0,1 0,1 -11,17 -29,27 -52,35 -136,45 -257,-104 -404,-98 -15,1 -58,8 -69,17 5,5 11,9 16,13 14,12 30,27 41,42 9,10 16,19 24,32 6,9 17,25 20,35 -28,-3 -56,-4 -85,-3 -29,1 -47,4 -73,14 -37,14 -62,34 -87,43 -12,5 -21,6 -34,9zm-40 -358l0 643c0,31 6,52 21,68 5,6 1,2 8,8 15,12 29,22 53,22l617 0c24,0 40,-11 55,-23 3,-2 4,-4 6,-7 15,-16 21,-37 21,-68l0 -643c0,-31 -6,-52 -21,-68 -10,-10 -11,-12 -25,-20 -7,-5 -24,-10 -36,-10l-617 0c-12,0 -28,5 -35,9 -4,3 -11,6 -14,9 -23,21 -33,39 -33,80z"/>
   <path class="fil1" d="M40 456c2,-2 21,-12 26,-15 29,-17 46,-33 76,-51 42,-24 90,-26 143,-20 -3,-12 -60,-75 -81,-86l-2 59c-2,-3 -5,-16 -6,-20 -2,-7 -4,-13 -6,-20 -2,-7 -3,-13 -5,-20 -5,-18 -10,-23 34,-39 73,-26 152,-9 217,18 54,23 91,49 141,69 28,12 54,18 89,13 23,-4 40,-11 60,-19 3,-2 6,-3 9,-5 1,0 3,-1 4,-2l4 -1c0,0 0,-1 0,-1l1 -3c1,-12 0,-159 0,-171 0,-27 4,-58 -10,-78 -13,-19 -29,-27 -61,-27l-528 0c-26,0 -59,-4 -79,9 -18,11 -29,28 -29,59l0 347c1,6 -1,3 3,4z"/>
   <path class="fil2" d="M40 456c13,-3 22,-4 34,-9 25,-9 50,-29 87,-43 26,-10 44,-13 73,-14 29,-1 57,0 85,3 -3,-10 -14,-26 -20,-35 -8,-13 -15,-22 -24,-32 -11,-15 -27,-30 -41,-42 -5,-4 -11,-8 -16,-13 11,-9 54,-16 69,-17 147,-6 268,143 404,98 23,-8 41,-18 52,-35l-4 1c-1,1 -3,2 -4,2 -3,2 -6,3 -9,5 -20,8 -37,15 -60,19 -35,5 -61,-1 -89,-13 -50,-20 -87,-46 -141,-69 -65,-27 -144,-44 -217,-18 -44,16 -39,21 -34,39 2,7 3,13 5,20 2,7 4,13 6,20 1,4 4,17 6,20l2 -59c21,11 78,74 81,86 -53,-6 -101,-4 -143,20 -30,18 -47,34 -76,51 -5,3 -24,13 -26,15z"/>
   <path class="fil2" d="M617 549l4 0c10,0 14,7 14,17l0 1c0,13 -6,16 -18,16l0 -34zm28 47c6,-6 10,-9 12,-20 2,-8 1,-19 -2,-26 -5,-16 -19,-21 -38,-21 -25,0 -23,-2 -23,7 1,27 -1,65 0,89l23 0 0 -22c9,0 8,1 12,10 7,16 2,13 29,13 -1,-9 -10,-21 -13,-30z"/>
   <path class="fil2" d="M457 583c10,-1 19,0 19,12 0,10 -9,12 -19,11l0 -23zm0 -35c8,0 13,0 14,6 2,8 -3,12 -10,11l-4 0 0 -17zm25 24c6,-5 11,-6 12,-17 1,-29 -38,-29 -59,-26l1 96c9,1 24,1 32,0 41,-3 37,-47 14,-53z"/>
   <path class="fil2" d="M134 582c7,8 13,16 20,24 7,8 14,20 21,21l0 -98 -20 0c-2,7 -1,35 -1,44 -3,-2 -26,-31 -29,-35 -7,-9 -6,-10 -12,-10l0 98 21 0 0 -44z"/>
   <path class="fil2" d="M265 618l1 -43 -32 0 0 18 11 0 0 13c-10,2 -16,0 -20,-7 -6,-10 -7,-40 4,-48 7,-4 16,-3 21,2 3,-4 11,-13 13,-17 -30,-19 -67,-7 -66,43 0,21 7,35 20,43 7,3 16,5 25,5 12,-1 16,-6 23,-9z"/>
   <path class="fil2" d="M745 617l0 -42 -32 0 0 18 11 1 0 12c-21,5 -25,-13 -24,-32 0,-20 11,-33 29,-21 2,-2 0,0 2,-2l11 -16c-9,-3 -11,-7 -24,-7 -31,-1 -43,20 -42,52 0,20 7,35 20,42 18,9 36,4 49,-5z"/>
   <path class="fil2" d="M543 548l28 0 0 -19c-13,0 -25,0 -37,0 -18,0 -14,-4 -14,22 0,24 -2,51 0,75l52 0 0 -20 -29 0 -1 -12 23 -1 0 -18 -23 0 1 -27z"/>
   <path class="fil2" d="M312 548l28 0 -1 -19c-12,0 -24,0 -36,0 -18,0 -14,-4 -14,22 0,24 -2,51 0,75l52 0 0 -20 -29 0 -1 -12 23 -1 0 -18 -23 0 1 -27z"/>
   <polygon class="fil2" points="62,548 90,548 90,529 39,529 39,626 91,626 91,606 61,606 61,594 84,594 84,575 61,575 "/>
   <path class="fil2" d="M418 706c2,-5 0,-16 1,-22l325 0 0 -12 -326 0c0,-6 2,-16 0,-21l0 55z"/>
   <path class="fil2" d="M364 706l0 -55c-3,5 -1,15 0,21l-327 0 0 12 326 0c0,6 -2,17 1,22z"/>
   <polygon class="fil2" points="363,626 416,626 416,605 386,605 386,529 363,529 "/>
   <path class="fil3" d="M385 662l11 0 0 10 11 0 0 12 -11 0 0 10 -11 0 0 -10 -11 0 0 -11 11 -1 0 -10zm-21 44l54 0 0 -55 -54 0 0 55z"/>
   <path class="fil2" d="M528 735c-12,-4 -29,-4 -28,12 0,15 21,18 16,26 -5,4 -8,0 -13,-1 -1,4 -4,5 -5,9 12,6 30,8 31,-8 2,-17 -18,-20 -16,-28 2,-4 8,0 10,0l5 -10z"/>
   <path class="fil2" d="M261 744l0 41 13 0 0 -41 9 0 0 -10c-7,-1 -23,-1 -31,-1l0 11 9 0z"/>
   <path class="fil2" d="M358 744l0 40 12 1 0 -41 10 0 0 -10c-8,-1 -23,-1 -32,-1l0 11 10 0z"/>
   <polygon class="fil2" points="406,785 430,785 434,784 433,774 418,773 418,734 414,733 406,733 "/>
   <polygon class="fil2" points="310,785 318,785 322,784 322,734 318,733 310,733 "/>
   <polygon class="fil2" points="460,784 473,785 473,733 464,733 460,734 "/>
   <polygon class="fil4" points="385,672 374,673 374,684 385,684 385,694 396,694 396,684 407,684 407,672 396,672 396,662 385,662 "/>
   <path class="fil4" d="M617 583c12,0 18,-3 18,-16l0 -1c0,-10 -4,-17 -14,-17l-4 0 0 34z"/>
   <path class="fil4" d="M457 606c10,1 19,-1 19,-11 0,-12 -9,-13 -19,-12l0 23z"/>
   <path class="fil4" d="M457 565l4 0c7,1 12,-3 10,-11 -1,-6 -6,-6 -14,-6l0 17z"/>
  </g>
 </g>
</svg>
