<svg width="33" height="32" viewBox="0 0 33 32" fill="none" xmlns="http://www.w3.org/2000/svg">
<g clip-path="url(#clip0)">
<path d="M5.66659 2.00043H2.11103C1.63953 2.00043 1.18735 2.18773 0.853951 2.52113C0.520553 2.85452 0.333252 3.30671 0.333252 3.77821L0.333252 7.33376H7.44436V3.77821C7.44436 3.30671 7.25706 2.85452 6.92366 2.52113C6.59027 2.18773 6.13808 2.00043 5.66659 2.00043V2.00043ZM0.333252 23.3338H7.44436V9.11154H0.333252V23.3338ZM0.333252 28.6671C0.333252 29.1386 0.520553 29.5908 0.853951 29.9242C1.18735 30.2576 1.63953 30.4449 2.11103 30.4449H5.66659C6.13808 30.4449 6.59027 30.2576 6.92366 29.9242C7.25706 29.5908 7.44436 29.1386 7.44436 28.6671V25.1115H0.333252V28.6671ZM28.8677 27.6793L22.6155 4.3732L19.2677 5.26987L25.5094 28.5365C25.5155 28.5582 25.5205 28.5804 25.5255 28.6021L28.8749 27.7049C28.8727 27.6965 28.8699 27.6882 28.8677 27.6793ZM9.22214 28.6671C9.22214 29.1386 9.40944 29.5908 9.74284 29.9242C10.0762 30.2576 10.5284 30.4449 10.9999 30.4449H14.5555C15.027 30.4449 15.4792 30.2576 15.8126 29.9242C16.146 29.5908 16.3333 29.1386 16.3333 28.6671V25.1115H9.22214V28.6671ZM14.5555 2.00043H10.9999C10.5284 2.00043 10.0762 2.18773 9.74284 2.52113C9.40944 2.85452 9.22214 3.30671 9.22214 3.77821V7.33376H16.1549L15.7105 5.68654C15.6338 5.40308 15.6531 5.10222 15.7654 4.83089C15.8776 4.55955 16.0765 4.33299 16.331 4.18654V3.77821C16.331 3.30709 16.144 2.85525 15.8111 2.52191C15.4782 2.18858 15.0266 2.00102 14.5555 2.00043V2.00043ZM9.22214 23.3338H16.3333V9.11154H9.22214V23.3338Z" fill="#003049"/>
<path d="M0.333252 25.1115H7.44436V23.3337H0.333252V25.1115ZM0.333252 9.11152H7.44436V7.33374H0.333252V9.11152ZM32.2871 26.7587L25.9105 2.98819C25.8206 2.64806 25.5994 2.35752 25.2954 2.18043C24.9914 2.00333 24.6296 1.95417 24.2894 2.04374H24.2844L23.4294 2.27819C23.0889 2.37058 22.799 2.5941 22.623 2.89982C22.447 3.20553 22.3994 3.56852 22.4905 3.9093L28.8677 27.6793C28.9576 28.0194 29.1788 28.31 29.4828 28.4871C29.7867 28.6642 30.1486 28.7133 30.4888 28.6237H30.4938L31.3483 28.3893C31.6886 28.2969 31.9784 28.0735 32.1544 27.7679C32.3303 27.4623 32.3781 27.0994 32.2871 26.7587ZM9.22214 25.1115H16.3333V23.3337H9.22214V25.1115ZM19.1327 4.76597C19.0428 4.42584 18.8216 4.1353 18.5176 3.95821C18.2136 3.78111 17.8518 3.73195 17.5116 3.82152H17.5066L16.6516 4.05597C16.3112 4.14835 16.0212 4.37188 15.8452 4.67759C15.6693 4.98331 15.6216 5.3463 15.7127 5.68708L16.1571 7.3343H9.22214V9.11208H16.3333V8.00041L22.0899 29.4571C22.1798 29.7972 22.401 30.0877 22.705 30.2648C23.009 30.4419 23.3708 30.4911 23.711 30.4015H23.716L24.5705 30.1671C24.9105 30.0747 25.2002 29.8514 25.3761 29.5461C25.552 29.2407 25.6 28.8782 25.5094 28.5376L19.1327 4.76597Z" fill="#FE504F"/>
</g>
<defs>
<clipPath id="clip0">
<rect width="32" height="32" fill="white" transform="translate(0.333252)"/>
</clipPath>
</defs>
</svg>
