<svg width="32" height="32" viewBox="0 0 32 32" fill="none" xmlns="http://www.w3.org/2000/svg">
<g clip-path="url(#clip0)">
<path d="M31.8256 17.1875C30.5169 14.2425 28.7981 7.70438 27.2581 5.51562C26.0584 3.81181 24.4667 2.42135 22.6172 1.46144C20.7676 0.501533 18.7144 0.000304471 16.6306 0L12 0C5.375 0 1.88922e-07 5.375 1.88922e-07 12C-0.00029949 13.6858 0.355929 15.3526 1.0453 16.8909C1.73468 18.4293 2.74161 19.8045 4 20.9263V32H20V28H24C25.0609 28 26.0783 27.5786 26.8284 26.8284C27.5786 26.0783 28 25.0609 28 24V20H30C30.3331 19.9997 30.6608 19.9162 30.9534 19.7571C31.2461 19.598 31.4943 19.3683 31.6757 19.0889C31.857 18.8095 31.9657 18.4893 31.9919 18.1572C32.0181 17.8252 31.9609 17.4919 31.8256 17.1875ZM21 13H17.8162C17.9345 13.3203 17.9967 13.6586 18 14C18 14.7956 17.6839 15.5587 17.1213 16.1213C16.5587 16.6839 15.7956 17 15 17C14.6586 16.9967 14.3203 16.9345 14 16.8162V20H10V16.8162C9.67971 16.9345 9.34142 16.9967 9 17C8.20435 17 7.44129 16.6839 6.87868 16.1213C6.31607 15.5587 6 14.7956 6 14C6 13.9375 6.01438 13.8819 6.01813 13.8219C5.34811 13.5911 4.78172 13.1301 4.41981 12.5208C4.0579 11.9115 3.92394 11.1936 4.04179 10.4948C4.15964 9.79605 4.52165 9.16177 5.06337 8.70491C5.60509 8.24804 6.29136 7.99825 7 8C7 7.20435 7.31607 6.44129 7.87868 5.87868C8.44129 5.31607 9.20435 5 10 5C10.5167 5.00289 11.0237 5.14078 11.4706 5.4C11.7391 4.97152 12.1121 4.61827 12.5545 4.37341C12.997 4.12854 13.4943 4.00008 14 4.00008C14.5057 4.00008 15.003 4.12854 15.4455 4.37341C15.8879 4.61827 16.2609 4.97152 16.5294 5.4C16.9078 5.18043 17.3302 5.04746 17.7662 5.01064C18.2022 4.97382 18.6409 5.03408 19.0509 5.18708C19.4608 5.34007 19.8317 5.582 20.137 5.89547C20.4422 6.20894 20.6742 6.58616 20.8162 7H21C21.7956 7 22.5587 7.31607 23.1213 7.87868C23.6839 8.44129 24 9.20435 24 10C24 10.7956 23.6839 11.5587 23.1213 12.1213C22.5587 12.6839 21.7956 13 21 13Z" fill="#003049"/>
<path d="M4.16307 10.0181C4.36642 9.42789 4.74922 8.91603 5.2579 8.55416C5.76658 8.19229 6.37568 7.99852 6.99994 7.99998C6.99994 7.20433 7.31601 6.44127 7.87862 5.87866C8.44123 5.31605 9.20429 4.99998 9.99994 4.99998C10.5166 5.00287 11.0236 5.14076 11.4706 5.39998C11.7391 4.9715 12.112 4.61825 12.5545 4.37339C12.9969 4.12852 13.4943 4.00006 13.9999 4.00006C14.5056 4.00006 15.003 4.12852 15.4454 4.37339C15.8878 4.61825 16.2608 4.9715 16.5293 5.39998C16.9078 5.18041 17.3302 5.04744 17.7662 5.01062C18.2022 4.9738 18.6409 5.03406 19.0508 5.18705C19.4607 5.34005 19.8317 5.58198 20.1369 5.89545C20.4422 6.20892 20.6741 6.58614 20.8162 6.99998H20.9999C21.7956 6.99998 22.5587 7.31605 23.1213 7.87866C23.6839 8.44127 23.9999 9.20433 23.9999 9.99998C23.9999 10.7956 23.6839 11.5587 23.1213 12.1213C22.5587 12.6839 21.7956 13 20.9999 13H17.8162C17.9345 13.3203 17.9967 13.6586 17.9999 14C17.9999 14.7956 17.6839 15.5587 17.1213 16.1213C16.5587 16.6839 15.7956 17 14.9999 17C14.6585 16.9967 14.3202 16.9345 13.9999 16.8162V20H9.99994V16.8162C9.67965 16.9345 9.34136 16.9967 8.99994 17C8.20429 17 7.44123 16.6839 6.87862 16.1213C6.31601 15.5587 5.99994 14.7956 5.99994 14C5.99994 13.9375 6.01432 13.8819 6.01807 13.8219C5.26768 13.5634 4.65068 13.0175 4.3028 12.3042C3.95492 11.5908 3.90466 10.7685 4.16307 10.0181Z" fill="#FE504F"/>
</g>
<defs>
<clipPath id="clip0">
<rect width="32" height="32" fill="white"/>
</clipPath>
</defs>
</svg>
