<svg width="79" height="73" viewBox="0 0 79 73" fill="none" xmlns="http://www.w3.org/2000/svg">
<path d="M57.4579 58.3422V66.8838C57.4611 67.6768 57.2987 68.4617 56.981 69.1882C56.6634 69.9148 56.1974 70.567 55.6131 71.103C55.0288 71.6391 54.339 72.0472 53.5878 72.3012C52.8367 72.5553 52.0407 72.6496 51.251 72.5783C42.4896 71.6263 34.0737 68.6324 26.6794 63.8373C19.8001 59.4659 13.9676 53.6333 9.59611 46.754C4.78425 39.3261 1.78972 30.8693 0.855141 22.0685C0.783991 21.2812 0.877563 20.4877 1.1299 19.7385C1.38224 18.9892 1.78781 18.3008 2.32079 17.7169C2.85378 17.133 3.5025 16.6665 4.22566 16.3471C4.94881 16.0277 5.73056 15.8623 6.52111 15.8616H15.0628C16.4446 15.848 17.7841 16.3373 18.8318 17.2383C19.8795 18.1393 20.5638 19.3906 20.7572 20.7588C21.1177 23.4923 21.7864 26.1763 22.7503 28.7595C23.1334 29.7786 23.2163 30.8862 22.9892 31.9509C22.7621 33.0157 22.2345 33.993 21.469 34.7672L17.8531 38.3831C21.9062 45.5113 27.8082 51.4133 34.9364 55.4665L38.5524 51.8505C39.3265 51.085 40.3038 50.5574 41.3686 50.3303C42.4334 50.1033 43.5409 50.1862 44.56 50.5692C47.1432 51.5332 49.8272 52.2018 52.5607 52.5623C53.9438 52.7574 55.2069 53.4541 56.1098 54.5197C57.0128 55.5854 57.4926 56.9458 57.4579 58.3422Z" fill="#FE504F"/>
<path fill-rule="evenodd" clip-rule="evenodd" d="M43.151 0.166992C33.9463 0.166992 26.4844 7.62892 26.4844 16.8337C26.4844 25.1887 32.6323 32.1079 40.6511 33.3141V39.1743C40.6511 41.847 43.8825 43.1856 45.7724 41.2957L53.5677 33.5003H62.3177C71.5224 33.5003 78.9844 26.0384 78.9844 16.8337C78.9844 7.62892 71.5224 0.166992 62.3177 0.166992H43.151Z" fill="#003049"/>
<ellipse cx="62.3203" cy="16.834" rx="2.49999" ry="2.5" fill="white"/>
<ellipse cx="52.3203" cy="16.834" rx="2.5" ry="2.5" fill="white"/>
<ellipse cx="42.3203" cy="16.834" rx="2.5" ry="2.5" fill="white"/>
</svg>
