<svg width="33" height="32" viewBox="0 0 33 32" fill="none" xmlns="http://www.w3.org/2000/svg">
<g clip-path="url(#clip0)">
<path d="M32.6665 9.995V19.585C32.6665 19.7972 32.5822 20.0007 32.4322 20.1507C32.2822 20.3007 32.0787 20.385 31.8665 20.385H26.9865C26.8543 19.6412 26.4606 18.9691 25.8765 18.49L18.5965 12.58L19.9015 11.385C20.0527 11.2405 20.1413 11.0425 20.1483 10.8334C20.1552 10.6243 20.0801 10.4209 19.9388 10.2666C19.7976 10.1123 19.6016 10.0194 19.3927 10.0079C19.1839 9.9964 18.9788 10.0671 18.8215 10.205L17.4715 11.44L14.8215 13.865C14.8165 13.87 14.8065 13.87 14.8015 13.875C13.7465 14.82 12.4765 14.265 11.9965 13.74C11.6399 13.3544 11.4507 12.8431 11.4704 12.3183C11.4901 11.7935 11.717 11.2978 12.1015 10.94C12.1065 10.935 12.1115 10.925 12.1165 10.92L17.0315 6.42C17.3263 6.14997 17.7116 6.00014 18.1115 6H22.4065C22.6165 6.0002 22.8244 6.04181 23.0183 6.12246C23.2122 6.20311 23.3883 6.32121 23.5365 6.47L26.2665 9.2H31.8665C32.0778 9.2 32.2805 9.28359 32.4304 9.43254C32.5803 9.58149 32.6652 9.78369 32.6665 9.995Z" fill="#003049"/>
<path d="M0.666748 19.595V10C0.666748 9.78783 0.751034 9.58434 0.901063 9.43431C1.05109 9.28429 1.25458 9.2 1.46675 9.2H7.06676L9.80176 6.47C9.94996 6.32121 10.126 6.20311 10.32 6.12246C10.5139 6.04181 10.7218 6.0002 10.9318 6H15.1218L11.0318 9.745C10.3285 10.3903 9.91029 11.2884 9.86903 12.242C9.82778 13.1955 10.1669 14.1264 10.8118 14.83C11.5568 15.645 13.8668 16.905 15.8968 15.05L17.3968 13.675L24.8618 19.735C25.1913 20.0036 25.4006 20.392 25.4437 20.8149C25.4869 21.2378 25.3603 21.6604 25.0918 21.99L24.6168 22.575C24.3495 22.9044 23.9624 23.1143 23.5404 23.1583C23.1185 23.2024 22.6963 23.0771 22.3668 22.81L22.0968 22.59L20.5268 24.52C20.3729 24.7095 20.1831 24.8669 19.9684 24.983C19.7536 25.0992 19.5181 25.1719 19.2752 25.197C19.0324 25.222 18.7869 25.199 18.553 25.1292C18.319 25.0593 18.1012 24.9441 17.9118 24.79L17.0168 24.015L17.0068 24.025C16.4715 24.6832 15.6969 25.1018 14.853 25.189C14.0092 25.2762 13.1653 25.0248 12.5068 24.49L7.98176 20.395H1.46675C1.25458 20.395 1.05109 20.3107 0.901063 20.1607C0.751034 20.0107 0.666748 19.8072 0.666748 19.595Z" fill="#FE504F"/>
</g>
<defs>
<clipPath id="clip0">
<rect width="32" height="32" fill="white" transform="translate(0.666748)"/>
</clipPath>
</defs>
</svg>
