<svg width="32" height="32" viewBox="0 0 32 32" fill="none" xmlns="http://www.w3.org/2000/svg">
<path d="M30.4 6.20007C29.9757 6.20007 29.5687 6.36864 29.2686 6.6687C28.9686 6.96876 28.8 7.37573 28.8 7.80008V15.2201L24.31 20.6101C24.2387 20.6952 24.1505 20.7645 24.051 20.8138C23.9515 20.863 23.8429 20.8911 23.7321 20.8963C23.6212 20.9015 23.5104 20.8836 23.4068 20.8438C23.3032 20.804 23.2089 20.7431 23.13 20.6651L22.49 20.0251C22.3539 19.889 22.2714 19.7085 22.2576 19.5166C22.2439 19.3246 22.2997 19.1342 22.415 18.9801L24.32 16.4401C24.4461 16.272 24.5378 16.0807 24.5899 15.8772C24.6421 15.6736 24.6536 15.4618 24.6239 15.2538C24.5942 15.0458 24.5238 14.8457 24.4168 14.6649C24.3097 14.4841 24.1681 14.3262 24 14.2001C23.8319 14.074 23.6406 13.9823 23.4371 13.9301C23.2335 13.878 23.0217 13.8664 22.8137 13.8962C22.6057 13.9259 22.4056 13.9963 22.2248 14.1033C22.044 14.2104 21.8861 14.352 21.76 14.5201L18.88 18.3601C18.0498 19.4682 17.6007 20.8154 17.6 22.2001V27.8001C17.6 28.0123 17.6843 28.2158 17.8343 28.3658C17.9843 28.5158 18.1878 28.6001 18.4 28.6001H24.985C25.1586 28.6012 25.3277 28.5449 25.466 28.44C25.6044 28.3352 25.7042 28.1875 25.75 28.0201C25.8479 27.6269 26.0248 27.2577 26.27 26.9351L31.475 20.2201C31.8151 19.7941 32.0002 19.2652 32 18.7201V7.80008C32 7.37573 31.8314 6.96876 31.5314 6.6687C31.2313 6.36864 30.8243 6.20007 30.4 6.20007ZM10.24 14.5211C10.1139 14.353 9.95599 14.2114 9.77519 14.1043C9.59439 13.9973 9.39428 13.9269 9.18627 13.8972C8.97827 13.8674 8.76645 13.879 8.56291 13.9311C8.35937 13.9833 8.16809 14.075 8 14.2011C7.83191 14.3272 7.69029 14.4851 7.58324 14.6659C7.47619 14.8467 7.4058 15.0468 7.37608 15.2548C7.34637 15.4628 7.35791 15.6746 7.41006 15.8782C7.4622 16.0817 7.55393 16.273 7.68 16.4411L9.585 18.9811C9.70027 19.1352 9.75614 19.3256 9.74236 19.5176C9.72859 19.7095 9.64609 19.89 9.51 20.0261L8.87 20.6661C8.79168 20.7453 8.6976 20.8071 8.59386 20.8476C8.49011 20.8881 8.37901 20.9064 8.26776 20.9012C8.15651 20.896 8.04759 20.8675 7.94806 20.8175C7.84853 20.7675 7.76061 20.6972 7.69 20.6111L3.2 15.2211V7.80008C3.2 7.37573 3.03143 6.96876 2.73137 6.6687C2.43131 6.36864 2.02435 6.20007 1.6 6.20007C1.17565 6.20007 0.768688 6.36864 0.468629 6.6687C0.168571 6.96876 2.08311e-07 7.37573 2.08311e-07 7.80008V18.7201C-0.000226688 19.2652 0.184907 19.7941 0.525 20.2201L5.73 26.9351C5.97519 27.2577 6.15212 27.6269 6.25 28.0201C6.29513 28.1879 6.39478 28.336 6.53327 28.441C6.67175 28.546 6.84122 28.602 7.015 28.6001H13.6C13.8122 28.6001 14.0157 28.5158 14.1657 28.3658C14.3157 28.2158 14.4 28.0123 14.4 27.8001V22.2001C14.3993 20.8154 13.9502 19.4682 13.12 18.3601L10.24 14.5211Z" fill="#003049"/>
<path d="M9.92007 9.81608C8.34007 8.15608 8.43507 5.40608 10.2001 3.87608C11.7401 2.54108 14.0351 2.78108 15.4451 4.26608L16.0001 4.84608L16.5551 4.26108C17.9651 2.78108 20.2601 2.54108 21.8001 3.87608C23.5701 5.40608 23.6601 8.15608 22.0851 9.81608L16.6401 15.5261C16.5586 15.6136 16.4599 15.6835 16.3502 15.7312C16.2405 15.7789 16.1222 15.8036 16.0026 15.8036C15.883 15.8036 15.7646 15.7789 15.6549 15.7312C15.5453 15.6835 15.4466 15.6136 15.3651 15.5261L9.92007 9.81608Z" fill="#FE504F"/>
</svg>
