<svg fill="#000000" xmlns="http://www.w3.org/2000/svg"  viewBox="0 0 512 512" width="128px" height="128px"><path d="M 408.85547 4.875 A 51.48 51.48 0 0 0 371.69922 19.939453 L 207 184.64062 A 6.0033366 6.0033366 0 0 0 215.49023 193.13086 L 380.18945 28.429688 A 39.46 39.46 0 0 1 436 28.429688 L 483.57031 75.990234 A 39.47 39.47 0 0 1 483.57031 131.81055 L 131.82031 483.57031 A 39.51 39.51 0 0 1 76 483.57031 L 28.429688 436 A 39.45 39.45 0 0 1 28.429688 380.17969 L 168.66992 239.93945 A 6.0033366 6.0033366 0 1 0 160.17969 231.44922 L 19.939453 371.68945 A 51.47 51.47 0 0 0 19.939453 444.49023 L 67.509766 492.06055 A 51.35 51.35 0 0 0 103.91016 507.10938 A 51.35 51.35 0 0 0 140.31055 492.06055 L 492.06055 140.30078 A 51.5 51.5 0 0 0 492.06055 67.5 L 444.49023 19.939453 A 51.48 51.48 0 0 0 408.85547 4.875 z M 421.70898 37.523438 C 417.48023 37.528437 413.42414 38.155625 409.61914 39.390625 C 402.00914 41.860625 393.54977 47.819141 383.75977 57.619141 L 376 65.369141 A 14.86 14.86 0 0 0 372.55469 80.912109 A 14 14 0 0 0 357.39062 84 L 335.39062 106 A 14.84 14.84 0 0 0 331.22852 118.77539 A 14.073127 14.073127 0 0 0 316 138.61914 L 334.64062 178.26953 L 295.23047 159.48047 A 14.08 14.08 0 0 0 279.23047 162.23047 L 279.17969 162.23047 A 14.08 14.08 0 0 0 281.63281 184.06836 C 279.82041 183.8867 277.97632 183.78906 276.09961 183.78906 L 275.91992 183.78906 A 49.55 49.55 0 0 0 239.64062 198.66992 A 52.14 52.14 0 0 0 227.61133 253.30664 A 32.4 32.4 0 0 0 214.59961 246.68945 A 27.11 27.11 0 0 0 197.85938 247.90039 C 192.92938 249.90039 186.89062 254.5293 179.39062 262.0293 L 172.48047 268.93945 A 14 14 0 0 0 172.48047 288.65039 L 173.76758 289.9375 A 32.51 32.51 0 0 0 171.99023 289.39062 A 27.08 27.08 0 0 0 155.16016 290.68945 C 150.12016 292.78945 144.07039 297.36906 136.65039 304.78906 L 130.48047 310.94922 A 15 15 0 0 0 129.54688 331.16016 A 27.06 27.06 0 0 0 113.25 332.58008 C 108.21 334.68008 102.15047 339.26969 94.730469 346.67969 L 88.910156 352.50977 A 15.51 15.51 0 0 0 88.910156 374.41992 L 128.21094 413.7207 L 70.150391 387.90039 A 18.45 18.45 0 0 0 49.730469 391.68945 A 18.44 18.44 0 0 0 45.929688 412.09961 L 75.839844 479.59961 A 14 14 0 0 0 88.759766 488 L 88.720703 487.93945 A 14.12 14.12 0 0 0 101.7207 468.19922 L 97.800781 459.19922 L 117.33008 439.68945 L 126.10938 443.64062 A 14.1 14.1 0 0 0 145.9082 427.8418 A 14.32 14.32 0 0 0 148.53906 428.08984 A 14.35 14.35 0 0 0 158.68945 403.58984 L 142.48047 387.38086 C 146.58047 383.02086 149.30078 379.60016 150.80078 376.91016 A 30.92 30.92 0 0 0 154.73047 358.09961 C 154.65141 357.43326 154.54153 356.77435 154.41406 356.11914 L 180.30078 382 A 14.27 14.27 0 0 0 190.44922 386.17969 A 14.36 14.36 0 0 0 200.59961 361.66992 L 184.40039 345.4707 C 188.50039 341.1007 191.22094 337.67 192.71094 335 A 31 31 0 0 0 196.64062 316.19922 C 196.4713 314.75548 196.18087 313.33849 195.7832 311.94727 L 223.06055 339.2207 A 14.3 14.3 0 0 0 233.21094 343.41992 L 233.24023 343.41992 A 14.35 14.35 0 0 0 243.39062 318.91992 L 238 313.5293 L 253.69922 318.31055 A 14.06 14.06 0 1 0 261.91992 291.41992 L 238.75977 284.35938 A 0.25 0.25 0 0 1 238.57031 284.10938 A 28.23 28.23 0 0 0 239.23047 272.10938 C 239.2104 271.99037 239.17598 271.87451 239.1543 271.75586 A 52.14 52.14 0 0 0 276.15039 287.60938 L 277.36914 287.60938 C 291.11914 287.60938 303.25094 282.45906 313.46094 272.28906 A 49.59 49.59 0 0 0 328.50977 235.91016 C 328.45977 221.81016 323.39961 209.58031 313.09961 199.32031 C 313.01601 199.23704 312.92958 199.16074 312.8457 199.07812 L 349.56055 216.58984 A 17.39 17.39 0 0 0 357.05078 218.28906 L 357.08008 218.2793 A 17.44 17.44 0 0 0 372.88086 193.41992 L 347.18945 138.79883 L 385 176.60938 A 14.8 14.8 0 0 0 395.5 180.93945 A 14.8 14.8 0 0 0 406 176.60938 L 427.82031 154.74023 A 14.21 14.21 0 0 0 430.53125 139.23242 A 14.74 14.74 0 0 0 436.11914 140.31055 A 14.77 14.77 0 0 0 446.55078 135.99023 L 454.55078 127.99023 C 463.10078 119.44023 468.50078 112.92031 471.05078 108.07031 A 38.81 38.81 0 0 0 475.33984 90.869141 A 44.83 44.83 0 0 0 471.44922 71.75 A 56.4 56.4 0 0 0 459.38086 54.320312 C 451.94086 46.880312 443.83984 41.900625 434.83984 39.390625 C 430.33984 38.135625 425.93773 37.518438 421.70898 37.523438 z M 421.78906 49.509766 A 36.54 36.54 0 0 1 431.66016 50.960938 C 438.50016 52.870937 444.93945 56.810547 450.93945 62.810547 A 44.4 44.4 0 0 1 460.48047 76.519531 A 33 33 0 0 1 463.40039 90.519531 A 27.13 27.13 0 0 1 460.48047 102.4707 C 459.12047 105.0007 455.54914 110.0307 446.11914 119.4707 L 438.11914 127.4707 A 2.84 2.84 0 0 1 434.11914 127.4707 L 384.51953 77.869141 A 2.84 2.84 0 0 1 384.51953 73.869141 L 392.26953 66.119141 C 400.57953 57.819141 407.66938 52.660313 413.35938 50.820312 A 26.89 26.89 0 0 1 421.78906 49.509766 z M 422.01953 54.429688 C 413.82953 54.499687 405.38969 58.819063 396.92969 67.289062 L 396.59961 67.609375 A 11.23 11.23 0 0 0 396.59961 83.470703 L 428.41016 115.23047 A 11.13 11.13 0 0 0 436.33008 118.50977 L 436.33008 118.55078 A 11.14 11.14 0 0 0 444.2793 115.25977 L 446.08984 113.46094 C 452.22984 107.33094 455.93922 102.09094 457.44922 97.460938 A 25.84 25.84 0 0 0 457.18945 81.609375 C 455.49945 76.209375 452.13945 71 447.18945 66 C 439.44945 58.26 430.95953 54.429688 422.01953 54.429688 z M 422.11914 66.480469 C 427.80914 66.370469 433.25094 69.020469 438.71094 74.480469 C 442.26094 78.050469 444.62094 81.640391 445.71094 85.150391 A 14 14 0 0 1 446.00977 93.75 C 445.50977 95.3 443.75008 98.820469 437.58008 104.98047 L 436.33008 106.23047 L 405.65039 75.539062 C 411.71039 69.529063 417.24914 66.470469 422.11914 66.480469 z M 381.32812 91.697266 L 392.57031 102.93945 A 14.029015 14.029015 0 0 0 380.18945 106.80078 L 367.94922 119.03906 L 365.19922 116.30078 L 377.44922 104.06055 A 14.07 14.07 0 0 0 381.32812 91.697266 z M 367.35547 91.914062 A 2 2 0 0 1 368.78906 92.519531 L 369 92.730469 A 2 2 0 0 1 369 95.599609 L 355.28906 109.2793 A 10 10 0 0 0 355.28906 123.4707 L 360.81055 129 A 10 10 0 0 0 375 129 L 388.68945 115.33984 A 2 2 0 0 1 390.13086 114.74023 A 2 2 0 0 1 392.13086 116.74023 A 2 2 0 0 1 391.5293 118.17969 L 377.90039 131.81055 A 10 10 0 0 0 377.90039 146 L 388.55078 156.66016 A 10 10 0 0 0 402.75 156.66016 L 416.25 143.15039 A 2.21 2.21 0 0 1 419.36914 146.2793 L 397.50977 168.14062 A 2.81 2.81 0 0 1 393.50977 168.14062 L 343.88086 118.50977 A 2.81 2.81 0 0 1 343.88086 114.50977 L 365.91992 92.519531 A 2 2 0 0 1 367.35547 91.914062 z M 403.89648 114.26562 L 420.73438 131.10352 A 14.21 14.21 0 0 0 407.73047 134.65039 L 395.60938 146.75977 L 387.75977 138.91016 L 400 126.66992 A 14.029015 14.029015 0 0 0 403.89648 114.26562 z M 328.70312 130.50195 A 2 2 0 0 1 329.09961 130.53906 A 2 2 0 0 1 330.60938 131.69922 L 362.0293 198.5 A 5.44 5.44 0 0 1 354.76953 205.7207 L 288.2793 174.00977 A 2.07 2.07 0 0 1 287.71094 170.67969 A 2.07 2.07 0 0 1 289.17969 170.07031 A 2.17 2.17 0 0 1 290.10938 170.23047 L 337.65039 192.90039 A 8.78 8.78 0 0 0 349.38086 181.23047 L 326.86914 133.46094 A 2.07 2.07 0 0 1 327.26953 131.10938 A 2 2 0 0 1 328.70312 130.50195 z M 276.06055 195.84961 C 287.20055 195.84961 296.61008 199.87961 304.58008 207.84961 C 312.55008 215.81961 316.48047 224.99023 316.48047 235.99023 A 37.46 37.46 0 0 1 304.93945 263.83984 C 296.74945 272.02984 287.41992 275.89039 276.41992 275.65039 A 40.93 40.93 0 0 1 237.78906 245.65039 A 40 40 0 0 1 248.11914 207.14062 L 248.11914 207.21094 A 37.5 37.5 0 0 1 276.06055 195.84961 z M 275.08398 200.22461 A 33.45 33.45 0 0 0 251.08008 210.34961 A 33.45 33.45 0 0 0 240.82031 235.14062 C 240.94031 244.64062 244.73945 253.23945 251.93945 260.43945 C 259.13945 267.63945 267.44016 271.26953 276.66016 271.26953 A 35.34 35.34 0 0 0 280.49023 271.06055 A 34.62 34.62 0 0 0 302 260.83984 A 33.18 33.18 0 0 0 312 236.10938 A 37 37 0 0 0 276.08008 200.24023 A 33.45 33.45 0 0 0 275.08398 200.22461 z M 192.42188 201.7832 A 6.0033366 6.0033366 0 0 0 188.08984 203.53906 L 179.08984 212.53906 A 6 6 0 0 0 183.33008 222.78906 A 6 6 0 0 0 187.58008 221.0293 L 196.58008 212.0293 A 6.0033366 6.0033366 0 0 0 192.42188 201.7832 z M 275.44922 212.26953 L 275.86914 212.26953 A 25 25 0 0 1 300 236.26953 A 21.26 21.26 0 0 1 293.5 252.33008 A 22.65 22.65 0 0 1 279.25 259.10938 C 272.15 259.84937 265.99969 257.49969 260.42969 251.92969 C 255.36969 246.87969 252.88031 241.34 252.82031 235 A 21.57 21.57 0 0 1 259.56055 218.86914 A 21.48 21.48 0 0 1 275.44922 212.26953 z M 208 257.91016 A 16.91 16.91 0 0 1 211.93945 258.38086 A 20.33 20.33 0 0 1 221.80078 264.21094 C 225.00078 267.41094 226.83969 270.66086 227.42969 274.13086 A 16.32 16.32 0 0 1 227 281.08008 A 12.18 12.18 0 0 0 235.31055 295.86914 L 258.4707 302.92969 A 2.06 2.06 0 0 1 259.33008 306.34961 A 2.07 2.07 0 0 1 257.26953 306.86914 L 222.18945 296.11914 A 7 7 0 0 0 215.18945 307.68945 L 234.91016 327.40039 A 2.3617366 2.3617366 0 0 1 231.57031 330.74023 L 181 280.16016 A 1.93 1.93 0 0 1 181 277.41992 L 187.91016 270.50977 C 195.70016 262.70977 200.09992 259.94977 202.41992 259.00977 A 14.49 14.49 0 0 1 208 257.91016 z M 207.82031 262.66797 A 14.22 14.22 0 0 0 202.33008 264 C 199.98008 265.05 197.23922 267.22 193.44922 271 A 10.59 10.59 0 0 0 193.44922 286 L 199.75 292.25 A 10.52 10.52 0 0 0 207.22656 295.34961 A 10.52 10.52 0 0 0 214.68945 292.26953 L 215.15039 291.80078 C 219.91039 287.05078 222.42961 283.08914 223.09961 279.36914 C 223.64961 276.31914 223.31039 271.6993 218.65039 267.0293 A 14.5 14.5 0 0 0 210.85938 262.88086 A 14.22 14.22 0 0 0 207.82031 262.66797 z M 208.37695 274.64062 A 2.23 2.23 0 0 1 208.82031 274.67969 A 2.53 2.53 0 0 1 210.21094 275.5 C 210.94094 276.24 211.39008 276.93023 211.33008 277.24023 C 211.32008 277.31023 210.98 278.90977 207.25 282.75977 L 203 278.5 C 206 275.53 207.20086 275.00062 207.38086 274.89062 A 2.23 2.23 0 0 1 208.37695 274.64062 z M 165.50977 300.59961 A 16.09 16.09 0 0 1 169.25977 301.05078 A 20.44 20.44 0 0 1 179.06055 306.91992 C 182.45055 310.30992 184.31 313.78984 184.75 317.58984 A 18.82 18.82 0 0 1 182.24023 329.17969 C 181.49023 330.52969 179.55937 333.22086 174.60938 338.38086 A 10.33 10.33 0 0 0 174.75 352.75977 L 192.15039 370.16016 A 2.36 2.36 0 1 1 188.81055 373.49023 L 139 323.67969 A 3 3 0 0 1 139 319.41992 L 145.13086 313.25 C 152.84086 305.55 157.3207 302.76953 159.7207 301.76953 A 15.12 15.12 0 0 1 165.50977 300.59961 z M 165.11523 305.35547 A 14 14 0 0 0 162.34961 305.76953 C 159.00961 306.57953 155.33906 309.08062 150.78906 313.64062 A 10.72 10.72 0 0 0 150.78906 328.78906 L 156.86914 334.86914 A 10.67 10.67 0 0 0 164.44922 338 A 10.69 10.69 0 0 0 172.0293 334.86914 L 172.44922 334.44922 C 175.97922 330.92922 178.11969 328.19969 179.17969 325.92969 A 13.74 13.74 0 0 0 180.25 317.46094 A 14.59 14.59 0 0 0 176.06055 309.82031 A 14 14 0 0 0 165.11523 305.35547 z M 165.67773 317.33594 C 166.12539 317.29422 166.68531 317.41578 167.57031 318.30078 A 3 3 0 0 1 168.4707 319.7207 A 1.77 1.77 0 0 1 168.28906 320.88086 C 168.21906 321.02086 167.59945 322.2607 164.43945 325.4707 L 160.20898 321.24023 C 163.71309 317.89935 165.14999 317.48001 165.25977 317.41016 C 165.39227 317.38266 165.52852 317.34984 165.67773 317.33594 z M 123.58984 342.50977 A 16.17 16.17 0 0 1 127.32031 343.00977 A 20.55 20.55 0 0 1 137.11914 348.89062 C 140.49914 352.27063 142.36055 355.76078 142.81055 359.55078 A 18.93 18.93 0 0 1 140.30078 371.15039 C 139.60078 372.40039 137.83969 374.8693 133.42969 379.5293 A 11.45 11.45 0 0 0 133.65039 395.5293 L 150.19922 412.08008 A 2.36 2.36 0 0 1 146.86914 415.41992 L 97.400391 365.93945 A 3.48 3.48 0 0 1 97.400391 361 L 103.2207 355.16992 C 110.9207 347.45992 115.40078 344.67969 117.80078 343.67969 A 15.16 15.16 0 0 1 123.58984 342.50977 z M 124.59375 347.33594 A 14 14 0 0 0 120.42969 347.75977 C 117.09969 348.62977 113.43086 351.08086 108.88086 355.63086 A 10.71 10.71 0 0 0 108.88086 370.7793 L 114.96094 376.85938 A 10.66 10.66 0 0 0 122.5293 380 A 10.68 10.68 0 0 0 130.10938 376.81055 L 130.5293 376.39062 C 134.0693 372.87063 136.25977 370.14914 137.25977 367.86914 A 13.65 13.65 0 0 0 138.33984 359.40039 A 14.61 14.61 0 0 0 134.14062 351.75977 A 14 14 0 0 0 124.59375 347.33594 z M 123.76367 359.33203 C 124.20758 359.29219 124.76766 359.40828 125.66016 360.30078 A 2.9 2.9 0 0 1 126.55078 361.71094 A 1.73 1.73 0 0 1 126.36914 362.88086 C 126.30914 363.02086 125.6893 364.2607 122.5293 367.4707 L 118.2793 363.2207 L 118.2793 363.17969 C 121.7993 359.81969 123.23961 359.39039 123.34961 359.40039 C 123.47961 359.37539 123.6157 359.34531 123.76367 359.33203 z M 62.720703 398.32031 A 6.36 6.36 0 0 1 65.320312 398.88086 L 132.7793 428.88086 A 2.09 2.09 0 0 1 133.41016 432.26953 A 2.08 2.08 0 0 1 131.07031 432.69922 L 121.67969 428.49023 A 11.09 11.09 0 0 0 109.34961 430.75 L 88.900391 451.19922 A 11 11 0 0 0 86.570312 463.41016 L 90.75 473.0293 A 2.13 2.13 0 0 1 86.849609 474.74023 L 56.939453 407.26953 A 6.38 6.38 0 0 1 58.25 400.21094 A 6.39 6.39 0 0 1 62.759766 398.34961 L 62.720703 398.32031 z M 76.271484 409.07227 A 8.89 8.89 0 0 0 68 421.53906 L 76.330078 440.49023 A 8.9 8.9 0 0 0 82.830078 445.66992 A 9.21 9.21 0 0 0 84.466797 445.82031 A 8.88 8.88 0 0 0 90.740234 443.21094 L 101.35938 432.58984 A 8.9 8.9 0 0 0 98.650391 418.16016 L 79.730469 409.83008 A 8.89 8.89 0 0 0 76.271484 409.07227 z M 82.179688 424 L 89.669922 427.28906 L 85.470703 431.49023 L 82.179688 424 z"/></svg>