<svg width="97" height="87" viewBox="0 0 97 87" fill="none" xmlns="http://www.w3.org/2000/svg">
  <g clip-path="url(#clip0)">
    <path d="M60.7359 43.2579L51.9872 50.5011V52.6818L48.626 51.3989L39.3842 41.0941L23.8735 53.3949L30.1301 65.9473L39.8798 72.4448L54.5494 72.9079L67.0178 67.2687L73.5473 54.3049L60.7359 43.2579Z" fill="#BCBEC0"/>
    <path d="M60.12 69.4647L58.8634 67.2518C58.8516 67.2312 58.8454 67.2078 58.8455 67.1841C58.8456 67.1603 58.8519 67.137 58.8638 67.1164C58.8756 67.0958 58.8927 67.0788 58.9132 67.0669C58.9337 67.0551 58.9569 67.0489 58.9806 67.0489H59.41C59.4337 67.049 59.4571 67.0428 59.4776 67.031C59.4982 67.0192 59.5153 67.0021 59.5272 66.9815C59.5392 66.961 59.5455 66.9376 59.5456 66.9138C59.5457 66.89 59.5395 66.8666 59.5277 66.8459L58.4685 64.9817C58.4569 64.9611 58.4509 64.9377 58.451 64.914C58.4511 64.8903 58.4574 64.867 58.4693 64.8465C58.4811 64.826 58.4981 64.809 58.5186 64.7971C58.539 64.7852 58.5622 64.7789 58.5858 64.7788H59.1342C59.1578 64.7788 59.1811 64.7726 59.2016 64.7607C59.2221 64.7489 59.2392 64.7318 59.251 64.7113C59.2629 64.6907 59.2692 64.6674 59.2693 64.6436C59.2693 64.6198 59.2632 64.5965 59.2514 64.5758L56.9052 60.4445C56.8934 60.4237 56.8764 60.4065 56.8558 60.3944C56.8352 60.3824 56.8118 60.3761 56.7879 60.3761C56.7641 60.3761 56.7407 60.3824 56.7201 60.3944C56.6995 60.4065 56.6825 60.4237 56.6707 60.4445L54.3245 64.5758C54.3127 64.5965 54.3066 64.6198 54.3066 64.6436C54.3067 64.6674 54.313 64.6907 54.3249 64.7113C54.3367 64.7318 54.3538 64.7489 54.3743 64.7607C54.3948 64.7726 54.4181 64.7788 54.4417 64.7788H54.9901C55.0137 64.7789 55.0369 64.7852 55.0574 64.7971C55.0778 64.809 55.0948 64.826 55.1066 64.8465C55.1185 64.867 55.1248 64.8903 55.1249 64.914C55.1251 64.9377 55.119 64.9611 55.1074 64.9817L54.0486 66.8459C54.0368 66.8666 54.0307 66.8899 54.0308 66.9137C54.0308 66.9375 54.0371 66.9608 54.049 66.9814C54.0609 67.0019 54.0779 67.019 54.0984 67.0308C54.1189 67.0427 54.1422 67.0489 54.1659 67.0489H54.5953C54.619 67.0488 54.6423 67.055 54.6629 67.0668C54.6834 67.0786 54.7006 67.0956 54.7125 67.1162C54.7244 67.1368 54.7307 67.1601 54.7308 67.1839C54.7309 67.2078 54.7247 67.2312 54.713 67.2518L54.1794 68.1911C54.1675 68.2119 54.1504 68.2292 54.1298 68.2412C54.1091 68.2532 54.0857 68.2595 54.0619 68.2595C54.038 68.2595 54.0146 68.2532 53.994 68.2412C53.9734 68.2292 53.9563 68.2119 53.9444 68.1911L53.3053 67.0654C53.2937 67.0447 53.2877 67.0214 53.2878 66.9977C53.2879 66.974 53.2942 66.9507 53.3061 66.9302C53.3179 66.9097 53.3349 66.8926 53.3554 66.8807C53.3758 66.8689 53.399 66.8626 53.4226 66.8625H53.7263C53.75 66.8625 53.7732 66.8563 53.7937 66.8444C53.8143 66.8325 53.8313 66.8155 53.8432 66.7949C53.8551 66.7744 53.8614 66.751 53.8614 66.7273C53.8615 66.7035 53.8553 66.6801 53.8436 66.6595L52.1183 63.6213C52.1065 63.6005 52.0894 63.5832 52.0689 63.5712C52.0483 63.5592 52.0249 63.5529 52.001 63.5529C51.9772 63.5529 51.9538 63.5592 51.9332 63.5712C51.9126 63.5832 51.8956 63.6005 51.8838 63.6213L50.1581 66.6595C50.1464 66.6802 50.1404 66.7035 50.1405 66.7272C50.1407 66.7509 50.147 66.7742 50.1588 66.7947C50.1707 66.8152 50.1877 66.8323 50.2081 66.8442C50.2285 66.856 50.2517 66.8624 50.2753 66.8625H50.579C50.6027 66.8624 50.626 66.8687 50.6465 66.8805C50.667 66.8924 50.684 66.9094 50.6959 66.93C50.7078 66.9505 50.7141 66.9739 50.7142 66.9976C50.7142 67.0214 50.7081 67.0448 50.6963 67.0654L49.948 68.3835C49.9364 68.4041 49.9303 68.4275 49.9305 68.4512C49.9306 68.4749 49.9369 68.4982 49.9488 68.5187C49.9606 68.5392 49.9776 68.5562 49.998 68.5681C50.0185 68.58 50.0417 68.5863 50.0653 68.5864H50.2796C50.3032 68.5864 50.3265 68.5926 50.347 68.6045C50.3675 68.6163 50.3846 68.6334 50.3964 68.6539C50.4083 68.6745 50.4146 68.6978 50.4147 68.7216C50.4147 68.7454 50.4086 68.7687 50.3968 68.7894L49.7966 69.8486C49.7848 69.8693 49.7677 69.8866 49.7471 69.8986C49.7265 69.9107 49.7031 69.917 49.6793 69.917C49.6555 69.917 49.6321 69.9107 49.6115 69.8986C49.5909 69.8866 49.5738 69.8693 49.562 69.8486L49.1929 69.1991C49.1812 69.1784 49.175 69.1551 49.1751 69.1313C49.1751 69.1075 49.1814 69.0842 49.1933 69.0636C49.2052 69.0431 49.2222 69.026 49.2428 69.0142C49.2633 69.0023 49.2865 68.9961 49.3102 68.9961H49.4789C49.5026 68.9961 49.5258 68.9898 49.5463 68.978C49.5668 68.9661 49.5838 68.9491 49.5957 68.9286C49.6076 68.908 49.614 68.8847 49.6142 68.861C49.6143 68.8372 49.6082 68.8138 49.5966 68.7932L48.2096 66.3511C48.1979 66.3302 48.1808 66.3128 48.1601 66.3007C48.1395 66.2886 48.116 66.2823 48.0922 66.2823C48.0683 66.2823 48.0448 66.2886 48.0242 66.3007C48.0035 66.3128 47.9864 66.3302 47.9747 66.3511L46.5877 68.7932C46.5759 68.8138 46.5698 68.8372 46.5699 68.8609C46.5699 68.8847 46.5762 68.908 46.5881 68.9286C46.6 68.9491 46.617 68.9662 46.6375 68.9781C46.6581 68.9899 46.6813 68.9961 46.705 68.9961H46.8737C46.8974 68.9961 46.9206 69.0023 46.9411 69.0142C46.9616 69.026 46.9787 69.0431 46.9906 69.0636C47.0025 69.0842 47.0087 69.1075 47.0088 69.1313C47.0089 69.1551 47.0027 69.1784 46.991 69.1991L46.4118 70.2193C46.4 70.2399 46.3939 70.2633 46.394 70.287C46.394 70.3108 46.4003 70.3341 46.4122 70.3547C46.4241 70.3753 46.4411 70.3923 46.4616 70.4042C46.4821 70.416 46.5054 70.4222 46.5291 70.4222H46.6261C46.6497 70.4223 46.6729 70.4286 46.6933 70.4405C46.7138 70.4524 46.7307 70.4694 46.7426 70.49C46.7545 70.5105 46.7608 70.5337 46.7609 70.5575C46.761 70.5812 46.755 70.6045 46.7434 70.6252L46.0398 71.8636C46.028 71.8842 46.0219 71.9076 46.022 71.9314C46.0221 71.9552 46.0283 71.9785 46.0402 71.9991C46.0521 72.0197 46.0691 72.0368 46.0896 72.0487C46.1101 72.0606 46.1333 72.0669 46.157 72.067H50.0222C50.0459 72.067 50.0692 72.0607 50.0898 72.0488C50.1104 72.037 50.1274 72.0199 50.1394 71.9993C50.1513 71.9787 50.1576 71.9553 50.1577 71.9315C50.1578 71.9077 50.1517 71.8843 50.1399 71.8636L49.5245 70.7798C49.5127 70.7592 49.5066 70.7358 49.5066 70.712C49.5067 70.6883 49.513 70.6649 49.5249 70.6444C49.5368 70.6238 49.5538 70.6068 49.5743 70.5949C49.5948 70.5831 49.6181 70.5768 49.6418 70.5769H54.3844C54.408 70.5768 54.4312 70.5706 54.4517 70.5587C54.4722 70.5469 54.4893 70.5298 54.5012 70.5093C54.5131 70.4888 54.5194 70.4655 54.5196 70.4417C54.5198 70.418 54.5137 70.3946 54.5021 70.3739L54.2173 69.8727C54.2056 69.8521 54.1994 69.8287 54.1995 69.8049C54.1996 69.7812 54.2058 69.7578 54.2177 69.7373C54.2296 69.7167 54.2466 69.6997 54.2672 69.6878C54.2877 69.676 54.3109 69.6697 54.3346 69.6698H60.0027C60.0264 69.6698 60.0496 69.6636 60.0701 69.6517C60.0906 69.6399 60.1077 69.6228 60.1196 69.6022C60.1315 69.5817 60.1378 69.5584 60.1378 69.5346C60.1379 69.5108 60.1317 69.4875 60.12 69.4668" fill="#3C6E71"/>
    <path d="M64.1569 25.9335L46.3005 22.3093L30.2241 30.1703L23.1935 39.5582L22.959 42.5986L24.1781 53.0987L39.6474 40.5276L46.7746 49.1741L49.4878 51.8001L59.9395 43.7756L73.8598 54.5045V39.5582L64.1569 25.9335Z" fill="#B5070F"/>
    <path d="M58.3324 37.3844V44.7988C58.3327 44.914 58.2876 45.0246 58.2069 45.1064C58.1261 45.1882 58.0164 45.2345 57.9017 45.2352H52.6251V50.5354C52.6251 50.5928 52.6139 50.6496 52.5921 50.7026C52.5702 50.7556 52.5382 50.8038 52.4978 50.8443C52.4574 50.8848 52.4094 50.917 52.3566 50.9389C52.3038 50.9607 52.2473 50.972 52.1902 50.9718H48.7733L44.3737 46.824V45.2352H42.6906L38.6621 41.439V37.3844C38.6628 37.2693 38.7088 37.1592 38.7902 37.0782C38.8716 36.9972 38.9816 36.9519 39.0962 36.9522H44.3741V31.652C44.374 31.5947 44.3851 31.5379 44.4069 31.4849C44.4287 31.432 44.4606 31.3838 44.501 31.3433C44.5413 31.3028 44.5892 31.2706 44.6419 31.2487C44.6946 31.2268 44.7511 31.2155 44.8082 31.2156H52.1902C52.2473 31.2155 52.3038 31.2267 52.3566 31.2486C52.4094 31.2704 52.4574 31.3026 52.4978 31.3431C52.5382 31.3837 52.5702 31.4318 52.5921 31.4848C52.6139 31.5378 52.6251 31.5946 52.6251 31.652V36.9522H57.9017C58.0157 36.9527 58.125 36.9983 58.2056 37.0793C58.2863 37.1602 58.3319 37.2699 58.3324 37.3844Z" fill="white"/>
    <path d="M48.5072 19.6754C43.0336 19.6739 37.6825 21.3029 33.1307 24.3562C28.5789 27.4096 25.031 31.7502 22.9356 36.8291C20.8402 41.9079 20.2915 47.4969 21.3589 52.889C22.4263 58.2811 25.0619 63.2341 28.9323 67.1216C32.8027 71.0091 37.734 73.6564 43.1024 74.7286C48.4709 75.8009 54.0354 75.25 59.0922 73.1455C64.1489 71.0411 68.4706 67.4777 71.5108 62.906C74.551 58.3343 76.1729 52.9598 76.1716 47.4621C76.1698 40.0933 73.2546 33.0267 68.0668 27.8161C62.8791 22.6055 55.8435 19.6773 48.5068 19.6754H48.5072ZM48.5068 70.5024C43.9711 70.504 39.5368 69.1547 35.7647 66.6249C31.9926 64.0952 29.0522 60.4987 27.3153 56.2903C25.5784 52.082 25.1231 47.4508 26.0069 42.9825C26.8908 38.5143 29.0741 34.4096 32.2807 31.1877C35.4873 27.9658 39.5732 25.7714 44.0216 24.882C48.4701 23.9927 53.0812 24.4483 57.2717 26.1912C61.4623 27.9342 65.0442 30.8862 67.5643 34.674C70.0843 38.4617 71.4294 42.915 71.4294 47.4706C71.4294 53.5775 69.0146 59.4345 64.716 63.7535C60.4175 68.0726 54.587 70.5001 48.5068 70.5024Z" fill="#003049"/>
    <path d="M71.2202 63.0747L66.586 67.6996L39.7256 43.6929L39.6834 43.6256L39.6665 43.6341L24.3921 55.3353L23.4189 51.6937L37.4692 40.945L38.9617 39.804C39.1698 39.6449 39.424 39.5588 39.6855 39.5588C39.947 39.5588 40.2013 39.6449 40.4094 39.804L50.1578 47.2553C50.3787 47.4238 50.5302 47.6679 50.5837 47.9413C50.6372 48.2146 50.5889 48.4982 50.4481 48.7381L49.5399 50.2871L49.1703 50.9451L52.3851 48.9538L53.5346 49.8389L71.2202 63.0747Z" fill="#003049"/>
    <path d="M42.1177 44.0166L33.4343 51.3276C33.3887 51.3677 33.3588 51.4228 33.3502 51.4831C33.3416 51.5434 33.3548 51.6047 33.3875 51.6561C33.4201 51.7074 33.47 51.7452 33.5281 51.7627C33.5862 51.7802 33.6485 51.7761 33.7039 51.7513L45.4274 46.2261L42.1177 44.0166Z" fill="#003049"/>
    <path d="M75.5835 53.4732L74.1332 57.8875L60.4773 44.5326L53.5378 49.8418L49.9544 52.5784L48.6265 51.3984L59.7497 42.5091C59.9577 42.3428 60.215 42.2509 60.4809 42.248C60.7468 42.2451 61.006 42.3313 61.2176 42.493L75.5835 53.4732Z" fill="#003049"/>
    <path d="M62.7047 45.3958L58.9155 49.2313C58.8894 49.2598 58.8739 49.2964 58.8714 49.335C58.869 49.3736 58.8797 49.4118 58.9019 49.4434C58.924 49.4751 58.9563 49.4981 58.9933 49.5088C59.0303 49.5194 59.0698 49.5171 59.1053 49.5021L64.3486 47.0244L62.7047 45.3958Z" fill="#003049"/>
    <path fill-rule="evenodd" clip-rule="evenodd" d="M43.3469 73.3358L38.638 72.6024L28.4146 65.8413C29.0861 65.7231 29.5645 65.6473 29.783 65.6388C29.9819 65.6473 30.1778 65.6903 30.3621 65.7659C30.3786 65.7659 30.387 65.7744 30.4043 65.7828C30.5553 65.8337 30.7232 65.9011 30.8991 65.9769C30.9171 65.9786 30.9344 65.9844 30.9497 65.9938C31.1345 66.0786 31.3357 66.1633 31.5374 66.2637C31.5542 66.2637 31.5627 66.2722 31.5795 66.2802L32.3182 66.626C32.5194 66.7188 32.729 66.82 32.9311 66.9128C32.9644 66.9293 32.9977 66.9378 33.0395 66.9552C33.2411 67.048 33.4343 67.1323 33.6275 67.2166C33.6504 67.2236 33.6728 67.2321 33.6946 67.242C33.8962 67.3267 34.0806 67.3937 34.2653 67.4538C34.3075 67.4623 34.3408 67.4793 34.3746 67.4877C34.536 67.543 34.7014 67.5855 34.8694 67.6148C34.8947 67.6148 34.9196 67.6233 34.9453 67.6233C35.0779 67.6512 35.2145 67.6541 35.3482 67.6318C35.3984 67.6233 35.4747 67.6064 35.5591 67.5894C35.5762 67.5908 35.5935 67.5879 35.6093 67.5809C35.7016 67.564 35.8025 67.5386 35.9202 67.5221C35.9222 67.5195 35.9248 67.5174 35.9277 67.5159C35.9306 67.5144 35.9338 67.5135 35.937 67.5132C36.0543 67.4882 36.1901 67.4627 36.3314 67.4284C36.3479 67.4284 36.3648 67.4199 36.3816 67.4199C36.5242 67.3861 36.6841 67.3526 36.852 67.3102C36.8857 67.3017 36.919 67.3017 36.9524 67.2933C37.0869 67.2594 37.2379 67.2259 37.3809 67.192C37.4813 67.1755 37.5822 67.1496 37.6826 67.1331C37.842 67.0907 38.0103 67.0573 38.1887 67.0153C38.3651 66.9814 38.541 66.9391 38.7173 66.8971C38.7679 66.8887 38.8097 66.8802 38.8599 66.8717C39.0615 66.8213 39.2712 66.7793 39.4808 66.7285C39.5347 66.7204 39.5881 66.7091 39.6407 66.6946C39.8592 66.6442 40.0853 66.5938 40.3122 66.5514C40.333 66.5408 40.356 66.535 40.3793 66.5345C40.5974 66.484 40.8243 66.4336 41.0509 66.3828C41.0768 66.3812 41.1022 66.3754 41.1264 66.3658C41.3698 66.3154 41.6043 66.265 41.8397 66.2142C41.8696 66.2046 41.9007 66.1989 41.9321 66.1972C42.1586 66.1468 42.3851 66.0964 42.6036 66.054C42.6165 66.0471 42.6312 66.0441 42.6458 66.0455C42.8808 65.9951 43.1077 65.9443 43.3254 65.9023C43.3595 65.8938 43.3844 65.8854 43.4182 65.8769C43.8543 65.7922 44.2741 65.7074 44.6604 65.6324C44.6902 65.6228 44.7212 65.617 44.7524 65.6155C44.9456 65.5731 45.1219 65.5396 45.2898 65.5147L45.2983 65.5062C45.8051 65.3887 46.3225 65.3237 46.8426 65.3121C47.4382 65.4219 44.4424 70.8679 43.3511 73.3379" fill="#003049"/>
    <path d="M44.1251 51.112C44.1251 51.112 44.4756 50.0609 43.5674 49.9126C42.7972 49.8198 42.1957 50.2092 42.2758 50.7832C42.356 51.3573 42.507 51.4709 42.1653 51.5751C42.0949 51.5967 41.7228 51.5569 41.7367 51.0332C41.7963 50.6702 41.9826 50.3404 42.2623 50.1028C42.5419 49.8651 42.8966 49.7353 43.2629 49.7363C44.2082 49.7969 44.8658 49.8478 44.6549 50.7464C44.444 51.645 44.166 51.4086 44.1243 51.112" fill="#003049"/>
    <path d="M44.0402 50.9997C44.0402 50.9997 44.1457 51.5039 43.8162 51.5433C43.6846 51.5459 43.6193 51.3175 43.4239 51.3738C43.378 51.4043 43.4788 51.5336 43.5999 51.5984C43.7412 51.6717 43.6155 51.8632 43.3265 51.7878C43.108 51.7352 42.9658 51.6941 42.9962 51.5675C43.0384 51.4798 43.1257 51.4721 43.24 51.4581C43.4396 51.434 43.2539 51.2747 43.1 51.3221C42.9785 51.3599 42.7684 51.5073 42.6005 51.387C42.4326 51.2666 42.4761 50.8713 42.4761 50.8713C42.4761 50.8713 42.4048 50.6959 42.3495 50.9502C42.2943 51.2044 42.1386 53.0406 43.2961 53.1088C44.0525 53.127 44.5692 51.2806 44.0402 50.9997Z" fill="#003049"/>
    <path d="M43.2156 49.2457C43.3614 49.215 43.5134 49.239 43.6428 49.3132C43.7721 49.3875 43.8699 49.5068 43.9175 49.6487V49.7334C43.6564 49.6817 43.3876 49.6828 43.1269 49.7366C42.8661 49.7903 42.6187 49.8957 42.3989 50.0465C42.3989 50.0465 42.6896 49.3423 43.2143 49.2453" fill="#003049"/>
    <path d="M44.068 56.6305C44.3156 56.4966 44.4679 56.3949 44.6185 56.4246C44.9505 56.4894 46.0203 56.4869 45.9561 55.5065C45.9561 55.5065 45.9372 55.0256 45.4301 55.2573C44.9231 55.4891 44.821 55.8319 44.4599 55.8319C44.4227 55.8327 44.3857 55.8361 44.349 55.842C44.344 55.9617 44.3115 56.0786 44.2541 56.1835C44.172 56.3235 44.1087 56.4738 44.0659 56.6305" fill="#003049"/>
    <path d="M45.7375 55.3442C46.0283 55.2435 46.3036 55.1022 46.555 54.9243C46.7457 54.7328 46.9735 54.3735 47.2009 54.8192C47.4282 55.2649 46.8503 55.8877 46.5858 55.8814C46.2232 55.9039 45.8619 55.9452 45.5034 56.0051L45.7375 55.3442Z" fill="#003049"/>
    <path d="M45.501 55.8695L43.3623 67.1227L43.6478 67.1774L45.7865 55.9243L45.501 55.8695Z" fill="#003049"/>
    <path d="M47.0673 55.0108L47.0251 55.5955L46.1983 66.518H45.9072L46.7171 55.8454L46.7804 54.9854L47.0673 55.0108Z" fill="#003049"/>
    <path d="M44.3526 55.8409C43.8679 55.9082 42.6151 56.2794 42.4771 55.268C42.4472 55.0096 42.6522 54.1372 42.6113 53.5153L42.7863 52.7404H43.8118C44.1168 53.1886 44.3228 53.6971 44.4161 54.2319C44.5094 54.7666 44.4877 55.3152 44.3526 55.8409Z" fill="#003049"/>
    <path d="M44.068 56.6305C43.6084 56.8825 43.1019 57.0363 42.5802 57.0821C41.3409 57.1766 40.8566 56.2492 40.7461 55.2679C40.7461 55.2679 40.7271 56.5364 40.7183 57.4499C41.9673 57.9922 43.3564 57.613 43.9963 57.3779C43.9793 57.1265 44.0036 56.874 44.068 56.6305Z" fill="#003049"/>
    <path d="M40.2839 57.8516C40.2957 58.0528 40.7602 58.299 40.7981 58.3701C40.9989 58.7515 43.0967 58.7515 43.6666 58.5646C43.7388 58.5527 43.8078 58.5256 43.8688 58.4851C43.9299 58.4446 43.9818 58.3915 44.021 58.3294C44.0602 58.2673 44.0859 58.1975 44.0963 58.1247C44.1068 58.052 44.1018 57.9778 44.0816 57.9071C44.0816 57.9071 44.0753 57.8872 44.0665 57.8516C43.084 58.5193 40.8956 58.0935 40.2822 57.8516" fill="#003049"/>
    <path d="M42.6554 52.5606C42.6554 52.5606 40.4863 50.5799 39.2782 51.4506C38.0701 52.3212 38.7066 52.8864 38.5957 53.6736C38.4847 54.4608 38.3945 55.8052 38.3282 56.8326C38.2498 58.0562 40.4332 59.4666 40.7179 57.4499C40.9904 55.5247 40.3091 52.5254 42.15 52.7381C43.982 52.9601 42.6562 52.5606 42.6562 52.5606" fill="#003049"/>
    <path d="M43.8989 58.1845L42.5339 58.4438L41.2241 58.3489L40.4677 58.0176C40.4677 58.0176 40.6525 59.1509 40.3754 59.7623C40.0982 60.3737 40.0801 64.1686 40.0801 64.1686L40.8676 66.9738L42.2006 66.6649L41.5763 64.4088L42.9658 59.7776L42.7595 61.0083C42.6726 61.5252 43.0725 61.9828 43.3809 62.4044C43.4263 62.482 43.4488 62.571 43.4458 62.661C43.4428 62.751 43.4144 62.8383 43.364 62.9128C43.3088 62.9869 42.6828 67.078 42.6828 67.078H43.5872C43.5872 67.078 45.5048 62.5883 45.6735 61.9777C45.8423 61.3672 43.9018 58.1845 43.9018 58.1845" fill="#003049"/>
    <path d="M42.7652 50.3345C43.1415 50.3256 43.2482 50.6946 43.549 50.4671C43.7786 50.3729 44.0337 50.3616 44.2707 50.4353L44.28 50.7671C43.7987 51.2107 43.6983 50.6616 43.1621 50.7718C42.6391 51.0514 42.2341 50.8527 42.2244 50.6548C42.2151 50.4853 42.283 50.3506 42.7652 50.3345Z" fill="#003049"/>
    <path d="M43.1038 52.9874L43.0101 52.7408L42.6085 52.5917L42.1057 52.5018L41.478 52.4595L41.7092 52.7561C41.7092 52.7561 42.6267 52.6832 42.614 53.561C42.9203 54.1915 43.2839 53.6034 43.2839 53.6034L43.1038 52.9874Z" fill="#003049"/>
    <path d="M16.1373 68.7015C16.165 68.68 16.1985 68.6675 16.2335 68.6655L17.1016 68.5499C17.128 68.5442 17.1554 68.5461 17.1807 68.5553C17.2061 68.5645 17.2284 68.5807 17.245 68.602C17.2624 68.6302 17.2736 68.6618 17.2779 68.6948C17.3175 69.2327 17.506 69.7488 17.8221 70.1848C18.1174 70.5907 18.3954 70.7136 18.5392 70.6784C18.6226 70.6556 18.7005 70.6161 18.7683 70.5624C18.8447 70.4996 18.9026 70.4171 18.9358 70.3236C18.969 70.2302 18.9761 70.1295 18.9564 70.0323C18.9247 69.755 18.8616 69.4822 18.7683 69.2193C18.6645 68.9269 18.5742 68.6206 18.4974 68.3088C18.4178 67.9951 18.4194 67.6662 18.5021 67.3534C18.5894 67.0215 18.7914 66.7317 19.072 66.5357C19.2676 66.37 19.5002 66.2545 19.75 66.199C19.9998 66.1435 20.2593 66.1497 20.5062 66.2171C21.026 66.3918 21.4737 66.7344 21.7793 67.1915C22.1373 67.6606 22.3846 68.2052 22.5027 68.7842C22.5096 68.8102 22.508 68.8379 22.4983 68.863C22.4885 68.8881 22.471 68.9095 22.4483 68.924C22.4142 68.9425 22.3779 68.9567 22.3403 68.9663L21.5684 69.1511C21.5421 69.1564 21.5148 69.1544 21.4897 69.1451C21.4645 69.1358 21.4424 69.1197 21.4258 69.0985L21.3836 68.9905C21.2441 68.6429 21.0597 68.3153 20.8352 68.016C20.5024 67.561 20.2202 67.4068 19.9148 67.6347C19.8452 67.6958 19.7947 67.7757 19.7693 67.8649C19.7438 67.9541 19.7446 68.0488 19.7714 68.1376C19.8179 68.4077 19.891 68.6726 19.9895 68.9282C20.0953 69.2273 20.1845 69.5321 20.2565 69.8412C20.3293 70.1634 20.3187 70.4989 20.2257 70.8157C20.1185 71.1646 19.8964 71.4665 19.5959 71.672C19.3808 71.8388 19.1252 71.9447 18.8556 71.9787C18.6527 72.0143 18.4452 72.0135 18.2427 71.9762C17.647 71.7946 17.1339 71.4084 16.7933 70.8852C16.7346 70.8055 16.6638 70.7005 16.5823 70.5666C16.4538 70.3287 16.3459 70.0803 16.2596 69.8239C16.1362 69.5115 16.0721 69.1787 16.0707 68.8426C16.0688 68.8146 16.0742 68.7867 16.0862 68.7614C16.0983 68.7361 16.1166 68.7143 16.1394 68.6981" fill="#003049"/>
    <path d="M26.1291 72.1759C26.1609 72.206 26.1811 72.2464 26.1862 72.29C26.1913 72.3337 26.1809 72.3777 26.1569 72.4144L24.0448 76.05L27.4118 73.5952C27.4468 73.5689 27.4898 73.5557 27.5334 73.558C27.5771 73.5602 27.6185 73.5777 27.6506 73.6075L28.4137 74.3248C28.431 74.337 28.4453 74.3532 28.4554 74.3719C28.4654 74.3907 28.471 74.4115 28.4717 74.4328C28.4723 74.4541 28.468 74.4753 28.4591 74.4946C28.4503 74.5139 28.437 74.5309 28.4204 74.5442L23.5669 77.8697C23.5319 77.896 23.4888 77.9092 23.4452 77.9071C23.4015 77.9049 23.36 77.8875 23.3277 77.8578L22.336 76.9257C22.3186 76.9119 22.304 76.8948 22.2932 76.8753C22.2824 76.8558 22.2755 76.8344 22.273 76.8122C22.2704 76.79 22.2722 76.7676 22.2784 76.7461C22.2845 76.7247 22.2947 76.7047 22.3086 76.6872L24.0507 73.7032L21.2004 75.645C21.1839 75.66 21.1646 75.6716 21.1436 75.6791C21.1227 75.6866 21.1004 75.6898 21.0782 75.6886C21.056 75.6874 21.0342 75.6819 21.0141 75.6722C20.994 75.6625 20.9761 75.6489 20.9612 75.6323L19.9666 74.6959C19.9349 74.6658 19.9147 74.6255 19.9095 74.582C19.9044 74.5385 19.9145 74.4945 19.9383 74.4578L22.9291 69.3787C22.9412 69.3613 22.9573 69.3469 22.9759 69.3368C22.9946 69.3266 23.0153 69.321 23.0365 69.3203C23.0577 69.3196 23.0788 69.3238 23.0981 69.3327C23.1174 69.3416 23.1343 69.3549 23.1476 69.3715L23.9102 70.0888C23.942 70.1191 23.9622 70.1596 23.9672 70.2033C23.9722 70.247 23.9618 70.291 23.9377 70.3278L21.7193 73.863L25.1922 71.5081C25.2273 71.4818 25.2704 71.4686 25.3142 71.4708C25.358 71.4731 25.3996 71.4906 25.4318 71.5204L26.1291 72.1759Z" fill="#003049"/>
    <path d="M28.9565 74.6904C28.98 74.6568 29.0156 74.6337 29.0559 74.6262C29.0961 74.6187 29.1376 74.6273 29.1716 74.6501L30.0549 75.2611C30.0739 75.2705 30.0904 75.2842 30.1031 75.3012C30.1159 75.3182 30.1245 75.3379 30.1283 75.3588C30.1321 75.3797 30.131 75.4012 30.1251 75.4216C30.1191 75.442 30.1085 75.4607 30.0941 75.4763L26.846 80.219C26.8365 80.238 26.8228 80.2546 26.8058 80.2674C26.7889 80.2802 26.7692 80.2888 26.7483 80.2927C26.7275 80.2965 26.706 80.2955 26.6857 80.2896C26.6653 80.2837 26.6465 80.2732 26.6309 80.2588L25.748 79.6479C25.7151 79.624 25.6926 79.5883 25.6853 79.5482C25.6779 79.5081 25.6861 79.4667 25.7084 79.4326L28.9565 74.6904Z" fill="#003049"/>
    <path d="M28.2381 80.5449C28.2542 80.5136 28.2792 80.4878 28.3098 80.4707L29.0451 79.9924C29.0664 79.976 29.0918 79.966 29.1186 79.9635C29.1453 79.9611 29.1721 79.9662 29.1961 79.9784C29.2241 79.9958 29.2478 80.0192 29.2657 80.047C29.5312 80.5159 29.9217 80.9011 30.3932 81.1592C30.834 81.3981 31.1365 81.3905 31.2508 81.2965C31.3158 81.2396 31.3691 81.1705 31.4077 81.0931C31.4498 81.0035 31.4668 80.9041 31.4568 80.8055C31.4467 80.707 31.4101 80.613 31.3508 80.5338C31.2038 80.2969 31.0305 80.0776 30.834 79.8801C30.6164 79.6606 30.4033 79.4234 30.2013 79.1751C29.9955 78.9261 29.8564 78.6284 29.7972 78.3104C29.7349 77.9727 29.7937 77.6238 29.9634 77.3257C30.0694 77.0916 30.2304 76.8869 30.4326 76.7292C30.6349 76.5715 30.8722 76.4655 31.1243 76.4203C31.6687 76.355 32.2194 76.4724 32.6905 76.7542C33.2141 77.0232 33.6698 77.4084 34.0231 77.8807C34.0402 77.9014 34.0503 77.9269 34.052 77.9537C34.0538 77.9805 34.047 78.0072 34.0328 78.0299C34.0106 78.0613 33.9845 78.0898 33.9551 78.1146L33.3363 78.6129C33.315 78.6293 33.2894 78.6394 33.2627 78.6419C33.2359 78.6444 33.2089 78.6394 33.1849 78.6273L33.1005 78.5489C32.826 78.2956 32.5195 78.0796 32.189 77.9066C31.6946 77.6392 31.3744 77.621 31.1947 77.9566C31.1581 78.0418 31.1466 78.1357 31.1616 78.2272C31.1765 78.3188 31.2173 78.4041 31.2791 78.4731C31.4366 78.6971 31.6159 78.9049 31.8144 79.0933C32.0373 79.3179 32.2476 79.5548 32.4442 79.803C32.6479 80.0624 32.7816 80.3701 32.8327 80.6965C32.8846 81.0576 32.8129 81.4257 32.6293 81.7405C32.5062 81.984 32.3206 82.1899 32.0915 82.337C31.9236 82.4567 31.7358 82.5451 31.5368 82.598C30.9214 82.6906 30.2932 82.5628 29.7622 82.237C29.6753 82.19 29.566 82.1256 29.4369 82.04C29.2195 81.8801 29.0158 81.7019 28.8282 81.5075C28.5829 81.2786 28.3826 81.0056 28.2377 80.7025C28.2246 80.6779 28.2178 80.6505 28.2178 80.6226C28.2178 80.5947 28.2246 80.5673 28.2377 80.5427" fill="#003049"/>
    <path d="M33.314 83.1768C33.3246 83.143 33.3454 83.1134 33.3735 83.0921L34.0303 82.5099C34.0492 82.4907 34.0729 82.4771 34.099 82.4707C34.1251 82.4643 34.1524 82.4652 34.1779 82.4735C34.2079 82.487 34.2347 82.5068 34.2564 82.5315C34.5877 82.9557 35.0304 83.2785 35.5345 83.4636C36.0053 83.6331 36.3027 83.5818 36.4018 83.4729C36.4583 83.4072 36.5013 83.3309 36.5284 83.2484C36.5569 83.1536 36.5592 83.0527 36.5348 82.9567C36.5105 82.8607 36.4606 82.7732 36.3904 82.7035C36.2107 82.491 36.0071 82.2999 35.7838 82.1341C35.5367 81.9494 35.2912 81.7456 35.0554 81.5299C34.8154 81.3145 34.6344 81.0408 34.5298 80.7351C34.418 80.4109 34.4249 80.0573 34.5492 79.7378C34.6196 79.4906 34.7488 79.2644 34.9256 79.0785C35.1024 78.8925 35.3215 78.7525 35.5641 78.6705C36.0927 78.5253 36.6543 78.56 37.1611 78.7692C37.7181 78.9577 38.225 79.2711 38.6434 79.6857C38.6637 79.7035 38.6777 79.7274 38.6835 79.7539C38.6892 79.7803 38.6864 79.8079 38.6755 79.8327C38.6581 79.8672 38.6365 79.8995 38.6114 79.9289L38.0723 80.514C38.0535 80.5332 38.0298 80.5467 38.0038 80.5532C37.9778 80.5596 37.9505 80.5586 37.9251 80.5504L37.8289 80.4856C37.5207 80.2757 37.1862 80.1076 36.8342 79.9856C36.3057 79.7937 35.9863 79.8229 35.8577 80.1814C35.8341 80.271 35.8367 80.3656 35.865 80.4538C35.8933 80.542 35.9463 80.6203 36.0175 80.6792C36.2059 80.8774 36.4135 81.0562 36.6372 81.213C36.8905 81.4022 37.1331 81.6053 37.364 81.8214C37.6032 82.0482 37.7804 82.3328 37.8787 82.648C37.9828 82.9984 37.9648 83.374 37.8276 83.7127C37.7414 83.9716 37.5877 84.2026 37.3826 84.3817C37.2342 84.5245 37.0615 84.6393 36.8726 84.7207C36.2777 84.9034 35.6378 84.8699 35.0651 84.6262C34.9731 84.5927 34.8541 84.5453 34.7149 84.4788C34.4765 84.3534 34.2493 84.2077 34.0358 84.0432C33.7598 83.853 33.5218 83.6124 33.3343 83.334C33.3176 83.3117 33.3068 83.2855 33.3029 83.2578C33.299 83.2302 33.3021 83.202 33.3119 83.1759" fill="#003049"/>
    <path d="M44.5849 80.6262C44.6305 80.6318 44.6725 80.6543 44.7026 80.6892C44.7328 80.7241 44.749 80.7689 44.7481 80.8151L45.6871 86.7551C45.6872 86.7764 45.6823 86.7975 45.6728 86.8166C45.6634 86.8357 45.6496 86.8523 45.6327 86.8651C45.6158 86.878 45.5961 86.8867 45.5753 86.8907C45.5544 86.8946 45.5329 86.8936 45.5125 86.8877L44.4777 86.7424C44.4345 86.7362 44.3947 86.7149 44.3655 86.6822C44.3363 86.6495 44.3194 86.6075 44.3179 86.5636L44.2044 85.8484L42.1796 85.5646L41.8843 86.2221C41.8707 86.2639 41.8429 86.2994 41.8058 86.3227C41.7688 86.3459 41.7247 86.3553 41.6814 86.3492L40.6463 86.2043C40.6251 86.2044 40.6041 86.1995 40.5851 86.19C40.5661 86.1805 40.5496 86.1667 40.5368 86.1497C40.524 86.1327 40.5154 86.1129 40.5115 86.0919C40.5077 86.071 40.5088 86.0494 40.5147 86.0289L43.038 80.5749C43.0516 80.5303 43.0805 80.4921 43.1197 80.4671C43.1588 80.442 43.2056 80.4319 43.2515 80.4385L44.5849 80.6262ZM43.6721 82.29L42.7242 84.377L44.0146 84.5579L43.6721 82.29Z" fill="#003049"/>
    <path d="M46.774 83.017C46.7657 82.6476 46.8436 82.2814 47.0014 81.9476C47.0954 81.7332 47.2272 81.5376 47.3903 81.3701C47.8692 80.9586 48.4861 80.7456 49.1156 80.7744C49.646 80.758 50.1747 80.8443 50.6726 81.0286C50.6983 81.0384 50.7211 81.0548 50.7385 81.0761C50.756 81.0974 50.7676 81.123 50.7721 81.1502C50.7721 81.207 50.7186 81.5269 50.6144 82.1162C50.6033 82.1431 50.5845 82.166 50.5603 82.182C50.5362 82.1981 50.5079 82.2066 50.479 82.2065L50.2681 82.1463C50.0066 82.0667 49.7347 82.0275 49.4615 82.0302C49.1432 82.0278 48.8305 82.1148 48.5588 82.2815C48.4235 82.363 48.3137 82.4809 48.2419 82.6219C48.17 82.763 48.1389 82.9214 48.1522 83.0793L48.1636 84.7168C48.1529 84.8748 48.1864 85.0326 48.2602 85.1726C48.3339 85.3125 48.4451 85.4291 48.5812 85.5091C48.8553 85.6715 49.169 85.754 49.4872 85.7472C49.76 85.7409 50.0306 85.6982 50.2921 85.6201L50.503 85.5578C50.532 85.5564 50.5607 85.5641 50.585 85.5799C50.6094 85.5957 50.6282 85.6188 50.6388 85.6459C50.751 86.2285 50.8076 86.5484 50.8101 86.6051C50.8076 86.6335 50.7971 86.6606 50.7797 86.6831C50.7624 86.7056 50.739 86.7227 50.7122 86.7322C50.2164 86.9212 49.6889 87.0126 49.1586 87.0013C48.5297 87.0392 47.91 86.8349 47.4258 86.4301C47.2592 86.266 47.1244 86.0722 47.0284 85.8586C46.8661 85.5269 46.7832 85.1618 46.7863 84.7922L46.774 83.017Z" fill="#003049"/>
    <path d="M52.9077 81.8413L51.6064 82.0361C51.5659 82.0416 51.525 82.031 51.4923 82.0065C51.4596 81.9821 51.4377 81.9457 51.4313 81.9052L51.2934 80.9753C51.2873 80.9549 51.286 80.9333 51.2896 80.9123C51.2933 80.8914 51.3017 80.8715 51.3144 80.8544C51.327 80.8373 51.3434 80.8234 51.3623 80.8138C51.3812 80.8041 51.4021 80.7991 51.4233 80.799L55.3864 80.2058C55.4067 80.1998 55.4281 80.1986 55.4489 80.2023C55.4698 80.206 55.4895 80.2145 55.5065 80.2271C55.5235 80.2398 55.5374 80.2562 55.547 80.2752C55.5566 80.2941 55.5617 80.3151 55.5619 80.3363L55.6994 81.2684C55.7052 81.309 55.6949 81.3503 55.6706 81.3832C55.6464 81.4162 55.6102 81.4383 55.5699 81.4447L54.2732 81.6392L54.9569 86.2467C54.963 86.2671 54.9642 86.2886 54.9605 86.3095C54.9568 86.3305 54.9483 86.3503 54.9357 86.3674C54.9231 86.3844 54.9068 86.3984 54.8879 86.408C54.869 86.4177 54.8482 86.4228 54.827 86.4229L53.7619 86.5827C53.7222 86.5872 53.6823 86.576 53.6508 86.5514C53.6192 86.5267 53.5985 86.4907 53.5932 86.4509L52.9077 81.8413Z" fill="#003049"/>
    <path d="M56.1722 80.1334C56.1622 80.0935 56.1683 80.0514 56.1892 80.016C56.21 79.9807 56.2439 79.9551 56.2835 79.9448L57.3212 79.6758C57.3408 79.6676 57.362 79.664 57.3832 79.6655C57.4043 79.6669 57.4249 79.6733 57.4431 79.6841C57.4614 79.6949 57.4769 79.7099 57.4884 79.7278C57.4999 79.7457 57.5071 79.766 57.5094 79.7872L58.9402 85.3603C58.9484 85.38 58.9519 85.4013 58.9505 85.4226C58.949 85.4439 58.9427 85.4645 58.9319 85.4829C58.9211 85.5013 58.9063 85.5169 58.8885 85.5285C58.8706 85.5401 58.8504 85.5473 58.8293 85.5497L57.7912 85.8188C57.7516 85.8278 57.71 85.8212 57.6751 85.8004C57.6402 85.7796 57.6145 85.7461 57.6034 85.7069L56.1722 80.1334Z" fill="#003049"/>
    <path d="M62.0207 84.5282C61.9775 84.5453 61.9297 84.5461 61.8859 84.5305C61.8422 84.5149 61.8056 84.484 61.7828 84.4435L58.0909 79.7156C58.0805 79.6971 58.0745 79.6763 58.0734 79.655C58.0724 79.6337 58.0763 79.6125 58.0848 79.593C58.0934 79.5735 58.1064 79.5562 58.1227 79.5427C58.1391 79.5291 58.1584 79.5195 58.1791 79.5148L59.1531 79.1364C59.194 79.1212 59.239 79.1207 59.2802 79.1351C59.3215 79.1494 59.3565 79.1778 59.3792 79.2152L62.0084 82.6305L61.6672 78.3263C61.6584 78.2831 61.6652 78.2381 61.6863 78.1993C61.7073 78.1605 61.7414 78.1305 61.7823 78.1145L62.7576 77.7387C62.7761 77.7282 62.7967 77.7222 62.8179 77.7211C62.8391 77.7201 62.8603 77.724 62.8797 77.7326C62.8991 77.7412 62.9163 77.7542 62.9298 77.7707C62.9433 77.7871 62.9528 77.8065 62.9576 77.8273L63.3912 83.8194C63.4027 83.8641 63.3973 83.9116 63.3759 83.9525C63.3546 83.9935 63.3188 84.025 63.2756 84.041L62.0207 84.5282Z" fill="#003049"/>
    <path d="M63.4231 77.4808C63.4135 77.4627 63.4075 77.4428 63.4055 77.4223C63.4035 77.4018 63.4056 77.3812 63.4116 77.3615C63.4176 77.3418 63.4274 77.3235 63.4405 77.3076C63.4535 77.2918 63.4696 77.2786 63.4877 77.269L64.4368 76.7657C64.454 76.7528 64.4741 76.7441 64.4953 76.7405C64.5165 76.7368 64.5383 76.7383 64.5589 76.7447C64.5794 76.7511 64.5982 76.7623 64.6136 76.7773C64.6291 76.7924 64.6407 76.8109 64.6477 76.8314L67.3246 81.9265C67.3375 81.9438 67.3461 81.964 67.3498 81.9853C67.3534 82.0065 67.352 82.0284 67.3457 82.049C67.3394 82.0697 67.3283 82.0885 67.3133 82.104C67.2984 82.1196 67.28 82.1313 67.2597 82.1384L66.311 82.6417C66.2743 82.6605 66.2317 82.6641 66.1924 82.652C66.153 82.6398 66.1199 82.6127 66.1001 82.5765L63.4231 77.4808Z" fill="#003049"/>
    <path d="M67.063 76.6715L65.9662 77.4032C65.9323 77.4257 65.8908 77.4339 65.8509 77.426C65.8109 77.4181 65.7757 77.3947 65.7528 77.3608L65.2339 76.5778C65.2197 76.5621 65.2094 76.5432 65.2037 76.5227C65.198 76.5022 65.1972 76.4807 65.2013 76.4598C65.2054 76.4389 65.2143 76.4193 65.2273 76.4025C65.2403 76.3857 65.257 76.3722 65.2761 76.363L68.612 74.1336C68.6277 74.1193 68.6466 74.1089 68.667 74.1032C68.6875 74.0975 68.709 74.0967 68.7299 74.1008C68.7507 74.105 68.7703 74.1139 68.7871 74.1269C68.8039 74.14 68.8175 74.1568 68.8267 74.176L69.3443 74.9585C69.3669 74.9928 69.3751 75.0347 69.3672 75.0751C69.3594 75.1154 69.3359 75.1511 69.3021 75.1742L68.2112 75.9033L70.7806 79.7817C70.7948 79.7976 70.8052 79.8165 70.8108 79.8371C70.8165 79.8576 70.8173 79.8792 70.8132 79.9002C70.8091 79.9211 70.8002 79.9408 70.7872 79.9576C70.7743 79.9745 70.7575 79.9881 70.7384 79.9974L69.842 80.5965C69.8252 80.6075 69.8064 80.6151 69.7866 80.6187C69.7668 80.6224 69.7466 80.622 69.7269 80.6177C69.7073 80.6134 69.6887 80.6053 69.6723 80.5937C69.6558 80.5821 69.6418 80.5674 69.6311 80.5503L67.063 76.6715Z" fill="#003049"/>
    <path d="M69.2936 73.7222C69.2679 73.6903 69.2556 73.6496 69.2595 73.6087C69.2634 73.5678 69.283 73.5301 69.3143 73.5036L70.1424 72.8168C70.1566 72.8011 70.1743 72.789 70.194 72.7814C70.2137 72.7737 70.2349 72.7708 70.2559 72.7728C70.277 72.7748 70.2972 72.7817 70.3151 72.793C70.3331 72.8042 70.3481 72.8195 70.3592 72.8376L74.0131 77.2795C74.0288 77.2937 74.041 77.3115 74.0487 77.3313C74.0564 77.3512 74.0594 77.3726 74.0574 77.3938C74.0554 77.415 74.0485 77.4354 74.0372 77.4535C74.0259 77.4715 74.0105 77.4866 73.9924 77.4976L73.1656 78.184C73.1336 78.2095 73.093 78.2216 73.0524 78.2177C73.0117 78.2138 72.9742 78.1943 72.9475 78.1632L69.2936 73.7222Z" fill="#003049"/>
    <path d="M75.3636 74.5281L76.9391 72.9088C76.9683 72.88 77.0076 72.8638 77.0486 72.8638C77.0895 72.8638 77.1288 72.88 77.158 72.9088L77.8287 73.5668C77.8458 73.5795 77.8596 73.5959 77.8693 73.6148C77.8789 73.6337 77.884 73.6547 77.8843 73.6759C77.8845 73.6972 77.8799 73.7182 77.8707 73.7373C77.8615 73.7565 77.848 73.7732 77.8313 73.7863L75.3965 76.286C75.3824 76.3006 75.3655 76.3123 75.3469 76.3203C75.3283 76.3284 75.3083 76.3327 75.288 76.3329C75.2678 76.3332 75.2477 76.3295 75.2289 76.3219C75.21 76.3144 75.1929 76.3032 75.1784 76.289L71.0757 72.261C71.0469 72.2319 71.0308 72.1925 71.0308 72.1515C71.0308 72.1105 71.0469 72.0711 71.0757 72.042L73.5096 69.5423C73.5221 69.5251 73.5385 69.511 73.5573 69.5013C73.5761 69.4915 73.597 69.4863 73.6181 69.486C73.6393 69.4857 73.6603 69.4904 73.6794 69.4996C73.6985 69.5089 73.7152 69.5225 73.7281 69.5393L74.3984 70.1973C74.4267 70.2268 74.4426 70.266 74.4431 70.3069C74.4436 70.3479 74.4285 70.3874 74.401 70.4176L72.8254 72.0361L73.6691 72.8652L74.9439 71.5564C74.9564 71.5392 74.9727 71.5252 74.9916 71.5154C75.0105 71.5057 75.0314 71.5004 75.0526 71.5002C75.0738 71.4999 75.0948 71.5045 75.1139 71.5138C75.1331 71.523 75.1498 71.5366 75.1628 71.5535L75.8326 72.2119C75.8608 72.2414 75.8764 72.2807 75.8764 72.3216C75.8764 72.3625 75.8608 72.4018 75.8326 72.4313L74.5591 73.7409L75.3636 74.5281Z" fill="#003049"/>
    <path d="M78.4043 72.0856C78.3757 72.0658 78.3539 72.0377 78.3419 72.0051L77.9685 71.2081C77.9554 71.1845 77.9491 71.1577 77.9502 71.1307C77.9513 71.1037 77.9598 71.0776 77.9749 71.0552C77.9966 71.0302 78.0233 71.0101 78.0533 70.9963C78.5516 70.795 78.9844 70.4585 79.3032 70.0243C79.5985 69.6172 79.6314 69.3155 79.5563 69.1893C79.5088 69.1169 79.4478 69.0545 79.3766 69.0054C79.2939 68.9513 79.198 68.9209 79.0994 68.9175C79.0007 68.9142 78.903 68.938 78.8168 68.9863C78.5626 69.0998 78.322 69.2419 78.0997 69.41C77.8542 69.5973 77.5906 69.7769 77.3189 69.9447C77.045 70.1154 76.7323 70.2133 76.4103 70.229C76.069 70.2465 75.7327 70.1414 75.4616 69.9324C75.2451 69.795 75.0649 69.6068 74.9366 69.3841C74.8084 69.1614 74.7358 68.9108 74.7251 68.6537C74.7347 68.1031 74.9251 67.5711 75.2667 67.1403C75.6035 66.656 76.0454 66.2548 76.5592 65.9672C76.5819 65.9527 76.6085 65.9459 76.6352 65.9477C76.662 65.9494 76.6875 65.9597 76.7081 65.9769C76.7366 66.0032 76.7615 66.0331 76.7824 66.0659L77.1911 66.7497C77.2042 66.7732 77.2106 66.7999 77.2095 66.8269C77.2084 66.8538 77.1998 66.8799 77.1848 66.9022L77.0958 66.9768C76.8078 67.2153 76.5525 67.491 76.3365 67.7966C76.0054 68.2534 75.9442 68.5694 76.2521 68.7936C76.3312 68.8416 76.4224 68.8658 76.5148 68.8632C76.6072 68.8605 76.6968 68.8312 76.7731 68.7787C77.0153 68.6527 77.2445 68.5028 77.4573 68.3313C77.7092 68.1396 77.9716 67.9621 78.2432 67.7996C78.5269 67.6324 78.8486 67.5412 79.1775 67.5348C79.5408 67.5314 79.8944 67.6522 80.1802 67.8776C80.4037 68.0333 80.5817 68.2461 80.6961 68.494C80.7912 68.6774 80.8527 68.8764 80.8779 69.0817C80.8863 69.7069 80.6751 70.3152 80.2814 70.7997C80.2232 70.8789 80.1456 70.9793 80.0427 71.0963C79.8556 71.2913 79.6524 71.47 79.4352 71.6305C79.1757 71.8427 78.8792 72.0047 78.5608 72.108C78.5348 72.1181 78.5066 72.1213 78.479 72.1174C78.4514 72.1134 78.4252 72.1025 78.403 72.0856" fill="#003049"/>
    <path d="M48.4999 17.7349C48.1642 17.7349 47.8423 17.601 47.605 17.3626C47.3677 17.1242 47.2344 16.8009 47.2344 16.4638V1.27104C47.2344 0.933942 47.3677 0.610646 47.605 0.372279C47.8423 0.133912 48.1642 0 48.4999 0C48.8355 0 49.1574 0.133912 49.3947 0.372279C49.632 0.610646 49.7654 0.933942 49.7654 1.27104V16.4638C49.7654 16.8009 49.632 17.1242 49.3947 17.3626C49.1574 17.601 48.8355 17.7349 48.4999 17.7349Z" fill="#003049"/>
    <path d="M17.654 49.9876H1.26549C0.929859 49.9876 0.607976 49.8537 0.370652 49.6154C0.133327 49.377 0 49.0537 0 48.7166C0 48.3795 0.133327 48.0562 0.370652 47.8178C0.607976 47.5795 0.929859 47.4456 1.26549 47.4456H17.654C17.9896 47.4456 18.3115 47.5795 18.5488 47.8178C18.7861 48.0562 18.9195 48.3795 18.9195 48.7166C18.9195 49.0537 18.7861 49.377 18.5488 49.6154C18.3115 49.8537 17.9896 49.9876 17.654 49.9876Z" fill="#003049"/>
    <path d="M48.5027 49.9876H48.4998C48.1644 49.987 47.843 49.8526 47.6061 49.614C47.3693 49.3754 47.2365 49.0522 47.2368 48.7153C47.2372 48.3784 47.3706 48.0555 47.6079 47.8174C47.8452 47.5793 48.1669 47.4456 48.5023 47.4456C48.8377 47.4456 49.1594 47.5793 49.3967 47.8174C49.634 48.0555 49.7675 48.3784 49.7678 48.7153C49.7681 49.0522 49.6353 49.3754 49.3985 49.614C49.1617 49.8526 48.8402 49.987 48.5048 49.9876" fill="#003049"/>
    <path d="M95.7344 49.9876H79.3421C79.0065 49.9876 78.6846 49.8537 78.4473 49.6154C78.21 49.377 78.0767 49.0537 78.0767 48.7166C78.0767 48.3795 78.21 48.0562 78.4473 47.8178C78.6846 47.5795 79.0065 47.4456 79.3421 47.4456H95.7344C96.07 47.4456 96.3919 47.5795 96.6293 47.8178C96.8666 48.0562 96.9999 48.3795 96.9999 48.7166C96.9999 49.0537 96.8666 49.377 96.6293 49.6154C96.3919 49.8537 96.07 49.9876 95.7344 49.9876Z" fill="#003049"/>
    <path d="M26.0587 27.4477C25.8925 27.4479 25.7279 27.4152 25.5743 27.3512C25.4208 27.2873 25.2813 27.1936 25.164 27.0753L14.2053 16.0664C13.9711 15.8274 13.8405 15.5051 13.8418 15.1698C13.8431 14.8345 13.9763 14.5133 14.2123 14.2762C14.4484 14.0391 14.7681 13.9052 15.102 13.9038C15.4358 13.9024 15.7567 14.0336 15.9947 14.2687L26.9538 25.2759C27.1315 25.4536 27.2526 25.6803 27.3018 25.9272C27.351 26.1741 27.3261 26.4302 27.2302 26.6628C27.1343 26.8955 26.9718 27.0943 26.7632 27.2341C26.5546 27.3738 26.3094 27.4482 26.0587 27.4477Z" fill="#003049"/>
    <path d="M48.5027 49.9876H48.4998C48.1644 49.987 47.843 49.8526 47.6061 49.614C47.3693 49.3754 47.2365 49.0522 47.2368 48.7153C47.2372 48.3784 47.3706 48.0555 47.6079 47.8174C47.8452 47.5793 48.1669 47.4456 48.5023 47.4456C48.8377 47.4456 49.1594 47.5793 49.3967 47.8174C49.634 48.0555 49.7675 48.3784 49.7678 48.7153C49.7681 49.0522 49.6353 49.3754 49.3985 49.614C49.1617 49.8526 48.8402 49.987 48.5048 49.9876" fill="#003049"/>
    <path d="M70.9439 27.4413C70.6937 27.4413 70.4491 27.3667 70.241 27.227C70.033 27.0874 69.8708 26.8889 69.775 26.6567C69.6793 26.4244 69.6542 26.1689 69.703 25.9224C69.7518 25.6759 69.8723 25.4494 70.0492 25.2717L81.0041 14.2687C81.2428 14.0371 81.5625 13.909 81.8943 13.9119C82.2261 13.9148 82.5435 14.0485 82.7781 14.2841C83.0127 14.5198 83.1458 14.8386 83.1487 15.1719C83.1516 15.5051 83.024 15.8262 82.7935 16.0659L71.8386 27.0689C71.7213 27.1872 71.5819 27.2809 71.4283 27.3449C71.2748 27.4088 71.1101 27.4416 70.9439 27.4413Z" fill="#003049"/>
    <path d="M36.0884 20.3452C35.8391 20.3453 35.5953 20.2715 35.3877 20.1329C35.18 19.9944 35.0177 19.7973 34.9212 19.5665L32.5589 13.9235C32.4945 13.7696 32.4609 13.6045 32.46 13.4376C32.4591 13.2707 32.4909 13.1052 32.5537 12.9507C32.6165 12.7961 32.7089 12.6555 32.8258 12.5368C32.9427 12.4181 33.0817 12.3238 33.2349 12.2591C33.3881 12.1944 33.5525 12.1606 33.7187 12.1597C33.8849 12.1588 34.0496 12.1908 34.2035 12.2538C34.3574 12.3169 34.4974 12.4097 34.6155 12.5271C34.7337 12.6445 34.8276 12.7841 34.8921 12.938L37.2543 18.581C37.3353 18.7742 37.3674 18.9846 37.3479 19.1933C37.3283 19.402 37.2576 19.6027 37.1422 19.7773C37.0267 19.9519 36.87 20.0952 36.6861 20.1943C36.5022 20.2934 36.2967 20.3452 36.0879 20.3452" fill="#003049"/>
    <path d="M13.373 64.8232C13.0805 64.8237 12.7968 64.7224 12.5703 64.5365C12.3438 64.3506 12.1884 64.0917 12.1305 63.8037C12.0726 63.5157 12.1159 63.2164 12.2529 62.9569C12.3899 62.6973 12.6122 62.4934 12.882 62.3799L20.0067 59.3717C20.3161 59.241 20.6645 59.2392 20.9753 59.3665C21.286 59.4938 21.5337 59.7399 21.6638 60.0507C21.7939 60.3614 21.7958 60.7114 21.6691 61.0235C21.5423 61.3357 21.2972 61.5844 20.9879 61.7151L13.8632 64.7232C13.708 64.7889 13.5414 64.8227 13.373 64.8228" fill="#003049"/>
    <path d="M48.5027 49.9876H48.4998C48.1644 49.987 47.843 49.8526 47.6061 49.614C47.3693 49.3754 47.2365 49.0522 47.2368 48.7153C47.2372 48.3784 47.3706 48.0555 47.6079 47.8174C47.8452 47.5793 48.1669 47.4456 48.5023 47.4456C48.8377 47.4456 49.1594 47.5793 49.3967 47.8174C49.634 48.0555 49.7675 48.3784 49.7678 48.7153C49.7681 49.0522 49.6353 49.3754 49.3985 49.614C49.1617 49.8526 48.8402 49.987 48.5048 49.9876" fill="#003049"/>
    <path d="M77.3896 37.7855C77.0971 37.786 76.8134 37.6847 76.5869 37.4988C76.3604 37.3129 76.205 37.054 76.1471 36.766C76.0892 36.478 76.1325 36.1787 76.2695 35.9192C76.4065 35.6596 76.6288 35.4557 76.8986 35.3422L83.1374 32.7073C83.2906 32.6426 83.455 32.6088 83.6212 32.6079C83.7874 32.607 83.9521 32.639 84.106 32.7021C84.2599 32.7651 84.3999 32.858 84.518 32.9754C84.6362 33.0928 84.7302 33.2324 84.7946 33.3863C84.859 33.5401 84.8926 33.7052 84.8935 33.8721C84.8944 34.0391 84.8626 34.2045 84.7998 34.3591C84.737 34.5136 84.6446 34.6543 84.5277 34.7729C84.4108 34.8916 84.2718 34.986 84.1186 35.0507L77.8798 37.686C77.7246 37.7516 77.558 37.7854 77.3896 37.7855Z" fill="#003049"/>
    <path d="M83.7834 64.442C83.6196 64.4419 83.4574 64.4097 83.3059 64.3471L76.1606 61.4194C76.0026 61.3594 75.8583 61.2681 75.736 61.1512C75.6137 61.0342 75.516 60.8938 75.4485 60.7383C75.3811 60.5828 75.3453 60.4153 75.3433 60.2457C75.3414 60.0761 75.3732 59.9078 75.437 59.7508C75.5007 59.5937 75.5951 59.4511 75.7147 59.3313C75.8342 59.2114 75.9763 59.1168 76.1328 59.053C76.2893 58.9892 76.4569 58.9576 76.6257 58.9598C76.7946 58.9621 76.9613 58.9983 77.116 59.0663L84.2618 61.9939C84.5335 62.1052 84.7583 62.3078 84.8977 62.5672C85.037 62.8266 85.0823 63.1265 85.0258 63.4157C84.9693 63.7049 84.8145 63.9654 84.5879 64.1526C84.3612 64.3398 84.0769 64.4421 83.7834 64.442Z" fill="#003049"/>
    <path d="M48.5027 49.9876H48.4998C48.1644 49.987 47.843 49.8526 47.6061 49.614C47.3693 49.3754 47.2365 49.0522 47.2368 48.7153C47.2372 48.3784 47.3706 48.0555 47.6079 47.8174C47.8452 47.5793 48.1669 47.4456 48.5023 47.4456C48.8377 47.4456 49.1594 47.5793 49.3967 47.8174C49.634 48.0555 49.7675 48.3784 49.7678 48.7153C49.7681 49.0522 49.6353 49.3754 49.3985 49.614C49.1617 49.8526 48.8402 49.987 48.5048 49.9876" fill="#003049"/>
    <path d="M19.4887 38.1017C19.3249 38.1016 19.1626 38.0694 19.0112 38.0068L12.7343 35.435C12.4283 35.3045 12.1856 35.0583 12.0589 34.7495C11.9322 34.4407 11.9315 34.0942 12.0571 33.785C12.1827 33.4757 12.4244 33.2286 12.7301 33.0969C13.0357 32.9653 13.3806 32.9597 13.6902 33.0815L19.967 35.6537C20.2387 35.7649 20.4635 35.9676 20.6029 36.2269C20.7423 36.4863 20.7876 36.7862 20.7311 37.0754C20.6746 37.3646 20.5197 37.6251 20.2931 37.8123C20.0665 37.9996 19.7821 38.1018 19.4887 38.1017Z" fill="#003049"/>
    <path d="M60.5959 20.1969C60.3883 20.1969 60.184 20.1456 60.0008 20.0475C59.8176 19.9494 59.6613 19.8076 59.5456 19.6346C59.4298 19.4616 59.3583 19.2626 59.3371 19.0552C59.316 18.8478 59.346 18.6384 59.4245 18.4454L61.7188 12.7935C61.8455 12.4813 62.0906 12.2324 62.4 12.1017C62.7094 11.9709 63.0579 11.969 63.3688 12.0963C63.6796 12.2236 63.9274 12.4697 64.0575 12.7805C64.1877 13.0913 64.1896 13.4413 64.0629 13.7535L61.7681 19.4054C61.6732 19.6395 61.511 19.8397 61.3022 19.9807C61.0934 20.1217 60.8475 20.1969 60.5959 20.1969Z" fill="#003049"/>
  </g>
  <defs>
  <clipPath id="clip0">
    <rect width="97" height="87" fill="white"/>
  </clipPath>
</defs>
</svg>
