<svg height="512" viewBox="0 0 60 59" width="512" xmlns="http://www.w3.org/2000/svg"><g id="099---Hiking"><path id="Shape" d="m10 18h-2c-.55228475 0-1 .4477153-1 1s.44771525 1 1 1h2c.5522847 0 1-.4477153 1-1s-.4477153-1-1-1z"/><path id="Shape" d="m43 11c0 3.3137085 2.6862915 6 6 6s6-2.6862915 6-6-2.6862915-6-6-6c-3.3123376.00330738-5.9966926 2.68766243-6 6zm6-4c2.209139 0 4 1.790861 4 4s-1.790861 4-4 4-4-1.790861-4-4 1.790861-4 4-4z"/><path id="Shape" d="m50 1.909v-.909c0-.55228475-.4477153-1-1-1s-1 .44771525-1 1v.909c0 .55228475.4477153 1 1 1s1-.44771525 1-1z"/><path id="Shape" d="m48 20.091v.909c0 .5522847.4477153 1 1 1s1-.4477153 1-1v-.909c0-.5522847-.4477153-1-1-1s-1 .4477153-1 1z"/><path id="Shape" d="m59 10h-.909c-.5522847 0-1 .4477153-1 1s.4477153 1 1 1h.909c.5522847 0 1-.4477153 1-1s-.4477153-1-1-1z"/><path id="Shape" d="m39.909 12c.5522847 0 1-.4477153 1-1s-.4477153-1-1-1h-.909c-.5522847 0-1 .4477153-1 1s.4477153 1 1 1z"/><path id="Shape" d="m56.778 3.222c-.3904999-.39038194-1.0235001-.39038194-1.414 0l-.642.642c-.2859079.28599425-.3714219.71603662-.216678 1.08965456s.5192821.61725909.923678.61734544c.5 0 .67-.256 1.349-.935.3903819-.39049985.3903819-1.02350015 0-1.414z"/><path id="Shape" d="m41.222 18.778c.3904999.3903819 1.0235001.3903819 1.414 0l.642-.642c.3789722-.3923789.3735524-1.0160848-.0121814-1.4018186s-1.0094397-.3911536-1.4018186-.0121814l-.642.642c-.3903819.3904999-.3903819 1.0235001 0 1.414z"/><path id="Shape" d="m56.136 16.722c-.3923789-.3789722-1.0160848-.3735524-1.4018186.0121814s-.3911536 1.0094397-.0121814 1.4018186c.576.576.816.935 1.349.935.4043959-.0000863.7689341-.2437275.923678-.6173454.1547439-.373618.0692299-.8036603-.216678-1.0896546z"/><path id="Shape" d="m42.636 3.222c-.3923789-.37897221-1.0160848-.37355237-1.4018186.01218142-.3857338.3857338-.3911536 1.00943969-.0121814 1.40181858.576.576.816.935 1.349.935.4043959-.00008635.7689341-.2437275.923678-.61734544s.0692299-.80366031-.216678-1.08965456z"/><path id="Shape" d="m59 55c-12.341 0-11.566.079-11.938-.184l-5.962-4.262c-.5079792-.361713-1.1163999-.5554286-1.74-.554h-2.547c.246-.689.184-.563.184-5.479l5.441-9.521h9.126l6.568 11.5c.1725461.3192653.5045188.5199915.8673996.5244702s.6997064-.187993.8800796-.5029026c.1803732-.3149095.1759798-.7028239-.0114792-1.0135676l-11.134-19.491c-.3572918-.6220575-1.0203757-1.0051143-1.73774-1.0038746-.7173643.0012396-1.3791203.3865859-1.73426 1.0098746l-8.262 14.466v-16.6c.979879-.9994329 1.262019-2.4903505.7150813-3.7787169s-1.8154692-2.1209925-3.2150813-2.1102831h-7.54l-5.54-5.54c-.9574834-.9494479-2.2556713-1.4753509-3.604-1.46-.0439314-.1214086-.0953638-.2399704-.154-.355 2.0390077-2.44774757 1.9999272-6.01353524-.0922382-8.41600577s-5.6187519-2.93120138-8.32348288-1.24791554c-2.70473096 1.68328583-3.78780387 5.0808323-2.55627892 8.01892131h-3.69c-1.65685425 0-3 1.3431458-3 3v3c.002145.7113268.38324874 1.3675874 1 1.722v12.278c0 1.6568542 1.34314575 3 3 3v25h-3c-.55228475 0-1 .4477153-1 1s.44771525 1 1 1h13.08c.8762367-.0005266 1.7084462-.3841175 2.278-1.05l4.8-5.6c.1923984-.2200841.4696857-.3474471.762-.35 18.935 0 17.632-.089 18.018.184l5.962 4.262c.5079792.361713 1.1163999.5554286 1.74.554h11.36c.5522847 0 1-.4477153 1-1s-.4477153-1-1-1zm-12-27.984 3.421 5.984h-6.839zm-13.716 22.677c-.1846824-.1829586-.287175-.4330551-.284-.693v-24c.6670452.0428986 1.3366436.0231455 2-.059v24.059c-.0020645.4058386-.2492086.7701813-.625524.9221548-.3763154.1519736-.8071617.0614346-1.090476-.2291548zm2.329-29.2c.4033943.4635732.4870365 1.1248087.2117794 1.6742271-.2752571.5494185-.8549561.8783218-1.4677794.8327729h-1.357v-3c1.617 0 2.068-.106 2.613.494zm-4.613-.493v3h-4.88c-1.0159585-.0374589-1.9621071-.5266691-2.58-1.334l1.892-2.36.111.111c.3741245.3717377.8795962.5811833 1.407.583zm-6.991-2.117-1.891 2.361-1.41-1.41c-.2857714-.2864948-.7160359-.3725276-1.0900013-.2179494-.3739655.1545782-.6179127.5192958-.6179987.9239494v9.46h-2v-12.278c.6167513-.3544126.997855-1.0106732 1-1.722v-1.988c.7511478.0291061 1.4643744.3375767 2 .865zm-19.009 4.117c-1.1045695 0-2-.8954305-2-2v-3h12v3c0 1.1045695-.8954305 2-2 2zm7.67-20c1.7165132.00105139 3.2820811.98108402 4.0330063 2.5246287.7509251 1.54354468.5556637 3.3802101-.5030063 4.7313713-.772-.341-.613-.256-7.258-.256-.92629114-1.37762752-1.01747294-3.15375857-.23712709-4.61900025.78034586-1.46524169 2.30504489-2.38080076 3.96512709-2.38099975zm-10.67 10c0-.5522847.44771525-1 1-1h12c.5522847 0 1 .4477153 1 1v3h-14zm1 17v-5.556c.60534654.3599241 1.29574677.5518554 2 .556v2c0 .5522847.44771525 1 1 1s1-.4477153 1-1v-2h4v2c0 .5522847.4477153 1 1 1s1-.4477153 1-1v-2c.7042532-.0041446 1.3946535-.1960759 2-.556 0 5.993.056 5.73-.133 6.051-.1775308.3116282-.5083514.5043207-.867.505h-10c-.55228475 0-1-.4477153-1-1zm12.383 2.65c.3125565-.17643.5992625-.3951611.852-.65h2.765c2.7600532.0033061 4.9966939 2.2399468 5 5v9h-5.117l-.883-7.072c-.0387737-1.076354-.9229481-1.9286981-2-1.928h-2c-1.0822804-.0079999-1.9716911.8520603-2 1.934l-.936 14.066h-5.064v-20c8.785 0 8.525.1 9.383-.35zm-9.383 25.35v-3h6c1.1045695 0 2 .8954305 2 2v1zm9.936-1.629c-.248098-1.5414092-1.372839-2.7962887-2.878-3.211l.942-14.16h2c.0001736.0414565.0028451.0828649.008.124 1.192 9.524.992 6.917.992 11.876.0050254 1.0391922.8050839 1.9013954 1.841 1.984zm3.064-5.371v-3h6c1.1045695 0 2 .8954305 2 2v1zm7-4.858v-9.142c-.0087133-3.0873704-2.0407483-5.8037948-5-6.684v-7.362l1.583 1.583c.940439.9342659 2.2113797 1.4599618 3.537 1.463h4.88c0 26.26-.077 24.267.181 25h-2.181v-1c-.0068148-1.8184116-1.2393149-3.4034067-3-3.858z"/></g></svg>