<svg id="Layer_1" enable-background="new 0 0 512 512" height="512" viewBox="0 0 512 512" width="512" xmlns="http://www.w3.org/2000/svg"><g><path d="m172.201 162.185c-4.143 0-7.5 3.358-7.5 7.5v51.322c0 4.142 3.357 7.5 7.5 7.5h234.653c4.143 0 7.5-3.358 7.5-7.5v-51.322c0-4.142-3.357-7.5-7.5-7.5zm227.153 51.322h-219.653v-36.322h219.653z"/><path d="m478.781 289.504h-24.684c.272-1.514.412-3.057.412-4.613v-69.441c0-9.697-15-9.697-15 0v69.441c0 1.606-.353 3.177-1.01 4.613h-.022c-7.044 0-13.522-4.134-16.505-10.531l-6.323-13.562c-5.437-11.659-17.251-19.192-30.101-19.192h-36.827c-12.849 0-24.663 7.533-30.099 19.191-2.594 10.17-11.191 24.093-22.829 24.093h-40.404c-7.336 0-14.121 2.398-19.623 6.446h-87.556v-126.264c0-4.142-3.357-7.5-7.5-7.5h-65.754c-4.143 0-7.5 3.358-7.5 7.5v126.266h-41.43c-3.01 0-5.74-1.219-7.732-3.187h3.967c12.29 0 22.289-9.999 22.289-22.315 0-12.24-9.919-22.204-22.141-22.285l8.898-8.914c12.548-12.57 19.458-29.282 19.458-47.056v-47.768h68.554 320.188v29.405c0 9.697 15 9.697 15 0v-36.905-63.677c0-21.095-17.137-38.256-38.201-38.256h-296.986-23.325-1.057c-52.349 0-94.938 42.66-94.938 95.096v1.058 5.778 115.56 3.175 29.231.373c0 .127.013.251.019.376.398 14.023 11.907 25.311 26.007 25.311h48.93 28.904c4.743 18.845 21.961 32.775 41.899 32.775 19.937 0 37.156-13.93 41.9-32.775h36.683c-1.4 3.675-2.174 7.658-2.174 11.819v45.588c0 4.142 3.357 7.5 7.5 7.5h59.236c-1.676 6.48-2.569 13.271-2.569 20.269 0 17.115 5.35 32.994 14.441 46.079h-45.388c-10.047 0-18.22-8.194-18.22-18.265v-14.908c0-9.697-15-9.697-15 0v15.941c0 17.773 14.44 32.232 32.189 32.232h59.883c14.174 12.32 32.647 19.802 52.844 19.802s38.669-7.482 52.844-19.802h59.882c17.749 0 32.189-14.459 32.189-32.232v-1.033-55.582-45.589c.001-18.343-14.901-33.266-33.218-33.266zm-449.23-19.029c0 4.019-3.27 7.289-7.289 7.289h-7.262v-14.604h7.262c4.019 0 7.289 3.27 7.289 7.315zm6.216-78.282c0 13.773-5.354 26.721-15.073 36.459l-5.694 5.704v-89.931h20.767zm91.053-62.768v-28.121h312.688v28.121zm312.689-56.176v13.055h-312.689v-36.311h289.487c12.794 0 23.202 10.432 23.202 23.256zm-327.689-23.256v79.433h-68.553-28.223c.921-43.954 36.867-79.433 80.952-79.433zm-29.364 127.192h50.754v118.766h-22.768c-.128-.005-.257-.002-.386 0h-27.6zm63.304 151.541c-11.699 0-21.964-7.351-26.17-17.775h21.121 31.221c-4.208 10.424-14.474 17.775-26.172 17.775zm91.409 32.132v-38.088c0-10.072 8.174-18.266 18.22-18.266h40.404c19.442 0 30.293-16.552 36.424-32.754 2.982-6.397 9.461-10.531 16.504-10.531h36.827c11.849 0 19.903 13.816 22.828 24.093 5.437 11.659 17.251 19.192 30.101 19.192h40.305c10.046 0 18.219 8.194 18.219 18.266v38.088h-57.261c-13.105-26.975-40.745-45.612-72.654-45.612s-59.549 18.638-72.654 45.612zm241.612 81.347h-45.388c9.091-13.085 14.441-28.964 14.441-46.079 0-6.997-.894-13.789-2.569-20.269h51.735v48.082c0 10.072-8.173 18.266-18.219 18.266zm-177.445-46.079c0-36.327 29.495-65.881 65.749-65.881s65.749 29.554 65.749 65.881-29.495 65.881-65.749 65.881-65.749-29.554-65.749-65.881z"/><path d="m367.085 354.017c-23.186 0-42.048 18.89-42.048 42.109s18.862 42.109 42.048 42.109c23.185 0 42.047-18.89 42.047-42.109s-18.862-42.109-42.047-42.109zm0 69.219c-14.914 0-27.048-12.161-27.048-27.109s12.134-27.109 27.048-27.109 27.047 12.161 27.047 27.109-12.133 27.109-27.047 27.109z"/><path d="m336.776 308.939h60.616c2.563 0 4.948-1.309 6.325-3.47s1.556-4.876.473-7.199l-11.128-23.866c-1.232-2.642-3.883-4.331-6.798-4.331h-38.36c-2.915 0-5.565 1.689-6.798 4.331l-11.128 23.866c-1.083 2.323-.904 5.038.473 7.199s3.763 3.47 6.325 3.47zm15.907-23.866h28.804l4.134 8.866h-37.071z"/></g></svg>