<?xml version="1.0" encoding="utf-8"?>
<svg height="512pt" viewBox="0 -16 512 512" width="512pt" xmlns="http://www.w3.org/2000/svg">
  <path d="m504.5 464.933594h-12.019531l-112.152344-168.226563c-4.46875-6.703125-11.894531-10.625-20.007813-10.476562-5.121093.09375-9.941406 1.824219-13.867187 4.832031l-68.570313-149.605469c-2.875-6.273437-8.101562-10.761719-14.382812-12.683593v-57.660157h64.644531c2.765625 0 5.308594-1.523437 6.613281-3.960937 1.304688-2.4375 1.164063-5.398438-.371093-7.699219l-13.261719-19.890625 13.261719-19.886719c1.535156-2.300781 1.675781-5.261719.371093-7.699219-1.304687-2.4375-3.847656-3.960937-6.613281-3.960937h-64.644531v-.515625c0-4.140625-3.359375-7.5-7.5-7.5s-7.5 3.359375-7.5 7.5v121.605469c-6.042969 2.140625-10.980469 6.6875-13.636719 12.886719l-25.796875 60.1875-12.824218-10.101563c-3.6875-2.902344-8.425782-3.976563-13.003907-2.945313-4.578125 1.027344-8.398437 4.027344-10.488281 8.226563l-87.863281 176.640625-13.734375 8.558594c-8.320313 5.183594-15.144532 12.507812-19.734375 21.171875l-32.402344 61.203125h-11.515625c-4.140625 0-7.5 3.359375-7.5 7.5 0 4.144531 3.359375 7.5 7.5 7.5h497c4.140625 0 7.5-3.355469 7.5-7.5 0-4.140625-3.359375-7.5-7.5-7.5zm-190.367188-441.917969-8.261718 12.386719c-1.679688 2.519531-1.679688 5.800781 0 8.320312l8.261718 12.390625h-50.632812v-33.097656zm-127.953124 181.023437c.035156-.066406.109374-.222656.347656-.273437.242187-.054687.378906.050781.433594.097656l15.988281 12.589844-2.304688 5.378906c-1.632812 3.808594.132813 8.214844 3.941407 9.847657 3.808593 1.632812 8.214843-.132813 9.847656-3.9375l34.214844-79.84375c2.03125-4.730469 6.4375-5.152344 7.738281-5.167969 1.289062-.019531 5.714843.292969 7.859375 4.976562l50.3125 109.769531-8.121094 8.125c-1.617188 1.613282-3.75 2.433594-6.039062 2.3125-2.28125-.125-4.324219-1.167968-5.753907-2.945312-5.125-6.359375-13.011719-9.464844-21.089843-8.316406-8.085938 1.152344-14.789063 6.335937-17.9375 13.867187l-12.457032 29.820313c-1.617187 3.875-5.019531 4.667968-6.410156 4.828125-1.390625.160156-4.886719.167969-7.34375-3.234375l-29.367188-40.613282 2.21875-5.167968c1.632813-3.808594-.132812-8.214844-3.941406-9.847656-3.804687-1.632813-8.214844.132812-9.847656 3.9375l-28.613281 66.765624c-3.933594 9.179688-10.496094 16.828126-18.972657 22.109376l-31.695312 19.746093zm-121.503907 206.710938c3.351563-6.328125 8.332031-11.675781 14.410157-15.460938l69.726562-43.441406c11.09375-6.914062 19.679688-16.917968 24.832031-28.933594l19.507813-45.519531 24.097656 33.328125c4.390625 6.066406 11.15625 9.503906 18.484375 9.503906.90625 0 1.820313-.054687 2.738281-.160156 8.359375-.964844 15.289063-6.179687 18.53125-13.945312l12.457032-29.820313c1.570312-3.753906 4.863281-4.605469 6.203124-4.796875 1.34375-.191406 4.746094-.292968 7.300782 2.875 4.078125 5.0625 10.140625 8.164063 16.632812 8.511719 6.496094.347656 12.847656-2.089844 17.445313-6.6875l4.183593-4.183594 14.988282 32.707031-4.15625 6.753907c-2.167969 3.527343-1.070313 8.148437 2.457031 10.316406 3.53125 2.171875 8.148437 1.070313 10.320313-2.457031l8.644531-14.054688c1.554687-2.523437 4.148437-4.003906 7.113281-4.058594 2.9375-.050781 5.609375 1.332032 7.253906 3.800782l106.605469 159.90625h-326.4375l26.09375-22.367188c9.007813-7.71875 19.238281-13.65625 30.410156-17.644531l75.507813-26.96875c13.578125-4.851563 25.222656-14.285156 32.78125-26.566406l15.101562-24.542969c2.171875-3.527344 1.070313-8.144531-2.457031-10.316406s-8.144531-1.070313-10.316406 2.457031l-15.105469 24.542969c-5.773438 9.382812-14.671875 16.59375-25.050781 20.300781l-75.507813 26.96875c-12.902344 4.605469-24.722656 11.464844-35.125 20.382813l-39.378906 33.753906h-88.980469zm0 0" style="fill: rgb(255, 255, 255);"/>
</svg>