<svg height="496pt" viewBox="0 -15 496 495" width="496pt" xmlns="http://www.w3.org/2000/svg"><path d="m443.625 241.386719 28.519531-68.445313c14.40625-6.351562 23.855469-20.5625 23.855469-36.441406 0-22.054688-17.945312-40-40-40s-40 17.945312-40 40c0 5.726562 1.296875 11.441406 3.777344 16.734375l-27.707032 60.027344-6.910156-6.914063c-3.769531-3.777344-8.785156-5.847656-14.113281-5.847656h-3.664063c-1.488281 0-2.863281-.855469-3.527343-2.175781l-1.390625-2.800781c-3.402344-6.800782-10.242188-11.023438-17.839844-11.023438h-1.234375c-7.597656 0-14.445313 4.222656-17.839844 11.03125l-1.390625 2.785156c-1.425781 2.847656-6.273437 2.496094-7.28125-.511718l-2.550781-7.671876c-2.742187-8.152343-10.351563-13.632812-18.945313-13.632812-7.597656 0-14.445312 4.222656-17.839843 11.03125l-1.390625 2.785156c-.664063 1.328125-2.046875 2.183594-3.535156 2.183594h-4.664063c-1.351563 0-2.671875.144531-3.953125.398438v-64.398438h-79.375l21.960938-112h57.414062v-16h-70.585938l-25.09375 128h-48.320312l44.152344-44.152344-6.726563-5.609375c-17.21875-14.34375-39.027343-22.238281-61.425781-22.238281-52.9375 0-96 43.0625-96 96 0 22.40625 7.894531 44.214844 22.246094 61.425781l5.601562 6.71875 28.152344-28.152343.007812 24.535156 15.007813 225.058594c.832031 12.574218 11.359375 22.414062 23.953125 22.414062h297.03125c57.34375 0 104-46.65625 104-104v-56h-16.40625c-2.347656-25.921875-16-48.574219-35.96875-63.113281zm19.902344 63.113281h-16.167969c-3.902344-27.097656-27.207031-48-55.359375-48s-51.457031 20.902344-55.359375 48h-16.167969c3.992188-35.945312 34.527344-64 71.527344-64s67.535156 28.054688 71.527344 64zm-32.335938 0h-78.382812c3.71875-18.230469 19.871094-32 39.191406-32s35.472656 13.769531 39.191406 32zm-183.191406-32c19.3125 0 35.472656 13.769531 39.191406 32h-78.382812c3.71875-18.230469 19.878906-32 39.191406-32zm189.753906-120.023438-2.203125-3.632812c-2.359375-3.886719-3.550781-8.039062-3.550781-12.34375 0-13.230469 10.769531-24 24-24s24 10.769531 24 24c0 10.257812-6.617188 19.351562-16.464844 22.640625l-3.457031 1.152344-30.34375 72.832031c-7.917969-3.785156-16.46875-6.402344-25.46875-7.664062l-.144531-.144532zm-169.800781 56.023438h4.664063c7.597656 0 14.445312-4.222656 17.839843-11.03125l1.390625-2.785156c1.433594-2.847656 6.265625-2.496094 7.28125.511718l2.550782 7.671876c2.734374 8.152343 10.34375 13.632812 18.9375 13.632812 7.597656 0 14.445312-4.222656 17.839843-11.03125l1.390625-2.785156c.664063-1.328125 2.046875-2.183594 3.535156-2.183594h1.234376c1.488281 0 2.863281.855469 3.527343 2.175781l1.390625 2.800781c3.402344 6.800782 10.242188 11.023438 17.839844 11.023438h3.664062c1.058594 0 2.050782.40625 2.800782 1.160156l7.542968 7.542969c-40.910156 4.945313-73.246093 38.03125-76.984374 79.296875h-1.039063c-3.902344-27.097656-27.207031-48-55.359375-48-2.71875 0-5.375.265625-8 .640625v-10.25c0-1.328125.65625-2.550781 1.761719-3.285156l13.359375-8.90625c5.558594-3.710938 8.878906-9.910157 8.878906-16.597657v-5.648437c0-2.175781 1.777344-3.953125 3.953125-3.953125zm-19.953125-64v16h-24v16h24v41.609375c0 1.328125-.65625 2.550781-1.761719 3.285156l-13.359375 8.90625c-.925781.613281-1.6875 1.390625-2.480468 2.144531-19.109376-.335937-36.621094-6.480468-53.558594-12.480468-3.199219-1.128906-6.351563-2.242188-9.496094-3.304688l7.871094-40.160156h32.785156v-16h-29.648438l3.136719-16zm-82.824219 0-3.136719 16h-74.039062l16-16zm-117.175781 8c0-26.472656 21.527344-48 48-48 7.214844 0 14.167969 1.703125 20.585938 4.792969l-63.792969 63.800781c-3.089844-6.417969-4.792969-13.378906-4.792969-20.59375zm-32 0c0-44.113281 35.886719-80 80-80 15.710938 0 31.078125 4.664062 44.105469 13.273438l-11.761719 11.757812c-9.832031-5.824219-20.832031-9.03125-32.34375-9.03125-35.289062 0-64 28.710938-64 64 0 11.511719 3.207031 22.519531 9.03125 32.34375l-11.757812 11.761719c-8.609376-13.015625-13.273438-28.386719-13.273438-44.105469zm142.902344 24-6.941406 35.425781c-7.9375-2.074219-15.855469-3.425781-23.960938-3.425781-21.703125 0-43.015625 6.769531-55.753906 11.734375l-.246094-3.734375v-40zm-63.933594 272c-4.191406 0-7.703125-3.28125-7.976562-7.472656l-13.617188-203.976563c10.242188-4.328125 32.578125-12.550781 54.625-12.550781 6.777344 0 13.726562 1.257812 20.871094 3.167969l-36.71875 187.296875 15.703125 3.078125 36.382812-185.542969c2.402344.832031 4.816407 1.679688 7.265625 2.542969 15.671875 5.554687 33.191406 11.746093 52.496094 13.152343v13.792969c-16.574219 7.910157-28.648438 23.695313-31.359375 42.519531h-16.640625v56c0 37.007813 19.433594 69.558594 48.625 88h-129.65625zm297.03125 0h-112c-48.519531 0-88-39.480469-88-88v-8h248v-16h-248v-16h288v16h-24v16h24v8c0 48.519531-39.480469 88-88 88zm0 0"/><path d="m240 280.5h16v16h-16zm0 0"/><path d="m448 128.5h16v16h-16zm0 0"/></svg>