<?xml version="1.0" encoding="utf-8"?>
<svg version="1.1" id="Capa_1" x="0px" y="0px" viewBox="0 0 480.001 480.001" style="enable-background:new 0 0 480.001 480.001;" xmlns="http://www.w3.org/2000/svg">
  <g>
    <g>
      <path d="M8.001,0.001c-4.418,0-8,3.582-8,8v232c0,4.418,3.582,8,8,8h80c4.418,0.001,8-3.581,8.001-7.999 c0-0.38-0.027-0.76-0.081-1.137c-0.336-2.336-0.92-4.584-1.424-6.864h291.008c-0.504,2.28-1.088,4.528-1.424,6.864 c-0.627,4.373,2.409,8.427,6.783,9.055c0.377,0.054,0.757,0.081,1.137,0.081h80c4.418,0,8-3.582,8-8v-240H8.001z M393.057,16.001 l4.592,32.112c5.576,38.826,22.243,75.217,48,104.8c-40.309-25.401-67.251-67.396-73.536-114.624l-2.976-22.288H393.057z M86.945,16.001h23.92l-2.976,22.288c-6.279,47.214-33.201,89.201-73.488,114.608c25.735-29.582,42.386-65.963,47.952-104.776 L86.945,16.001z M16.001,16.001h54.776l-4.272,29.856c-5.559,38.971-23.226,75.209-50.504,103.592V16.001z M16.001,232.001 v-47.096c13.317,12.315,21.697,29.055,23.576,47.096H16.001z M55.553,232.001c-1.673-19.457-9.602-37.849-22.6-52.424 c22.32,9.621,39,28.94,45.264,52.424H55.553z M390.337,216.001H89.657c-8.967-21.682-25.608-39.3-46.744-49.488 c44.325-27.959,73.942-74.161,80.84-126.112l3.248-24.4h226l3.248,24.4c6.898,51.95,36.515,98.153,80.84,126.112 C415.951,176.701,399.307,194.318,390.337,216.001z M401.785,232.001c6.262-23.485,22.943-42.805,45.264-52.424 c-12.998,14.575-20.927,32.967-22.6,52.424H401.785z M464.001,232.001h-23.576c1.879-18.041,10.259-34.781,23.576-47.096V232.001z M464.001,149.449c-27.279-28.385-44.947-64.626-50.504-103.6l-4.272-29.848h54.776V149.449z" style="fill: rgb(255, 255, 255);"/>
    </g>
  </g>
  <g>
    <g>
      <path d="M474.921,398.937c-3.42-4.323-8.608-6.871-14.12-6.936h-20.8v-42.344c0.047-5.344-1.747-10.542-5.08-14.72 c-3.42-4.323-8.608-6.871-14.12-6.936h-20.8v-42.344c0.047-5.344-1.747-10.542-5.08-14.72c-3.42-4.323-8.608-6.871-14.12-6.936 h-49.6c-4.206,0.045-8.261,1.575-11.448,4.32c-3.455-2.766-7.742-4.288-12.168-4.32h-55.2c-4.53,0.054-8.904,1.667-12.384,4.568 c-3.489-2.908-7.875-4.521-12.416-4.568h-55.2c-4.415,0.039-8.689,1.56-12.136,4.32c-3.187-2.745-7.242-4.275-11.448-4.32h-49.6 c-5.5,0.075-10.675,2.622-14.088,6.936c-3.345,4.173-5.15,9.372-5.112,14.72v42.344h-20.8c-5.5,0.075-10.675,2.622-14.088,6.936 c-3.345,4.173-5.15,9.372-5.112,14.72v42.344h-20.8c-5.5,0.075-10.675,2.622-14.088,6.936c-3.345,4.173-5.15,9.372-5.112,14.72 v66.344h480v-8v-58.344C480.048,408.312,478.254,403.115,474.921,398.937z M328.001,285.657c-0.037-1.652,0.481-3.269,1.472-4.592 c0.397-0.586,1.026-0.973,1.728-1.064h49.6c0.69,0.1,1.306,0.486,1.696,1.064c0.991,1.323,1.509,2.94,1.472,4.592v42.344h-12.768 c-4.206,0.045-8.261,1.575-11.448,4.32c-3.455-2.766-7.742-4.288-12.168-4.32h-19.584V285.657z M248.001,285.657 c-0.025-1.569,0.528-3.092,1.552-4.28c0.716-0.845,1.757-1.345,2.864-1.376h55.2c1.107,0.031,2.148,0.531,2.864,1.376 c1.024,1.188,1.577,2.711,1.552,4.28v42.344h-19.616c-4.541,0.047-8.927,1.66-12.416,4.568c-3.489-2.908-7.875-4.521-12.416-4.568 h-19.584V285.657z M168.001,285.657c-0.025-1.569,0.528-3.092,1.552-4.28c0.716-0.845,1.757-1.345,2.864-1.376h55.2 c1.107,0.031,2.148,0.531,2.864,1.376c1.024,1.188,1.577,2.711,1.552,4.28v42.344h-19.616c-4.541,0.047-8.927,1.66-12.416,4.568 c-3.489-2.908-7.875-4.521-12.416-4.568h-19.584V285.657z M96.001,285.657c-0.037-1.652,0.481-3.269,1.472-4.592 c0.397-0.586,1.026-0.973,1.728-1.064h49.6c0.69,0.1,1.306,0.486,1.696,1.064c0.991,1.323,1.509,2.94,1.472,4.592v42.344h-19.552 c-4.415,0.039-8.689,1.56-12.136,4.32c-3.195-2.752-7.263-4.283-11.48-4.32h-12.8V285.657z M16.001,464.001v-50.344 c-0.037-1.652,0.481-3.269,1.472-4.592c0.397-0.586,1.026-0.973,1.728-1.064h49.6c0.69,0.1,1.306,0.486,1.696,1.064 c0.991,1.323,1.509,2.94,1.472,4.592l0.032,50.344H16.001z M68.801,392.001h-12.8v-42.344c-0.037-1.652,0.481-3.269,1.472-4.592 c0.397-0.586,1.026-0.973,1.728-1.064h49.6c0.69,0.1,1.306,0.486,1.696,1.064c0.991,1.323,1.509,2.94,1.472,4.592v42.344H92.417 c-4.415,0.039-8.689,1.56-12.136,4.32C77.085,393.569,73.018,392.038,68.801,392.001z M152.001,464.001h-64v-50.344 c-0.025-1.569,0.528-3.092,1.552-4.28c0.716-0.845,1.757-1.345,2.864-1.376h55.2c1.107,0.031,2.148,0.531,2.864,1.376 c1.024,1.188,1.577,2.711,1.552,4.28L152.001,464.001z M147.585,392.001h-19.584v-42.344c-0.025-1.569,0.528-3.092,1.552-4.28 c0.716-0.845,1.757-1.345,2.864-1.376h55.2c1.107,0.031,2.148,0.531,2.864,1.376c1.024,1.188,1.577,2.711,1.552,4.28v42.344 h-19.616c-4.541,0.047-8.927,1.66-12.416,4.568C156.512,393.661,152.126,392.048,147.585,392.001z M232.001,464.001h-64v-50.344 c-0.025-1.569,0.528-3.092,1.552-4.28c0.716-0.845,1.757-1.345,2.864-1.376h55.2c1.107,0.031,2.148,0.531,2.864,1.376 c1.024,1.188,1.577,2.711,1.552,4.28L232.001,464.001z M227.585,392.001h-19.584v-42.344c-0.025-1.569,0.528-3.092,1.552-4.28 c0.716-0.845,1.757-1.345,2.864-1.376h55.2c1.107,0.031,2.148,0.531,2.864,1.376c1.024,1.188,1.577,2.711,1.552,4.28v42.344 h-19.616c-4.541,0.047-8.927,1.66-12.416,4.568C236.512,393.661,232.126,392.048,227.585,392.001z M312.001,464.001h-64v-50.344 c-0.025-1.569,0.528-3.092,1.552-4.28c0.716-0.845,1.757-1.345,2.864-1.376h55.2c1.107,0.031,2.148,0.531,2.864,1.376 c1.024,1.188,1.577,2.711,1.552,4.28L312.001,464.001z M307.585,392.001h-19.584v-42.344c-0.025-1.569,0.528-3.092,1.552-4.28 c0.716-0.845,1.757-1.345,2.864-1.376h55.2c1.107,0.031,2.148,0.531,2.864,1.376c1.024,1.188,1.577,2.711,1.552,4.28v42.344 h-19.616c-4.541,0.047-8.927,1.66-12.416,4.568C316.512,393.661,312.126,392.048,307.585,392.001z M392.001,464.001h-64v-50.344 c-0.025-1.569,0.528-3.092,1.552-4.28c0.716-0.845,1.757-1.345,2.864-1.376h55.2c1.107,0.031,2.148,0.531,2.864,1.376 c1.024,1.188,1.577,2.711,1.552,4.28L392.001,464.001z M387.585,392.001h-19.584v-42.344c-0.037-1.652,0.481-3.269,1.472-4.592 c0.397-0.586,1.026-0.973,1.728-1.064h49.6c0.69,0.1,1.306,0.486,1.696,1.064c0.991,1.323,1.509,2.94,1.472,4.592v42.344h-12.768 c-4.206,0.045-8.261,1.575-11.448,4.32C396.297,393.554,392.011,392.033,387.585,392.001z M408.001,464.001v-50.344 c-0.037-1.652,0.481-3.269,1.472-4.592c0.397-0.586,1.026-0.973,1.728-1.064h49.6c0.69,0.1,1.306,0.486,1.696,1.064 c0.991,1.323,1.509,2.94,1.472,4.592l0.032,50.344H408.001z" style="fill: rgb(255, 255, 255);"/>
    </g>
  </g>
  <g/>
  <g/>
  <g/>
  <g/>
  <g/>
  <g/>
  <g/>
  <g/>
  <g/>
  <g/>
  <g/>
  <g/>
  <g/>
  <g/>
  <g/>
</svg>