<svg width="24" height="24" viewBox="0 0 24 24" fill="none" xmlns="http://www.w3.org/2000/svg">
<path d="M17.5752 4.98714C18.5516 4.98714 19.3431 4.19307 19.3431 3.21354C19.3431 2.23401 18.5516 1.43994 17.5752 1.43994C16.5989 1.43994 15.8074 2.23401 15.8074 3.21354C15.8074 4.19307 16.5989 4.98714 17.5752 4.98714Z" fill="#828282"/>
<path d="M6.36478 20.2571L0.47998 14.3372L0.48238 15.3711L5.95966 20.8849C6.58894 21.5689 7.66702 20.7779 7.66702 20.7779L7.15006 20.2225C7.15006 20.2225 6.64078 20.5575 6.37726 20.2724L6.36478 20.2571ZM0.47998 9.1201H6.71998V9.6001H0.47998V9.1201ZM22.8336 7.43722L23.52 7.76218L16.6824 21.6001H15.9254L22.8336 7.43722ZM11.4869 6.30442L8.73502 9.49066C8.57326 9.69226 8.3251 9.81802 8.04814 9.81802C7.93105 9.81796 7.81512 9.7948 7.70699 9.74987C7.59886 9.70495 7.50066 9.63914 7.41799 9.55621C7.33533 9.47328 7.26984 9.37486 7.22526 9.26659C7.18069 9.15831 7.15791 9.04231 7.15822 8.92522C7.15822 8.65834 7.27294 8.42026 7.45822 8.25754L10.4241 4.83034C10.5079 4.72952 10.6128 4.64839 10.7314 4.59272C10.85 4.53706 10.9795 4.50822 11.1105 4.50826L15.4056 4.50586C15.7214 4.50586 16.0037 4.6345 16.2125 4.83322L18.9509 7.57978L21.2198 5.30986C21.3843 5.16945 21.5935 5.09235 21.8097 5.09242C22.319 5.09242 22.7289 5.50618 22.7289 6.01402C22.7289 6.23626 22.6531 6.43786 22.5225 6.5977L19.7865 9.3625C18.9566 10.1953 18.2875 9.48826 18.2875 9.48826L16.6094 7.79722L13.9853 10.8395L16.3896 13.2505C16.3896 13.2505 16.896 13.7219 16.6065 14.6617L15.2592 20.6838C15.2064 20.942 15.0662 21.1742 14.8622 21.3411C14.6582 21.508 14.4029 21.5995 14.1393 21.6001C13.9889 21.5999 13.8401 21.5701 13.7012 21.5124C13.5623 21.4546 13.4361 21.3701 13.3299 21.2636C13.2237 21.1572 13.1395 21.0308 13.0821 20.8918C13.0247 20.7527 12.9953 20.6038 12.9955 20.4534C12.9955 20.3535 13.0056 20.2571 13.0325 20.1649L14.1393 15.2223L11.4086 12.5617L9.05902 15.1878C9.05902 15.1878 8.6779 15.6591 7.6699 15.6227L2.90542 15.6308C2.64191 15.6352 2.38497 15.5485 2.17804 15.3853C1.97111 15.2221 1.82688 14.9924 1.76974 14.7351C1.73538 14.5895 1.73034 14.4384 1.75492 14.2908C1.77949 14.1432 1.83319 14.0019 1.91288 13.8752C1.99257 13.7485 2.09666 13.639 2.2191 13.5529C2.34154 13.4668 2.47988 13.406 2.62606 13.3739C2.72254 13.3523 2.81902 13.3422 2.9131 13.3475L7.0123 13.3575L13.0723 6.3121L11.4869 6.30442Z" fill="#828282"/>
<path d="M21.996 21.6804C21.9945 22.1446 21.61 22.5598 21.1488 22.5598H7.19995V23.0398H21.1468C21.923 23.0441 22.5561 22.445 22.56 21.665L21.996 21.6804Z" fill="#828282"/>
</svg>
