<svg width="24" height="24" viewBox="0 0 24 24" fill="none" xmlns="http://www.w3.org/2000/svg">
<path fill-rule="evenodd" clip-rule="evenodd" d="M11.1431 1.7998C12.1163 1.7998 12.904 2.61076 12.904 3.58396C12.904 4.55692 12.1163 5.36788 11.1431 5.36788C10.1699 5.36788 9.35895 4.55692 9.35895 3.58396C9.35895 2.61076 10.1702 1.7998 11.1431 1.7998ZM11.259 5.53012C11.9286 5.50924 12.4463 5.92588 12.7187 6.36436L14.5722 9.44597L17.8161 10.813C18.7427 11.2066 18.3026 12.4347 17.26 12.1568C17.2227 12.1314 17.184 12.1082 17.1441 12.0872L14.9661 16.9064C14.9661 16.9064 15.6611 18.5052 16.5417 20.3127C17.399 22.1429 15.3136 22.9308 14.549 21.2393L13.7846 19.5248L12.6724 21.9576L12.209 21.7491L13.5064 18.9224L11.3284 14.1728C11.2358 14.1958 11.1431 14.1728 11.0272 14.1728C11.0272 14.1728 8.50167 19.9186 7.80639 21.4248C7.13463 22.9308 5.14215 22.0272 5.81391 20.544C6.48591 19.0613 9.68343 11.8556 9.68343 11.8556L7.30671 11.8944C6.94671 11.8976 6.86055 11.8402 6.83775 11.5704C6.80103 10.8576 6.73815 9.18052 6.90303 8.40316C7.11567 7.40117 7.24263 6.29837 7.94559 5.97028C8.64879 5.6422 9.86871 6.54964 9.86871 6.54964C10.054 5.94725 10.6334 5.53012 11.259 5.53012ZM12.6954 9.14453V11.9254L14.6882 16.2814L16.6806 11.9021L13.7846 10.6973C13.6454 10.6277 13.5297 10.5351 13.4368 10.3961L12.6954 9.14453Z" fill="#828282"/>
</svg>
