<svg width="25" height="24" viewBox="0 0 25 24" fill="none" xmlns="http://www.w3.org/2000/svg">
<path d="M18.42 13.32C18.17 13.28 17.21 13 16.96 12.89L14.89 19.37L11.8 18.24L14 12.47L10.95 9L13.5 7.54C13.95 8.67 14.67 9.62 15.62 10.4C16.57 11.18 17.66 11.67 18.88 11.86L20 8.43L18.56 7.96L18.04 9.56C17.38 9.28 16.8 8.86 16.3 8.32C15.8 7.77 15.44 7.13 15.22 6.41L14.89 5.33C14.77 4.93 14.54 4.61 14.21 4.37C13.88 4.14 13.5 4 13.13 3.97C12.74 3.94 12.36 4 12 4.21L8.5 6.23C8.13 6.44 7.86 6.74 7.69 7.12C7.5 7.5 7.46 7.88 7.5 8.29C7.54 8.7 7.76 9.06 8.04 9.37L11.61 13.08L9.92 17.54L2.97 15.05L2.5 16.46L16.54 21.58C17.9304 22.0648 19.4324 22.1309 20.86 21.77C21.45 21.61 22 21.39 22.5 21.11L21.37 20C20.62 20.33 19.84 20.5 19.03 20.5C18.37 20.5 17.71 20.39 17.05 20.17L16.3 19.89L18.42 13.32ZM19.5 3C19.5 4.11 18.61 5 17.5 5C16.39 5 15.5 4.11 15.5 3C15.5 1.89 16.4 1 17.5 1C18.6 1 19.5 1.9 19.5 3Z" fill="#828282"/>
</svg>
