<svg width="17" height="16" viewBox="0 0 17 16" fill="none" xmlns="http://www.w3.org/2000/svg">
<path d="M8.25007 16C8.11746 16 7.99028 15.9473 7.89652 15.8536C7.80275 15.7598 7.75007 15.6326 7.75007 15.5V14.207L7.10407 14.854C7.01018 14.9478 6.8829 15.0004 6.75022 15.0003C6.61753 15.0002 6.49032 14.9474 6.39657 14.8535C6.30282 14.7596 6.2502 14.6323 6.25029 14.4996C6.25039 14.367 6.30318 14.2398 6.39707 14.146L7.75007 12.793V8.866L4.35007 10.829L3.85407 12.679C3.81959 12.8071 3.73564 12.9163 3.62068 12.9825C3.50572 13.0487 3.36917 13.0665 3.24107 13.032C3.11297 12.9975 3.00381 12.9136 2.93761 12.7986C2.87141 12.6836 2.85359 12.5471 2.88807 12.419L3.12507 11.537L2.00507 12.183C1.89029 12.2483 1.75436 12.2655 1.62694 12.2309C1.49952 12.1963 1.39095 12.1127 1.32493 11.9983C1.25891 11.884 1.2408 11.7482 1.27455 11.6205C1.3083 11.4929 1.39117 11.3838 1.50507 11.317L2.62507 10.671L1.74107 10.434C1.67764 10.4169 1.6182 10.3875 1.56613 10.3475C1.51406 10.3074 1.47039 10.2575 1.43761 10.2006C1.40483 10.1437 1.38359 10.0809 1.37509 10.0157C1.36659 9.9506 1.371 9.88443 1.38807 9.821C1.40514 9.75757 1.43454 9.69813 1.47458 9.64606C1.51463 9.59399 1.56454 9.55032 1.62146 9.51754C1.67838 9.48477 1.7412 9.46352 1.80634 9.45502C1.87147 9.44652 1.93764 9.45093 2.00107 9.468L3.84907 9.963L7.25007 8L3.85007 6.037L2.00007 6.532C1.8728 6.56372 1.73817 6.54416 1.62519 6.47754C1.51221 6.41092 1.42993 6.30258 1.39609 6.17586C1.36224 6.04914 1.37954 5.9142 1.44426 5.80012C1.50898 5.68604 1.61594 5.60196 1.74207 5.566L2.62507 5.329L1.50507 4.683C1.44775 4.65041 1.39744 4.6068 1.35704 4.55469C1.31664 4.50257 1.28694 4.44298 1.26966 4.37935C1.25239 4.31571 1.24787 4.24928 1.25637 4.18389C1.26487 4.1185 1.28622 4.05544 1.31919 3.99834C1.35216 3.94123 1.3961 3.89121 1.44848 3.85116C1.50086 3.8111 1.56065 3.7818 1.6244 3.76495C1.68815 3.7481 1.7546 3.74402 1.81993 3.75295C1.88526 3.76188 1.94818 3.78365 2.00507 3.817L3.12507 4.463L2.88807 3.58C2.86987 3.51618 2.86457 3.44937 2.87246 3.38348C2.88035 3.31758 2.90127 3.25392 2.93402 3.1962C2.96677 3.13847 3.01068 3.08785 3.06319 3.04727C3.11571 3.00669 3.17578 2.97697 3.23989 2.95985C3.30401 2.94272 3.3709 2.93854 3.43665 2.94753C3.5024 2.95652 3.56571 2.97851 3.62287 3.01222C3.68004 3.04593 3.72993 3.09068 3.76962 3.14386C3.80931 3.19705 3.83802 3.2576 3.85407 3.322L4.34907 5.171L7.75007 7.134V3.207L6.39707 1.854C6.35058 1.80758 6.31369 1.75245 6.28851 1.69177C6.26332 1.6311 6.25034 1.56605 6.25029 1.50035C6.25025 1.43466 6.26314 1.36959 6.28824 1.30888C6.31334 1.24816 6.35015 1.19299 6.39657 1.1465C6.44299 1.10001 6.49812 1.06312 6.55879 1.03794C6.61947 1.01275 6.68452 0.999768 6.75022 0.999722C6.81591 0.999676 6.88098 1.01257 6.94169 1.03767C7.00241 1.06277 7.05758 1.09958 7.10407 1.146L7.75007 1.793V0.5C7.75007 0.367392 7.80275 0.240215 7.89652 0.146447C7.99028 0.0526784 8.11746 0 8.25007 0C8.38268 0 8.50986 0.0526784 8.60362 0.146447C8.69739 0.240215 8.75007 0.367392 8.75007 0.5V1.793L9.39707 1.146C9.49096 1.05225 9.61824 0.999628 9.75092 0.999722C9.88361 0.999816 10.0108 1.05261 10.1046 1.1465C10.1983 1.24039 10.2509 1.36767 10.2508 1.50035C10.2508 1.63304 10.198 1.76025 10.1041 1.854L8.75007 3.207V7.134L12.1501 5.171L12.6461 3.321C12.6805 3.1929 12.7645 3.08374 12.8795 3.01754C12.9944 2.95134 13.131 2.93352 13.2591 2.968C13.3872 3.00248 13.4963 3.08643 13.5625 3.20139C13.6287 3.31635 13.6465 3.4529 13.6121 3.581L13.3761 4.463L14.4961 3.817C14.6108 3.75174 14.7468 3.73453 14.8742 3.76913C15.0016 3.80372 15.1102 3.88731 15.1762 4.00165C15.2422 4.116 15.2603 4.25181 15.2266 4.37946C15.1928 4.50711 15.11 4.61622 14.9961 4.683L13.8761 5.329L14.7591 5.566C14.8872 5.60048 14.9963 5.68443 15.0625 5.79939C15.1287 5.91435 15.1465 6.0509 15.1121 6.179C15.0776 6.3071 14.9936 6.41626 14.8787 6.48246C14.7637 6.54866 14.6272 6.56648 14.4991 6.532L12.6511 6.037L9.25007 8L12.6501 9.963L14.4991 9.468C14.6272 9.43365 14.7637 9.4516 14.8785 9.5179C14.9934 9.58419 15.0772 9.6934 15.1116 9.8215C15.1459 9.9496 15.128 10.0861 15.0617 10.201C14.9954 10.3158 14.8862 10.3997 14.7581 10.434L13.8751 10.671L14.9951 11.317C15.109 11.3838 15.1918 11.4929 15.2256 11.6205C15.2593 11.7482 15.2412 11.884 15.1752 11.9983C15.1092 12.1127 15.0006 12.1963 14.8732 12.2309C14.7458 12.2655 14.6098 12.2483 14.4951 12.183L13.3751 11.537L13.6111 12.42C13.6293 12.4838 13.6346 12.5506 13.6267 12.6165C13.6188 12.6824 13.5979 12.7461 13.5651 12.8038C13.5324 12.8615 13.4885 12.9122 13.4359 12.9527C13.3834 12.9933 13.3234 13.023 13.2592 13.0402C13.1951 13.0573 13.1282 13.0615 13.0625 13.0525C12.9967 13.0435 12.9334 13.0215 12.8763 12.9878C12.8191 12.9541 12.7692 12.9093 12.7295 12.8561C12.6898 12.803 12.6611 12.7424 12.6451 12.678L12.1501 10.829L8.75007 8.866V12.793L10.1031 14.146C10.197 14.2398 10.2498 14.367 10.2498 14.4996C10.2499 14.6323 10.1973 14.7596 10.1036 14.8535C10.0098 14.9474 9.8826 15.0002 9.74992 15.0003C9.61724 15.0004 9.48996 14.9478 9.39607 14.854L8.74907 14.207V15.5C8.74907 15.6326 8.69639 15.7598 8.60262 15.8536C8.50885 15.9473 8.38168 16 8.24907 16H8.25007Z" fill="#828282"/>
</svg>
