<svg width="24" height="24" viewBox="0 0 24 24" fill="none" xmlns="http://www.w3.org/2000/svg">
<path d="M21.8701 20.37C21.7601 20.2 21.6201 20.09 21.4301 20.06C21.3186 20.0285 21.201 20.0248 21.0877 20.0492C20.9744 20.0736 20.8688 20.1254 20.7801 20.2C20.4301 20.5 20.0401 20.73 19.5801 20.86C19.1301 21 18.6601 21 18.1601 20.9L17.0401 20.62L16.0001 14.46L12.7401 11.79L14.5001 8.94C15.0801 9.85 15.8501 10.58 16.8301 11.14C17.8101 11.7 18.8801 12 20.0301 12V9.97C19.0901 9.97 18.2601 9.72 17.5301 9.22C16.8001 8.72 16.2601 8.07 15.9201 7.26L15.3601 6.05C15.2601 5.86 15.0801 5.64 14.8201 5.39C14.5501 5.14 14.1901 5 13.7201 5H8.07011L5.54011 9L7.27011 10.06L9.14011 7H11.5001L9.00011 10.95C8.69011 11.42 8.60011 11.93 8.72011 12.5L9.56011 15.95L6.06011 18.29L5.59011 18.19C5.12876 18.1034 4.69594 17.9041 4.33011 17.61C3.96011 17.31 3.68011 16.96 3.50011 16.56C3.40011 16.31 3.23011 16.17 3.00011 16.14C2.76011 16.08 2.56011 16.11 2.39011 16.23C2.22011 16.35 2.12011 16.5 2.09011 16.7C2.06011 16.85 2.07011 17 2.13011 17.17C2.42011 17.79 2.83011 18.33 3.37011 18.78C3.92011 19.23 4.55011 19.5 5.27011 19.64L17.8801 22.35C18.6001 22.5 19.2901 22.5 19.9601 22.3C20.6301 22.12 21.2301 21.79 21.7601 21.32C21.8801 21.23 21.9601 21.11 22.0001 20.95C22.0001 20.73 22.0001 20.54 21.8701 20.37ZM8.77011 18.89L11.8101 16.89L11.3401 13.57L14.1901 15.58L14.9401 20.2L8.77011 18.89ZM18.0001 3C18.0001 4.11 17.1101 5 16.0001 5C14.8901 5 14.0001 4.11 14.0001 3C14.0001 1.89 14.9001 1 16.0001 1C17.1001 1 18.0001 1.9 18.0001 3Z" fill="#828282"/>
</svg>
