<svg width="928" height="596" viewBox="0 0 928 596" fill="none" xmlns="http://www.w3.org/2000/svg">
<path d="M733.4 91.1001C733.4 91.2001 733.3 91.2001 733.3 91.3001H733.4V91.1001Z" fill="#F3F3F3"/>
<path d="M591 41.3999C591.1 41.6999 591.1 41.8999 591.1 42.1999C591.1 42.4999 591 42.7999 590.8 42.8999C590.4 42.9999 589.9 42.8999 589.5 42.6999C589.4 42.5999 589.2 42.5999 589.1 42.4999C588.9 42.3999 588.8 42.2999 588.6 42.1999C588.5 42.0999 588.4 41.9999 588.2 41.8999C587.9 41.6999 587.6 41.5999 587.3 41.3999C587 41.2999 586.8 41.1999 586.5 41.0999C586.4 41.0999 586.3 40.9999 586.2 40.9999C586.1 40.9999 585.9 40.9999 585.8 40.9999L578.4 36.2999V33.4999L570.2 28.9999L569.9 24.7999L576.5 20.8999L583.1 27.1999L589.4 27.2999L591.4 31.4999L587.1 34.6999L590 39.0999C590.1 39.5999 590.8 40.4999 591 41.3999Z" fill="#F3F3F3"/>
<path d="M484.8 250.3C483.9 250 483.3 250.1 482.5 249.3C481.7 248.5 482.1 248.1 482.8 247.4C483.6 246.5 482.9 246.1 482.6 245.2C482.4 244.7 482.3 244 482.5 243.4L480.5 243.1L463.7 246.7L462.2 250L463.7 251.5V253.2L467.1 251.8L469 250.2L480.1 250.9L484.2 252.9C484.3 252.5 484.4 252.1 484.6 251.6C485.8 251.7 485.8 250.7 484.8 250.3Z" fill="#F3F3F3"/>
<path d="M612.2 250.2C611.5 249.7 609.2 248.4 609.1 247.1C609 245.8 608.8 244.7 608.4 243.8C607.9 242.9 606.1 239.5 604.9 238.5C603.7 237.6 603.6 237.2 602.4 237.4C601.3 237.6 600 238.5 600.1 237.2C600.2 235.9 599.2 234.4 600 233.5C600.8 232.6 603.1 230.1 604.2 230.2C605.2 230.3 606.9 231.7 608.2 229.7C609.4 227.7 612.4 225.2 613 222.3C613.6 219.4 614.9 217.8 613.8 217.4C612.6 217 611.7 217.4 611.7 216C611.8 214.6 611.5 213.7 612.8 213C614.1 212.3 615.4 212.3 615.1 210.3C614.9 208.3 614.7 201.5 615.7 199.4C616.7 197.3 620.8 193.4 621.7 191.6C621.2 190.7 620.9 190 620.7 189.6C619.4 187.1 612.4 186.2 612.4 186.2C612.4 186.2 611.8 180.2 611.4 177.9C611.3 177.5 610.4 177.3 608.9 177.2C608.8 177.4 608.7 177.5 608.6 177.7C607.3 179.5 604.4 181.8 602.1 181.1C601 180.8 600.1 180.1 599.1 179.7C598.1 179.4 597.1 179.4 596.1 179.9C595.1 180.4 594.2 181.1 593.2 181.7C592.4 182.2 591.5 182.6 590.7 183C590 183.4 589.5 183.9 588.6 183.9C588.2 183.9 587.8 184 587.4 184.1C586.6 184.3 585.6 184.1 585 183.5C584.4 182.9 583.9 182.2 583.2 181.7C582.9 181.5 582.6 181.3 582.3 181.1C582 180.9 581.3 180.9 581.1 180.6C580.6 180 582.1 179 582.5 178.7C583 178.3 583.3 177.8 583.8 177.5C583.7 176.8 583.6 175.9 583.6 174.8L582.1 175C581.6 176.3 580.5 177.4 579.5 178.3C577.4 180.2 574.7 180 572.1 179.7C570.7 179.6 569.3 179.2 567.9 179.1C566.5 179 565.2 179.2 563.9 179.6C563.3 179.8 562.4 180.3 561.7 180.3C561 180.8 560.4 181.2 560.2 181.4C559.3 181.9 559.1 185.6 556 186.8C552.9 188 557.3 193.5 557.3 193.5C559.2 195.1 558.6 197 558.5 199.2C558.4 201.4 557.2 203.6 556 204.6C554.8 205.7 552.1 210.1 550.8 212.2C549.5 214.3 541.7 214.4 539.1 214.2C536.6 214 536.8 215.5 535.6 217C534.4 218.5 532.4 216.4 531.7 215.6C531 214.9 529.6 215.1 527.5 214.8C526.8 214.7 526 214.8 525.1 214.9C525.5 215.3 525.8 215.9 525.8 216.5C525.9 217.6 525.8 218.7 525.8 219.8C525.8 220.9 525.9 222.1 525.7 223.2C525.3 225.4 523.2 223.6 522.3 222.8C520.8 221.5 519.7 219.9 518.1 218.7C516.8 217.7 515.6 216.6 515.2 214.9C515.2 214.8 515.1 214.6 515.1 214.5C509.6 213.2 508.1 210.1 508.1 210.1L500.1 213.1L500.2 221.2L497.7 223.7V225.2L499.5 226.6C499.9 225.9 500 226.2 500.7 226C501.4 225.8 502.2 225.1 502.8 224.7C504.2 223.9 505.5 222.9 506.2 221.4C506.6 220.6 507.6 219.3 508.1 220.7C508.5 221.7 508.3 222.9 508.3 223.9C508.2 225.6 507.5 227 506.4 228.2L511.5 227.7L515.2 230.1L521.5 236.4L519.7 244L518.5 245.2C519.2 245.8 520.3 245.9 521.2 246C521.7 246.1 522.2 246.1 522.7 245.9C523.2 245.7 523.5 245.3 524 245.2C525.2 245 526.2 246.3 527.2 246.8C528 247.2 528.8 247.2 529.5 247.5C530.7 247.5 531.9 247.5 532.9 246.7C533.8 245.8 534.2 244.6 535.1 243.8C537.1 242 540.4 243.7 542.2 245C544.2 246.5 544 248.4 544.4 250.6C544.7 252.7 546.5 255.2 545.1 257.1C544.7 257.6 544.3 258.1 543.9 258.5C545.4 259 547.6 259.5 550.1 259.3C554.8 259 560.6 258.8 560.3 260.9C560 263 558.7 263.8 559.6 264.6C560.5 265.5 561.4 268.6 563.3 268C565.1 267.4 565 265.4 566.2 264.4C567.4 263.4 573.5 260.5 574 261.1C574.6 261.7 576.1 264.2 577.4 263.7C578.7 263.2 579.9 262.6 580.4 262.5C580.9 262.4 581.7 262.4 581.6 261.5C581.6 260.6 581.2 259 582.5 259.2C583.8 259.4 584.7 259.1 585 260C585.3 260.9 587.5 262.2 586.6 262.9C585.7 263.6 585.2 264.3 585.5 265.1C585.8 265.8 584.8 267 586.5 267C588.2 267 589 267.5 589.2 268.9C589.4 270.2 589.8 280.1 592.3 278.4C594.5 276.9 604.3 270 607.8 267.2C608.4 266.8 608.8 266.4 609 266.2C610.4 264.7 614.1 261.7 614 260.6C613.9 259.5 613.8 258.6 614.3 258C614.9 257.4 616.7 255.9 616.4 255C615.7 254.1 612.9 250.7 612.2 250.2ZM601.6 211.1C601.8 210.3 603.5 209.7 604.2 210.2C604.6 210.4 604.7 210.9 605 211.2C605.4 211.5 605.6 211.9 605.8 212.1C606.4 213.2 606.9 214.4 607.5 215.4C608.2 216.5 607.7 217.5 607.2 218.5C606.7 219.5 605.9 221.2 604.7 221.6C604.1 221.8 603.7 221.5 603.8 220.9C603.9 220.1 604.2 219.2 604.4 218.4C604.8 217.7 605.4 216.4 605.2 215.5C604.9 214.6 604.2 214.5 603.5 213.9L603.4 213.8C602.9 213.4 601.3 212 601.6 211.1ZM584.2 216.7C583.4 217.4 582.1 216.4 581.6 215.7C581 215 580.8 213.9 580 213.4C579.4 213 578.5 213.2 578 212.6C577.5 212 577.7 211.2 577.2 210.6C576.4 209.5 574.9 208.8 575.1 207.3C575.2 206.3 575.6 205.3 575.3 204.3C575.2 203.9 575 203.6 574.7 203.3C574.6 203.2 574.5 203.1 574.4 203C573.9 202.6 573.6 202.2 573.2 201.7C573.1 201.6 573.1 201.6 573.1 201.7L572.9 201.6C572.8 201.5 572.7 201.4 572.6 201.3C572.4 201.1 572.2 200.9 572.1 200.6C572 200.3 571.9 200 571.9 199.7C571.9 199.3 572.1 199.3 572.5 199.2C573.8 198.5 574.4 197.6 575.1 196.4C575.7 195.4 577.1 195.6 577.9 196.3C578.4 196.7 578.9 197.5 579 198.2C579.1 199.1 578.5 199.8 578.4 200.7C578.2 201.6 578.7 202.4 579.1 203.2C579.6 204 579.9 204.7 579.9 205.6C580 206.5 580 207.3 580.1 208.2C580.2 209.1 580.3 210 580.6 210.8C580.9 211.6 581.5 212.3 582 213C582.5 213.7 583.2 214.2 583.8 214.9C584 215 584.9 216.1 584.2 216.7Z" fill="#F3F3F3"/>
<path d="M200.7 302.8C199 302.4 198.1 304.1 196.9 303.7C195.7 303.2 195.2 302.5 195.2 300.9C195.2 299.2 195.1 295.5 196.5 293.9C198 292.2 199 289.7 196.4 289.9C193.8 290.2 191.9 290.6 191.3 289.3C190.7 287.9 192.7 286.2 195.1 286.2C197.4 286.2 201.1 285 200 283.8C199.2 283 195.6 279.8 193.4 277.8C192.9 278.3 192.5 278.7 192 279.2C191.9 279.2 191.7 279.4 191.7 279.5C191.5 279.7 191.3 279.9 191.3 279.9C191 280.2 190.8 280.5 190.5 280.8C190 281.2 189.5 281.6 189.1 282.1C188 283.3 187 284.5 185.9 285.6C184.8 286.7 183.3 287.2 182.1 288.2C180.9 289.2 179.9 290.1 178.5 290.9C177.2 291.6 176 292.6 174.7 293.3C173.4 293.9 172 294.8 171.4 296.2C170.8 297.5 170.4 299 169.7 300.3C169 301.7 167.8 302.4 166.4 303.2C166.2 303.3 166 303.4 165.9 303.5C168.6 306.8 172.6 313.5 173.5 312.8C174.5 312 175.4 310.5 176.4 311.1C177.4 311.7 180.3 313.8 181.5 313C182.6 312.2 185.8 309.5 185.8 309.5L189.6 313.3L195.9 312.9C195.9 312.9 197.8 308.9 199.4 307.8C200.8 306.4 202.4 303.2 200.7 302.8Z" fill="#F3F3F3"/>
<path d="M306.5 115.1L304.3 117.9L296.7 118.5L292.2 120.5L290.3 120L288.7 120.5L286.1 121.2L284.9 117.5L286.9 118L299.9 110.5L300.3 109.6L306.5 115.1Z" fill="#F3F3F3"/>
<path d="M320.9 100.4L321.8 104.2L320.5 105.5L309.9 107.2L307.3 108.5L302.8 104.3L303.8 102.2L297.3 99.2002L300.5 95.7002L310.9 99.7002L318.1 93.7002L322 94.2002L320.9 100.4Z" fill="#F3F3F3"/>
<path d="M327.9 143.4L325.8 148.7C325.8 148.7 322.3 148.5 321.3 148.5C320.2 148.5 319.5 149.9 316.8 151.4C314.1 152.9 308.5 152.4 305.4 152.6C302.3 152.8 301.4 151.8 300.2 151.3C299 150.8 296.7 149.9 294.7 150.1C292.7 150.3 289.2 146.4 289.2 146.4C289.2 146.4 282.4 153.2 280 155.8C277.6 158.4 275.4 158.6 272.1 159.5C268.9 160.4 262.2 158.4 260.9 158.5C259.6 158.6 258.6 158.2 257.3 157.3C256 156.4 251.3 156.4 249 156.4C246.7 156.4 247.8 159.2 247.2 161.6C246.6 164 244.9 164 243.8 165C242.7 166 245.6 168.2 244.4 170.2C243.2 172.2 237.3 172.5 236 173C234.7 173.5 233.3 173.2 232.4 172.6C231.5 172 229.1 172.9 227.6 173.3C226.1 173.7 222.5 180.8 221 183.3C219.5 185.8 216.6 186.4 214.8 187.1C213 187.7 211.2 193.9 211.2 193.9C211.2 193.9 207.2 190.9 206.4 190.2C205.6 189.6 203.6 190.2 201.8 190.8C200 191.5 200.1 194.1 199.2 195.6C198.3 197.1 195 197.5 192.8 198.6C190.6 199.7 189.2 195.1 188.5 194.1C188.1 193.6 186 193.7 184.4 194L183.1 190L206 171.1V156.8L217 154.2L217.2 147.4L225.9 147L227.9 139.9L222.2 134.8C222.2 134.8 204.6 138.7 191 137.1L192.2 130L203.8 121.1L204.4 114.6L213.7 108.1L213 95.3L221.9 92L233.4 97.7C233.4 97.7 240.3 93.3 240.5 93.3C240.6 93.3 253.1 98 253.1 98L249.7 111.5L259.7 115.1L261.8 121.4L274.9 115.1L285.2 117.5L286.5 121.2L289 120.5L294.1 123.3L296 126.2L297.1 130.7L303.1 131.1L305.4 133.5L317.9 133.7C317.9 133.7 322.8 137 323.7 138.3C324.5 139.6 324.1 141.3 325.7 142.2C326.9 143 327.9 143.4 327.9 143.4Z" fill="#F3F3F3"/>
<path d="M407.6 114.6L407.4 117.6L393 125.2C393 125.2 388.9 130.1 386.1 130.7C383.3 131.3 379.1 134.2 377.4 135.6C375.8 137 374.2 137.9 374.4 139.6C374.6 141.2 374.3 141.9 374.3 141.9L366.2 140.3C366.2 140.3 364.9 137.4 363.5 136.5C362 135.5 361.7 132.1 359.6 132.5C357.5 132.9 344.5 134.7 344.5 134.7C344.5 134.7 342.7 129.7 341.9 129.1C341.1 128.5 341.5 121.3 341.5 121.3L350.5 120.7C350.5 120.7 352.6 107.4 353.7 106.4C354.8 105.4 357 105 356.6 103.1C356.1 101.1 355.9 100.2 355.9 100.2L349.5 98.2999L348.1 94.2999H346.9C346.9 94.2999 345.5 99.3999 343.5 98.8999C341.4 98.4999 338.8 97.1999 338.8 97.1999L337.8 103.6L339.8 104.7L338.3 112.7L332.5 114.4L330.3 119.4L327 120L326 118.7L320.5 119.4L319.3 124.9L312.5 127.5L310.8 124.9L303.9 124.7L303 131.2L297 130.8L295.9 126.3L294 123.4L288.9 120.6L290.5 120.1L292.4 120.6L296.8 118.6L304.4 118L306.7 115.2L300.5 109.8L303 104.5L307.5 108.8L310.1 107.5L320.7 105.8L322 104.5L321.1 100.7L322.2 94.3999L318.3 93.9999L315.2 89.8999L320.9 87.2999L318.7 84.5999L310.7 84.2999L310.8 79.6999L319.3 77.1999L322.8 73.8999L332.9 73.4999L340.4 71.2999L343.2 66.3999L352.9 64.3999L355.9 69.4999L356.2 75.9999L346.7 78.2999L345.8 81.1999L357.7 83.4999L360 82.0999L362 85.3999L367.6 83.6999L374 87.2999L373.2 90.8999L376.8 94.4999L383.7 87.7999V85.6999L385.1 83.6999L391.5 86.0999V89.3999L399 98.0999L404.6 97.8999L405.2 102.5L407.1 104.7L405 111.1L407.6 114.6Z" fill="#F3F3F3"/>
<path d="M530.1 252.3L526.3 265.6L516.9 268.7C516.9 268.7 514.3 271 513.4 273.3C512.5 275.6 513.8 276.9 514.2 278C514.6 279 513.1 286.4 513 286.8L503.6 287.4L499 283L492.9 282.7L491 285.4L493.5 293.8L498.6 303.2L505.3 306.5V312.4L493.4 308.2L484.8 298.1L485.6 282.3L486.6 267.7V266.5L480.7 265.2L480.3 258.5C481 258.6 481.6 258.8 482.2 258.7C482.7 258.6 483.1 258.2 483.5 258C484 257.7 484.4 257.4 484.8 257C485.5 256.2 485.9 255.3 486.8 254.5C487.5 254 488.1 253.3 488.4 252.5C488.7 251.7 488.5 250.5 489 249.8C489.3 249.5 489.9 249.4 490.2 249.1C490.5 248.8 490.8 248.4 491.1 248.1C491.9 247.4 492.5 246.7 492.9 245.7C493.2 244.8 493.5 243.6 494.3 243C494.7 242.7 495 242.5 495.4 242.3L495.9 244.3L504.3 244.9L506 243.3C506.7 243.7 507.4 244 508.3 243.7C509.6 243.3 510.6 242.2 512.2 242.6C513.5 243 512.7 244.9 512 245.5C511.5 246.1 511.1 246.2 510.4 246C509.5 245.7 509.1 245.9 508.2 246.2C507.1 246.5 506.1 247.7 505.8 248.8C505.7 249.3 505.6 250 505.9 250.5C506.1 250.8 506.5 250.8 506.7 251C507 251.2 507.3 251.5 507.6 251.7C508.7 252.5 509.6 251.6 510.8 251.6C512.2 251.6 513.3 251.8 514.5 252.5C515.1 252.9 515.8 253.2 516.4 253.6C517.1 254 517.7 254.4 518.3 254.9C519.1 255.5 519.4 255.9 520.4 255.5C521.5 255.1 522.3 254 523.2 253.4C524 252.9 525 252.7 525.8 252.5C526.9 252.2 528 252.3 529.2 252.4C529.6 252.3 529.8 252.4 530.1 252.3Z" fill="#F3F3F3"/>
<path d="M493.3 308.2L475.1 317.1C475.1 317.1 471.4 314.3 471.2 314.1C471 313.9 466.8 316.2 466.8 316.2L459 312.9L449.2 315.4L440.5 311.7L437.2 307L428.1 307.5L430.4 301.7V299.5L426.4 293.5L430.7 283.4V278.9L435.1 271.4L440.8 273.6L449.9 262L449.3 256.7L455.7 253.2L463.5 253.4L466.9 252L468.8 250.4L479.9 251.1L484 253.1C483.7 254.1 483.5 254.8 482.2 255.2C481.3 255.5 480.3 255.4 479.6 256.1C479.2 256.5 478.5 257.7 478.6 258.3C479 258.4 479.5 258.5 479.9 258.6L480.3 265.3L486.2 266.6V267.8L485.2 282.4L484.4 298.2L493.3 308.2Z" fill="#F3F3F3"/>
<path d="M499.8 221.2L499.7 213.1L507.7 210.1L506.4 204.1L501 204.9L489 197.9L485.3 187.6L478.9 168.5L476.4 159.6L466.8 156.8L467.7 161.7L464 161.6C464 161.7 464 161.9 464 162C464 162.7 463.9 163.5 463.7 164.2C463.5 165 463.2 165.4 463.4 166.2C463.5 166.7 463.9 167.9 463.6 168.4C463 169.3 462.4 167.5 462.4 167.1C462.2 166.1 461.5 165.3 461.3 164.3C461.2 164.1 461.2 163.9 461.1 163.6L460.5 164.4L458.9 174.1L454 174.8L450.1 174.5L448.8 172.7L448.9 171.6L452.7 169.4L451.4 168.3L450.3 167L444.7 167.1L443.1 168.9L438.1 167.6L437.3 166.1L437 163.4L430.1 165.4L428.8 166.5L430.4 169.3L420.3 170.6L417.7 162.2L417.3 160L408 159.6L408.2 166.4L402 172.2L398.5 169.5L384.4 174.3V174.4L387.3 183.2L392.6 189.7L391.6 196.2L392.6 200.5L395.1 206.5L392 210.8L391 228.1L397.2 240.2L408.3 241.5L407.6 250.6L399.6 265.5L394.3 265.1L390.7 270.4L393.3 272.9L393 276.1L389.6 282L392.6 286.5L392 293.3L406.9 302.3L412.8 311.2L413.7 309.7L415.4 310.5L418.1 310.3L419.8 307.9L428.1 307.2L430.4 301.4V299.2L426.4 293.2L430.7 283.1V278.6L435.1 271.1L440.8 273.3L449.9 261.7L449.3 256.4L455.7 252.9L463.5 253.1V251.4L462 249.9L463.5 246.6L480.3 243L482.3 243.3C482.3 243.1 482.4 242.9 482.5 242.8C483.1 242 484.1 242.2 484.9 242.2C485.7 242.2 486.6 242.5 487.3 241.9C488 241.3 488.5 240.2 488.5 239.2C488.5 238.2 487.9 237.5 487.7 236.6C487.3 234.4 487 232.2 485.4 230.6C484.9 230.1 484.5 229.6 484 229.1C483.6 228.8 482.6 228.4 482.8 227.7C483.6 227.7 484.4 227.7 485.1 227.8C486.1 227.9 486.7 227.7 487.4 228.5C487.9 229.1 488.4 229.8 488.9 230.5C489.4 231.1 489.9 232 490.6 232.3C491.2 232.6 492.2 232.8 492.9 232.9C493.7 233.1 494.4 232.6 495.1 232.2C495.7 231.8 496.1 231.4 496.5 230.8C496.7 230.5 497.1 230.2 497.3 229.9C497.5 229.5 497.5 229.2 497.6 228.8C497.9 228 498.4 227.3 498.9 226.6C498.9 226.6 498.9 226.6 498.9 226.5L497.1 225.1V223.6L499.8 221.2ZM456.2 205.7C456 206.3 455.2 206.2 455 206.7C454.8 207.1 455.2 207.6 455.1 208.1C455 208.8 454.3 209.1 453.7 208.9C452.9 208.6 452.3 207.9 451.8 207.2C451.1 206.4 450.5 206.2 449.6 205.7C449.1 205.4 448.5 205.3 448 205C446.8 204.3 446 203 445.1 202C444.1 200.9 443.1 199.9 442.4 198.5C441.6 196.9 441.7 195.7 442 194C442.1 193.4 442.2 192.5 442.9 192.2C443.5 192 444.3 192.6 444.7 193C445.3 193.5 445.7 194.1 446.2 194.7C446.8 195.3 447.4 195.7 448.1 196.2C449.4 197.1 450.6 198.2 451.7 199.4C452.7 200.4 453.9 201.4 454.8 202.5C455.3 203 455.7 203.6 455.9 204.3C456 204.6 456.3 205.3 456.2 205.7ZM472.1 189.5C471.7 189.2 471.4 188.7 471.1 188.3C470.6 187.5 470.2 186.7 469.7 185.9C469.7 185 469.3 184.3 468.8 183.6C468.4 183 467.6 182.2 467.4 181.5C467.3 180.7 467.4 180.1 467.5 179.3C467.5 178.8 467.5 177.6 468.1 177.3C468.9 176.9 469.6 179.2 469.8 179.7C470.3 180.8 470.7 182.1 471.5 183.1C472.2 184 472.5 185 472.9 186.1C473.1 186.5 473.2 186.8 473.3 187.3C473.4 187.7 473.3 188.3 473.5 188.6C473.1 189.1 472.7 189.9 472.1 189.5Z" fill="#F3F3F3"/>
<path d="M556.9 193.3C556.9 193.3 553.7 194.2 552.5 194.8C551.3 195.5 550.2 192.4 549.8 190.9C549.4 189.4 546.9 189.7 545 189.4C543 189.1 543.1 187.4 543.3 184.9C543.5 182.4 539.8 179.6 538.7 178.8C537.5 178 535.4 174.6 535.4 174.6C535.4 174.6 520.5 177.7 518.4 178.2C516.3 178.7 515 178.4 514.4 177.5C513.8 176.6 510.9 177.3 508.8 177.7C506.7 178.1 503.3 173.2 502.3 171.5C502.1 171.1 501.7 170.3 501.3 169.3C501.3 169.3 497.3 173.4 498.2 174.9C499.1 176.4 501.1 179.8 500.2 181.6C499.4 183.4 499 184.5 499.6 186.1C500.3 187.7 500.9 191.9 501.2 193.2C501.5 194.5 502.7 197.6 502.1 200.2C501.5 202.8 500.7 202.4 501.1 204.9L506.5 204.1L507.8 210.1C507.8 210.1 509.3 213.2 514.8 214.5C514.6 213.2 515.3 212.4 516.3 211.5C516.8 211.1 517.6 210.5 517.7 209.8C517.9 209.1 517.2 208.7 516.8 208.3C516.1 207.8 515.4 207.3 515.1 206.5C514.7 205.8 514.8 205 514.7 204.2C514.6 202.7 513.4 201.7 513.2 200.2C513 199.2 513.1 198.3 513.2 197.3C513.3 196 513.3 194.4 512.9 193.1C512.5 191.9 512.5 190.6 513.6 189.8C514.5 189.2 516 189.5 516.9 189.8C518.1 190.1 518.8 191.5 519.7 192.3C520.7 193.2 522.7 194.4 522.7 195.9C522.7 196.5 522.2 196.9 521.9 197.4C521.6 198 521.5 198.6 521.2 199.2C521 199.8 520.8 200.3 520.8 201C520.8 201.7 520.9 202.3 520.7 203C520.4 204.1 518.9 204.7 519 205.9C519.1 207 519.9 207.9 520.3 208.9C520.6 209.7 520.4 210.6 520.7 211.5C521 212.1 521.6 212.5 522.2 212.9C523 213.5 524.1 214.1 524.8 214.9C525.7 214.8 526.5 214.7 527.2 214.8C529.3 215.1 530.7 214.9 531.4 215.6C532.1 216.3 534.1 218.5 535.3 217C536.5 215.5 536.3 214 538.8 214.2C541.3 214.4 549.2 214.3 550.5 212.2C551.8 210.1 554.5 205.7 555.7 204.6C556.9 203.5 558.1 201.4 558.2 199.2C558.2 196.8 558.8 194.9 556.9 193.3ZM548.9 211.2C547.6 212.4 545.9 210.2 545.2 209.2C544.9 208.7 544.5 208.3 544.3 207.8C544.2 207.5 544.2 207.1 544 206.9L543.9 206.8C543.3 206 542.1 206.2 541.2 206C540.2 205.7 539.5 204.9 539 204.1C538.5 203.3 537.8 202.1 538.7 201.5C539.6 200.8 540.6 201.4 541.3 202.1C541.7 202.5 542.1 203 542.7 203.2C543.1 203.3 543.5 203.1 543.9 203.1C544.7 203.1 545.8 203.8 546.4 204.3C547.2 205 548.1 206 548.7 206.9C549.6 207.9 550.1 210.1 548.9 211.2Z" fill="#F3F3F3"/>
<path d="M506.4 145.2C505.3 148.5 504.3 154.1 502.8 154.6C501.2 155.1 496 155.1 496.9 157.8C497.5 159.9 499.9 165.9 501.3 169.3C501.3 169.3 497.3 173.4 498.2 174.9C499.1 176.4 501.1 179.8 500.2 181.6C499.4 183.4 499 184.5 499.6 186.1C500.3 187.7 500.9 191.9 501.2 193.2C501.5 194.5 502.7 197.6 502.1 200.2C501.5 202.8 500.7 202.4 501.1 204.9L489.1 197.9L485.4 187.6L479 168.5L476.5 159.6L466.9 156.8L467.8 161.7L464.1 161.6C464.1 160.4 463.9 159.5 463.2 158.5C462.4 157.2 461.9 155.7 461.5 154.3C461.1 152.8 461.7 151 460.8 149.6C460.4 149 457.4 146.9 457.4 148.7C457.4 149.4 457.8 150.2 458 150.9C458.2 151.6 458.1 152.3 458 153C457.8 154.4 457.5 156.1 458.4 157.4C458.8 157.9 459.3 158.4 459.7 158.9C460.2 159.7 460.6 160.6 460.8 161.5C460.9 162.2 461 162.9 461.2 163.6L460.6 164.4L459 174.1L454.1 174.8L450.2 174.5L448.9 172.7L449 171.6L452.8 169.4L451.5 168.3L450.4 167L444.8 167.1L443.2 168.9L438.2 167.6L437.4 166.1L437.1 163.4L430.2 165.4L428.9 166.5L430.5 169.3L420.4 170.6L417.8 162.2L417.4 160L408.1 159.6L408.3 166.4L402.1 172.2L398.6 169.5L384.5 174.3L382.5 163.9C382.5 163.9 385.8 158.3 387.2 156C388.6 153.6 389.9 150.9 392.1 150.1C394.3 149.3 397.7 145 397.8 142.3C397.8 142.3 414.4 146.1 415.9 142.5C417.4 138.9 418.2 136.6 419.4 135.3C420.6 134 423.1 129.2 421.9 127.6C420.7 126.1 418 122 415.6 121C413.2 120.1 411.5 118.4 411.5 117.1C411.5 115.8 410.9 114.3 411.8 113.8C412.7 113.2 413.3 113.1 412.5 111.3C411.7 109.5 409.6 104 409.6 104L406.4 104.2L404.5 102L403.9 97.3999L398.3 97.5999L390.8 88.8999V85.5999L384.4 83.1999L383 85.1999V87.2999L376.1 93.9999L372.5 90.3999L373.3 86.7999L366.9 83.1999L361.3 84.8999L359.3 81.5999L363.9 78.7999L373 77.3999L376.7 74.8999L379 69.4999L393.2 67.5999L397.7 71.5999L400.8 77.6999L424.6 76.9999L428.7 73.8999L434.5 72.4999L437.9 66.3999L442.4 66.5999L454.6 56.3999L459.7 57.2999L461.4 60.9999L465.9 57.8999L475.4 59.5999L477.6 64.4999L482.5 69.8999L492.3 70.3999L497.6 67.6999L500.6 70.4999L501.8 70.3999L501.4 75.7999L492 88.3999L489.1 88.6999L489.6 99.4999L494.9 112.5L490 122.2C490 122.2 489.8 123.2 491.5 123.2C493.2 123.2 495.7 123.8 495.7 125.5C495.7 127.2 497.7 135.8 498.1 136.8C498.5 137.8 500.1 145.1 501.1 144.7C502.6 144.8 507.5 141.9 506.4 145.2Z" fill="#F3F3F3"/>
<path d="M559 22L562.5 28.2L551.8 28.4L548.6 34.7C546.3 34.9 541.2 36 538.4 41.1C538.1 41.2 530.3 44.1 530.3 44.1L528 41.6L525.3 42L521.1 48.8L511.1 49.7L505.8 44.6L498.7 42.8L496.7 32.9L506.1 25.7L512.2 12.4L521 11L527.7 4.8L528 1.2L536.3 0L540.9 3.4L540.8 12L543.7 15.1L545.6 11V3.6L553 6.7V13.1C553 13.1 555.9 11.7 556.1 11.7C556.2 11.7 563.7 15.5 563.7 15.5L559 22Z" fill="#F3F3F3"/>
<path d="M532.7 68.4998C531.5 69.0998 530.4 70.3998 530.6 71.7998C530.7 73.1998 531 77.3998 527.9 76.8998C524.8 76.4998 525.6 70.0998 523.4 69.1998L531.5 60.2998L533.6 63.1998C533.5 65.1998 533.4 68.0998 532.7 68.4998Z" fill="#F3F3F3"/>
<path d="M609.7 129.2C609.7 129.2 608 124.4 606.2 123.7C604.4 123 602.1 121 601.9 118.5C601.7 116.1 602 113.9 602.9 112.5C603.8 111.1 604.2 109.8 602.1 109.5C600 109.2 596.8 105.9 596.5 104C596.3 102.1 594 97.6002 595.1 96.8002C596.2 96.1002 598.6 94.7002 598.4 92.3002C598.2 90.0002 597.1 85.0002 591.4 82.4002C585.7 79.8002 581.6 77.8002 583.6 76.0002C585.7 74.1002 587.2 68.7002 579.7 67.4002C572.2 66.1002 567.8 63.0002 565.7 59.8002C563.6 56.6002 564.3 54.7002 568.2 55.0002C572 55.3002 572 55.2002 573.4 56.5002C574.7 57.8002 576.9 59.3002 578.5 57.4002C580.1 55.5002 583.3 50.5002 582.2 48.2002C581.1 45.9002 580.1 41.8002 576.4 42.1002C572.7 42.4002 574.4 46.8002 571.7 47.1002C569 47.4002 562.2 49.6002 557.2 47.0002C552.2 44.4002 551.2 40.4002 550.4 38.4002C549.9 37.1002 549.8 35.8002 549.8 35.2002L548.7 34.8002V34.7002C546.4 34.9002 541.3 36.0002 538.5 41.1002C538.6 41.1002 542.7 47.7002 542.7 47.7002L541 50.4002L537.6 46.6002L535.7 47.6002L537.2 51.5002L536.9 60.7002L533.9 63.6002L533.7 63.3002C533.7 65.2002 533.6 68.2002 532.9 68.6002C531.7 69.2002 530.6 70.5002 530.8 71.9002C530.9 73.3002 531.2 77.5002 528.1 77.0002C525 76.6002 525.8 70.2002 523.6 69.3002L531.7 60.4002L527.9 55.1002L521.9 53.1002L518.2 58.0002L509 62.3002L508 65.8002L514.4 66.3002L515.1 69.9002L502.7 70.8002L502.3 76.2002L492.9 88.8002L490 89.1002L490.5 99.9002L495.8 112.9L490.9 122.6C490.9 122.6 490.7 123.6 492.4 123.6C494.1 123.6 496.6 124.2 496.6 125.9C496.6 127.6 498.6 136.2 499 137.2C499.4 138.2 501 145.5 502 145.1C503 144.7 507.9 141.8 506.8 145.1C505.7 148.4 504.7 154 503.2 154.5C501.6 155 496.4 155 497.2 157.7C497.8 159.8 500.2 165.8 501.6 169.2C502 170.2 502.4 171 502.6 171.4C503.6 173.1 507 178 509.1 177.6C511.2 177.2 514.1 176.5 514.7 177.4C515.3 178.3 516.6 178.6 518.7 178.1C520.8 177.6 535.7 174.5 535.7 174.5C535.7 174.5 537.9 177.9 539 178.7C540.2 179.5 543.8 182.3 543.6 184.8C543.4 187.3 543.4 189 545.3 189.3C547.3 189.6 549.7 189.3 550.1 190.8C550.5 192.3 551.6 195.4 552.8 194.7C554 194 557.2 193.2 557.2 193.2C557.2 193.2 552.8 187.7 555.9 186.5C559 185.3 559.3 181.6 560.1 181.1C560.3 181 560.9 180.5 561.6 180C561.3 180 561 179.9 560.7 179.7C560.4 179.4 560.1 179.2 559.7 178.9C559 178.5 558.4 177.7 557.9 177.1C557.4 176.5 556.9 175.9 556.3 175.2C555.7 174.5 555.2 173.7 554.6 173.1C554 172.5 553.2 172.2 552.5 171.6C551.9 171.1 551.2 170.6 550.6 170.1C549.9 169.5 549.3 168.8 548.6 168.2C547.9 167.6 547.1 167.7 546.3 167.6C544.5 167.4 543 167.3 541.4 166.3C540.8 165.9 540 165.7 539.4 165.3C538.9 164.9 538.3 164.4 537.8 164C536.8 163.2 535.7 162.3 535.4 161C535.2 160.3 535.1 159.5 535.1 158.8C535 157.9 534.7 157.5 534.1 156.8C533.2 155.6 532.2 154.6 531.3 153.4C530.4 152.2 530.4 151 530.3 149.5C530.3 148.3 529.9 146.7 529.2 145.6C528.5 144.5 527.6 143.6 526.9 142.6C525.7 140.8 524.9 139.2 524.9 137C524.9 136.3 524.9 134.7 525.9 134.8C527.1 134.9 528.2 136.5 528.9 137.3C530.6 139.3 531.6 141.3 532.5 143.8C533 145.1 533.5 146.4 534.2 147.6C535.1 149.1 535.9 150.7 536.8 152.2C537.8 153.1 538.9 154.1 539.5 155.4C540.1 156.7 540.2 158.1 540.8 159.4C541.5 160.8 542.6 161.4 544 161.9C544.8 162.2 545.6 162.5 546.3 163C546.9 163.4 547.5 163.5 548.2 163.6C549.1 163.9 550 164.3 551 164.5C551.6 164.6 552.1 164.6 552.6 164.9C553 165.1 553.5 165.3 553.9 165.5C555.6 166.3 557.3 167.3 558.8 168.4C559.5 168.9 560.2 169.2 560.9 169.7C561.6 170.1 562.1 170.7 562.8 171.2C565.5 172.8 568.3 173.4 571.4 173.5C572.7 173.5 573.9 173.4 575.2 173.1C576.7 172.8 578.3 172.3 579.9 172.3C581.2 172.3 582.3 172.9 581.9 174.3C581.8 174.5 581.8 174.7 581.7 174.8L583.2 174.6C583.2 174.3 583.2 174 583.2 173.6C583.2 170.6 579.3 168.8 579.3 168.8C581.8 167.3 584.8 167.7 584.8 167.7L589.2 171L595.9 165.5L600.7 167.6L606.7 164.2L609.4 152.9C609.4 152.9 614.9 153.2 615.5 148.4C616.4 143.6 609.7 129.2 609.7 129.2ZM560 144.5C559.7 144.8 559.4 145.5 558.9 145.4C558.3 145.3 558.1 144.2 557.9 143.8C557.7 143.3 557.3 143 557.1 142.5C556.8 141.7 556.5 141.1 555.9 140.5C555.2 139.7 554.4 139 553.7 138.2C553 137.5 552.4 136.7 551.8 136C551.2 135.3 551 134.5 550.7 133.6C550.6 133.2 550.5 132.6 550.4 132.1C550.3 131.8 550.3 131.7 550.4 131.4C550.5 131.2 550.7 131 550.8 130.9C552.3 130.2 553.8 131.3 554.7 132.5C555.2 133.1 555.5 133.8 556 134.4C556.5 134.9 557 135.4 557.2 136.1C557.4 136.8 557.1 137.4 557.1 138C557.1 138.7 557.6 139.2 558.2 139.6C559.2 140.3 560.7 140.9 560.9 142.3C561 143.2 560.5 143.9 560 144.5ZM576.6 140C576 139.8 575.3 140.1 574.7 139.7C574.1 139.3 574.3 138.6 574.4 138C574.5 137.2 574.4 136.7 574 136C573.6 135.4 573.1 134.8 573.2 134C573.6 132.3 575.5 132.8 576.4 133.7C577.2 134.5 578.1 135.5 578.5 136.6C578.7 137.3 578.9 138.1 578.9 138.9C578.9 140.3 577.6 140.3 576.6 140Z" fill="#F3F3F3"/>
<path d="M709.3 89.2998L705.1 91.3998L695.2 93.3998H691.9L691.2 90.9998C691.2 90.9998 693.3 88.7998 692.5 87.9998C691.6 87.1998 689.2 87.9998 689.2 87.9998L686 89.1998L684.6 86.0998L687.1 84.2998L685 80.9998H680.2L674.3 84.8998L674.8 87.6998L678.4 85.5998L680.1 88.0998L678 89.2998L678.4 90.5998H681.2V92.3998L675.5 96.3998L673.2 94.6998L667.1 98.2998L665.4 96.6998C665.4 96.6998 665.8 92.3998 663.7 92.8998C661.6 93.3998 661.2 93.7998 661.2 93.7998L659.9 91.9998L656.6 93.7998L654.1 91.9998C654.1 91.9998 655.5 89.3998 654.1 88.7998C652.7 88.1998 650 88.9998 649.4 90.3998C648.8 91.7998 646.1 95.6998 646.1 95.6998L636.8 95.4998L635.4 92.5998L621.8 94.6998L624.1 102.9L626.5 107.6L624.8 111H618.8L615.5 119.9C615.5 119.9 612.8 121 612.6 122.4C612.4 123.8 613.9 126.1 612.6 127.2C611.3 128.2 609.8 129.4 609.8 129.4C609.8 129.4 608.1 124.6 606.3 123.9C604.5 123.2 602.2 121.2 602 118.7C601.8 116.3 602.1 114.1 603 112.7C603.9 111.3 604.3 110 602.2 109.7C600.1 109.4 596.9 106.1 596.6 104.2C596.4 102.3 594.1 97.7998 595.2 96.9998C596.3 96.2998 598.7 94.8998 598.5 92.4998C598.3 90.1998 597.2 85.1998 591.5 82.5998C585.8 79.9998 581.7 77.9998 583.7 76.1998C585.8 74.2998 587.3 68.8998 579.8 67.5998C572.3 66.2998 567.9 63.1998 565.8 59.9998C563.7 56.7998 564.4 54.8998 568.3 55.1998C572.1 55.4998 572.1 55.3998 573.5 56.6998C574.8 57.9998 577 59.4998 578.6 57.5998C580.2 55.6998 583.4 50.6998 582.3 48.3998C581.2 46.0998 580.2 41.9998 576.5 42.2998C572.8 42.5998 574.5 46.9998 571.8 47.2998C569.1 47.5998 562.3 49.7998 557.3 47.1998C552.3 44.5998 551.3 40.5998 550.5 38.5998C550 37.2998 549.9 35.9998 549.9 35.3998L552.7 36.3998L556 33.8998L560.4 34.8998C560.4 34.8998 560.3 30.7998 560.4 30.7998C560.5 30.7998 563.2 30.7998 563.2 30.7998L564.8 34.3998L568.4 35.0998L578.6 38.6998V36.3998L586 41.0998L585.9 41.1998C585.9 41.2998 585.9 41.3998 585.9 41.3998C585.9 41.4998 586 41.5998 586.1 41.6998C586.1 41.7998 586.2 41.7998 586.2 41.8998C586.3 41.9998 586.3 42.0998 586.4 42.0998C586.5 42.1998 586.6 42.3998 586.7 42.4998C586.8 42.5998 586.9 42.7998 587.1 42.7998C587.2 42.8998 587.3 42.9998 587.5 43.0998C587.6 43.1998 587.7 43.1998 587.8 43.1998C588.1 43.1998 588.3 43.4998 588.5 43.5998C588.9 43.8998 589.4 43.9998 589.9 44.1998C591.5 44.8998 593 45.7998 594.7 46.2998C596.6 46.7998 598.4 47.0998 600.4 47.0998C601.5 47.0998 602.5 47.2998 603.6 46.9998C604.4 46.7998 605.4 46.6998 606.2 46.3998C606.2 46.3998 605.9 46.3998 606 46.2998C606.2 46.1998 606.4 46.0998 606.6 45.9998C607 45.7998 607.5 45.6998 607.9 45.6998C608.6 45.5998 609.3 45.3998 610 45.1998C611.1 44.8998 612 44.2998 612.8 43.6998C613.6 43.0998 614.4 42.6998 615.2 42.0998C615.8 41.6998 616.2 41.1998 616.8 40.7998C617.4 40.2998 618.2 39.9998 619 39.6998C620 39.2998 621.1 39.1998 622.2 38.9998C623.2 38.6998 624 38.7998 625 38.6998C626.1 38.5998 627.2 38.4998 628.3 38.8998C628.8 39.0998 629.1 39.4998 629.5 39.6998C630.6 40.1998 632.1 39.6998 633.3 39.9998C634 40.1998 634.6 40.4998 635.2 40.7998C635.8 41.0998 636.4 41.1998 637 41.4998C637.9 41.8998 638.9 42.0998 639.8 42.3998C640.7 42.5998 641.1 42.9998 642 42.8998C642.8 42.7998 643.7 42.6998 644.5 42.9998C644.7 43.0998 644.3 43.1998 644.4 43.1998C644.8 43.3998 645.2 43.4998 645.5 43.6998C646 43.8998 646.6 44.0998 647.1 44.1998C647.6 44.1998 648.3 43.9998 648.6 43.7998C649.1 43.3998 649.2 42.6998 649.6 42.2998C649.8 42.0998 650.2 41.9998 650.6 41.8998C650.8 41.8998 651.1 41.8998 651.3 41.7998C652.7 41.6998 654.3 41.4998 655.7 41.7998C656.4 41.8998 657.3 42.1998 657.1 42.9998C656.9 43.6998 656 43.9998 655.9 44.5998C655.8 45.0998 656.8 45.9998 657.2 46.2998C657.3 46.3998 657.2 46.0998 657.2 46.0998C657.3 46.0998 657.6 46.2998 657.6 46.3998C657.9 46.5998 658.1 46.6998 658.4 46.7998C658.8 46.9998 659.4 47.1998 659.9 47.3998C660.8 47.7998 661.3 48.9998 662.3 49.3998C662.7 49.4998 663.5 49.4998 664 49.4998C664.6 49.4998 665.3 49.4998 665.9 49.5998C667 49.7998 668.4 50.6998 669.2 51.4998C670.1 52.2998 670.6 53.1998 671.9 53.3998C672.4 53.4998 673.1 53.5998 673.6 53.6998C674.2 53.6998 674.5 53.8998 675.1 54.0998C675.6 54.1998 676.1 54.2998 676.6 54.4998C677.1 54.6998 677.5 55.1998 678 55.4998C679.1 56.1998 680.1 56.9998 681.1 57.6998C682.1 58.4998 682.8 59.2998 683.6 60.1998C684.6 61.3998 685.8 62.4998 687 63.5998C687.8 63.5998 688.7 63.9998 689.4 64.3998C690.1 64.8998 690.7 65.0998 691.4 65.4998C692 65.7998 692.8 66.0998 693.4 66.3998C694.1 66.7998 694.5 67.2998 695 67.7998C696 68.6998 697 69.6998 697.3 70.9998C697.6 72.2998 697.5 73.5998 697.3 74.8998C697 76.6998 697.8 79.4998 699.4 80.4998C700.5 81.1998 701.7 81.7998 702.7 82.5998C704.4 83.9998 705.9 85.4998 707.3 86.9998C707.9 87.6998 708.7 88.4998 709.3 89.2998Z" fill="#F3F3F3"/>
<path d="M751.7 111.7L752.5 102.7L740.8 96.1998C740.2 95.9998 739.9 95.4998 739.4 95.1998C738.8 94.7998 738.4 94.5998 737.9 94.0998C736.8 92.9998 735.9 90.0998 734.1 90.3998C733.6 90.4998 733.6 90.6998 733.4 90.9998V91.1998H733.3C733 91.5998 732.7 91.9998 732.4 92.3998C731.9 93.0998 731.1 93.5998 730.5 94.0998C729.9 94.5998 729.4 95.1998 728.7 95.4998C728.1 95.6998 727.5 95.8998 726.9 96.0998C725.4 96.5998 723.9 96.9998 722.3 96.9998C720.9 96.9998 719.4 96.6998 718.1 96.1998C717.2 95.7998 716 95.2998 715.3 94.6998C714.2 93.6998 713.2 92.4998 712 91.4998C711 90.6998 710.1 90.1998 709.3 89.0998L705.1 91.1998L695.2 93.1998H691.9L691.2 90.7998C691.2 90.7998 693.3 88.5998 692.5 87.7998C691.6 86.9998 689.2 87.7998 689.2 87.7998L686 88.9998L684.6 85.8998L687.1 84.0998L685 80.7998H680.2L674.3 84.6998L674.8 87.4998L678.4 85.3998L680.1 87.8998L678 89.0998L678.4 90.3998H681.2V92.1998L675.5 96.1998L673.2 94.4998L667.1 98.0998L665.4 96.4998C665.4 96.4998 665.8 92.1998 663.7 92.6998C661.6 93.1998 661.2 93.5998 661.2 93.5998L659.9 91.7998L656.6 93.5998L654.1 91.7998C654.1 91.7998 655.5 89.1998 654.1 88.5998C652.7 87.9998 650 88.7998 649.4 90.1998C648.8 91.5998 646.1 95.4998 646.1 95.4998L636.8 95.2998L635.4 92.3998L621.8 94.4998L624.1 102.7L626.5 107.4L624.8 110.8H618.8L615.5 119.7C615.5 119.7 612.8 120.8 612.6 122.2C612.4 123.6 613.9 125.9 612.6 127C611.3 128 609.8 129.2 609.8 129.2C609.8 129.2 616.5 143.6 615.9 148.5C615.3 153.3 609.8 153 609.8 153L607.1 164.3L601.1 167.7L596.3 165.6L589.6 171.1L585.2 167.8C585.2 167.8 582.1 167.4 579.7 168.9C579.7 168.9 583.6 170.7 583.6 173.7C583.6 174 583.6 174.4 583.6 174.7C583.6 175.7 583.7 176.7 583.8 177.4C584 177.3 584.3 177.2 584.6 177.1C585.1 177.1 585.4 177.3 585.9 177.4C586.4 177.5 586.9 177.6 587.4 177.6C588.6 177.7 589.3 177.4 590.3 176.8C591.2 176.3 592 175.9 592.9 175.9C594.6 175.9 596.3 176.1 598 176.2C599.3 176.3 600.7 176.3 602 175.9C603.2 175.5 604.3 174.8 605.6 174.6C607.5 174.2 609.9 175.1 608.9 177C610.4 177.1 611.3 177.3 611.4 177.7C611.8 180 612.4 186 612.4 186C612.4 186 619.4 186.9 620.7 189.4C620.9 189.8 621.3 190.5 621.7 191.4C624 195.5 629.5 203.5 641.3 203C641.3 202.8 641.4 202.6 641.7 202.3C642.2 201.8 643 201.6 643.5 201.1C644 200.6 644.6 200.4 645.3 200.2C646 200.1 646.6 199.9 647.3 200.1C648.1 200.3 648.9 200.7 649.7 200.8C651.3 201.1 652.9 201.4 654.6 201.5C655.8 201.6 657.1 201.7 658.3 202C659.1 202.3 659.8 202.7 660.7 202.9C662.6 203.4 664.6 203.8 666.6 203.6C668.2 203.4 669.8 202.9 671.4 203C673 203.1 674.5 203.6 676.2 203.6C677.7 203.6 678.9 203 680.3 202.6C681.4 202.3 682.1 202.8 682.2 204C682.3 205.4 681.5 206.8 680.2 207.3C678.6 207.9 676.8 207.2 675.2 206.9C673.6 206.6 672.1 206.6 670.5 207C667.7 207.7 665.1 208 662.3 207.4H662.4H662.3C662 207.3 661.8 207.3 661.6 207.3C661.3 207.2 660.9 207.1 660.6 207C660 206.8 659.4 206.6 658.7 206.5C658.5 206.5 658.4 206.4 658.2 206.4C659.7 208.6 659.5 210.9 659.5 210.9C659.5 210.9 662 221.4 658.7 223.3C655.4 225.1 649.3 227 650.7 229.2C652.1 231.3 654.7 233.4 659.3 232.8C664 232.2 665.7 231.6 666.8 233.4C667.9 235.1 672.1 238.3 672.4 243.7C672.7 249.1 673.9 252.6 672.3 253.7C670.7 254.8 669.4 257.3 670.6 258.1C671.8 258.8 673.9 260.2 673.6 261.7C673.5 262.3 673.4 263.6 673.6 265.1C674 267.6 675.1 270.5 678.4 270.5C683.6 270.4 697.2 271 699.7 272.5C702.2 274 713.6 280.3 714.9 278.8C716.2 277.3 718.9 275.8 719.3 270.4C719.8 265 720.9 261.1 722.4 259.4C723.9 257.7 727.6 249.9 729.9 249.6C732.1 249.3 733.6 246.9 732.3 244.3C731 241.8 721.7 231.3 720.9 224.8H720.7L720.3 220.6L727.1 213.9C727.1 213.9 726.8 205.4 726.5 202.9C726.1 200.4 725.3 197.1 722.5 192.8C719.7 188.5 723 175.4 723.8 169.9C724.5 164.3 732.5 152.7 733.8 150.6C735.2 148.5 735 148.3 738.2 146.7C741.3 145.1 742.1 141.3 743.3 137.1C744.6 132.9 748.4 130.2 753.9 125.8C759.3 121.2 751.7 111.7 751.7 111.7ZM739.8 110.5L737.2 113.1L738.7 116.2L737.4 117.1L732.4 120.8L730.2 120.4L722.1 122.9L720.7 125.9L721.8 135.6L723.8 141.4L721.2 153.5L712 164L699 170.8L689.8 167L685.9 169L676.3 160.3L673.1 162.4L661.5 159.2L661.2 157.6L666.7 152.9L662.9 149.6V144.5L666.3 141.4C666.3 141.4 659.6 137 659.3 137.1C659 137.2 665.2 126.6 665.2 126.6L666.7 120.6L675.2 119.9L679.4 121.9H689.9L695.3 117.7L699.3 120.5L705.6 117L706.2 115.8L705.1 113.4L705.5 112.3C705.5 112.3 707.8 111.5 707.9 111.5C708.1 111.5 710.4 112.9 710.4 112.9L713.3 112.3L717.2 107.5L725.1 105.2L725.5 103.1L729.9 102.1L739.2 105.8L738.8 107.8L739.8 108.4V110.5Z" fill="#F3F3F3"/>
<path d="M739.2 105.6L738.8 107.6L737.8 107L733.4 110L733.7 112.8L735.9 113.1V114.6L737.4 117.1L732.4 120.8L730.2 120.4V118.7H732.6L733.4 117.5L732.9 115.7H729.5V113.3L728.3 112.1L724.6 114.2L722.2 122.9L720.8 125.9L721.9 135.6L712.7 135.9L703.6 128.9L698.4 128.2L696.2 125.7L691 126.2C691 126.2 692 129.7 692.5 131.6C692.5 131.6 691.3 133.6 689.5 139.4C689.5 139.4 687.1 139.1 686.3 141.8L682.4 143.3C682.4 143.3 682.7 146.6 681.3 150.3C681.3 150.3 686.2 151.9 686.9 156.7C687.6 161.5 688.1 158.1 688.6 161.5C689.1 164.8 689.8 167 689.8 167L685.9 169L676.3 160.3L673.1 162.4L661.5 159.2L661.2 157.6L666.7 152.9L662.9 149.6V144.5L666.3 141.4C666.3 141.4 659.6 137 659.3 137.1C659 137.2 665.2 126.6 665.2 126.6L666.7 120.6L675.2 119.9L679.4 121.9H689.9L695.3 117.7L699.3 120.5L705.6 117L706.2 115.8L705.1 113.4L705.5 112.3C705.5 112.3 707.8 111.5 707.9 111.5C708.1 111.5 710.4 112.9 710.4 112.9L713.3 112.3L717.2 107.5L725.1 105.2L725.5 103.1L729.9 102.1L739.2 105.6Z" fill="#F3F3F3"/>
<path d="M508.9 323.8C508 321.4 509.3 318.3 510.4 317.6C511.5 316.8 509.1 313.2 509.1 313.2L508.5 313.4L505.2 312.3L493.3 308.1L475.1 317C475.1 317 471.4 314.2 471.2 314C471 313.8 466.8 316.1 466.8 316.1L459 312.8L449.2 315.3L440.5 311.6L437.2 306.9L428.1 307.4L419.8 308.1L418.1 310.5L415.4 310.7L413.7 309.9L412.8 311.4L406.9 302.5L392 293.5L392.6 286.7L389.6 282.2L393 276.3L393.3 273.1L390.7 270.6L394.3 265.3L399.6 265.7L407.6 250.8L408.3 241.7L397.2 240.4L391 228.3L392 211L395.1 206.7L392.6 200.7L391.6 196.4L392.6 189.9L387.3 183.4L384.4 174.6V174.5L382.4 164.1C382.4 164.1 379.5 164.1 377.8 164C376.1 163.9 375 167.3 375 167.3L370.9 167.1L370.2 164.6L370.9 162.6L368.4 162.2L365.6 165.9L360.7 164.5L351.3 155.6L341.2 159.5L332.8 160.5L333.1 162L333.8 164.8C333.8 164.8 334.2 169 334.5 170.4C334.8 171.7 336.1 172.5 337.1 172.9C338.1 173.3 338 173.3 338.5 173.9C339 174.5 339.7 175.5 342.1 176.3C344.5 177.1 345 183.9 345 183.9L350.4 185L350.8 190.5L347.1 193.3L345.3 197.5L336 198.5L331.8 193.7L323.5 194.6L320.7 197.4L319.4 206.5L308.3 210.8L309.1 218.1L308.5 218.9L303.1 221.3L302 220.9L302.7 215.7L300.2 214L293.3 216.9L287.9 208.4L290.6 206.3L299.7 209.3L301.1 207L299.6 205.7L298.8 202.1C298.8 202.1 302.6 199.1 304 197.6C305.4 196 309 196.4 311.6 196.5C314.2 196.7 314.6 195.9 314 192.5C313.5 189.1 308.8 188.4 307.7 188.4C306.6 188.4 303.5 189.2 302.2 190.4C300.9 191.6 294.3 194.2 294.3 194.2L289.2 185H285.2L281.6 178.6C281.6 178.6 285.9 177.3 289 175.8C292.1 174.3 297.5 170.5 297.5 170.5L298.6 166.7L308.1 163.6L312.3 157.4L322.3 154.3L323.8 152.9L325.5 148.6C325.5 148.6 322 148.4 321 148.4C319.9 148.4 319.2 149.8 316.5 151.3C313.8 152.8 308.2 152.3 305.1 152.5C302 152.7 301.1 151.7 299.9 151.2C298.7 150.7 296.4 149.8 294.4 150C292.4 150.2 288.9 146.3 288.9 146.3C288.9 146.3 282.1 153.1 279.7 155.7C277.3 158.3 275.1 158.5 271.8 159.4C268.6 160.3 261.9 158.3 260.6 158.4C259.3 158.5 258.3 158.1 257 157.2C255.7 156.3 251 156.3 248.7 156.3C246.4 156.3 247.5 159.1 246.9 161.5C246.3 163.9 244.6 163.9 243.5 164.9C242.4 165.9 245.3 168.1 244.1 170.1C242.9 172.1 237 172.4 235.7 172.9C234.4 173.4 233 173.1 232.1 172.5C231.2 171.9 228.8 172.8 227.3 173.2C225.8 173.6 222.2 180.7 220.7 183.2C219.2 185.7 216.3 186.3 214.5 187C212.7 187.6 210.9 193.8 210.9 193.8C210.9 193.8 206.9 190.8 206.1 190.1C205.3 189.5 203.3 190.1 201.5 190.7C199.7 191.4 199.8 194 198.9 195.5C198 197 194.7 197.4 192.5 198.5C190.3 199.6 188.9 195 188.2 194C187.8 193.5 185.7 193.6 184.1 193.9L184.9 196.3L184.7 196.4C190.3 199 191.2 203.4 191.4 206.6C191.6 210.1 187.9 217.4 187.9 217.4L190.5 219.9L197.2 213.3L208.8 212L209.6 210L221.8 207L222.4 208.2L220.1 213.7L223.3 217.6L226.3 214.3L231.2 218L228.9 222.2L234 226.2C234.1 226.1 234.3 225.9 234.4 225.8C235.3 225 236.1 224.1 236.8 223.2C237.6 222.3 238.1 222.1 239.2 221.7C240.7 221.1 241.9 220 243.1 219.1C244.8 217.7 247.1 217.3 248.9 215.9C250.9 214.3 252.2 211.8 254 209.9C255 208.8 256.1 207.6 257.3 206.6C258 205.9 259.1 204.8 260.2 204.7C261.3 204.6 261.4 205.7 261.3 206.6C261 208.6 259.9 210.9 258.8 212.5C257.1 214.9 255 216.8 254.4 219.8C254.2 220.7 254.2 221.3 253.6 222C251.9 224.1 250 225.6 249.1 228.3C248.1 229.3 247 230.6 245.6 231C244.2 231.5 242.6 231.4 241.2 231.8C240.3 232.1 239.5 232.8 238.7 233.3C237.9 233.7 236.4 234.4 235.5 233.9C234.6 233.3 235.3 232.4 235.9 231.9C237.6 230.4 239.6 230.2 241 228.3C242.5 226.3 244.1 224.1 243.7 221.5C243.1 221.4 242.7 222.1 242.4 222.5C242.4 222.5 242.4 222.5 242.4 222.4C241.3 223.9 240.2 225.4 239.1 226.9C237.3 229.2 234.8 229.9 232.1 230.9C232.3 231.1 231.2 231.1 230.9 231C230.4 231 229.9 231 229.6 230.5C229.4 230.2 229.4 229.9 229.4 229.6C220.9 233.6 219.9 241 220 244.5C220.3 244.6 220.5 244.8 220.7 245C221.2 245.4 221.6 245.8 221.8 246.3C222.7 246.3 223.7 246.6 224 247.7C224.2 248.4 224.7 250.5 225.2 252.8L234.5 251L239.4 249.7L242.4 249.3L248.4 246.2L256 240.9L261.6 246.8L256.5 253.8L255.9 257.7L252.9 259.9L256.2 263.4L256.8 267.1L259 266.5L251.9 273.2L253.7 275.5L259.3 274.3L265.5 274.7C265.5 274.7 269.1 279 272.9 278.5C276.7 278 281.1 274.7 284.1 276.7C287 278.8 287.9 278.6 287.7 281.5C287.5 284.3 288 286.7 287 288.2C286 289.7 284.5 292.7 283.7 291.7C282.9 290.7 282.9 288 282.9 288L279 286L277.4 290.2C277.4 290.2 282.7 292.5 282.3 295.2C281.8 297.9 279.5 298 279.4 300.6C279.3 303.2 278 306.6 277.9 307.7C277.7 308.8 277.2 310.5 276.3 311.1C275.4 311.7 274.3 312.1 274.8 313.6C275.3 315.1 278.1 319.7 277 321.6C275.9 323.5 275.5 324.3 275.9 325.6C276.3 326.9 277 328.6 277 328.6C277 328.6 286.9 331.3 286.7 332C286.5 332.8 287 334.3 288.4 334.9C289.8 335.5 291.5 335.7 291 338.5C290.5 341.4 290.8 348.5 289.7 349C288.7 349.4 288.1 351.1 287 350.4C286 349.7 285 348.5 283.6 348.5C282.2 348.6 280.3 348.5 280.2 350C280.2 351.5 281.8 354.2 280.2 354.9C278.6 355.6 276.9 355.9 277 357.4C277.1 358.9 277.2 360.2 278.1 361.2C279 362.3 280.6 363.2 279.9 364.3C279.2 365.4 278.5 370.8 276.6 370.6C274.7 370.4 271.5 369.8 270.5 371.8C269.5 373.8 264.4 379.3 259.8 381.4L263.3 384.8C263.3 384.8 264.4 393.8 263.1 395.1C261.8 396.4 260.4 397.9 260.2 400.4C260 402.9 260.2 412 258 412.4C255.8 412.8 251.8 413.7 253.5 417.3C255.2 420.9 255.3 423.1 254.5 424.9C253.7 426.7 252.9 430.5 254.9 433.1C257 435.7 258.4 438 258.2 439.9C258 441.8 257.9 447.8 257.9 447.8L262.5 447.1L264 446L267.4 445.1L268 442.6L267.6 439.2L271.8 435.6H277.4L277.9 441.7C277.9 441.7 289.5 438 289.5 437.9C289.5 437.8 291 435.1 291 435.1C291 435.1 301.8 431.7 301.9 431.7C302 431.7 305 429.9 305 429.9H309.4L313.8 431.8L327.9 429.3V427H321.1L319.6 424.6L323 422.3L327.2 421.9L332.2 420L335.7 421.9L343.7 411.5L349.4 415.4L354.1 416.4L360.3 419.5L370.7 413.5L378.8 409.3C378.8 409.3 386.2 400.9 386.3 400.9C386.4 400.9 392.4 400.9 392.4 400.9L396.5 399.6C396.5 399.6 397.2 398.6 399.2 398.2C401.2 397.8 404.7 396.5 405.3 395.3C406 394.1 407 393.8 408 393.5C409 393.2 410 393.8 410.8 392C411.6 390.3 414.2 386.7 413.5 386.1C412.8 385.4 411.2 383.4 412.7 382.3C414.2 381.1 422.3 374.6 422.3 374.6C422.3 374.6 427.2 378.1 431.5 378.2C435.8 378.4 438.4 378.5 438.4 378.5L445.3 384.4C445.3 384.4 458.6 383.8 459.6 385.2C460.6 386.7 462.5 389.2 465.2 388.1C468 387 482.4 380.5 482.4 380.5C482.4 380.5 492.2 374 493.2 369.4C494.1 364.8 497.1 352.6 497.1 352.6L501.1 346.2L499.4 341.4L502.4 336.9L507.7 337.2L510.9 333.9C511.4 334.2 509.7 326.2 508.9 323.8ZM383.9 345.6C380.3 346 376.8 345.2 375.4 346.2C374 347.2 372.4 348.6 370 347.3C367.6 345.9 363.8 343.8 361.9 342.5C360 341.2 356.5 337.4 355.3 337.2C354.1 337 352.8 337 352 335.9C351.3 334.8 350.6 333.5 349.4 333.3C348.2 333.1 348 333.5 347.5 332.2C347 330.9 347.9 330.5 346.9 329.9C345.8 329.3 342.4 327.9 343.8 326.7C345.2 325.5 346.5 325.7 345.7 324.3C344.9 322.8 344 320.3 346.1 322C346.1 322 351 325.9 352 327.1C353 328.4 355.3 331.6 359.9 332.7C364.5 333.8 364 335.6 365.5 337.2C367 338.9 367.1 341.6 372.1 341C377.1 340.4 378.8 339.6 380.8 341C382.7 342.5 387.5 345.2 383.9 345.6ZM429.6 320.9C428.4 323.4 424.7 321.3 421.5 324.6C418.3 327.9 408.8 335 408.8 335C408.8 335 406.5 336.8 405.7 336.8C404.9 336.8 403.5 337.1 403.4 337.7C403.2 338.2 401.4 339.1 399.7 339C397.9 338.9 394.5 338 397.2 337C399.8 336 400.4 335.8 401.7 334.1C403 332.4 408.4 329.7 410.3 326.9C412.3 324.1 415.7 319.6 418.6 319.2C421.4 318.8 430.9 318.4 429.6 320.9Z" fill="#F3F3F3"/>
<path d="M234 226.5C233.8 226.7 233.5 226.9 233.3 226.9C233.2 226.9 232.5 227 232.5 226.9C231.7 227.6 229.7 228.6 229.4 229.8C220.9 233.8 219.9 241.2 220 244.7C219.1 244.3 218 244.2 217 244.2C215.4 244.1 213.9 244 212.4 243.6C211.1 243.2 209.5 242.5 208.1 243C206.7 243.5 206 245.1 205.4 246.4C203.6 248.3 202.2 250.6 199.4 250.3C198.7 250.2 198 250.3 197.3 250.3C196 250.3 195.1 250.7 194.2 251.5C193.2 252.4 191.9 252.5 190.9 253.4C189.9 254.3 189.3 255.2 189.2 256.5C189.1 257.1 189.2 257.7 189 258.3C188.7 258.9 188.1 259.4 187.7 260C187.7 260.1 187.7 260.1 187.8 260.1C186 261.5 184.2 262.3 183.8 264.7C183.6 265.7 183.7 266.9 182.6 267.2C181.8 267.5 180.8 267.1 180 267.2C176.9 267.6 174.6 270.6 173 273.2C171.6 274.9 169.7 277.6 167.3 277.9C166.1 278.1 165.7 278.6 165.2 279.8C164.8 281.1 165.2 282.1 165.1 283.3C165.1 283.9 164.9 284.4 164.7 284.9C160.5 283.6 160.3 281 160.4 279C160.5 276.6 158.1 274.9 157.3 274C156.5 273 156.8 271.3 157.7 268.8C158.6 266.3 156.8 265.6 155.9 264.7C155 263.8 152.2 266.4 147.9 268.1C143.6 269.8 142.9 270.3 141 273.4C139.1 276.5 131 277.5 129.3 278.4C127.6 279.3 118.5 287.5 114.3 288.9C112.3 289.6 108.5 289.3 105.2 288.9L105.8 272.3L100.6 264.4L110.4 252.8L115.2 253.7L141.8 243.7L145.1 236.1L158 231.1L154.2 219.5L163.2 215.4L163.5 208.2L184.5 197C190.1 199.6 191 204 191.2 207.2C191.4 210.7 187.7 218 187.7 218L190.3 220.5L197 213.9L208.6 212.6L209.4 210.6L221.6 207.6L222.2 208.8L219.9 214.3L223.1 218.2L226.1 214.9L231 218.6L228.7 222.8L234 226.5Z" fill="#F3F3F3"/>
<path d="M263.5 385.3L260 381.9C260 381.9 258.3 385.2 257.1 387.2C255.9 389.3 254.7 384.2 254.2 383C253.7 381.8 248.2 386.7 245.3 388.5C242.4 390.3 240.9 394.4 239.2 397.2C237.5 400 234.6 399.6 230.5 399.9C226.4 400.2 223.6 403.9 221.6 405C219.6 406.2 218.7 407.2 218 410.7C217.3 414.1 213.2 413.9 211.4 414.9C209.6 415.8 210.8 409.9 211 407.4C211.3 404.9 210.2 403 209 398.9C207.8 394.8 195.4 394.3 190.9 394C186.4 393.7 186.9 397.6 184.2 398.1C181.6 398.6 180.2 392.3 180.4 390.9C180.6 389.4 179.2 389.4 177.5 388.9C175.9 388.4 177.2 384 177.2 384L179.4 384.4L181.7 382C181.7 382 184.5 386.2 186 386.7C187.5 387.2 188 384.9 187.8 383.3C187.6 381.7 195.1 375.9 195.1 375.9L185.9 375.2L183.5 372.8L181.6 372.7L179 371.5L172.9 374.1L171.7 354L174.2 350L182 346.2C184.4 350 186 349.2 187.2 348.7C188.4 348.1 186.8 340.3 186.8 340.3L188.1 339L191.2 338.6L203.4 321.6L197.8 320.6L203.8 310.9L209.4 305.9L208.5 304.5L206.6 305.9L205.7 303.4L207.8 298.2H212.5L214.2 295.6L210.2 287.2L212.3 284.3L210 278.5L207.5 279.3L203.7 282.1L199.5 274.6H199.4C198.9 274.7 198.6 274.5 198.2 274.3C197.9 274.2 197.7 273.8 197.2 274C196.6 274.2 195.9 275.5 195.4 276.1C194.9 276.8 194.3 277.4 193.7 278C195.9 280 199.5 283.2 200.3 284C201.4 285.2 197.8 286.4 195.4 286.4C193.1 286.4 191 288.1 191.6 289.5C192.2 290.9 194.1 290.4 196.7 290.1C199.3 289.8 198.2 292.4 196.8 294.1C195.3 295.8 195.5 299.4 195.5 301.1C195.5 302.8 196 303.4 197.2 303.9C198.3 304.4 199.3 302.6 201 303C202.7 303.4 201.1 306.6 199.6 307.7C198.1 308.8 196.1 312.8 196.1 312.8L189.8 313.2L186 309.4C186 309.4 182.9 312.1 181.7 312.9C180.5 313.7 177.6 311.6 176.6 311C175.6 310.4 174.7 311.9 173.7 312.7C172.8 313.4 168.7 306.7 166.1 303.4C165.2 303.8 164.2 304 163.2 303.7C162.2 303.4 161.3 302.8 160.2 302.7C159 302.5 157.8 303.3 156.6 303.5C155.6 303.7 154.7 303.7 153.7 304.1C151 305.2 148.2 306.2 145.6 307.5C144.4 308.1 141.4 310.8 141 308.1C140.7 306.5 141.1 303.8 141.8 302.3C142.7 300.6 144.7 300.4 146.3 299.8C149.2 298.7 150.7 296.8 152.7 294.5C153.6 293.4 154.6 292.3 155.9 291.7C156.9 291.2 158 291 159.1 290.6C161 289.8 162.2 287.9 163.7 286.5C164.2 286 164.7 285.4 165 284.7C160.8 283.4 160.6 280.8 160.7 278.8C160.8 276.4 158.4 274.7 157.6 273.8C156.8 272.8 157.1 271.1 158 268.6C158.9 266.1 157.1 265.4 156.2 264.5C155.3 263.6 152.5 266.2 148.2 267.9C143.9 269.6 143.2 270.1 141.3 273.2C139.4 276.3 131.3 277.3 129.6 278.2C127.9 279.1 118.8 287.3 114.6 288.7C112.6 289.4 108.8 289.1 105.5 288.7V289.3L100.4 296.3L101.9 309.8L92.1 317.2L86.3 326.8L68 336.6L33.9 371.5L42 384L26.7 403.7L28.8 411.7L24.5 419.2L41.1 430.3L41.3 440.5L34.1 453.8L44.8 455.2C46.1 453.1 47.9 451.5 49.7 449.9C50.6 449 50.6 448.2 50.8 447C51 445.9 51.2 444.9 51.3 443.8C51.3 442.8 51.6 442 51.9 441C52.1 440.1 52.4 439.1 53.1 438.5C53.5 438.2 53.8 438 54.1 437.6C54.5 437.1 54.7 436.5 55 436C55.7 435 56.8 434.5 57.5 433.6C58.1 432.9 58.7 432.2 59.2 431.4C59.7 430.6 60.1 429.8 60.7 429.1C61.4 428.3 61.9 427.8 62.9 427.7C64 427.6 65.1 427.5 65.8 426.6C66.4 425.8 66.3 424.7 67 423.9C67.4 423.4 67.9 423.4 68.4 423C68.9 422.6 68.9 422.2 69 421.7C69.2 420.6 68.9 419.6 69 418.5C69.2 417.4 70.5 417.3 71.3 416.9C71.8 416.7 72.2 416.5 72.4 416C72.6 415.5 72.6 415 72.9 414.6C73.4 413.9 74.6 413.8 75.3 413.2C76.1 412.6 76.5 411.9 76.4 410.9C76.3 410 75.5 409.1 76.4 408.4C77.2 407.8 78.2 408 79.2 408C80.5 408 81.7 407.7 82.9 407.3C84 406.9 85 406.4 86.2 406.6C87.1 406.7 88.2 406.8 89.1 407.1C90 407.5 90.6 407.5 91.6 407.3C92.4 407.1 93.3 406.7 93.9 406.2C94.6 405.6 95 405.2 96 405.2C96.9 405.2 97.8 405.4 98.7 405.4C99.6 405.4 100.2 405.1 100.9 404.5C101.2 404.2 101.5 403.8 101.8 403.5C102.6 402.8 103.8 402.2 104.4 401.3C104.9 400.5 104.9 399.3 105.6 398.7C106.2 398.2 107.2 398.3 108 398.3C110 398.2 109.9 397.1 110.8 395.6C111.4 394.6 112.6 393.5 113.5 392.7C114.9 391.6 116.1 392.7 117.2 393.5C118.6 394.5 119.7 394.1 121.2 393.7C122.6 393.4 124.1 393.6 125.4 392.9C126.6 392.3 127.4 391.2 128.9 391.5C130.4 391.8 131.6 392.5 133.1 392.6C134.7 392.7 135.5 393.1 136.7 394.3C137.7 395.4 138.9 395.8 140.3 395.5C142 395.1 143.5 394.8 145.2 395C146.9 395.2 148.5 395.8 150.1 396C151.6 396.2 153.7 396.2 154.6 397.6C155.4 398.7 155.7 400.6 157.2 400.9C158.6 401.1 160.3 400.3 161.8 400.3C163.5 400.2 164.6 400.7 165.9 401.8C166.6 402.4 167.2 402.9 168 403.2C168.7 403.5 169.5 403.4 170.3 403.5C171.6 403.6 172.9 404 174 404.7C175.1 405.4 176.1 407 177.5 406.9C178.2 406.9 178.7 406.5 179.4 406.8C180.4 407.2 180.8 408.2 181.5 409C182 409.5 182.5 409.9 183 410.3C184.5 411.7 185.9 412.9 187.8 413.5C189.5 414.1 191.3 414.4 192.9 415.2C194.4 416 195.5 417.5 196.6 418.7C197.9 420.2 199.4 421.8 199.6 423.9C199.8 426 198.5 427.3 196.7 428C194.8 428.7 193 428.8 191 428.3C190.1 428.1 189.2 427.8 188.3 427.9C188.1 427.9 188 428 187.8 428C189.2 430 190.5 431.9 191.1 432.7C192.4 434.5 192.1 436.2 191.5 439.1C190.9 441.9 195 444.5 198.1 445.5C201.2 446.5 200.5 452.6 201.1 455.8C201.7 458.9 202.7 459.5 205.4 460.6C208.1 461.7 208.6 466.9 208.6 466.9C208.6 466.9 210 474.3 212.5 476.8C214.9 479.3 213.7 483.4 215.6 484.7C217.5 486 217.9 488 217.9 488C217.9 488 226.3 487 230.3 486.7C234.3 486.4 235.8 481.5 237.6 477.8C239.4 474.1 245.7 470.3 248.8 468.2C251.9 466.1 252.7 460.1 252.2 457.2C251.7 454.3 258 448.6 258 448.6C258 448.6 258.2 442.6 258.3 440.7C258.5 438.8 257 436.5 255 433.9C252.9 431.3 253.7 427.5 254.6 425.7C255.4 423.9 255.3 421.7 253.6 418.1C251.9 414.5 255.9 413.7 258.1 413.2C260.3 412.8 260.2 403.7 260.3 401.2C260.5 398.7 261.9 397.1 263.2 395.9C264.5 394.3 263.5 385.3 263.5 385.3ZM173.2 323.2L178.8 321.9L183.7 314.6L186.4 314L188.7 317.8L191.4 319.9C191.4 319.9 191.6 320.9 190.4 321.2C189.2 321.4 188.6 321.6 188.8 322.6C189 323.7 188.8 325.7 188.8 325.7C188.8 325.7 187.4 326.9 187.4 326.8C187.4 326.7 179.6 324.2 179.6 324.2L173.1 326.3L173.2 323.2ZM76.2 346.3C75 347.5 73.9 349.1 72.8 350.5C71.7 351.8 70.4 352.6 69.3 353.9C68.2 355.2 66.7 355.7 65.3 356.5C64.3 357.1 63.3 357.7 62.4 358.5C62.2 358.7 61.9 358.9 61.7 359.1C61.3 359.4 59.8 361.1 59.2 360.3C58.8 359.8 60.1 358 60.4 357.7C60.9 357 61.7 356.5 62.3 355.9C62.9 355.3 63.6 354.7 64.3 354.1C65.4 353 66.3 352.1 67.8 351.5C69.1 351 70.3 349.9 71.5 349.1C72.2 348.6 72.8 348 73.3 347.4C73.8 346.7 74.3 345.9 75.1 345.4C75.5 345.2 76.3 344.8 76.7 345.2C77.2 345.6 76.5 346 76.2 346.3ZM168.7 323.6L169 328C169 328 166.5 328.8 166.4 329C166.3 329.1 164.1 324.8 164.1 324.8L163.5 322.3L169 319.4L171.3 321.6L168.7 323.6Z" fill="#F3F3F3"/>
<path d="M517.1 384.6L512 395.7L501.3 398.1L500.8 410.3L498.9 411.5L487.4 414.4L481 422.8L487.2 429.8L477.5 436.3L475.7 443.1L468.5 445.6L461.7 454.5L449.6 456.8C449.6 456.8 441.8 464.5 440 468.1L444.1 471.6L447.2 476.6L451.6 477.7L457.8 490L456.5 498.8L453 504.6L447.9 505.5L446 511L431.7 513.6L427.8 525.2L429.8 529.1L426.8 534.7L427.2 539.3L419.3 546L405.1 546.3L398.8 551.4L396.2 560.8L399.4 568.1L394.6 570L388.4 566.3L380.9 568.8L369.8 562.8L367.6 568.9L361.8 568.5L362 560.5L354.5 552.3L339.9 553.7L336.3 549.8L328.8 549.7L328.3 557.5L313.2 559.5L312.5 564.4C312.5 564.4 299.9 571.4 295.6 577.1L289.8 572.2L276.6 570.7L268.5 579.3L258.6 579.8L256.6 588.4L251.6 588.3L247.2 582.3L238.5 588.9L234.7 589L232.6 581.2L223.8 570.1L224.7 562.2L217.7 556.3L214.6 542.5L208.1 540.9L201.4 527.9L196.5 532L190.8 530.1L190.7 534.7L186.2 531.8L192.1 509.8L170.6 506.3L168.9 498.4L174.7 491.3L174 481.6L184.3 463.6L174.4 456.2L167.8 439.5L172 433.8C172.5 432.8 173.3 431.9 173.9 431C174.1 430.7 174.2 430.5 174.4 430.3C174.5 430.1 174.7 429.9 174.8 429.8C175 429.7 174.9 429.7 175 429.7C175.2 429.7 175.3 429.7 175.5 429.7C176 429.7 176.6 430.1 177.1 430C177.6 430 178.1 429.8 178.6 429.9C179.5 430 180.4 430.1 181.3 430.1C183.2 430.2 184.8 429.8 186.2 428.6C186.7 428.2 187.1 427.8 187.7 427.6C189.1 429.6 190.4 431.5 191 432.3C192.3 434.1 192 435.8 191.4 438.7C190.8 441.5 194.9 444.1 198 445.1C201.1 446.1 200.4 452.2 201 455.4C201.6 458.5 202.6 459.1 205.3 460.2C208 461.3 208.5 466.5 208.5 466.5C208.5 466.5 209.9 473.9 212.4 476.4C214.8 478.9 213.6 483 215.5 484.3C217.4 485.6 217.8 487.6 217.8 487.6C217.8 487.6 226.2 486.6 230.2 486.3C234.2 486 235.7 481.1 237.5 477.4C239.3 473.7 245.6 469.9 248.7 467.8C251.8 465.7 252.6 459.7 252.1 456.8C251.6 453.9 257.9 448.2 257.9 448.2L262.5 447.5L264 446.4L267.4 445.5L268 443L267.6 439.6L271.8 436H277.4L277.9 442.1C277.9 442.1 289.5 438.4 289.5 438.3C289.5 438.2 291 435.5 291 435.5C291 435.5 301.8 432.1 301.9 432.1C302 432.1 305 430.3 305 430.3H309.4L313.8 432.2L327.9 429.7V427H321.1L319.6 424.6L323 422.3L327.2 421.9L332.2 420L335.7 421.9L343.7 411.5L349.4 415.4L354.1 416.4L360.3 419.5L370.7 413.5L378.8 409.3C378.8 409.3 386.2 400.9 386.3 400.9C386.4 400.9 392.4 400.9 392.4 400.9L396.5 399.6C396.5 399.6 397.2 398.6 399.2 398.2C401.2 397.8 404.7 396.5 405.3 395.3C406 394.1 407 393.8 408 393.5C409 393.2 410 393.8 410.8 392C411.6 390.3 414.2 386.7 413.5 386.1C412.8 385.4 411.2 383.4 412.7 382.3C414.2 381.1 422.3 374.6 422.3 374.6C422.3 374.6 427.2 378.1 431.5 378.2C435.8 378.4 438.4 378.5 438.4 378.5L445.3 384.4C445.3 384.4 458.6 383.8 459.6 385.2C460.6 386.7 462.5 389.2 465.2 388.1C468 387 482.4 380.5 482.4 380.5C482.4 380.5 492.2 374 493.2 369.4C494.1 364.8 497.1 352.6 497.1 352.6L501.1 346.2L501.5 347.4L506.4 351.3C506.4 351.3 504.5 359.2 503.8 362.6C503.1 366 503.1 367.9 504.3 371C505.5 374.2 507.1 379 507.1 379L517.1 384.6Z" fill="#F3F3F3"/>
<path d="M928 351.1L923 375L917.6 375.2L904.8 367.4L900.7 369.9L889.1 369.4L886.8 363.3L878.9 361.5L875.7 356.8L880.2 350.6L873 344.6L869.8 350L848.1 352L847.4 361.8L837.9 373.8L839.3 395.7L836.3 400.3L840.3 411.4L852.6 409.2L861.9 412.4L863.8 419.3L857.8 422.3L852.1 436.3L867.6 458.3L863.1 462.6L861.4 468.7L851.7 468.9L844.7 472.1L840.3 468.5L843 459.2L831.1 452.7L826.7 441.5L829.2 434.2L821.1 425.2L814.2 427.7L809.1 424L803.4 429.1L786.4 435.7L778.2 432.9L773.2 439L774.7 445L770 451.8L764.5 449.6L756.3 452.3L747.7 451.9L735.2 443.7L730.8 433.4L721.5 426.9L718.9 411.9L721.5 402.7L719.8 391.7L714.1 389.7L708 398.2L701.2 395.3L700 389.2L682.6 391.1L681.1 401.7L676 408.9L682.3 417.3L682.8 430.3L686.3 442.1L677.9 469.5L669.1 478.6L666.3 489.9L658.3 492.1L658.2 492.2C656.6 488.9 652.5 482.1 643.7 477.9L642 462.5L638.6 460.8L637.3 454L640.4 452.2L641 439.2L645.2 435.3L645.3 420.1L646.7 415.6L643.3 412L643.5 410.1L646 407.5L644.9 398.2L640.9 395.6L636.5 397.8L631.6 393L628.1 381.6L632.7 367.7L625.7 359.1L617.1 359.8L617.2 355.8L615.9 353.8L612.3 356.8L605 355L602.5 358.4L605.7 362.4L605.5 367.5L593.9 373.6L580.3 374.2L574.2 370.3L559.8 369.7L558.9 360.4L554.4 355.4L554.3 350L558.8 344.6V334.2L566.1 333.1L572 328.3L572.4 323.3L572.3 321.3L577.3 321L580.1 322.8L585.1 320.6L586.2 315.7L587.3 314L588.5 305.8L593.5 300.8L598.2 297.7L606 297.9L609.5 303.7C609.5 303.7 621.2 300.6 623.4 299.8C625.6 299.1 628.7 293.8 630.3 291.9C631.9 290.1 632.8 286 633 283.9C633.2 281.8 634.8 278.9 634.8 278.9L641.3 279.3L645.7 285.6C646.3 285 651.1 282.6 652.2 282.2C653.3 281.8 654 280.2 654.6 278.4C655.2 276.5 664.1 276.5 664.1 276.5L673.9 264.8C674.3 267.3 675.4 270.2 678.7 270.2C683.9 270.1 697.5 270.7 700 272.2C702.5 273.7 713.9 280 715.2 278.5C716.5 277 719.2 275.5 719.6 270.1C720.1 264.7 721.2 260.8 722.7 259.1C724.2 257.4 727.9 249.6 730.2 249.3C732.4 249 733.9 246.6 732.6 244C731.3 241.5 722 231 721.2 224.5L731.9 222.2L735.2 226.1L745 222.7L749.7 224.9L753.7 222.6L762.3 221.6L774.1 228.8L781.1 228.5L788.3 232.8L797.2 232.2L803.8 241.2L800 248L801.4 258.1L811.6 264L822 264.5L833 270.1L837.8 279.6L846.1 280.5L847.3 284.6L860.4 284.1L864 278.2L869.6 278.6L873.7 272.7L870.9 266.4L875.9 258L887.5 259.7L890.4 256.8L888.6 253.5L893.5 248.5L896.3 238.7L906 236.9L911 243.2L911.2 247.7L917.9 248.3L924.9 253.6C924.9 253.6 923.5 262.9 921.5 266.6C919.5 270.3 920.2 270.1 920.7 271.7C921.2 273.3 922.9 282.5 922.9 282.5C922.9 282.5 921 292.3 914.6 297.8L918 310L910.5 315.3L912.7 322.3L905.7 330.6L909.2 342.9L919.1 342.2L928 351.1Z" fill="#F3F3F3"/>
<path d="M42.9 458.9C42.8 460.2 43.3 460.9 43.7 462C44.1 463.1 43.9 464 43.3 464.8C42.1 466.3 41.2 468.5 40.7 470.4C40.4 471.4 40.1 472.5 40 473.5C39.9 474.5 40.1 475.6 40.1 476.6C40.1 477.3 40 478 40.1 478.7C40.1 479.3 40.3 479.8 40.4 480.4C40.5 481.6 40.4 482.3 39.8 483.4C39.3 484.3 38.7 485.3 38 486.1C36.7 487.8 35.1 489.4 33.5 490.8C32.8 491.4 32.2 491.4 31.4 491.8C30.6 492.2 29.9 492.3 29 492.3C28.1 492.3 27.4 492.2 26.5 492.1C25.5 492 24.5 492.2 23.5 492.1C22 491.9 20.5 492 19 492C17.5 492 16.2 492.5 14.8 493.1C14 493.5 13.1 493.5 12.3 493.9C11.5 494.2 10.6 494.6 9.8 495C8.7 495.7 7.8 496.6 6.9 497.6C6.1 498.5 5.1 499 4.3 500C3 501.6 1.6 502.9 0.8 504.9V505L0 504.7L0.9 498.4L6.6 491.7L3 485.2L11 475L17.6 474.3L24.7 469.1L33.6 470L33 455.2L33.9 453.5L44.6 454.9C44.5 455 44.5 455.1 44.4 455.3C43.8 456.3 43 457.6 42.9 458.9Z" fill="#F3F3F3"/>
<path d="M71.5 467.8L68 477.8L45.3 487.3L43 496L32 500.1L13.6 501.8L3.79999 505.7L3.39999 505.6C3.49999 505.3 3.69999 505 3.79999 504.7C4.39999 503.6 5.19999 502.8 6.09999 501.9C7.89999 499.9 9.99999 497.6 12.5 496.4C13.3 496 14 495.7 14.8 495.6C15.9 495.4 16.8 494.9 17.9 494.6C17.8 494.6 17.7 494.7 18 494.6C18.3 494.6 18.5 494.5 18.7 494.4C19.1 494.3 19.6 494.2 20 494.1C20.6 493.9 21.3 493.9 21.9 493.8C23.5 493.7 25.3 493.4 26.9 493.8C28.3 494.2 29.7 493.6 31.1 493.3C32.4 493 33.6 492.5 34.7 491.8C35.2 491.3 36.1 490.8 36.7 490.4C38.7 489 39.9 486.6 41.2 484.6C41.2 484.6 41.4 484.3 41.5 484.2C41.8 483.9 42.1 483.6 42.2 483.3C42.6 482.6 42.5 481.8 42.9 481C43.7 479.4 45.2 478.4 46.5 477.2C46.8 476.9 47.2 476.5 47.5 476.1C47.8 475.8 48.1 475.1 48.4 475C48.8 473.7 49.2 472.6 49.3 471.3C49.4 470.2 49.5 469.2 49.6 468.1C49.8 466.2 50.6 464.3 52.1 463C52.9 462.3 53.8 461.8 54.5 461C55.5 460.1 56.7 459.2 57.3 458C57.6 457.4 57.6 456.9 57.7 456.3C57.7 456 58.6 454.9 58.4 454.7C59 454.6 60 455.7 60.5 456.1C60.8 456.3 61.5 456.6 61.6 457C61.7 457.4 60.6 458.9 60.3 459.3L56.8 462.6L64.7 469.8L69 466L71.5 467.8Z" fill="#F3F3F3"/>
<path d="M658 492.1L643.1 504.5L647.3 511.3L645.2 520.7L634.9 523.8L631.2 529.3C631.2 529.3 633.3 532.5 634.8 536.3C634.2 536.5 633.7 536.9 633.2 537.2C632.5 537.7 632 538.4 631.4 539C630.7 539.7 629.9 540.1 629 540.6C628.4 541 627.9 541 627.3 541.2C627 541.3 626.8 541.5 626.6 541.7C626.5 541.8 626.4 541.9 626.3 542C626.2 542.1 626.4 542 626.4 542.1C625.6 543.2 624.6 543.6 623.6 542.7C622.5 541.6 622.1 542.2 621 542.9C620.4 543.3 619.8 543.6 619.7 544.4C619.5 545.2 619.8 546.1 619.9 547C619.9 547.9 619.9 548.7 620.1 549.5C620.5 551 620.2 552.1 619.8 553.6C619.2 555.5 618.4 557.3 617.7 559.1C617.1 560.8 616.3 562.6 614.9 563.6C614.4 563.9 613.9 563.9 613.4 564.1C612.9 564.3 612.6 564.7 612 564.4C611.2 564 611.1 562.9 611.1 562.1C611.2 560.9 611.2 559.7 611.1 558.5C611 557.6 611 556.7 610.6 555.9C610.1 555.1 609.6 554.4 609.4 553.4C609.3 552.4 609.3 551.3 609.5 550.3C609.7 549.4 610.2 548.9 610.7 548.2C611.8 546.7 612.5 544.3 610.7 543.1C609.5 543.7 609 544.2 608.8 545.5C608.5 547.3 607.7 548.7 607.1 550.4C606.8 551.3 606.6 552.2 606.3 553.1C606.1 553.5 605.8 553.8 605.7 554.2C605.6 554.7 605.6 555.3 605.5 555.7C605.5 555.7 605.4 555.9 605.4 556C604.6 556.1 603.7 555.7 602.9 555.6L600.4 555.4L596.7 549.3L594.6 547.1L587.7 546.4L588.2 536.9L598.5 526.5L600.1 521L591.1 513.1L583.2 513.7C582.9 513.7 582.5 513.6 582.1 513.6C581.6 513.5 581.3 513.3 581.2 512.9C581.1 512.5 580.9 512.1 580.6 511.7C580.1 511 579.5 510.2 578.5 510.2C578.9 509.9 579.2 509.7 579.6 509.4C581.3 508 582.5 506.2 584.3 504.9C586 503.6 588.1 502.6 590.1 502.1C592.1 501.6 594.4 501.8 595.9 500.2C597.5 498.5 596.8 496.2 595.8 494.4C595 493.1 593.5 490 591.5 490.7C590.5 491.1 589.6 491.8 588.6 492.4C587.7 492.9 586.2 493.4 585.6 494.3C585.1 495.1 585.1 496.1 585 497C584.9 497.7 584.8 498.3 584.6 498.9C584.4 499.4 584.2 500 583.9 500.4C583.5 500.9 582.7 500.8 582.2 500.7C581.7 500.6 581.3 500.4 580.8 500.2C580.5 500.1 580.1 500.1 579.8 500.1C578.7 499.9 577.7 499.7 576.6 500C575.5 500.3 574.4 501 573.5 501.6C572.9 502 572.4 502.4 571.8 502.6C571.3 502.8 570.9 503 570.7 503.5C570.5 503.9 570.5 504.2 570.3 504.6C569.9 505.4 569.3 506 568.9 506.8C568.6 507.5 568.6 508.2 568.3 508.9C567.9 509.6 567.4 510.1 566.8 510.6C566.3 511.1 566.3 511.8 566 512.5C566 512.5 565.9 512.7 565.8 512.8H566V512.9C565.3 512.5 564.9 512 564.3 511.4C563.8 510.9 563 510.7 562.5 510.2L559.1 506.6L550.9 506.2L546.9 499L542.3 496.7L529.9 478.6L523.4 477.5L513.7 468.7L516.2 463.6L510.5 454L516 445.8L518.2 434L516.7 430.4L515.7 409.7L509.6 404.4L501.1 409.7L501.6 397.5L512.3 395.1L517.4 384L524.8 380.7L524.6 377.2L526.5 374.6L526.7 369.9L539.9 368.8C539.9 368.8 540.8 371 540.9 371.2C540.9 371.1 545.1 371.4 545.1 371.4L548.2 371.2L552 375.5L560 369.3L574.4 369.9L580.5 373.8L594.1 373.2L605.7 367.1L605.9 362L602.7 358L605.2 354.6L612.3 356.3L615.9 353.3L617.2 355.3L617.1 359.3L625.7 358.6L632.7 367.2L628.1 381.1L631.6 392.5L636.5 397.3L640.9 395.1L644.9 397.7L646 407L643.5 409.6L643.3 411.5L646.7 415.1L645.3 419.6L645.2 434.8L641 438.7L640.4 451.7L637.3 453.5L638.6 460.3L642 462L643.7 477.4C652.3 482 656.4 488.9 658 492.1Z" fill="#F3F3F3"/>
<path d="M635.8 538.9C636.1 539.7 636.3 540.6 636.4 541.4L627 547.9L621.7 555.6L624.7 556.6L628.3 552.3L632.2 552.9L635 561.7C635 561.7 641.6 563.3 641.7 563.3C641.9 563.3 649.1 571.2 649.1 571.2L642.8 578.5L637.5 595.4L633 596L621.2 591L613.7 593.4L611.4 589L617.5 582.6L615.1 573.7C615.1 573 614.7 572.3 614.4 571.7C614.2 571.2 614 570.7 613.7 570.3C613.4 569.9 612.9 569.7 612.5 569.4C614.2 567.4 615.8 565.8 617.9 564.3C618.8 563.7 620 563.1 621.1 563.6C622.2 564.1 622.7 565 623.1 566.1C623.5 567.3 623.8 568.4 624.1 569.7C624.2 570.2 624.1 571.2 624.7 571.4C625.1 571.5 625.8 570.9 626.1 570.6C626.8 569.7 626.4 568.4 626.6 567.4C626.7 566.8 626.7 566.3 626.6 565.8C626.4 565 625.8 564.9 625.2 564.4C624.7 563.9 624.4 563.1 624.3 562.5C624.1 561.6 624 561.4 623 561.2C622.2 561 621.4 560.6 620.6 560.4C620 560.2 619.5 560.2 619.2 559.6C618.8 558.5 619.7 556.7 620.2 555.6C620.5 554.8 621 554.3 621.2 553.5C621.4 552.8 621.4 552.1 621.7 551.4C622.3 549.8 623.1 548.1 624.3 546.9C624.8 546.4 625.4 546.1 626.1 545.7C626.6 545.4 627.1 545 627.6 544.7C628.4 544.3 629.1 543.8 629.9 543.4C630.3 543.1 630.5 542.9 630.9 542.6C631 542.5 631.2 542.4 631.4 542.3L631.3 542.4C631.3 542.4 631.3 542.4 631.4 542.3C632.9 541.2 634 539.1 635.8 538.9Z" fill="#F3F3F3"/>
<path d="M723.7 141.3L721.1 153.4L711.9 163.9L698.9 170.7L689.7 166.9C689.7 166.9 689 164.7 688.5 161.4C688 158.1 687.4 161.5 686.8 156.6C686.1 151.8 681.2 150.2 681.2 150.2C682.6 146.6 682.3 143.2 682.3 143.2L686.2 141.7C687 139.1 689.4 139.3 689.4 139.3C691.2 133.5 692.4 131.5 692.4 131.5C691.8 129.6 690.9 126.1 690.9 126.1L696.1 125.6L698.3 128.1L703.5 128.8L712.6 135.8L721.8 135.5L723.7 141.3Z" fill="#F3F3F3"/>
<path d="M733.4 117.5L732.6 118.6H730.2V120.4L722.1 122.9L724.5 114.1L728.2 112.1L729.4 113.3V115.6H732.9L733.4 117.5Z" fill="#F3F3F3"/>
<path d="M739.8 110.6L737.2 113.1L738.7 116.2L737.4 117.1L735.9 114.6V113L733.7 112.8L733.4 110L737.8 107L738.8 107.6L739.8 108.2V110.6Z" fill="#F3F3F3"/>
<path d="M524.6 290.9L521.9 296.8L519.1 298.2L518.1 302.6L515.7 304.9L517.9 311.5L512.1 312.1L509.1 313.3L508.5 313.5L505.2 312.4V306.5L498.5 303.2L493.4 293.8L490.9 285.4L492.8 282.7L498.9 283L503.6 287.3L513 286.7L517.5 287.4L524.6 290.9Z" fill="#F3F3F3"/>
<path d="M670.4 258C669.2 257.3 670.6 254.8 672.1 253.6C673.7 252.5 672.5 249 672.2 243.6C671.9 238.2 667.7 235 666.6 233.3C665.5 231.6 663.7 232.2 659.1 232.7C654.4 233.3 651.9 231.2 650.5 229.1C649.1 227 655.2 225.1 658.5 223.2C661.8 221.4 659.3 210.8 659.3 210.8C659.3 210.8 659.5 208.5 658 206.3C656.9 206 655.8 205.8 654.7 205.4C653.6 205 652.6 204.8 651.4 204.7C650.2 204.6 649 204.3 647.8 204.3C647.3 204.3 646.7 204.3 646.2 204.2C645.4 204.1 644.7 203.9 643.9 203.9C643.3 203.8 641.4 203.6 641.3 202.8C629.5 203.3 624 195.3 621.7 191.2C620.9 193 616.7 196.9 615.7 199C614.7 201.1 614.9 207.9 615.1 209.9C615.3 211.9 614.1 211.9 612.8 212.6C611.5 213.3 611.7 214.2 611.7 215.6C611.6 217 612.6 216.7 613.8 217C615 217.4 613.6 219 613 221.9C612.4 224.8 609.5 227.3 608.2 229.3C607 231.3 605.3 229.9 604.2 229.8C603.2 229.7 600.8 232.2 600 233.1C599.2 234 600.2 235.5 600.1 236.8C600 238.1 601.3 237.2 602.4 237C603.5 236.8 603.7 237.2 604.9 238.1C606.1 239 607.9 242.4 608.4 243.4C608.9 244.3 609 245.4 609.1 246.7C609.2 248 611.5 249.3 612.2 249.8C612.9 250.3 615.7 253.7 616 254.6C616.3 255.5 614.5 257 613.9 257.6C613.3 258.2 613.5 259.1 613.6 260.2C613.7 261.3 610 264.3 608.6 265.8C608.4 266 608 266.4 607.4 266.8L611 269.1L614 276.8C614 276.8 605.7 284 604 285.1C602.3 286.2 597.7 291 597.7 291V297.4L605.5 297.6L609 303.4C609 303.4 620.7 300.3 622.9 299.5C625.1 298.8 628.2 293.5 629.8 291.6C631.4 289.8 632.3 285.7 632.5 283.6C632.7 281.5 634.3 278.6 634.3 278.6L640.8 279L645.2 285.3C645.8 284.7 650.6 282.3 651.7 281.9C652.8 281.5 653.5 279.9 654.1 278.1C654.7 276.2 663.6 276.2 663.6 276.2L673.4 264.5C673.2 263 673.3 261.6 673.4 261.1C673.8 260.1 671.6 258.7 670.4 258ZM621.5 235.3C620.7 235.8 619.8 236 618.9 236.1C618 236.2 617.1 236.5 616.2 236.7C615.4 237 614.5 237.1 613.6 237.1C612.9 237.1 611.2 237.5 610.7 236.6C610.3 235.8 611.3 234.8 612 234.6C612.6 234.4 613.3 234.4 614 234.6C614.6 234.7 615.3 234.6 615.9 234.6C616.3 234.6 616.5 234.5 616.8 234.4C617.1 234.3 617.3 234.3 617.5 234.1C617.8 233.9 617.9 233.7 618.1 233.5C618.5 233.1 619.1 232.7 619.6 232.4C620.4 231.8 622.5 231.5 622.8 233C623.1 233.9 622.2 234.8 621.5 235.3Z" fill="#F3F3F3"/>
<path d="M614.1 277.3C614.1 277.3 605.8 284.5 604.1 285.6C602.4 286.7 597.8 291.5 597.8 291.5V297.9L593.1 301L588.1 306L586.9 314.2L585.8 315.9L584.7 320.8L579.7 323L576.9 321.2L571.9 321.5L572 323.5L571.6 328.5L565.7 333.3L558.4 334.4V344.8L553.9 350.2L554 355.6L558.5 360.6L559.4 369.9L551.4 376.1L547.6 371.8L544.5 372C544.5 372 540.2 371.6 540.3 371.8C540.2 371.7 539.3 369.4 539.3 369.4L526.1 370.5L525.9 375.2L524 377.8L524.2 381.3L516.8 384.6L507.3 379.3C507.3 379.3 505.7 374.5 504.5 371.3C503.3 368.1 503.3 366.2 504 362.9C504.7 359.5 506.6 351.6 506.6 351.6L501.7 347.7L501.3 346.5L499.6 341.7L502.6 337.2L507.9 337.5L511.1 334.2C511.1 334.2 509.5 326.2 508.6 323.9C507.7 321.5 509 318.4 510.1 317.7C511.2 316.9 508.8 313.3 508.8 313.3L511.8 312.1L517.6 311.5L515.4 304.9L517.8 302.6L518.8 298.2L521.6 296.8L524.3 290.9L517.3 287.4L512.8 286.7C512.9 286.3 514.4 278.9 514 277.9C513.6 276.8 512.3 275.6 513.2 273.2C514.1 270.9 516.7 268.6 516.7 268.6L526.1 265.5L529.9 252.2C530 252.2 530.1 252.1 530.3 252C530.8 251.7 531.2 251.3 531.7 251C532.6 250.5 533.4 249.9 533.8 248.9C534.2 247.9 535 247.3 536.1 247.2C536.8 247.1 538 247.1 538.5 247.7C538.9 248.1 539 249 539.1 249.6C539.3 250.4 539.2 251.2 539.5 252C539.8 252.9 539.9 253.6 539.5 254.6C538.9 256.4 539.7 258.4 538.9 260.2C538.6 260.6 538.3 261.1 538 261.5C536.6 263.8 538.2 265.1 539.6 266.9C540.2 267.7 540.5 268.5 540.3 269.5C540.1 270.5 539.7 271.4 539.9 272.5C540.2 274.2 542.1 276.6 543.7 274.8C545.1 273.2 545.7 271 545.3 269C544.8 266.7 543.4 265 542.3 263C541.3 261.1 542.2 259.9 543.4 258.6C544.9 259.1 547.1 259.6 549.6 259.4C554.3 259.1 560.1 258.9 559.8 261C559.5 263.1 558.2 263.9 559.1 264.7C560 265.6 560.9 268.7 562.8 268.1C564.6 267.5 564.5 265.5 565.7 264.5C566.9 263.5 573 260.6 573.5 261.2C574.1 261.8 575.6 264.3 576.9 263.8C578.2 263.3 579.4 262.7 579.9 262.6C580.4 262.5 581.2 262.5 581.1 261.6C581.1 260.7 580.7 259.1 582 259.3C583.3 259.5 584.2 259.2 584.5 260.1C584.8 261 587 262.3 586.1 263C585.2 263.7 584.7 264.4 585 265.2C585.3 265.9 584.3 267.1 586 267.1C587.7 267.1 588.5 267.6 588.7 269C588.9 270.3 589.3 280.2 591.8 278.5C594 277 603.8 270.1 607.3 267.3L610.9 269.6L614.1 277.3Z" fill="#F3F3F3"/>
<path d="M419.5 135.4C418.3 136.7 417.5 138.9 416 142.6C414.5 146.2 397.9 142.4 397.9 142.4C397.8 145.1 394.4 149.4 392.2 150.2C390 151 388.8 153.7 387.3 156.1C385.9 158.5 382.6 164 382.6 164C382.6 164 379.7 164 378 163.9C376.3 163.8 375.2 167.2 375.2 167.2L371.1 167L370.4 164.5L371.1 162.5L368.6 162.1L365.8 165.8L360.9 164.4L351.5 155.5L341.4 159.4L333 160.4L333.3 161.9L334 164.7C334 164.7 334.4 168.9 334.7 170.3C335 171.6 336.3 172.4 337.3 172.8C338.3 173.2 338.2 173.2 338.7 173.8C339.2 174.4 339.9 175.4 342.3 176.2C344.7 177 345.2 183.8 345.2 183.8L350.6 184.9L351 190.4L347.3 193.2L345.5 197.4L336.2 198.4L332 193.6L323.7 194.5L320.9 197.3L319.6 206.4L308.5 210.7L309.3 218L308.7 218.8L303.3 221.2L302.2 220.8L302.9 215.6L300.4 213.9L293.5 216.8L288.1 208.3L290.8 206.2L299.9 209.2L301.3 206.9L299.8 205.6L299 202C299 202 302.8 199 304.2 197.5C305.6 195.9 309.2 196.3 311.8 196.4C314.4 196.6 314.8 195.8 314.2 192.4C313.7 189 309 188.3 307.9 188.3C306.8 188.3 303.7 189.1 302.4 190.3C301.1 191.5 294.5 194.1 294.5 194.1L289.4 184.9H285.4L281.8 178.5C281.8 178.5 286.1 177.2 289.2 175.7C292.3 174.2 297.7 170.4 297.7 170.4L298.8 166.6L308.3 163.5L312.5 157.3L322.5 154.2L324 152.8L325.7 148.5L327.8 143.2C327.8 143.2 326.8 142.8 325.2 142C323.7 141.2 324.1 139.4 323.2 138.1C322.4 136.8 317.4 133.5 317.4 133.5L304.9 133.3L302.6 130.9L303.5 124.4L310.4 124.6L312.1 127.2L318.9 124.6L320.1 119.1L325.6 118.4L326.6 119.7L329.9 119.1L332.1 114.1L337.9 112.4L339.4 104.4L337.4 103.3L338.4 96.9C338.4 96.9 341 98.2 343.1 98.6C345.2 99 346.5 94 346.5 94H347.7L349.1 98L355.5 99.9C355.5 99.9 355.7 100.9 356.2 102.8C356.7 104.8 354.4 105.1 353.3 106.1C352.2 107.1 350.1 120.4 350.1 120.4L341.1 121C341.1 121 340.7 128.2 341.5 128.8C342.3 129.4 344.1 134.4 344.1 134.4C344.1 134.4 357.1 132.6 359.2 132.2C361.3 131.8 361.6 135.3 363.1 136.2C364.6 137.2 365.8 140 365.8 140L373.9 141.6C373.9 141.6 374.1 140.9 374 139.3C373.8 137.7 375.4 136.8 377 135.3C378.6 133.9 382.9 131 385.7 130.4C388.4 129.8 392.6 124.9 392.6 124.9L407 117.3L407.2 114.3L404.1 110.6L406.2 104.2L409.4 104C409.4 104 411.4 109.5 412.3 111.3C413.1 113.1 412.5 113.2 411.6 113.8C410.7 114.4 411.3 115.9 411.3 117.1C411.3 118.4 413 120 415.4 121C417.8 122 420.5 126 421.7 127.6C423.2 129.3 420.7 134.1 419.5 135.4Z" fill="#F3F3F3"/>
<path d="M505.9 243.2L504.2 244.8L495.8 244.2L495.3 242.2C495.7 242 496.2 241.9 496.7 241.8C497.6 241.7 498.8 241.9 499.7 241.6C500.4 241.6 501.1 241.2 501.9 241.4C502.8 241.6 503.6 242.1 504.4 242.4C505 242.6 505.5 242.9 505.9 243.2Z" fill="#F3F3F3"/>
<path d="M521.2 236.7L519.4 244.3L518.2 245.5C518.1 245.4 518.1 245.4 518 245.3C517.3 244.6 516.7 243.6 517.3 242.7C517.9 241.8 518.9 241.1 518.1 240C517.4 239 516.1 239.1 515.2 238.3C514.3 237.5 514.4 236.6 513 236.5C512.4 236.5 511.9 236.6 511.3 236.3C510.8 236.1 510.5 235.7 510.1 235.4C508 233.8 505.5 235.4 503.2 235.7C502.4 235.8 500.9 236 500.2 235.4C499.5 234.7 499.8 233.4 500.4 232.8C501 232.2 501.7 231.8 502.3 231.2C503.1 230.5 504.2 230.1 505 229.4C505.4 229.1 505.7 228.7 506 228.4L511.1 227.9L514.8 230.3L521.2 236.7Z" fill="#F3F3F3"/>
<path d="M228.3 280.9L231.8 285.3L221.8 292.2L218.3 285.2L215.6 283.9C215.6 283.9 217.6 277.6 215.7 277.2C213.8 276.7 212.4 276.3 212.4 276.3L211.1 273.2C211.1 273.2 214 271.5 213 269.9C212 268.3 209.9 269.8 209.9 269.8L207.3 265.5C207.5 265.3 207.7 265.1 207.7 265.1C208.8 264 209.8 263 210.9 261.9C212.1 260.8 213.5 260 214.8 259C217.1 257.2 219.8 255.9 221.5 253.5C222.3 252.4 222.7 251.1 222.7 249.7C222.7 248.6 222.4 247.5 221.9 246.6C222.8 246.6 223.8 246.9 224.1 248C224.3 248.7 224.8 250.8 225.3 253.1C226.2 256.9 227.3 261.5 227.8 263.4C227.5 263.5 227.2 263.6 226.9 263.8C225.6 264.5 224.3 265.5 223.3 266.6C222.2 267.7 221.3 269.3 222.2 270.9C222.9 272.2 224.6 272.8 226 273.2C227.4 273.6 228.9 272.9 230.2 272.3C230.7 272.1 231.1 271 231.5 270.2L234.3 275.1L228.3 280.9Z" fill="#F3F3F3"/>
<path d="M168.7 323.6L169 328C169 328 166.5 328.8 166.4 329C166.3 329.1 164.1 324.8 164.1 324.8L163.5 322.3L169 319.4L171.3 321.6L168.7 323.6Z" fill="#F3F3F3"/>
<path d="M190.3 321.2C189.1 321.4 188.5 321.6 188.7 322.6C188.9 323.7 188.7 325.7 188.7 325.7C188.7 325.7 187.3 326.9 187.3 326.8C187.3 326.7 179.5 324.2 179.5 324.2L173 326.3L173.3 323.2L178.9 321.9L183.8 314.6L186.5 314L188.8 317.8L191.5 319.9C191.3 320 191.4 321 190.3 321.2Z" fill="#F3F3F3"/>
<path d="M288.3 335.4C286.9 334.8 286.4 333.3 286.6 332.5C286.8 331.7 276.9 329.1 276.9 329.1C276.9 329.1 276.1 327.4 275.8 326.1C275.4 324.8 275.8 324 276.9 322.1C278 320.2 275.2 315.6 274.7 314.1C274.2 312.6 275.3 312.2 276.2 311.6C277.2 311 277.7 309.3 277.8 308.2C278 307.1 279.3 303.7 279.3 301.1C279.4 298.5 281.7 298.4 282.2 295.7C282.7 293 277.3 290.7 277.3 290.7L278.9 286.5L282.8 288.5C282.8 288.5 282.8 291.2 283.6 292.2C284.4 293.2 285.9 290.2 286.9 288.7C287.9 287.2 287.5 284.9 287.6 282C287.8 279.2 286.9 279.3 284 277.2C281.1 275.1 276.6 278.5 272.8 279C269 279.5 265.4 275.2 265.4 275.2L259.2 274.8L253.6 276L251.8 273.7L258.9 267L256.7 267.6L256.1 263.9L252.8 260.4L255.8 258.2L256.4 254.3L261.5 247.3L255.9 241.4L248.3 246.7L242.3 249.8L239.3 250.2L234.4 251.5L225.1 253.3C226 257.1 227.1 261.7 227.6 263.6C228.8 263.1 230.1 262.9 231.4 262.6C234.5 261.7 236.8 257.6 240.4 258.6C244 259.6 239.4 263.6 238.4 265.1C237.2 266.9 235.3 267.9 233.5 268.9C232.9 269.3 232.1 269.5 231.6 270C231.5 270.1 231.4 270.3 231.3 270.5L234.1 275.4L228.2 281.1L231.7 285.5L221.7 292.4L218.2 285.4L215.5 284.1C215.5 284.1 217.5 277.8 215.6 277.4C213.7 276.9 212.3 276.5 212.3 276.5L211 273.4C211 273.4 213.9 271.7 212.9 270.1C211.9 268.5 209.8 270 209.8 270L207.2 265.7C207 265.9 206.7 266.1 206.7 266.2C206.6 266.3 206.6 266.4 206.4 266.6C206 267 205.4 267.6 204.9 268.1C204.4 268.6 203.8 269 203.2 269.5C201.9 270.5 201.2 271.8 200.6 273.3C200.3 274 200.1 274.5 199.3 274.6L203.5 282.1L207.3 279.3L209.8 278.5L212.1 284.3L210 287.2L214 295.6L212.3 298.2H207.6L205.5 303.4L206.4 305.9L208.3 304.5L209.2 305.9L203.6 310.9L197.6 320.6L203.2 321.6L191 338.6L187.9 339L186.6 340.3C186.6 340.3 188.2 348.2 187 348.7C185.8 349.3 184.1 350 181.8 346.2L174 350L171.5 354L172.7 374.1L178.8 371.5L181.4 372.7L183.3 372.8L185.7 375.2L194.9 375.9C194.9 375.9 187.3 381.7 187.6 383.3C187.8 384.9 187.3 387.2 185.8 386.7C184.3 386.2 181.5 382 181.5 382L179.2 384.4L177 384C177 384 175.7 388.4 177.3 388.9C178.9 389.4 180.3 389.4 180.2 390.9C180 392.4 181.4 398.7 184 398.1C186.6 397.6 186.2 393.7 190.7 394C195.2 394.3 207.7 394.9 208.8 398.9C210 403 211.1 404.9 210.8 407.4C210.5 409.9 209.3 415.9 211.2 414.9C213 413.9 217.1 414.2 217.8 410.7C218.5 407.3 219.4 406.2 221.4 405C223.4 403.8 226.2 400.1 230.3 399.9C234.4 399.6 237.3 400 239 397.2C240.7 394.4 242.2 390.4 245.1 388.5C248 386.7 253.6 381.8 254 383C254.5 384.2 255.7 389.2 256.9 387.2C258.1 385.1 259.8 381.9 259.8 381.9C264.4 379.7 269.4 374.3 270.5 372.3C271.5 370.3 274.7 370.9 276.6 371.1C278.5 371.3 279.2 365.9 279.9 364.8C280.6 363.7 279 362.8 278.1 361.7C277.2 360.6 277.1 359.3 277 357.9C276.9 356.4 278.6 356.1 280.2 355.4C281.8 354.7 280.1 352 280.2 350.5C280.2 349 282.2 349.1 283.6 349C284.9 348.9 285.9 350.1 287 350.9C288 351.7 288.6 349.9 289.7 349.5C290.7 349.1 290.5 341.9 291 339C291.5 336.2 289.7 336 288.3 335.4ZM234.9 280.8L234.3 277.5L236.5 276.2L237.6 276.8L238.1 279.4C238.1 279.5 234.9 280.8 234.9 280.8ZM244 275.6L241.5 276.1L239.7 275.5L239.3 272.3L242.5 269.4L244 269.8V275.6Z" fill="#F3F3F3"/>
<path d="M238.1 279.5L234.9 280.8L234.3 277.5L236.5 276.2L237.6 276.8L238.1 279.5Z" fill="#F3F3F3"/>
<path d="M244 269.9V275.6L241.5 276.1L239.7 275.5L239.3 272.3L242.5 269.5L244 269.9Z" fill="#F3F3F3"/>
<path d="M307.6 250.2L310.8 256.8L318.1 257.8L312.8 262.9L314.1 270.1L307.6 266.7L301.1 270.1L302.4 262.9L297.1 257.8L304.4 256.8L307.6 250.2Z" fill="#F3F3F3"/>
</svg>
