<svg width="32" height="30" viewBox="0 0 32 30" fill="none" xmlns="http://www.w3.org/2000/svg">
<path fill-rule="evenodd" clip-rule="evenodd" d="M6.6827 3.86822C2.63636 6.22734 0.00032856 10.0824 0.00032856 14.4374C0.00032856 17.4092 1.24157 20.1392 3.30655 22.3292C2.37531 24.7948 0.43595 26.8785 0.409075 26.906C-0.000921422 27.3404 -0.114671 27.9804 0.122203 28.5298C0.359076 29.0792 0.899696 29.4373 1.49907 29.4373C5.34341 29.4373 8.37526 27.8298 10.1959 26.5417C11.9971 27.1123 13.9502 27.4373 16.0002 27.4373C18.3449 27.4373 20.5719 27.0275 22.5784 26.2912L20.77 23.7402C19.2925 24.19 17.6832 24.4373 16.0002 24.4373C14.3321 24.4373 12.6846 24.1829 11.1021 23.6817L9.68088 23.2311L8.46339 24.0923C7.56714 24.7267 6.3459 25.4329 4.87154 25.9029C5.32716 25.1492 5.77028 24.2967 6.11278 23.3892L6.7759 21.6348L5.48903 20.2705C4.35342 19.0667 3.0003 17.078 3.0003 14.4374C3.0003 11.0979 5.13964 8.13533 8.41947 6.31815L6.6827 3.86822ZM11.604 10.8103C11.4158 11.3195 11.3431 11.8847 11.4177 12.4755C11.599 13.9099 12.709 15.0574 14.0996 15.4549L15.0988 15.7403L11.604 10.8103ZM16.2625 17.3817H15.0352C14.8102 17.3817 14.5927 17.3336 14.394 17.243C14.094 17.1049 13.7458 17.1361 13.5121 17.3699L12.4171 18.4649C12.0877 18.7942 12.1246 19.3574 12.514 19.6136C13.1077 20.0055 13.7858 20.2455 14.5002 20.3298V21.4373C14.5002 21.9898 14.9477 22.4373 15.5002 22.4373H16.5002C17.0527 22.4373 17.5002 21.9898 17.5002 21.4373V20.3398C17.7557 20.3093 18.0031 20.2517 18.2391 20.17L16.2625 17.3817ZM23.8593 22.3981C26.9813 20.5698 29.0001 17.6815 29.0001 14.4374C29.0001 8.92369 23.1683 4.43748 16.0002 4.43748C14.4393 4.43748 12.9418 4.6502 11.5541 5.03993L9.73394 2.47243C11.6584 1.80619 13.7763 1.4375 16.0002 1.4375C24.8364 1.4375 32.0001 7.25745 32.0001 14.4374C32.0001 18.6934 29.483 22.4716 25.5925 24.8429L23.8593 22.3981ZM20.5139 17.6789L17.3915 13.2745L17.9008 13.4199C19.2914 13.8174 20.4014 14.9649 20.5827 16.3993C20.6389 16.8447 20.6114 17.2756 20.5139 17.6789ZM16.1287 11.493L14.0848 8.60981C14.2204 8.57693 14.359 8.55181 14.5002 8.53494V7.43745C14.5002 6.88496 14.9477 6.43746 15.5002 6.43746H16.5002C17.0527 6.43746 17.5002 6.88496 17.5002 7.43745V8.54494C18.2146 8.62932 18.8927 8.86932 19.4864 9.26119C19.8752 9.51744 19.9127 10.0806 19.5833 10.4099L18.4883 11.5049C18.2546 11.7387 17.9064 11.7699 17.6064 11.6318C17.4077 11.5412 17.1902 11.493 16.9652 11.493H16.1287Z" fill="#003049"/>
<rect x="5.4375" y="1.44629" width="2.49998" height="33.553" transform="rotate(-35.3329 5.4375 1.44629)" fill="#003049"/>
</svg>
