<svg width="32" height="23" viewBox="0 0 32 23" fill="none" xmlns="http://www.w3.org/2000/svg">
<path d="M16 6.76051C13.791 6.76051 12 8.91851 12 11.581C12 14.243 13.7905 16.4015 16 16.4015C18.2085 16.4015 20 14.244 20 11.581C20 8.91851 18.209 6.76051 16 6.76051ZM31.058 1.45601C29.1185 0.642508 27.1775 0.333008 25.2375 0.333008C19.079 0.332508 12.921 3.45001 6.7625 3.45001C5.218 3.45001 3.6745 3.25401 2.13 2.76401C1.9565 2.70901 1.7825 2.68301 1.6125 2.68301C0.752 2.68301 0 3.34901 0 4.27351V20.1365C0 20.768 0.3615 21.3665 0.942 21.6095C2.8815 22.4235 4.8225 22.733 6.7625 22.733C12.921 22.733 19.0795 19.6155 25.238 19.6155C26.7825 19.6155 28.326 19.8115 29.8705 20.3015C30.044 20.3565 30.218 20.3825 30.388 20.3825C31.2485 20.3825 32.0005 19.7165 32.0005 18.792V2.92951C32 2.29751 31.6385 1.69951 31.058 1.45601ZM29.6 14.8355C28.2555 15.0055 27.171 16.001 26.881 17.3095C26.341 17.2635 25.803 17.2155 25.2375 17.2155C21.8595 17.2155 18.581 18.045 15.411 18.8475C12.393 19.6115 9.5425 20.333 6.7625 20.333C6.3615 20.333 5.97 20.317 5.587 20.286C5.516 18.5745 4.1225 17.2055 2.4005 17.2055V8.36751C3.954 8.36751 5.247 7.25501 5.5375 5.78001C5.9445 5.80551 6.3415 5.85001 6.763 5.85001C10.141 5.85001 13.419 5.02051 16.589 4.21801C19.6065 3.45451 22.457 2.73301 25.2375 2.73301C25.7795 2.73301 26.2985 2.77201 26.8085 2.82851C26.851 4.42651 28.052 5.72051 29.6 5.91651V14.8355Z" fill="#003049"/>
</svg>
