<svg width="32" height="23" viewBox="0 0 32 23" fill="none" xmlns="http://www.w3.org/2000/svg">
<path d="M30.4 0H1.6C0.7165 0 0 0.7165 0 1.6V20.8C0 21.6835 0.7165 22.4 1.6 22.4H30.4C31.2835 22.4 32 21.6835 32 20.8V1.6C32 0.7165 31.2835 0 30.4 0ZM29.6 20H2.4V2.4H29.6V20ZM14.8 14.4H18.8C19.021 14.4 19.2 14.221 19.2 14V12.4C19.2 12.179 19.021 12 18.8 12H14.8C14.579 12 14.4 12.179 14.4 12.4V14C14.4 14.221 14.579 14.4 14.8 14.4ZM26.8 12H22.8C22.579 12 22.4 12.179 22.4 12.4V14C22.4 14.221 22.579 14.4 22.8 14.4H26.8C27.021 14.4 27.2 14.221 27.2 14V12.4C27.2 12.179 27.021 12 26.8 12ZM14.8 10.4H26.8C27.021 10.4 27.2 10.221 27.2 10V8.4C27.2 8.179 27.021 8 26.8 8H14.8C14.579 8 14.4 8.179 14.4 8.4V10C14.4 10.221 14.579 10.4 14.8 10.4ZM6.736 11.286L8.8455 11.858C9.055 11.915 9.2 12.0855 9.2 12.273C9.2 12.513 8.975 12.708 8.697 12.708H7.38C7.1725 12.708 6.9685 12.656 6.7915 12.5605C6.6375 12.477 6.4495 12.492 6.3295 12.6195L5.726 13.256C5.5705 13.42 5.596 13.688 5.7825 13.8155C6.1975 14.098 6.6855 14.2595 7.2 14.2915V14.8C7.2 15.021 7.379 15.2 7.6 15.2H8.4C8.621 15.2 8.8 15.021 8.8 14.8V14.2875C9.909 14.2325 10.8 13.359 10.8 12.2725C10.8 11.364 10.169 10.5585 9.264 10.314L7.1545 9.742C6.945 9.685 6.8 9.5145 6.8 9.327C6.8 9.087 7.025 8.892 7.303 8.892H8.62C8.8275 8.892 9.0315 8.944 9.2085 9.0395C9.3625 9.1225 9.5505 9.108 9.6705 8.9805L10.274 8.344C10.4295 8.18 10.404 7.912 10.2175 7.7845C9.8025 7.502 9.3145 7.3405 8.8 7.3085V6.8C8.8 6.579 8.621 6.4 8.4 6.4H7.6C7.379 6.4 7.2 6.579 7.2 6.8V7.3125C6.091 7.3675 5.2 8.241 5.2 9.3275C5.2 10.236 5.831 11.0415 6.736 11.286Z" fill="#003049"/>
</svg>
