<svg width="32" height="32" viewBox="0 0 32 32" fill="none" xmlns="http://www.w3.org/2000/svg">
<path d="M12 13C12 11.8956 11.1044 11 10 11H9C6.79063 11 5 12.7906 5 15V18C5 20.2094 6.79063 22 9 22H10C11.1044 22 12 21.1044 12 20V13ZM23 22C25.2094 22 27 20.2094 27 18V15C27 12.7906 25.2094 11 23 11H22C20.8956 11 20 11.8956 20 13V20C20 21.1044 20.8956 22 22 22H23ZM16 0C7.07375 0 0.28625 7.42688 0 16V17C0 17.5525 0.4475 18 1 18H2C2.5525 18 3 17.5525 3 17V16C3 8.83187 8.83187 3 16 3C23.1681 3 29 8.83187 29 16H28.9925C28.9975 16.1519 29 26.3575 29 26.3575C29 27.8169 27.8169 29 26.3575 29H20C20 27.3431 18.6569 26 17 26H15C13.3431 26 12 27.3431 12 29C12 30.6569 13.3431 32 15 32H26.3575C29.4738 32 32 29.4738 32 26.3575V16C31.7138 7.42688 24.9263 0 16 0Z" fill="#003049"/>
</svg>
