<?xml version="1.0" encoding="UTF-8" standalone="no"?>
<!-- Created with Inkscape (http://www.inkscape.org/) -->
<svg
   xmlns:dc="http://purl.org/dc/elements/1.1/"
   xmlns:cc="http://creativecommons.org/ns#"
   xmlns:rdf="http://www.w3.org/1999/02/22-rdf-syntax-ns#"
   xmlns:svg="http://www.w3.org/2000/svg"
   xmlns="http://www.w3.org/2000/svg"
   xmlns:sodipodi="http://sodipodi.sourceforge.net/DTD/sodipodi-0.dtd"
   xmlns:inkscape="http://www.inkscape.org/namespaces/inkscape"
   width="618.09998"
   height="234.45"
   id="svg2"
   sodipodi:version="0.32"
   inkscape:version="0.46"
   version="1.0"
   sodipodi:docname="Logo Basel mit Claim.svg"
   inkscape:output_extension="org.inkscape.output.svg.inkscape">
  <defs
     id="defs4">
    <inkscape:perspective
       sodipodi:type="inkscape:persp3d"
       inkscape:vp_x="0 : 526.18109 : 1"
       inkscape:vp_y="0 : 1000 : 0"
       inkscape:vp_z="744.09448 : 526.18109 : 1"
       inkscape:persp3d-origin="372.04724 : 350.78739 : 1"
       id="perspective10" />
    <clipPath
       id="clipPath2929"
       clipPathUnits="userSpaceOnUse">
      <path
         id="path2931"
         d="M 0.24994,104.228 L 594.74994,104.228 L 594.74994,736.772 L 0.24994,736.772 L 0.24994,104.228 z" />
    </clipPath>
    <clipPath
       id="clipPath2915"
       clipPathUnits="userSpaceOnUse">
      <path
         id="path2917"
         d="M 0.24994,104.228 L 594.74994,104.228 L 594.74994,736.772 L 0.24994,736.772 L 0.24994,104.228 z" />
    </clipPath>
    <clipPath
       id="clipPath2891"
       clipPathUnits="userSpaceOnUse">
      <path
         id="path2893"
         d="M 0.24994,104.228 L 594.74994,104.228 L 594.74994,736.772 L 0.24994,736.772 L 0.24994,104.228 z" />
    </clipPath>
    <clipPath
       id="clipPath2885"
       clipPathUnits="userSpaceOnUse">
      <path
         id="path2887"
         d="M 223.374,400.458 L 197.851,400.458 L 197.851,329.273 L 223.374,329.273 L 223.374,400.458 z" />
    </clipPath>
    <clipPath
       id="clipPath2867"
       clipPathUnits="userSpaceOnUse">
      <path
         id="path2869"
         d="M 0.24994,104.228 L 594.74994,104.228 L 594.74994,736.772 L 0.24994,736.772 L 0.24994,104.228 z" />
    </clipPath>
    <clipPath
       id="clipPath2861"
       clipPathUnits="userSpaceOnUse">
      <path
         id="path2863"
         d="M 223.374,400.458 L 197.851,400.458 L 197.851,329.273 L 223.374,329.273 L 223.374,400.458 z" />
    </clipPath>
    <clipPath
       id="clipPath2713"
       clipPathUnits="userSpaceOnUse">
      <path
         id="path2715"
         d="M 0.24994,104.228 L 594.74994,104.228 L 594.74994,736.772 L 0.24994,736.772 L 0.24994,104.228 z" />
    </clipPath>
    <clipPath
       id="clipPath2707"
       clipPathUnits="userSpaceOnUse">
      <path
         id="path2709"
         d="M 593.879,103.758 L 2.588,103.758 L 2.588,736.302 L 593.879,736.302 L 593.879,103.758 z" />
    </clipPath>
    <clipPath
       id="clipPath2701"
       clipPathUnits="userSpaceOnUse">
      <path
         id="path2703"
         d="M 594.75,104.228 L 0.227,104.228 L 0.227,736.764 L 594.75,736.764 L 594.75,104.228 z" />
    </clipPath>
    <clipPath
       id="clipPath2689"
       clipPathUnits="userSpaceOnUse">
      <path
         id="path2691"
         clip-rule="evenodd"
         d="M 167.599,543.789 L 71.343,543.789 L 71.343,717.052 L 167.599,717.052 L 167.599,543.789 z" />
    </clipPath>
    <clipPath
       id="clipPath2679"
       clipPathUnits="userSpaceOnUse">
      <path
         id="path2681"
         d="M 0.24994,104.228 L 594.74994,104.228 L 594.74994,736.772 L 0.24994,736.772 L 0.24994,104.228 z" />
    </clipPath>
    <clipPath
       id="clipPath2673"
       clipPathUnits="userSpaceOnUse">
      <path
         id="path2675"
         d="M 593.879,103.758 L 2.588,103.758 L 2.588,736.302 L 593.879,736.302 L 593.879,103.758 z" />
    </clipPath>
    <clipPath
       id="clipPath2667"
       clipPathUnits="userSpaceOnUse">
      <path
         id="path2669"
         d="M 594.75,104.228 L 0.227,104.228 L 0.227,736.764 L 594.75,736.764 L 594.75,104.228 z" />
    </clipPath>
    <clipPath
       id="clipPath2655"
       clipPathUnits="userSpaceOnUse">
      <path
         id="path2657"
         clip-rule="evenodd"
         d="M 167.599,420.03 L 71.343,420.03 L 71.343,543.79 L 167.599,543.79 L 167.599,420.03 z" />
    </clipPath>
    <clipPath
       id="clipPath2635"
       clipPathUnits="userSpaceOnUse">
      <path
         id="path2637"
         d="M 0.24994,104.228 L 594.74994,104.228 L 594.74994,736.772 L 0.24994,736.772 L 0.24994,104.228 z" />
    </clipPath>
    <clipPath
       id="clipPath2629"
       clipPathUnits="userSpaceOnUse">
      <path
         id="path2631"
         d="M 593.879,103.758 L 2.588,103.758 L 2.588,736.302 L 593.879,736.302 L 593.879,103.758 z" />
    </clipPath>
    <clipPath
       id="clipPath2623"
       clipPathUnits="userSpaceOnUse">
      <path
         id="path2625"
         d="M 594.75,104.228 L 0.227,104.228 L 0.227,736.764 L 594.75,736.764 L 594.75,104.228 z" />
    </clipPath>
    <clipPath
       id="clipPath2611"
       clipPathUnits="userSpaceOnUse">
      <path
         id="path2613"
         clip-rule="evenodd"
         d="M 167.599,255.02 L 71.343,255.02 L 71.343,420.031 L 167.599,420.031 L 167.599,255.02 z" />
    </clipPath>
    <clipPath
       id="clipPath2601"
       clipPathUnits="userSpaceOnUse">
      <path
         id="path2603"
         d="M 0.24994,104.228 L 594.74994,104.228 L 594.74994,736.772 L 0.24994,736.772 L 0.24994,104.228 z" />
    </clipPath>
    <clipPath
       id="clipPath2595"
       clipPathUnits="userSpaceOnUse">
      <path
         id="path2597"
         d="M 593.879,103.758 L 2.588,103.758 L 2.588,736.302 L 593.879,736.302 L 593.879,103.758 z" />
    </clipPath>
    <clipPath
       id="clipPath2589"
       clipPathUnits="userSpaceOnUse">
      <path
         id="path2591"
         d="M 594.75,104.228 L 0.227,104.228 L 0.227,736.764 L 594.75,736.764 L 594.75,104.228 z" />
    </clipPath>
    <clipPath
       id="clipPath2577"
       clipPathUnits="userSpaceOnUse">
      <path
         id="path2579"
         clip-rule="evenodd"
         d="M 167.599,123.009 L 71.343,123.009 L 71.343,255.019 L 167.599,255.019 L 167.599,123.009 z" />
    </clipPath>
    <clipPath
       id="clipPath2529"
       clipPathUnits="userSpaceOnUse">
      <path
         id="path2531"
         d="M 0.24994,104.228 L 594.74994,104.228 L 594.74994,736.772 L 0.24994,736.772 L 0.24994,104.228 z" />
    </clipPath>
    <clipPath
       id="clipPath2523"
       clipPathUnits="userSpaceOnUse">
      <path
         id="path2525"
         d="M 593.879,103.758 L 2.588,103.758 L 2.588,736.302 L 593.879,736.302 L 593.879,103.758 z" />
    </clipPath>
    <clipPath
       id="clipPath2517"
       clipPathUnits="userSpaceOnUse">
      <path
         id="path2519"
         d="M 594.75,104.228 L 0.227,104.228 L 0.227,736.764 L 594.75,736.764 L 594.75,104.228 z" />
    </clipPath>
    <inkscape:perspective
       id="perspective2505"
       inkscape:persp3d-origin="372.04724 : 350.78739 : 1"
       inkscape:vp_z="744.09448 : 526.18109 : 1"
       inkscape:vp_y="0 : 1000 : 0"
       inkscape:vp_x="0 : 526.18109 : 1"
       sodipodi:type="inkscape:persp3d" />
  </defs>
  <sodipodi:namedview
     id="base"
     pagecolor="#ffffff"
     bordercolor="#666666"
     borderopacity="1.0"
     inkscape:pageopacity="0.0"
     inkscape:pageshadow="2"
     inkscape:zoom="0.24748737"
     inkscape:cx="125.21488"
     inkscape:cy="253.43517"
     inkscape:document-units="px"
     inkscape:current-layer="layer1"
     showgrid="false"
     inkscape:window-width="1280"
     inkscape:window-height="750"
     inkscape:window-x="-8"
     inkscape:window-y="-8" />
  <metadata
     id="metadata7">
    <rdf:RDF>
      <cc:Work
         rdf:about="">
        <dc:format>image/svg+xml</dc:format>
        <dc:type
           rdf:resource="http://purl.org/dc/dcmitype/StillImage" />
      </cc:Work>
    </rdf:RDF>
  </metadata>
  <g
     inkscape:label="Ebene 1"
     inkscape:groupmode="layer"
     id="layer1"
     transform="translate(5.4559681,-10.556667)">
    <g
       id="g3709"
       transform="matrix(6.7217001,0,0,6.7217001,-1751.3258,-3200.9342)">
      <path
         d="M 289.53179,489.0312 C 289.22929,488.94245 289.03554,488.9262 288.57429,488.9262 L 287.03304,488.9262 L 287.03304,492.25745 L 288.64679,492.25745 C 289.15929,492.25745 289.53179,492.18745 289.79679,491.9737 C 290.16929,491.68995 290.43679,491.1237 290.43679,490.5387 C 290.43679,489.8287 290.08054,489.1912 289.53179,489.0312"
         style="fill:#000000;fill-opacity:1;fill-rule:nonzero;stroke:none"
         id="path2831" />
      <path
         d="M 299.43929,490.2537 C 297.79054,490.2537 297.09554,490.5562 297.09554,491.63745 C 297.09554,492.34745 297.56429,492.8062 298.16679,492.8062 C 298.61054,492.8062 299.22429,492.59495 299.57804,492.2037 L 299.54554,490.2537 L 299.43929,490.2537"
         style="fill:#000000;fill-opacity:1;fill-rule:nonzero;stroke:none"
         id="path2833" />
      <path
         d="M 289.53179,486.72745 C 289.86804,486.5512 290.16929,485.96495 290.16929,485.46995 C 290.16929,484.95495 289.90429,484.40745 289.46054,484.2287 C 289.24929,484.13995 288.98179,484.06995 288.43304,484.06995 L 286.99679,484.06995 L 286.99679,486.88745 L 288.46804,486.88745 C 289.05304,486.88745 289.31929,486.8337 289.53179,486.72745"
         style="fill:#000000;fill-opacity:1;fill-rule:nonzero;stroke:none"
         id="path2835" />
      <path
         d="M 324.53304,494.48995 C 323.52304,494.48995 322.70929,494.01245 322.42429,493.24995 C 322.24804,492.78995 322.21304,492.5062 322.21304,491.21245 L 322.21304,481.71245 L 324.58804,481.12745 L 324.58804,490.5912 C 324.59304,492.10245 324.61554,492.26245 324.72804,492.39995 C 324.89179,492.59995 325.12054,492.61245 325.31554,492.61245 C 325.40304,492.61245 325.45429,492.61245 325.57929,492.57745 L 325.95054,494.2962 C 325.54429,494.45495 325.04804,494.48995 324.53304,494.48995 z M 320.42304,490.48495 L 315.17554,490.48495 L 315.17554,490.5562 C 315.17554,491.9562 315.86679,492.7537 317.09179,492.7537 C 317.90554,492.7537 318.66679,492.45245 319.39304,491.84995 L 320.31554,493.26745 C 319.26929,494.1187 318.17054,494.5262 316.89679,494.5262 C 314.29054,494.5262 312.60679,492.68245 312.60679,489.8287 C 312.60679,488.19995 312.94429,487.11745 313.74179,486.2312 C 314.48554,485.39745 315.38929,485.0087 316.59429,485.0087 C 317.63929,485.0087 318.63304,485.36245 319.21804,485.96495 C 320.05054,486.8162 320.42304,488.0387 320.42304,489.9362 C 320.42304,490.12995 320.42304,490.3262 320.42304,490.48495 z M 307.36179,494.5612 C 306.24429,494.5612 305.02054,494.20745 303.69179,493.5162 L 304.54179,491.7787 C 305.26929,492.22245 306.52679,492.8062 307.55679,492.8062 C 308.23054,492.8062 308.76179,492.3637 308.76179,491.7787 C 308.76179,491.1587 308.31804,490.83995 307.36179,490.66245 L 306.32304,490.43995 C 305.61929,490.2587 304.96304,489.8912 304.64554,489.50245 C 304.32554,489.1112 304.11804,488.49995 304.11804,487.91495 C 304.11804,486.14245 305.51804,484.95495 307.62679,484.95495 C 309.08054,484.95495 310.03804,485.39745 310.87054,485.8062 L 310.09054,487.4012 C 309.18804,486.93995 308.53054,486.74495 307.85804,486.74495 C 307.16679,486.74495 306.70679,487.09995 306.70679,487.6312 C 306.70679,488.09245 307.00804,488.33995 307.83929,488.5537 L 308.93929,488.83745 C 310.05554,489.1212 310.42929,489.45745 310.74679,489.86495 C 311.08304,490.28995 311.24304,490.80495 311.24304,491.40745 C 311.24304,493.2862 309.68429,494.5612 307.36179,494.5612 z M 300.73054,494.57745 C 300.36929,494.0637 300.18304,493.63995 300.18304,493.63995 C 300.00679,493.81745 299.75679,493.97745 299.63429,494.0537 C 299.11679,494.3762 298.34554,494.5862 297.80804,494.5787 C 295.78679,494.55495 294.68929,493.5862 294.68929,491.7787 C 294.68929,489.65245 296.15929,488.65995 299.04929,488.65995 C 299.22554,488.65995 299.38679,488.65995 299.58054,488.67745 L 299.58054,488.30495 C 299.58054,487.29495 299.38679,486.7987 298.51679,486.7987 C 297.75554,486.7987 296.76679,487.00495 295.82304,487.5437 L 294.95554,485.9837 C 295.37304,485.7262 295.87554,485.48245 296.42679,485.3112 C 297.34554,485.0262 298.00304,484.91995 298.83554,484.91995 C 300.36054,484.91995 301.40554,485.5762 301.76179,486.58495 C 301.88429,486.95745 301.93679,487.2412 301.92054,488.2162 C 301.92054,488.2162 301.86429,491.3712 301.86679,491.4237 C 301.90429,492.41745 302.18054,493.1762 302.61679,493.8587 L 300.73054,494.57745 z M 290.01054,494.24245 C 289.62054,494.25995 289.10554,494.27745 288.43304,494.27745 L 284.55054,494.27745 L 284.55054,481.9612 L 288.71679,481.9612 C 290.22304,481.9612 291.00304,482.1912 291.74804,482.8462 C 292.43929,483.4487 292.75679,484.1587 292.75679,485.0437 C 292.75679,485.87745 292.47429,486.58495 291.92429,487.09995 C 291.56929,487.4362 291.35679,487.55995 290.79054,487.73745 C 292.31554,488.1812 293.23554,489.2262 293.23554,490.83995 C 293.23554,492.5412 292.17179,494.1362 290.01054,494.24245 z M 281.71679,479.26745 L 281.71679,496.9862 L 329.56179,496.9862 L 329.56929,479.26745 L 281.71679,479.26745"
         style="fill:#000000;fill-opacity:1;fill-rule:nonzero;stroke:none"
         id="path2837" />
      <path
         d="M 316.62929,486.74495 C 315.72554,486.74495 315.21179,487.45495 315.21179,488.71245 L 315.21179,488.7487 L 317.96054,488.7487 L 317.96054,488.64245 C 317.96054,487.9687 317.88804,487.6137 317.67554,487.27745 C 317.44429,486.9237 317.10804,486.74495 316.62929,486.74495"
         style="fill:#000000;fill-opacity:1;fill-rule:nonzero;stroke:none"
         id="path2839" />
      <path
         d="M 326.99679,488.9137 L 326.99679,481.96595 L 333.94404,481.96595 L 333.94404,488.9137 L 326.99679,488.9137 z"
         style="fill:#e23131;fill-opacity:1;fill-rule:nonzero;stroke:none"
         id="path2841" />
      <path
         d="M 333.94429,481.9662 L 333.94429,488.91395 L 326.99704,488.91395 L 326.99704,481.9662 L 333.94429,481.9662 z"
         style="fill:none;stroke:#e23131;stroke-width:0.07;stroke-linecap:butt;stroke-linejoin:miter;stroke-miterlimit:4;stroke-dasharray:none;stroke-opacity:1"
         id="path2843" />
      <path
         d="M 333.03304,484.56995 L 331.29554,484.56995 L 331.29554,482.83245 L 329.55929,482.83245 L 329.55929,484.56995 L 327.82179,484.56995 L 327.82179,486.3062 L 329.55929,486.3062 L 329.55929,488.0437 L 331.29554,488.0437 L 331.29554,486.3062 L 333.03304,486.3062 L 333.03304,484.56995"
         style="fill:#ffffff;fill-opacity:1;fill-rule:nonzero;stroke:none"
         id="path2845" />
      <path
         d="M 331.42929,506.56745 C 330.32929,505.93745 329.53679,507.09745 328.55804,507.05495 C 328.59929,506.62995 328.37679,506.32245 328.07054,506.0787 C 327.25429,506.19995 326.58304,506.70995 325.91179,507.1987 C 325.83179,506.9137 325.87054,506.54745 325.87054,506.2212 C 325.77179,505.71245 325.36304,505.99745 325.07929,506.11995 C 325.24054,506.97495 324.79304,507.68745 325.07929,508.4612 C 325.07929,508.62495 325.28429,508.73995 325.20679,508.87245 C 325.20679,508.87245 325.38679,509.0212 325.52429,508.9487 C 325.60054,508.90995 325.66804,508.8062 325.66804,508.8062 C 326.15679,508.7037 325.95179,508.07245 326.21804,507.7287 C 326.70679,507.42245 326.95179,506.9137 327.58054,506.8512 C 327.96804,507.17745 327.62304,507.7887 327.86554,508.17495 C 328.25429,508.3787 328.15179,507.7887 328.55804,507.93245 C 329.16929,507.42245 329.82054,506.89245 330.65554,507.05495 C 331.12304,507.6262 330.51179,508.54245 331.00054,509.0512 L 331.67304,509.0512 C 332.01929,508.68495 331.89679,508.2362 331.77429,507.82995 C 331.77429,507.42245 331.67304,506.9337 331.42929,506.56745"
         style="fill:#000000;fill-opacity:1;fill-rule:nonzero;stroke:none"
         id="path2847" />
      <path
         d="M 315.04679,505.6512 C 314.24929,505.43745 313.67304,506.06245 313.00179,506.32745 C 312.83179,506.23995 313.01679,506.01995 312.99804,505.8362 L 312.76304,505.2662 C 311.78679,505.3362 312.38929,506.34245 312.11054,506.8587 C 312.16304,507.2212 311.95679,508.0787 312.48054,508.23495 C 313.05179,507.9987 313.21679,507.55495 313.26804,506.99995 C 313.49929,506.6312 313.88804,506.3912 314.33054,506.30995 C 315.19179,506.5587 314.81929,507.6337 315.27679,508.1862 C 315.80304,508.3412 315.93804,507.8187 316.16304,507.5737 C 315.79179,506.8712 315.88179,506.0662 315.04679,505.6512"
         style="fill:#000000;fill-opacity:1;fill-rule:nonzero;stroke:none"
         id="path2849" />
      <path
         d="M 322.76929,504.4412 C 322.95179,504.2987 323.03304,504.09495 323.01179,503.84995 C 322.91054,503.62745 323.01179,503.1787 322.60554,503.2612 C 322.46304,503.40245 322.17804,503.4637 322.21929,503.7487 C 322.34054,504.0537 322.34054,504.4412 322.76929,504.4412"
         style="fill:#000000;fill-opacity:1;fill-rule:nonzero;stroke:none"
         id="path2851" />
      <path
         d="M 323.09429,505.80495 L 323.01179,505.66245 C 321.85304,505.78495 322.40304,507.02495 322.11804,507.7187 C 322.15679,507.96245 322.46304,508.26745 322.70804,508.28745 C 323.54179,507.79995 322.79054,506.9237 323.29804,506.2537 C 323.09429,506.19245 323.09429,505.9887 323.09429,505.80495"
         style="fill:#000000;fill-opacity:1;fill-rule:nonzero;stroke:none"
         id="path2853" />
      <path
         d="M 333.87804,504.6137 C 334.06054,504.4712 334.14304,504.2687 334.12179,504.0237 C 334.02179,503.7987 334.12179,503.3512 333.71554,503.43245 C 333.57179,503.5762 333.28804,503.6362 333.32804,503.91995 C 333.45054,504.22745 333.45054,504.6137 333.87804,504.6137"
         style="fill:#000000;fill-opacity:1;fill-rule:nonzero;stroke:none"
         id="path2855" />
      <g
         transform="matrix(0,1.25,1.25,0,-150.36821,231.9537)"
         clip-path="url(#clipPath2861)"
         id="g2859">
        <g
           clip-path="url(#clipPath2867)"
           id="g2865">
          <path
             id="path2871"
             style="fill:#000000;fill-opacity:1;fill-rule:nonzero;stroke:none"
             d="M 219.219,387.659 L 219.105,387.592 C 219.203,386.665 220.196,387.104 220.751,386.876 C 220.945,386.909 221.19,387.152 221.206,387.348 C 220.816,388.015 220.115,387.412 219.578,387.82 C 219.528,387.659 219.366,387.659 219.219,387.659" />
          <path
             id="path2873"
             style="fill:#000000;fill-opacity:1;fill-rule:nonzero;stroke:none"
             d="M 215.738,368.562 C 215.713,368.303 215.353,368.317 215.378,368.08 C 215.581,367.914 215.539,367.498 215.918,367.64 C 216.035,367.668 216.07,367.996 216.185,368.043 C 216.185,368.043 216.877,368.237 217.849,368.314 C 218.684,368.379 220.589,368.166 220.77,368.156 C 221.164,368.136 221.681,367.666 221.929,367.761 C 222.257,367.726 222.462,367.062 222.491,366.774 C 222.351,366.012 221.959,365.357 220.732,364.97 C 219.676,364.486 215.017,364.595 214.531,364.322 C 214.473,364.059 214.677,363.91 214.743,363.761 C 215.626,363.685 220.493,363.989 220.847,364.108 C 221.205,364.153 222.589,365.15 223.083,365.689 L 223.373,366.199 C 223.407,367.022 222.581,367.914 221.973,368.5 C 221.354,368.522 220.725,368.491 220.115,368.599 C 219.692,368.881 216.216,368.407 215.738,368.562" />
        </g>
      </g>
      <path
         d="M 282.29304,508.35745 C 282.17929,507.25745 282.26929,505.77245 282.60429,504.6137 C 284.15429,504.27995 285.80554,503.77995 287.39179,503.99495 C 287.53554,503.93495 287.71929,503.7537 287.59929,503.6112 C 286.33679,503.4787 285.01179,503.79495 283.72929,503.8887 C 283.33554,503.74245 282.73554,504.28495 282.53054,503.86995 C 282.50179,503.81245 282.48054,503.01495 282.46804,502.91495 C 282.32679,502.79245 282.28554,502.9137 282.16304,502.9937 C 281.85679,502.9587 281.81429,503.9062 281.72679,504.07245 C 281.65804,504.20245 281.56179,504.2987 281.28429,504.1987 C 280.91679,504.4187 280.18554,504.1287 280.05929,504.63745 C 280.31804,505.3912 281.17929,504.60495 281.66554,504.78995 C 281.57304,506.4587 280.76804,508.10245 281.38804,509.77495 C 281.69179,510.06245 281.79679,509.45245 282.04304,509.39495 C 282.18429,509.27245 282.44804,509.4362 282.57179,509.25495 C 282.59429,508.82745 283.14554,508.7087 283.35179,508.42745 C 283.55804,508.22495 284.18554,508.3087 283.94554,507.7987 C 283.33554,507.8162 282.88304,508.42245 282.29304,508.35745"
         style="fill:#000000;fill-opacity:1;fill-rule:nonzero;stroke:none"
         id="path2875" />
      <path
         d="M 337.56429,507.83995 C 337.45054,506.73995 337.54179,505.2537 337.87429,504.09495 C 339.42429,503.7612 341.07679,503.2612 342.66304,503.4762 C 342.80679,503.4162 342.99179,503.23495 342.87054,503.09245 C 341.60929,502.9612 340.28304,503.27745 339.00054,503.36995 C 338.60679,503.2237 338.00679,503.76745 337.80054,503.34995 C 337.77304,503.29245 337.75054,502.49495 337.74054,502.39745 C 337.59804,502.2737 337.55554,502.3962 337.43304,502.4762 C 337.12679,502.43995 337.08429,503.38495 336.99804,503.55245 C 336.92929,503.68495 336.83304,503.77995 336.55429,503.6787 C 336.18804,503.9012 335.45679,503.60995 335.33054,504.11745 C 335.58804,504.8737 336.45054,504.08495 336.93679,504.27245 C 336.84429,505.93995 336.03929,507.5837 336.65929,509.2562 C 336.96304,509.54495 337.06804,508.9337 337.31304,508.8762 C 337.45679,508.7537 337.71804,508.9187 337.84304,508.7362 C 337.86554,508.3087 338.41679,508.18995 338.62179,507.9062 C 338.82804,507.70495 339.45679,507.78995 339.21554,507.2812 C 338.60554,507.2962 338.15429,507.9037 337.56429,507.83995"
         style="fill:#000000;fill-opacity:1;fill-rule:nonzero;stroke:none"
         id="path2877" />
      <path
         d="M 297.21304,504.97745 C 297.43929,504.81745 297.86554,504.85995 297.98554,505.14745 C 297.90179,505.42995 297.67804,505.6937 297.35054,505.7112 C 297.23054,505.5062 296.96679,505.21995 297.21304,504.97745 z M 299.14429,508.61495 C 298.34929,508.4862 297.57929,507.9937 297.34054,507.1762 C 297.26179,506.9537 297.26429,506.6287 297.44804,506.4437 C 297.81429,506.42745 298.08179,506.1862 298.36804,505.92245 C 298.61304,505.5787 298.98304,505.2337 298.76304,504.74495 C 298.56429,504.15245 297.93179,504.12745 297.46429,503.9612 C 297.30054,503.9812 297.11804,504.1612 297.01679,503.9187 C 296.67179,503.9762 296.46554,504.36245 296.17929,504.5837 C 296.31554,505.2562 295.42179,505.0062 295.43804,505.5562 C 296.20804,506.25495 296.52679,507.2937 296.98804,508.2137 C 297.19054,508.43745 297.39179,508.58245 297.61554,508.7062 C 298.05929,509.21745 298.95304,509.3662 299.66804,509.14745 C 299.89304,509.0062 299.93554,508.78245 299.91679,508.5187 C 299.65179,508.5562 299.42804,508.65745 299.14429,508.61495"
         style="fill:#000000;fill-opacity:1;fill-rule:nonzero;stroke:none"
         id="path2879" />
      <g
         transform="matrix(0,1.25,1.25,0,-150.36821,231.9537)"
         clip-path="url(#clipPath2885)"
         id="g2883">
        <g
           clip-path="url(#clipPath2891)"
           id="g2889">
          <path
             id="path2895"
             style="fill:#000000;fill-opacity:1;fill-rule:nonzero;stroke:none"
             d="M 218.631,355.46 C 218.481,354.973 218.95,354.662 218.785,354.255 C 219.289,353.991 219.512,353.42 219.868,352.994 L 219.556,352.768 C 219.523,352.621 219.604,352.522 219.636,352.408 C 220.302,352.143 221.098,352.04 221.704,352.508 C 221.836,352.703 221.675,352.883 221.512,353.031 C 220.991,353.035 220.554,353.38 220.181,353.691 C 220.023,354.262 219.422,354.479 219.345,355.066 L 219.997,355.305 L 219.999,355.419 C 219.707,355.536 219.399,355.863 219.024,355.737 L 218.631,355.46" />
          <path
             id="path2897"
             style="fill:#000000;fill-opacity:1;fill-rule:nonzero;stroke:none"
             d="M 218.8,339.482 C 219.126,339.382 219.632,339.656 219.973,339.393 C 219.987,339.213 220.264,339.276 220.361,339.113 C 220.49,338.868 220.765,338.704 220.665,338.378 C 220.549,338.149 220.371,338.012 220.166,337.926 C 220.068,337.975 219.962,338.01 219.838,338.015 C 219.814,337.944 219.826,337.887 219.849,337.833 C 219.604,337.784 219.343,337.772 219.098,337.753 C 218.935,337.737 219.112,337.476 218.901,337.477 L 219.061,337.167 C 219.496,337.083 219.944,337.089 220.34,337.208 C 221.154,336.216 221.29,334.882 221.653,333.702 C 221.824,332.412 221.44,331.393 220.646,330.521 C 220.14,330.077 219.495,329.955 218.798,329.979 C 217.24,330.133 216.119,331.466 215.628,332.83 C 215.579,333.53 215.477,334.337 216.07,334.816 C 215.911,334.943 216.111,335.425 215.698,335.249 C 214.907,334.825 214.955,333.857 215.039,333.05 C 215.456,331.291 216.986,329.758 218.739,329.335 C 219.794,329.184 220.852,329.267 221.539,330.12 C 222.983,331.706 222.032,334.202 221.416,335.89 C 221.187,336.232 220.975,336.557 220.941,336.968 C 220.861,337.095 220.784,337.231 220.702,337.362 C 220.937,337.489 221.144,337.664 221.297,337.901 C 221.398,338.422 221.124,338.782 220.996,339.191 C 220.577,339.827 219.88,340.191 219.164,340.146 C 218.724,340.215 218.818,339.775 218.8,339.482" />
          <path
             id="path2899"
             style="fill:#000000;fill-opacity:1;fill-rule:nonzero;stroke:none"
             d="M 218.714,350.712 C 219.04,350.612 219.548,350.886 219.885,350.624 C 219.901,350.444 220.178,350.507 220.276,350.344 C 220.404,350.099 220.68,349.934 220.58,349.609 C 220.282,349.025 219.599,349.03 219.012,348.984 C 218.849,348.969 219.028,348.709 218.815,348.71 L 218.975,348.398 C 219.838,348.229 220.751,348.418 221.212,349.132 C 221.313,349.653 221.039,350.013 220.91,350.421 C 220.492,351.058 219.794,351.421 219.078,351.378 C 218.64,351.446 218.733,351.006 218.714,350.712" />
          <path
             id="path2901"
             style="fill:#000000;fill-opacity:1;fill-rule:nonzero;stroke:none"
             d="M 220.83,400.414 C 220.587,400.333 220.228,399.894 220.667,399.698 C 220.667,399.47 221.01,399.502 221.139,399.47 C 221.139,399.829 221.742,399.894 221.694,400.137 C 221.303,400.008 221.253,400.625 220.83,400.414" />
        </g>
      </g>
      <path
         d="M 277.03054,504.96995 L 277.33804,504.22245 L 277.72429,503.47245 L 278.29554,502.6937 L 278.44179,502.82745 L 278.19804,503.47245 L 277.89429,504.12995 L 277.03054,505.5662 L 276.99429,505.1787 L 277.03054,504.96995 z M 279.48179,506.50745 L 279.48179,506.6037 L 279.28679,506.85995 L 279.11679,506.9687 L 278.92179,507.1512 L 278.89679,507.24995 L 278.94554,507.24995 C 278.36804,507.4662 278.11804,508.2587 277.45679,508.26745 L 277.35929,508.18245 L 277.06679,507.65745 L 277.01804,507.5262 L 277.01804,506.81495 L 277.04304,506.7587 L 277.04304,506.7337 C 277.35554,506.0537 277.85929,505.4762 278.24679,504.83495 L 278.88054,503.8137 L 279.13429,503.03495 L 279.13429,502.8637 L 279.01304,502.08495 L 278.68429,501.6962 L 278.30804,501.6962 L 277.49304,502.7187 L 277.05429,503.49995 L 276.40929,505.15245 L 276.34929,505.3962 L 276.34929,505.5412 L 276.25929,506.68995 L 276.23929,506.7462 L 276.23929,507.70745 L 276.33679,507.96245 L 276.33679,508.1337 L 276.53054,508.6562 L 276.53054,508.7412 L 276.67804,508.8762 L 276.96929,509.05745 L 277.06679,509.05745 L 277.21304,508.95995 L 277.58929,508.7912 L 277.74804,508.7062 L 277.89429,508.5712 L 278.55679,507.97995 L 278.66679,507.97995 L 278.75179,507.90495 L 278.86054,507.7237 L 278.99429,507.6387 L 279.63929,507.04245 L 279.77429,507.04245 L 279.77429,506.8962 L 279.87054,506.6412 L 279.87054,506.43495 L 279.57804,506.43495 L 279.48179,506.50745"
         style="fill:#000000;fill-opacity:1;fill-rule:nonzero;stroke:none"
         id="path2903" />
      <path
         d="M 318.15804,504.96995 L 318.46429,504.22245 L 318.85179,503.47245 L 319.42304,502.6937 L 319.56929,502.82745 L 319.32554,503.47245 L 319.02179,504.12995 L 318.15804,505.5662 L 318.12179,505.1787 L 318.15804,504.96995 z M 320.60804,506.50745 L 320.60804,506.6037 L 320.41304,506.85995 L 320.24304,506.9687 L 320.04929,507.1512 L 320.02429,507.24995 L 320.07304,507.24995 C 319.49554,507.4662 319.24554,508.2587 318.58304,508.26745 L 318.48554,508.18245 L 318.19429,507.65745 L 318.14554,507.5262 L 318.14554,506.8162 L 318.16929,506.7587 L 318.16929,506.7337 C 318.48304,506.0537 318.98554,505.4762 319.37429,504.83495 L 320.00554,503.8137 L 320.26179,503.03495 L 320.26179,502.8637 L 320.14054,502.08495 L 319.81179,501.6962 L 319.43429,501.6962 L 318.61929,502.7187 L 318.18054,503.49995 L 317.53679,505.15245 L 317.47554,505.3962 L 317.47554,505.5412 L 317.38804,506.68995 L 317.36679,506.7462 L 317.36679,507.70745 L 317.46429,507.96245 L 317.46429,508.1337 L 317.65929,508.6562 L 317.65929,508.7412 L 317.80429,508.8762 L 318.09679,509.05745 L 318.19429,509.05745 L 318.33929,508.95995 L 318.71679,508.7912 L 318.87554,508.7062 L 319.02179,508.5712 L 319.68304,507.97995 L 319.79429,507.97995 L 319.87804,507.90495 L 319.98804,507.7237 L 320.12179,507.6387 L 320.76804,507.04245 L 320.90054,507.04245 L 320.90054,506.8962 L 320.99804,506.6412 L 320.99804,506.43495 L 320.70554,506.43495 L 320.60804,506.50745"
         style="fill:#000000;fill-opacity:1;fill-rule:nonzero;stroke:none"
         id="path2905" />
      <path
         d="M 346.31304,507.80995 L 346.23054,507.85745 L 346.16554,507.87495 L 346.08179,507.90245 L 345.99804,507.9487 L 345.77679,508.00495 L 345.69179,508.0137 L 345.49804,507.98495 L 345.43429,507.9487 L 345.38804,507.9112 L 345.25804,507.8012 L 345.20179,507.7812 L 345.14804,507.7087 L 345.11054,507.6162 L 345.11054,507.5512 L 345.18429,507.4212 L 345.19304,507.38495 L 345.22179,507.3662 L 345.31429,507.33745 L 345.42554,507.3112 L 345.50804,507.2837 L 345.59179,507.23745 L 345.62929,507.20995 L 345.83179,507.2462 L 345.88679,507.2837 L 345.98054,507.33745 L 346.11929,507.4037 L 346.21179,507.46745 L 346.24804,507.5337 L 346.30304,507.6337 L 346.36804,507.6812 L 346.41554,507.68995 L 346.31304,507.80995 z M 347.76554,507.43995 L 347.74679,507.23745 L 347.63554,506.97745 L 347.73804,506.43245 L 347.78429,506.3487 L 347.82179,506.32995 L 347.83054,506.2662 L 347.80179,506.2287 L 347.79429,506.1362 L 347.82179,506.0062 L 347.78429,505.7187 L 347.72929,502.4012 L 347.68179,502.29745 L 347.63554,501.9837 L 347.40429,501.7612 L 347.34929,501.71495 L 347.27429,501.66995 C 347.17304,501.60495 347.06304,501.67745 347.03429,501.7812 C 347.00679,501.8637 347.08054,501.92745 347.07054,502.01245 C 347.06304,502.03995 347.03429,502.03995 347.02554,502.07745 C 347.01554,502.1137 347.03429,502.1312 347.03429,502.1687 C 347.03429,502.29745 346.99679,502.22495 346.97929,502.3912 L 346.97054,502.4737 L 347.09054,505.9137 L 347.10804,505.9687 L 347.17304,506.44995 L 347.09054,506.7937 L 347.04304,507.13495 L 346.89679,507.10745 L 346.81304,507.0612 L 346.70054,506.97745 L 346.45179,506.8387 L 346.25679,506.80245 L 346.18304,506.7562 L 346.15679,506.71995 L 346.09179,506.69995 L 346.06304,506.72745 L 345.85929,506.7562 L 345.66554,506.80995 L 345.47179,506.89495 L 345.33179,506.9312 L 345.03554,507.0612 L 344.91554,507.16245 L 344.87804,507.21745 L 344.69429,507.33745 L 344.62054,507.6987 L 344.67429,507.7637 L 344.75804,507.97745 L 344.87804,508.1512 L 344.96179,508.2262 L 345.00804,508.2637 L 345.43429,508.50495 L 345.50804,508.47495 L 345.56304,508.4687 L 345.62929,508.4487 L 345.69179,508.4687 L 345.75804,508.4487 L 345.78429,508.4487 L 346.29429,508.23495 L 346.47929,508.1162 L 346.67429,508.0687 L 346.71929,508.0512 L 346.74679,507.98495 L 347.04304,507.7912 L 347.10804,507.71745 L 347.18304,507.8937 L 347.29429,507.99495 L 347.32054,508.1062 L 347.38679,508.2087 L 347.43304,508.3087 L 347.56179,508.4012 L 347.73804,508.27245 L 347.75679,508.2087 L 347.80179,508.12495 L 347.87679,508.0237 L 347.93179,507.9412 L 347.94179,507.87495 L 347.82179,507.59745 L 347.76554,507.43995"
         style="fill:#000000;fill-opacity:1;fill-rule:nonzero;stroke:none"
         id="path2907" />
      <path
         d="M 341.92179,505.96495 C 342.14679,505.8012 342.57554,505.84245 342.69679,506.1262 C 342.61554,506.41245 342.38929,506.6762 342.06554,506.6962 C 341.94304,506.4937 341.67804,506.20745 341.92179,505.96495 z M 344.08054,509.58745 C 343.28679,509.46495 342.51304,508.9762 342.26929,508.16245 C 342.18679,507.9387 342.18679,507.6137 342.37179,507.42995 C 342.73804,507.40995 343.00304,507.1662 343.28679,506.9012 C 343.53179,506.55495 343.89679,506.20745 343.67304,505.71995 C 343.47054,505.12995 342.83929,505.1087 342.37179,504.9462 C 342.20804,504.96745 342.02429,505.14995 341.92179,504.9062 C 341.57804,504.96745 341.37304,505.3537 341.08804,505.57745 C 341.23179,506.2487 340.33554,506.0037 340.35554,506.55495 C 341.12804,507.2487 341.45554,508.28495 341.92179,509.20245 C 342.12679,509.42495 342.32929,509.56745 342.55304,509.68995 C 343.00304,510.19745 343.89679,510.34245 344.61054,510.1162 C 344.83429,509.97495 344.87429,509.7512 344.85429,509.4862 C 344.58929,509.52745 344.36679,509.6287 344.08054,509.58745"
         style="fill:#000000;fill-opacity:1;fill-rule:nonzero;stroke:none"
         id="path2909" />
    </g>
  </g>
</svg>
