<?xml version="1.0"?>
<svg xmlns="http://www.w3.org/2000/svg" id="Ebene_1" data-name="Ebene 1" viewBox="0 0 183.21 48.68" width="753" height="200"><defs><style>.cls-1{fill:#eb0000;}</style></defs><title>Logo_winterthur_switzerland</title><path class="cls-1" d="M64.82,53.78h3.81V68H64.82Zm1.89-7.07a2.38,2.38,0,1,1-2.35,2.41,2.37,2.37,0,0,1,2.35-2.41" transform="translate(-34.19 -45.33)"/><path class="cls-1" d="M77.17,68H73.35V53.78h3.7v1.76a4.7,4.7,0,0,1,4.08-2.14c3.5,0,5.11,2.52,5.11,5.65v9H82.42V59.71c0-1.59-.77-2.83-2.61-2.83a2.67,2.67,0,0,0-2.64,2.95Z" transform="translate(-34.19 -45.33)"/><path class="cls-1" d="M95.46,53.78H98.3v3.41H95.46v6c0,1.25.58,1.65,1.67,1.65a5.23,5.23,0,0,0,1.17-.12v3.19a5.46,5.46,0,0,1-2.15.35,4.11,4.11,0,0,1-4.48-4.41V57.19H89.11V53.78h.72A2,2,0,0,0,92,51.52v-2h3.45Z" transform="translate(-34.19 -45.33)"/><path class="cls-1" d="M111.2,59.28A2.86,2.86,0,0,0,108,56.47a3.08,3.08,0,0,0-3.16,2.81Zm3.56,4.66a6.37,6.37,0,0,1-6.43,4.52,7.19,7.19,0,0,1-7.3-7.62,7.14,7.14,0,0,1,7-7.5c4.37,0,7,2.81,7,7.39,0,.55,0,1.13,0,1.18H104.8a3.45,3.45,0,0,0,3.56,3.25A3.12,3.12,0,0,0,111.57,63Z" transform="translate(-34.19 -45.33)"/><path class="cls-1" d="M122.49,56.06A2.56,2.56,0,1,1,125,58.73a2.53,2.53,0,0,1-2.55-2.46V68h-3.82V53.78h3.82Z" transform="translate(-34.19 -45.33)"/><path class="cls-1" d="M135.93,53.78h2.84v3.41h-2.84v6c0,1.25.57,1.65,1.66,1.65a5.33,5.33,0,0,0,1.18-.12v3.19a5.46,5.46,0,0,1-2.15.35,4.11,4.11,0,0,1-4.48-4.41V57.19h-2.56V53.78h.72a2,2,0,0,0,2.18-2.26v-2h3.45Z" transform="translate(-34.19 -45.33)"/><path class="cls-1" d="M146.1,68h-3.82v-21h3.82V55a5,5,0,0,1,3.82-1.56c3.58,0,5.25,2.52,5.25,5.65v9h-3.82V59.71c0-1.59-.77-2.83-2.61-2.83a2.65,2.65,0,0,0-2.64,2.78Z" transform="translate(-34.19 -45.33)"/><path class="cls-1" d="M168.41,66.49a4.44,4.44,0,0,1-3.9,1.91c-3.42,0-5.37-2.52-5.37-5.61v-9H163V62c0,1.6.8,2.87,2.58,2.87a2.56,2.56,0,0,0,2.67-2.81V53.78H172V65.45c0,1.1.09,2.08.14,2.58h-3.64a9.49,9.49,0,0,1-.12-1.54" transform="translate(-34.19 -45.33)"/><path class="cls-1" d="M180.56,56.06a2.56,2.56,0,0,1,5.11.09,2.56,2.56,0,0,1-5.11.12V68h-3.82V53.78h3.82Z" transform="translate(-34.19 -45.33)"/><path class="cls-1" d="M58.35,53.79l-5.08,9-2.44-3.62c1.12-1.64,3.87-5.73,3.87-5.73a6.17,6.17,0,0,0,1.14-4.06,4.31,4.31,0,0,0-4.14-4.05,4.25,4.25,0,0,0-3.14,1.57l-.11.15-.11-.15a4.25,4.25,0,0,0-3.14-1.57,4.29,4.29,0,0,0-4.14,4.05,6.1,6.1,0,0,0,1.14,4.06s2.75,4.09,3.87,5.73l-2.44,3.62-5.08-9H34.19L42.4,68h1.91l4.14-6.15L52.58,68h1.91l8.22-14.24Zm-13.05-2A3.14,3.14,0,0,1,44.69,50a1.61,1.61,0,0,1,1.62-1.55c1.17,0,1.85,1.31,2,1.68l.11.23.1-.23c.19-.37.87-1.68,2-1.68A1.61,1.61,0,0,1,52.21,50a3.09,3.09,0,0,1-.62,1.77l-3.14,4.63Z" transform="translate(-34.19 -45.33)"/><polygon points="53.67 34.16 56.68 43.24 59.27 34.16 63.01 34.16 58.64 48.25 54.87 48.25 51.6 38.63 48.39 48.25 44.56 48.25 40.1 34.16 44.08 34.16 46.66 43.21 49.7 34.16 53.67 34.16"/><path d="M99.9,79.49h3.78V93.57H99.9Zm1.87-7a2.35,2.35,0,1,1-2.32,2.37,2.33,2.33,0,0,1,2.32-2.37" transform="translate(-34.19 -45.33)"/><path d="M112.7,79.49h2.81v3.38H112.7v5.89c0,1.24.57,1.63,1.65,1.63a5.18,5.18,0,0,0,1.16-.11v3.15a5.55,5.55,0,0,1-2.12.35A4.06,4.06,0,0,1,109,89.42V82.87h-2.53V79.49h.71a2,2,0,0,0,2.16-2.23v-2h3.4Z" transform="translate(-34.19 -45.33)"/><polygon points="84.47 48.25 84.47 44.9 91.09 37.45 84.65 37.45 84.65 34.16 95.92 34.16 95.92 37.34 89.1 44.93 96.03 44.93 96.03 48.25 84.47 48.25"/><path d="M142.54,84.93a2.82,2.82,0,0,0-3.12-2.78,3,3,0,0,0-3.12,2.78Zm3.52,4.61A6.29,6.29,0,0,1,139.7,94a7.49,7.49,0,0,1-.34-14.94c4.32,0,6.9,2.78,6.9,7.3,0,.54,0,1.12,0,1.17h-10a3.42,3.42,0,0,0,3.52,3.21,3.08,3.08,0,0,0,3.18-2.15Z" transform="translate(-34.19 -45.33)"/><path d="M153.36,81.75a2.52,2.52,0,0,1,2.52-2.46A2.55,2.55,0,1,1,153.36,82V93.57h-3.78V79.49h3.78Z" transform="translate(-34.19 -45.33)"/><rect x="127" y="27.52" width="3.78" height="20.72"/><path d="M175.59,90.68c2,0,3.43-1.63,3.43-4.21s-1.44-4.09-3.43-4.09-3.49,1.52-3.49,4.09,1.44,4.21,3.49,4.21m3.46,1A4.14,4.14,0,0,1,175.13,94c-4.11,0-6.84-3.23-6.84-7.5S171,79.09,175,79.09c2.5,0,3.66,1.35,4,2.15V79.49h3.66V91c0,1.26.09,2.23.12,2.54h-3.61a12.48,12.48,0,0,1-.14-1.74Z" transform="translate(-34.19 -45.33)"/><path d="M190.83,93.57h-3.77V79.49h3.66v1.75a4.62,4.62,0,0,1,4-2.12c3.46,0,5.05,2.49,5.05,5.58v8.87H196V85.36c0-1.58-.77-2.81-2.59-2.81a2.65,2.65,0,0,0-2.61,2.92Z" transform="translate(-34.19 -45.33)"/><path d="M210.19,90.51c1.94,0,3.44-1.49,3.44-4s-1.5-3.92-3.44-3.92-3.46,1.43-3.46,4,1.48,4,3.46,4m7.1.52c0,.94.06,2,.11,2.54h-3.6a9.4,9.4,0,0,1-.14-1.63,4.37,4.37,0,0,1-3.92,2c-4,0-6.81-3.14-6.81-7.41s2.75-7.36,6.7-7.36c2.41,0,3.54,1,3.94,1.75v-8h3.72Z" transform="translate(-34.19 -45.33)"/><path d="M68.14,85l-2.22-.43c-.85-.14-1.42-.57-1.42-1.25s.88-1.4,2-1.4a2.31,2.31,0,0,1,2.56,1.86l3.5-.79c-.24-1.52-1.76-4-6.09-4-3.36,0-5.83,2.09-5.83,4.6,0,2,1.37,3.6,4.37,4.21l2.06.42c1.2.23,1.68.74,1.68,1.37s-.67,1.4-2.06,1.4c-1.82,0-2.74-1-2.84-2.11l-3.59.82c.25,1.6,1.9,4.21,6.46,4.21,4.08,0,6-2.35,6-4.63C72.75,87.3,71.2,85.62,68.14,85Z" transform="translate(-34.19 -45.33)"/></svg>
