<svg width="46" height="30" viewBox="0 0 46 30" xmlns="http://www.w3.org/2000/svg"><g fill="none" fill-rule="evenodd"><rect stroke="#D3D3D4" fill="#FFF" x=".5" y=".5" width="45" height="29" rx="4"/><g fill="#0072CE"><path d="M43 18.155h-2.07c-.206 0-.343.007-.459.085-.12.077-.166.19-.166.34 0 .18.101.3.248.353.12.042.249.054.438.054l.615.016c.621.016 1.036.122 1.289.382.046.036.073.076.105.117v-1.347zm0 3.121c-.276.402-.813.606-1.54.606h-2.194v-1.016h2.184c.217 0 .368-.028.46-.117a.416.416 0 0 0 .134-.309.388.388 0 0 0-.139-.313c-.082-.072-.202-.105-.4-.105-1.066-.036-2.396.033-2.396-1.465 0-.687.438-1.41 1.63-1.41h2.26v-.942h-2.1c-.635 0-1.095.151-1.422.387v-.387H36.37c-.497 0-1.08.123-1.356.387v-.387h-5.55v.387c-.443-.318-1.188-.387-1.532-.387H24.27v.387c-.35-.337-1.127-.387-1.6-.387h-4.098l-.938 1.011-.878-1.01h-6.12v6.606h6.005l.966-1.028.91 1.028 3.702.003V21.26h.364c.491.007 1.07-.012 1.582-.233v1.783h3.053V21.09h.147c.188 0 .207.007.207.194v1.527h9.275c.59 0 1.205-.15 1.546-.423v.423h2.942c.612 0 1.21-.085 1.665-.304v-1.231zm-4.53-1.891c.222.228.34.515.34 1.003 0 1.018-.638 1.494-1.784 1.494h-2.211v-1.016h2.203c.215 0 .368-.028.463-.117a.42.42 0 0 0 .135-.309.406.406 0 0 0-.139-.313c-.087-.072-.207-.105-.404-.105-1.062-.036-2.392.033-2.392-1.465 0-.687.433-1.41 1.623-1.41h2.277v1.008h-2.083c-.207 0-.341.008-.455.085-.125.077-.17.19-.17.341 0 .179.105.3.248.353.12.041.248.053.442.053l.61.017c.617.015 1.04.121 1.298.38zm-10.245-.293c-.152.09-.34.098-.561.098h-1.38v-1.064h1.399c.202 0 .404.005.542.086.147.076.235.223.235.426a.51.51 0 0 1-.235.454zm.685.59c.253.092.46.259.557.397.16.231.183.447.188.864v.939h-1.14v-.593c0-.285.027-.706-.184-.926-.166-.17-.419-.21-.833-.21h-1.213v1.729h-1.141v-4.735h2.621c.575 0 .994.025 1.367.223.358.216.583.512.583 1.052 0 .756-.506 1.141-.805 1.26zm1.435-2.535h3.79v.98h-2.66v.86h2.595v.966h-2.594v.942l2.659.004v.983h-3.79v-4.735zm-7.661 2.185h-1.467v-1.206h1.48c.41 0 .695.167.695.58 0 .41-.272.626-.708.626zm-2.598 2.119l-1.744-1.929 1.744-1.867v3.796zm-4.503-.556h-2.791v-.942h2.493v-.966h-2.493v-.86h2.847l1.241 1.379-1.297 1.389zm9.028-2.188c0 1.315-.985 1.587-1.978 1.587h-1.416v1.588H19.01l-1.399-1.568-1.453 1.568h-4.497v-4.735h4.567l1.397 1.552 1.444-1.552h3.628c.901 0 1.914.249 1.914 1.56zM6.642 11.632l-.778-1.888-.772 1.888h1.55zm17.12-.752c-.155.095-.34.098-.56.098h-1.38V9.926h1.398c.198 0 .404.008.538.085.148.069.239.216.239.419 0 .207-.087.373-.234.45zm9.842.752l-.786-1.888-.782 1.888h1.568zM15.26 13.676h-1.164l-.004-3.71-1.647 3.71h-.997l-1.65-3.713v3.713h-2.31l-.436-1.057H4.687l-.44 1.057H3.013l2.034-4.737h1.687l1.931 4.485V8.939h1.853l1.486 3.213L13.37 8.94h1.89v4.737h.001zm4.64 0h-3.794V8.939H19.9v.987h-2.657v.853h2.594v.971h-2.594v.946h2.657v.98zm5.348-3.461c0 .755-.506 1.145-.8 1.262.248.095.46.261.561.4.16.235.188.445.188.868v.93h-1.145l-.004-.596c0-.285.027-.695-.18-.923-.165-.167-.418-.203-.827-.203h-1.22v1.723h-1.134V8.939h2.611c.58 0 1.008.016 1.375.227.36.212.575.52.575 1.049zm1.817 3.46h-1.159V8.94h1.159v4.737zm13.441 0h-1.609l-2.152-3.554v3.555h-2.313l-.441-1.057h-2.36l-.428 1.057h-1.329c-.552 0-1.25-.122-1.646-.524-.4-.402-.607-.947-.607-1.808 0-.703.124-1.345.612-1.852.367-.378.942-.553 1.725-.553h1.099v1.015h-1.076c-.415 0-.649.062-.874.28-.194.2-.326.577-.326 1.074 0 .507.1.873.312 1.112.175.188.492.244.791.244h.51l1.6-3.725h1.702l1.922 4.48V8.94h1.73l1.995 3.3v-3.3h1.163v4.737zM3 14.607h1.94l.438-1.052h.98l.435 1.052h3.818v-.804l.34.808h1.982l.34-.82v.816h9.487l-.004-1.727h.184c.128.005.166.017.166.228v1.5h4.906v-.403c.396.212 1.012.402 1.822.402h2.064l.441-1.052h.98l.432 1.052h3.978v-1l.602 1h3.188V8h-3.155v.78L37.922 8h-3.237v.78L34.28 8h-4.373c-.732 0-1.375.102-1.895.386V8h-3.017v.386c-.33-.293-.781-.386-1.283-.386H12.69l-.74 1.706L11.19 8H7.719v.78L7.336 8h-2.96L3 11.141v3.465z"/></g></g></svg>
