<svg width="23" height="23" viewBox="0 0 23 23" fill="none" xmlns="http://www.w3.org/2000/svg">
<g clip-path="url(#clip0)">
<path d="M15.8115 0C14.5853 0.084812 13.1521 0.869682 12.3169 1.89174C11.555 2.81892 10.9283 4.19604 11.1727 5.53434C12.5124 5.57603 13.8967 4.77247 14.6988 3.73317C15.4492 2.76573 16.017 1.39724 15.8115 0Z" fill="black"/>
<path d="M20.6573 7.71645C19.48 6.24015 17.8255 5.3834 16.2629 5.3834C14.2001 5.3834 13.3276 6.37096 11.8944 6.37096C10.4167 6.37096 9.29398 5.38628 7.51005 5.38628C5.75775 5.38628 3.89188 6.45721 2.70883 8.28857C1.04565 10.8674 1.33027 15.7161 4.02557 19.846C4.99013 21.3237 6.27812 22.9855 7.96286 22.9999C9.46216 23.0142 9.88479 22.0382 11.916 22.0281C13.9471 22.0166 14.3324 23.0128 15.8288 22.997C17.515 22.984 18.8734 21.1426 19.838 19.6649C20.5294 18.6054 20.7867 18.0721 21.3229 16.8761C17.423 15.3912 16.7977 9.84537 20.6573 7.71645Z" fill="black"/>
</g>
<defs>
<clipPath id="clip0">
<rect width="23" height="23" fill="white"/>
</clipPath>
</defs>
</svg>
