<svg xmlns="http://www.w3.org/2000/svg" id="svg-gyg-cc-discover" width="46" height="30" viewBox="0 0 46 30"><rect ry="4" x=".5" y=".5" width="45" height="29" rx="4" fill="#FFF" stroke="#D3D3D4"/><path fill="#f46f1b" d="M45 16.777S33.034 25.221 11.12 29h32.286A3.968 3.968 0 0 0 45 27.406V16.777z"/><path fill="#231420" d="M6.521 14.534c-.39.353-.899.507-1.703.507h-.334v-4.22h.334c.804 0 1.292.144 1.703.516.43.383.69.977.69 1.589s-.26 1.224-.69 1.608M5.067 9.739H3.24v6.382h1.817c.967 0 1.665-.228 2.277-.737a3.202 3.202 0 0 0 1.159-2.45c0-1.883-1.407-3.195-3.426-3.195"/><path fill="#231420" d="M9.066 16.121h1.245V9.74H9.066v6.382z"/><path fill="#231420" d="M13.354 12.189c-.747-.277-.966-.46-.966-.804 0-.402.391-.707.928-.707.372 0 .68.153 1.003.516l.652-.852a2.792 2.792 0 0 0-1.876-.708c-1.129 0-1.99.784-1.99 1.829 0 .879.4 1.329 1.57 1.75.487.172.735.286.86.363a.765.765 0 0 1 .374.66c0 .518-.411.9-.967.9-.593 0-1.072-.296-1.358-.85l-.805.774c.574.842 1.263 1.215 2.21 1.215 1.294 0 2.201-.86 2.201-2.095 0-1.015-.42-1.473-1.836-1.991"/><path fill="#231420" d="M15.583 12.935c0 1.876 1.473 3.33 3.368 3.33.536 0 .995-.105 1.561-.372v-1.465c-.497.498-.938.7-1.503.7-1.253 0-2.143-.91-2.143-2.202 0-1.226.918-2.192 2.085-2.192.594 0 1.044.212 1.561.718V9.987c-.546-.277-.995-.392-1.531-.392-1.886 0-3.398 1.484-3.398 3.34"/><path fill="#231420" d="M30.382 14.026L28.681 9.74h-1.36l2.708 6.546h.67l2.757-6.546h-1.35"/><path fill="#231420" d="M34.019 16.121h3.53v-1.08h-2.286v-1.723h2.202v-1.08h-2.202V10.82h2.286V9.739h-3.53"/><path fill="#231420" d="M39.98 12.677h-.363v-1.932H40c.776 0 1.197.324 1.197.946 0 .641-.421.986-1.216.986m2.497-1.054c0-1.194-.823-1.884-2.258-1.884h-1.846v6.382h1.243v-2.564h.162l1.723 2.564h1.531l-2.009-2.688c.938-.19 1.454-.832 1.454-1.81"/><path fill="#f46f1b" d="M27.694 12.935a3.393 3.393 0 1 1-6.786 0 3.393 3.393 0 1 1 6.786 0"/><path fill="#231420" d="M42.907 9.943h-.023v-.147h.024c.066 0 .1.024.1.072 0 .05-.035.075-.101.075m.236-.077c0-.112-.077-.173-.213-.173h-.18v.561h.134v-.218l.157.218h.163l-.184-.231c.079-.022.123-.08.123-.157"/><path fill="#231420" d="M42.955 10.374a.395.395 0 0 1-.39-.4c0-.224.174-.403.39-.403.214 0 .387.183.387.402 0 .22-.173.401-.387.401m.002-.89a.488.488 0 1 0 0 .978c.266 0 .483-.22.483-.49a.488.488 0 0 0-.483-.489"/><rect ry="4" x=".5" y=".5" width="45" height="29" rx="4" fill="none" stroke="#D3D3D4"/></svg>