<svg xmlns="http://www.w3.org/2000/svg" viewBox="0 0 46 30" xmlns:xlink="http://www.w3.org/1999/xlink">
    <defs>
        <rect id="a" width="46" height="30" rx="4"/>
        <mask id="b" width="46" height="30" x="0" y="0" fill="#fff">
            <use xlink:href="#a"/>
        </mask>
        <path id="c" d="M2.771 2.6452H.0544V.0086H2.771v2.6366z"/>
    </defs>
    <g fill="none" fill-rule="evenodd">
        <use fill="#FFF" stroke="#DADBD2" stroke-width="2" mask="url(#b)" xlink:href="#a"/>
        <path fill="#0096E0" d="M37.5576 12.2946v.213c-.0168.0648-.0035.1308-.0078.196v.1928c.003.5353-.0816 1.0602-.1962 1.5808-.1185.5387-.2866 1.0626-.5005 1.5713-.211.5038-.465.9857-.761 1.4464-.257.4-.542.779-.856 1.136-.502.57-1.065 1.073-1.688 1.51-.463.325-.954.602-1.467.841-.686.319-1.402.545-2.145.691-.352.069-.708.11-1.066.143-.375.034-.752.04-1.128.024-.829-.034-1.643-.172-2.437-.419-.901-.28-1.739-.688-2.52-1.214-.15-.101-.296-.207-.437-.319-.021-.018-.045-.033-.058-.06-.011-.05.026-.074.058-.099.262-.206.511-.427.745-.663.641-.645 1.189-1.36 1.625-2.159.502-.92.843-1.895 1.018-2.926.063-.373.102-.748.12-1.126.008-.178.0116-.355.011-.532-.0027-.451-.0416-.9-.11-1.347-.104-.6797-.2826-1.3394-.533-1.9797-.2737-.7-.633-1.355-1.0637-1.9713-.383-.548-.829-1.04-1.313-1.499-.1587-.15-.328-.289-.497-.427-.029-.0232-.066-.0412-.072-.0845.01-.035.039-.052.065-.072 1.001-.764 2.108-1.314 3.326-1.64.535-.143 1.079-.243 1.6307-.284.4052-.03.813-.027 1.22-.015.216.007.432.0146.647.037.5482.0586 1.0865.166 1.6155.321 1.2687.371 2.41.981 3.4217 1.828.89.745 1.621 1.624 2.188 2.636.5643 1.0076.927 2.084 1.097 3.2252.042.286.066.573.066.863v.193c.005.061-.0096.123.008.183"/>
        <path fill="#D31D00" d="M7 12.4924v-.1674c.0128-.061.0128-.1217 0-.1826v-.0457c.0164-.0302.0038-.0627.0078-.094v-.0846c-.0005-.556.0913-1.1.215-1.639.177-.77.4512-1.506.818-2.206.3425-.655.756-1.262 1.241-1.821.2353-.271.487-.526.7494-.769.4933-.458 1.035-.853 1.6163-1.194.762-.447 1.571-.78 2.4266-1 .459-.119.925-.206 1.397-.249.462-.042.925-.035 1.388-.028.368.006.731.042 1.093.1.441.07.875.17 1.301.302.558.173 1.097.395 1.613.668.476.251.927.541 1.353.869.024.018.051.035.054.07.001.041-.028.064-.056.086-.365.286-.696.6085-1.015.943-.293.307-.556.64-.8.9875-.506.719-.903 1.493-1.191 2.323-.191.5506-.328 1.114-.413 1.6897-.044.3004-.073.603-.087.907-.008.18-.011.36-.011.5395.001.531.053 1.057.145 1.58.109.6196.281 1.221.515 1.8046.286.714.652 1.386 1.104 2.01.247.34.515.661.802.967.293.313.61.597.939.868.031.026.069.046.074.092-.005.04-.035.061-.063.082-.442.336-.909.634-1.403.889-.459.238-.933.441-1.426.6-.602.194-1.218.327-1.847.4014-.484.057-.97.0753-1.455.056-.83-.033-1.644-.168-2.4382-.415-.5704-.178-1.1197-.405-1.6467-.685-.582-.309-1.1245-.675-1.63-1.097-.207-.173-.407-.354-.598-.5424-.2803-.277-.5414-.572-.7845-.882-.439-.56-.809-1.162-1.113-1.804-.233-.492-.418-1.002-.562-1.527-.12-.441-.207-.889-.263-1.343-.026-.2115-.033-.424-.036-.6367v-.2215c-.004-.0663.009-.133-.008-.1985"/>
        <path fill="#6B68BE" d="M22.2725 5.0212c.0038-.0032.0076-.0033.0116-.0002.323.2677.637.5432.93.843.605.6194 1.113 1.309 1.528 2.067.4.7288.694 1.4976.887 2.3045.091.376.155.7568.197 1.1416.05.444.071.889.056 1.334-.014.397-.052.792-.113 1.184-.113.724-.31 1.423-.59 2.099-.332.803-.766 1.547-1.307 2.23-.221.279-.454.546-.704.799-.26.264-.535.513-.827.741-.02.016-.04.032-.049.057-.005-.002-.011-.003-.016-.005-.15-.128-.304-.254-.451-.386-1.367-1.227-2.304-2.723-2.805-4.488-.149-.527-.246-1.065-.299-1.611-.057-.579-.063-1.16-.009-1.739.183-1.961.906-3.702 2.173-5.217.397-.475.84-.904 1.324-1.291.0238-.019.045-.04.068-.06"/>
        <path fill="#110F0D" d="M12.5463 24.3646c.2077-.2907.4816-.3875.8077-.3686.325.019.5765.1635.756.44.147-.2157.3376-.3597.5886-.4136.2203-.0473.4406-.0425.6556.028.353.116.589.425.615.8013.0178.2584.0065.5172.008.7758.002.2866-.0007.5733.0017.86 0 .0522-.013.0694-.068.0678-.14-.004-.28-.004-.42 0-.056.0018-.067-.0176-.066-.0686.002-.426.001-.8522.001-1.2783-.001-.1322-.007-.264-.055-.3893-.067-.173-.192-.277-.377-.303-.443-.063-.728.188-.734.652-.005.414-.001.827-.001 1.24 0 .147 0 .147-.145.147-.112 0-.225-.003-.336.002-.059.003-.071-.016-.071-.072.002-.429.001-.857.001-1.286 0-.099-.004-.197-.029-.294-.065-.247-.206-.369-.459-.396-.357-.038-.631.183-.663.539-.023.256-.007.512-.01.768-.003.226-.002.452 0 .677 0 .047-.008.067-.062.065-.145-.004-.29-.003-.435 0-.044.001-.056-.013-.056-.056.001-.796.001-1.592 0-2.389 0-.038.0075-.054.05-.053.15.002.3002.002.4504 0 .0366 0 .0486.01.047.047-.002.08-.0004.16-.0004.262m11.0878-.371c.402.005.714.06 1.003.216.06.032.07.059.034.118-.0603.099-.114.203-.1653.308-.023.0466-.041.054-.09.0285-.262-.1363-.541-.2023-.838-.178-.0895.0074-.1755.0297-.251.081-.0796.054-.1214.1304-.111.227.01.0925.077.1376.158.166.158.0553.324.064.487.089.177.0266.3495.0643.5125.14.53.2453.488.8876.141 1.166-.174.1393-.3754.211-.592.2403-.4076.055-.8013.0094-1.173-.176-.068-.034-.162-.062-.186-.123-.025-.064.061-.127.096-.192.0334-.0623.076-.12.1085-.183.023-.0443.041-.047.083-.019.331.2206.6947.2706 1.0797.196.078-.015.15-.0465.2075-.1045.1094-.11.0887-.263-.0476-.337-.1322-.072-.281-.0834-.427-.1042-.188-.027-.378-.051-.555-.1255-.2772-.1165-.459-.3047-.463-.623-.004-.33.156-.5577.45-.695.195-.091.4037-.1177.54-.1145m2.1136 1.213c0-.1976-.002-.3955.001-.593.001-.051-.015-.064-.064-.0628-.13.003-.26-.001-.3894.002-.042 0-.058-.009-.057-.054.003-.1297.003-.259 0-.388-.001-.045.014-.055.056-.054.127.002.255-.002.382.002.055.002.0736-.01.0725-.0694-.004-.2054.002-.411-.003-.6164-.0018-.0667.0194-.0786.0802-.076.127.005.2547.0055.3817-.0005.071-.003.095.011.0927.088-.007.2.0004.401-.004.601-.0016.0623.019.074.0763.0733.249-.003.499 0 .748-.0026.0505 0 .072.0076.07.0648-.005.124-.004.248-.001.372.002.048-.013.06-.059.059-.252-.002-.5046.002-.7567-.0022-.066-.001-.079.019-.078.0805.003.347.001.695.002 1.042.001.34.156.4683.494.413.106-.0174.207-.052.301-.1027.038-.021.053-.02.067.026.037.121.077.241.122.359.018.048.001.068-.037.089-.24.13-.496.177-.766.153-.063-.006-.1267-.016-.188-.032-.313-.083-.492-.307-.5292-.657-.004-.0404-.012-.081-.012-.121-.001-.198-.0005-.396-.0005-.594h-.002zm2.796-.848c.113-.1635.24-.2767.412-.3284.199-.0594.397-.0392.594.0157.031.009.045.021.032.058-.048.141-.095.2826-.139.425-.013.04-.032.0406-.066.028-.084-.031-.172-.0415-.262-.0436-.3294-.007-.526.166-.556.495-.006.068-.009.1367-.009.205-.001.4235-.001.847.001 1.27 0 .0537-.008.076-.069.0736-.137-.005-.275-.003-.412 0-.047.001-.065-.0085-.065-.061.002-.7937.0015-1.587.0005-2.3808 0-.04.0055-.058.0524-.057.145.003.29.003.435 0 .047-.001.054.0176.052.057-.002.0734 0 .147 0 .2446m-10.76 1.743c-.444.0005-.7588-.327-.76-.793-.002-.4695.3123-.804.757-.806.438-.0014.756.3348.757.799.0002.4666-.3128.7986-.754.7994m1.27-.4206c0-.517-.001-1.0342.001-1.5513 0-.061-.018-.075-.076-.074-.135.005-.27.005-.4048 0-.061-.002-.072.019-.068.073.005.07.001.1406.001.2276-.1593-.177-.277-.2602-.453-.312-.314-.091-.621-.0643-.91.086-.42.219-.631.581-.675 1.043-.068.72.384 1.36 1.112 1.436.3474.036.656-.048.8953-.319.006-.008.011-.024.031-.015 0 .074.002.15-.001.225-.002.0425.011.056.055.0554.142-.003.285-.004.427 0 .055.002.067-.016.067-.068-.002-.2683-.001-.537-.001-.806m2.396-.597h-.594c-.193 0-.386-.0013-.579.001-.05.001-.068-.01-.056-.0625.116-.501.509-.6.848-.517.228.0556.412.293.435.5342.0044.051-.0228.045-.0537.045m.5842-.151c-.11-.449-.363-.781-.826-.8957-.474-.118-.9176-.0285-1.245.353-.384.447-.419.9684-.2064 1.4992.171.427.517.655.97.711.427.054.8244-.03 1.175-.293.041-.031.047-.052.0153-.096-.07-.096-.1354-.196-.198-.2972-.0265-.043-.044-.046-.0855-.016-.194.142-.413.215-.653.2266-.379.019-.6654-.18-.7586-.526-.0153-.0576-.019-.0886.062-.087.283.006.5656.002.848.002.2906 0 .581-.001.871.001.0467 0 .064-.009.068-.061.0147-.1764.005-.351-.037-.5215"/>
        <g transform="translate(29.788 23.986)">
            <mask id="d" fill="#fff">
                <use xlink:href="#c"/>
            </mask>
            <path fill="#110F0D" d="M1.4096 2.1294c-.455-.0008-.7853-.336-.7874-.7995C.62.864.9537.524 1.4114.524c.459.0003.793.3392.7922.8033-.0007.4643-.3355.802-.794.8014M2.7328 1.013C2.5875.4063 2.0665.0093 1.4136.0087.317.006-.2376 1.0907.2096 1.9473c.259.4966.7004.7054 1.2514.6977.8627-.012 1.472-.7952 1.2718-1.6313" mask="url(#d)"/>
        </g>
    </g>
</svg>
