<svg width="24" height="24" viewBox="0 0 24 24" fill="none" xmlns="http://www.w3.org/2000/svg">
<g opacity="0.8" clip-path="url(#clip0)">
<path d="M17.8145 5.81439C17.8145 2.60827 15.2062 0 12.0001 0C8.79394 0 6.18567 2.60827 6.18567 5.81439V11.6943H7.31512V5.81439C7.31512 3.22721 9.41288 1.12945 12.0001 1.12945C14.5873 1.12945 16.685 3.22721 16.685 5.81439V11.6935H17.8145V5.81439Z" fill="#CACACA"/>
<path d="M12 1.12944C9.41282 1.12944 7.31506 3.2272 7.31506 5.81439V11.6935H16.685V5.81439C16.685 3.2272 14.5872 1.12944 12 1.12944ZM8.44451 9.43464V5.81439C8.44451 3.85367 10.0393 2.25889 12 2.25889C13.9607 2.25889 15.5555 3.85367 15.5555 5.81439V9.4354H8.44451V9.43464Z" fill="#E5E5E5"/>
<path d="M12 24.0001C16.3789 24.0001 19.9287 20.4503 19.9287 16.0714C19.9287 11.6924 16.3789 8.14264 12 8.14264C7.6211 8.14264 4.07129 11.6924 4.07129 16.0714C4.07129 20.4503 7.6211 24.0001 12 24.0001Z" fill="#E95454"/>
<path d="M10.0347 9.64778C10.0347 10.2727 10.5415 10.7787 11.1657 10.7787H12.6784C13.2017 10.7787 13.6271 11.2064 13.6241 11.7297V11.7418C13.6241 11.7651 13.6249 11.7877 13.6264 11.811C13.658 12.3268 13.2484 12.7613 12.7318 12.7613H9.11836C8.50545 12.7613 7.95653 13.2198 7.92491 13.832C7.89103 14.4841 8.40982 15.0239 9.05436 15.0239H11.2839C11.8095 15.0239 12.2349 15.4516 12.2319 15.978V16.0435V16.057C12.2349 16.6104 11.7854 17.063 11.2319 17.063H11.0015C10.3894 17.063 9.8397 17.5215 9.80808 18.1329C9.77419 18.785 10.293 19.3249 10.9375 19.3249H13.2582C13.8048 19.3249 14.2122 19.7842 14.2062 20.3308C14.2062 20.3354 14.2062 20.3399 14.2062 20.3444C14.2062 20.3489 14.2062 20.3534 14.2062 20.358C14.2129 20.9046 13.8048 21.3639 13.2582 21.3639H12.323C11.7108 21.3639 11.1612 21.8225 11.1295 22.4346C11.0956 23.0867 11.6144 23.6266 12.259 23.6266H14.4049C17.6073 22.6078 19.9279 19.6118 19.9279 16.0721C19.9279 12.5324 17.6073 9.53634 14.4049 8.51758H11.1657C10.5415 8.51683 10.0347 9.02357 10.0347 9.64778Z" fill="#ED6362"/>
<path d="M12 22.2102C8.61468 22.2102 5.86108 19.4566 5.86108 16.072C5.86108 12.6875 8.61468 9.93311 12 9.93311C15.3853 9.93311 18.1389 12.6875 18.1389 16.072C18.1389 19.4566 15.3853 22.2102 12 22.2102ZM12 11.0257C9.2178 11.0257 6.95439 13.2891 6.95439 16.0713C6.95439 18.8535 9.2178 21.1161 12 21.1161C14.7822 21.1161 17.0456 18.8527 17.0456 16.0713C17.0456 13.2898 14.7822 11.0257 12 11.0257Z" fill="#CD494C"/>
<path d="M13.4389 15.2627C13.4389 14.4683 12.7951 13.8238 12 13.8238C11.2048 13.8238 10.561 14.4675 10.561 15.2627C10.561 15.8101 10.8705 16.2807 11.3208 16.5239L11.0188 18.3197H12.9811L12.6791 16.5239C13.1294 16.2807 13.4389 15.8101 13.4389 15.2627Z" fill="#010101"/>
</g>
<defs>
<clipPath id="clip0">
<rect width="24" height="24" fill="white"/>
</clipPath>
</defs>
</svg>
