<svg xmlns="http://www.w3.org/2000/svg" viewBox="0 0 46 30" xmlns:xlink="http://www.w3.org/1999/xlink">
    <defs>
        <rect id="a" width="46" height="30" rx="4"/>
        <mask id="b" width="46" height="30" x="0" y="0" fill="#fff">
            <use xlink:href="#a"/>
        </mask>
        <path id="c" d="M0 18.6572V.033h15.1783v18.624H0z"/>
        <path id="e" d="M15.1922.0375V18.675H.0202V.0376z"/>
    </defs>
    <g fill="none" fill-rule="evenodd">
        <use fill="#FFF" stroke="#DADBD2" stroke-width="2" mask="url(#b)" xlink:href="#a"/>
        <g transform="translate(8 3.047)">
            <mask id="d" fill="#fff">
                <use xlink:href="#c"/>
            </mask>
            <path fill="#ED0006" d="M15.1783 16.6603c-3.4093 2.7304-8.5022 2.667-11.842-.2278C.4923 13.9672-.5823 10.819.3013 7.1807c.89-3.664 3.313-5.991 7.006-6.8788 2.7918-.671 5.384-.07 7.7106 1.613.043.031.082.067.123.101-.049.06-.09.129-.149.178-.945.782-1.713 1.709-2.288 2.787-.937 1.757-1.274 3.625-1.017 5.597.139 1.075.465 2.094.968 3.056.62 1.187 1.481 2.181 2.522 3.025" mask="url(#d)"/>
        </g>
        <g transform="translate(23.16 3.047)">
            <mask id="f" fill="#fff">
                <use xlink:href="#e"/>
            </mask>
            <path fill="#F9A000" d="M.02 2.026c.629-.4525 1.2723-.8853 1.996-1.1744C5.628-.591 8.9733-.1314 11.9635 2.352c1.8814 1.562 2.9086 3.6237 3.1746 6.0424.424 3.85-1.661 7.638-5.198 9.2917-3.37 1.576-6.618 1.252-9.684-.85-.07-.048-.132-.11-.197-.166.044-.05.084-.102.131-.149.446-.446.933-.857 1.331-1.341 1.257-1.529 1.941-3.298 2.065-5.266.062-.988-.026-1.97-.293-2.933C2.854 5.4 2.079 4.016.916 2.85.629 2.5627.319 2.3.02 2.026" mask="url(#f)"/>
        </g>
        <path fill="#FF5E00" d="M23.18 5.0728c.299.2736.609.5364.8948.823 1.163 1.165 1.9382 2.5498 2.3757 4.1295.267.9635.3558 1.945.2937 2.9335-.1236 1.968-.8077 3.737-2.0648 5.2665-.398.4842-.8853.896-1.331 1.3417-.0466.0467-.087.0995-.1304.1494l-.0397-.0095c-1.041-.845-1.9014-1.839-2.522-3.026-.5025-.961-.8285-1.98-.968-3.056-.2563-1.972.0798-3.84 1.017-5.597.575-1.079 1.343-2.005 2.2877-2.788.0586-.049.0993-.119.1484-.179.0136 0 .0264.004.0386.009"/>
        <path fill="#000" d="M11.6814 24.261c.319-.4146.732-.4945 1.1954-.377.3412.0865.5946.3177.6177.6573.0407.5977.0113 1.2.0113 1.8118h-.52v-.325c0-.351.002-.702-.0008-1.054-.0032-.408-.1877-.624-.533-.631-.3605-.006-.602.222-.6158.615-.0147.424-.005.849-.0068 1.273 0 .038-.0063.076-.0106.124h-.532c0-.13.0015-.254-.0002-.377-.0057-.39.003-.782-.024-1.171-.0195-.284-.1953-.433-.466-.457-.293-.026-.5333.113-.6126.373-.0342.112-.0438.235-.0453.352-.005.423-.002.846-.002 1.28h-.5395V23.91h.525c.0072.0754.014.1462.0243.257.219-.258.4834-.3465.793-.3275.3093.019.546.158.742.4214m23.923 1.659c.436.008.7562-.31.7698-.766.0138-.458-.3088-.809-.7458-.812-.432-.004-.7518.323-.7602.778-.0083.451.3048.791.736.799m1.285.432h-.5403l-.0166-.241c-.2813.256-.596.363-.958.306-.355-.056-.6387-.226-.84-.523-.357-.527-.283-1.289.1645-1.721.442-.427 1.047-.444 1.634-.031v-1.255l.563.055-.007 3.408m-22.313-1.22c0 .462.304.785.741.788.442.003.761-.332.757-.796-.004-.452-.325-.785-.756-.782-.436.003-.745.331-.744.789m1.455-.993l.019-.229h.523v2.4395h-.524l-.018-.218c-.658.421-1.285.372-1.712-.1248-.421-.4908-.41-1.307.025-1.777.442-.4787 1.066-.516 1.685-.092m14.564 1.782c.434.001.75-.326.754-.781.004-.453-.309-.79-.741-.797-.439-.007-.765.331-.764.7933.001.453.316.783.75.784m.711-1.771l.025-.243h.513v2.4414h-.515l-.024-.2414c-.297.2843-.629.3727-1.007.3013-.3026-.0576-.549-.203-.7376-.443-.404-.515-.359-1.317.0956-1.773.4447-.4457 1.094-.469 1.6498-.043m-7.407.7556c-.007-.347-.24-.5774-.58-.584-.373-.0074-.632.2216-.65.584h1.23zm-1.238.495c.086.375.381.59.7873.534.219-.0305.4296-.1235.682-.2l.241.347c-.4102.3285-.865.414-1.357.31-.703-.149-1.094-.872-.898-1.6386.174-.68.834-1.06 1.519-.874.553.15.9484.776.862 1.347-.0206.135-.108.113-.191.113-.4742.0018-.949 0-1.4233.002-.072 0-.144.014-.216.0217l-.007.039zm-5.5418.6936l.218-.3575c.2503.073.474.164.706.197.172.024.361-.007.529-.057.078-.023.1673-.146.1724-.229.004-.064-.104-.1666-.183-.196-.1414-.0524-.3-.06-.45-.0913-.143-.03-.29-.054-.427-.104-.279-.101-.4644-.29-.4754-.6004-.0112-.324.1328-.574.4348-.6977.5488-.224 1.081-.14 1.62.1254-.083.1558-.1563.293-.212.396-.283-.056-.541-.112-.801-.1563-.07-.012-.1474.0034-.218.021-.1384.034-.277.112-.242.263.0196.085.151.177.2496.2047.268.076.5554.092.818.182.403.139.572.506.416.876-.056.133-.164.2634-.2825.348-.469.335-1.419.2665-1.875-.1255m3.069-2.931h.55v.73h.874v.4962h-.85c0 .4404-.012.861.006 1.281.008.178.162.259.333.243.1565-.0143.3096-.063.486-.1012.045.127.095.2676.144.4046-.305.25-.903.289-1.215.083-.2067-.136-.297-.342-.3064-.576-.0143-.357-.0095-.7156-.0126-1.073-.001-.078 0-.156 0-.2526h-.49v-.4974h.485v-.738zm8.821.977l-.2465.4102c-.6083-.281-.992-.256-1.247.073-.2272.2935-.215.7778.0265 1.0536.268.306.6764.322 1.212.0344l.252.409c-.475.437-1.3724.41-1.842-.045-.4814-.4667-.506-1.3287-.053-1.8286.452-.498 1.342-.557 1.898-.107m4.98.261c-.048-.01-.073-.016-.0986-.021-.521-.103-.7666.0918-.771.616-.003.3846 0 .769-.001 1.1538 0 .0642-.0054.129-.0087.204h-.524V23.9h.5056l.0287.254c.289-.3493.6306-.379 1.0283-.2574l-.1608.4967m-8.4197 1.957H25.06v-2.448h.507l.0252.247c.2816-.341.624-.374 1.0253-.251l-.159.484c-.702-.097-.876.0568-.877.7576 0 .384-.002.768-.0035 1.153 0 .012-.0072.024-.0184.058"/>
    </g>
</svg>
