<svg width="23" height="23" viewBox="0 0 23 23" fill="none" xmlns="http://www.w3.org/2000/svg">
<g clip-path="url(#clip0)">
<path d="M19.2659 5.94227C19.3048 5.62579 19.3252 5.30357 19.3252 4.97658C19.3252 2.22812 17.0971 0 14.3486 0H6.03168C5.50852 0 5.06187 0.377793 4.97508 0.893676L1.91051 19.1084C1.80054 19.762 2.30438 20.3576 2.96711 20.3576H6.00882C6.53198 20.3576 6.98704 19.9801 7.07378 19.4642C7.07378 19.4642 7.07886 19.4339 7.08802 19.3795H7.08807L6.66418 21.899C6.56733 22.475 7.01138 23 7.5955 23H10.2565C10.7177 23 11.1114 22.667 11.1878 22.2123L11.9438 17.7192C12.0741 16.9447 12.7447 16.3775 13.53 16.3775H14.2291C18.0264 16.3775 21.1046 13.2993 21.1046 9.50206C21.1046 8.03271 20.3783 6.73388 19.2659 5.94227Z" fill="#002987"/>
<path d="M19.266 5.94223C18.7901 9.81356 15.4906 12.8112 11.4906 12.8112H9.16975C8.64592 12.8112 8.19351 13.1602 8.0516 13.6535L6.66432 21.8989C6.56743 22.4749 7.01148 23 7.5956 23H10.2566C10.7178 23 11.1115 22.667 11.1879 22.2123L11.9439 17.7192C12.0742 16.9446 12.7448 16.3775 13.5301 16.3775H14.2292C18.0265 16.3775 21.1047 13.2992 21.1047 9.50203C21.1047 8.03267 20.3784 6.73384 19.266 5.94223Z" fill="#0085CC"/>
<path d="M9.16971 12.8113H11.4906C15.4906 12.8113 18.7901 9.8136 19.2659 5.94233C18.5522 5.43444 17.68 5.13472 16.7373 5.13472H10.6796C9.98989 5.13472 9.40101 5.63277 9.28655 6.31289L8.05151 13.6535C8.19342 13.1601 8.64587 12.8113 9.16971 12.8113Z" fill="#00186A"/>
</g>
<defs>
<clipPath id="clip0">
<rect width="23" height="23" fill="white"/>
</clipPath>
</defs>
</svg>
