<svg width="22" height="24" viewBox="0 0 22 24" fill="none" xmlns="http://www.w3.org/2000/svg">
<path d="M20.1864 16.0271C19.5413 17.7754 18.5657 19.2955 17.2864 20.5448C15.8301 21.9668 13.9233 23.0968 11.6187 23.9028C11.5431 23.9292 11.4642 23.9508 11.3849 23.9667C11.2802 23.9874 11.1736 23.9986 11.0679 24H11.0472C10.9346 24 10.8215 23.9887 10.7092 23.9667C10.6299 23.9508 10.5521 23.9292 10.4769 23.9033C8.16956 23.0986 6.26031 21.9692 4.80261 20.5472C3.5227 19.2979 2.5473 17.7787 1.90313 16.0304C0.731805 12.8517 0.798455 9.34994 0.852105 6.53598L0.853021 6.49277C0.863824 6.26041 0.870782 6.01633 0.874627 5.7468C0.894219 4.42349 1.94634 3.32871 3.26983 3.25491C6.02923 3.10092 8.16388 2.20096 9.98779 0.42319L10.0037 0.408541C10.3066 0.13077 10.6882 -0.00546022 11.0679 0.000216069C11.4341 0.00497682 11.7989 0.141024 12.0909 0.408541L12.1065 0.42319C13.9308 2.20096 16.0654 3.10092 18.8248 3.25491C20.1483 3.32871 21.2004 4.42349 21.22 5.7468C21.2239 6.01816 21.2308 6.26187 21.2416 6.49277L21.2422 6.51108C21.2957 9.33035 21.3619 12.839 20.1864 16.0271Z" fill="#45D0AF"/>
<path d="M20.1862 16.0271C19.5412 17.7753 18.5656 19.2955 17.2862 20.5448C15.83 21.9668 13.9231 23.0968 11.6185 23.9028C11.5429 23.9292 11.464 23.9508 11.3847 23.9667C11.28 23.9874 11.1734 23.9986 11.0677 24V0.000183105C11.434 0.00494386 11.7987 0.140991 12.0908 0.408509L12.1063 0.423157C13.9306 2.20093 16.0653 3.10089 18.8247 3.25489C20.1482 3.32868 21.2003 4.42347 21.2199 5.74677C21.2237 6.01813 21.2307 6.26185 21.2415 6.49274L21.242 6.51105C21.2955 9.33033 21.3618 12.839 20.1862 16.0271Z" fill="#36B194"/>
<path d="M17.028 12.0001C17.028 15.291 14.356 17.9699 11.0678 17.9816H11.0467C7.74878 17.9816 5.06519 15.2982 5.06519 12.0001C5.06519 8.70216 7.74878 6.01875 11.0467 6.01875H11.0678C14.356 6.03046 17.028 8.7093 17.028 12.0001Z" fill="white"/>
<path d="M17.028 12.0001C17.028 15.291 14.356 17.9699 11.0677 17.9816V6.01875C14.356 6.03046 17.028 8.7093 17.028 12.0001Z" fill="#E1EBF0"/>
<path d="M13.7616 11.1387L11.0678 13.8329L10.4857 14.415C10.3482 14.5525 10.1678 14.6211 9.98764 14.6211C9.80728 14.6211 9.6271 14.5525 9.48941 14.415L8.23788 13.1629C7.96286 12.8879 7.96286 12.4424 8.23788 12.1672C8.51254 11.8921 8.95859 11.8921 9.23361 12.1672L9.98764 12.9212L12.7659 10.1429C13.0409 9.86772 13.487 9.86772 13.7616 10.1429C14.0366 10.418 14.0366 10.864 13.7616 11.1387Z" fill="#B4D2D7"/>
<path d="M13.7616 11.1387L11.0677 13.8329V11.8409L12.7659 10.1429C13.0409 9.86772 13.4869 9.86772 13.7616 10.1429C14.0366 10.418 14.0366 10.864 13.7616 11.1387Z" fill="#6FA5AA"/>
</svg>
