<svg width="46" height="30" viewBox="0 0 46 30" xmlns="http://www.w3.org/2000/svg" xmlns:xlink="http://www.w3.org/1999/xlink"><title>sofort</title><defs><rect id="a" width="46" height="30" rx="4"/><path id="b" d="M41.963.035H0v6.963h41.963z"/></defs><g fill="none" fill-rule="evenodd"><use fill="#FFF" xlink:href="#a"/><rect stroke="#D3D3D4" x=".5" y=".5" width="45" height="29" rx="4"/><g><g transform="translate(2 11)"><mask id="c" fill="#fff"><use xlink:href="#b"/></mask><path d="M25.562 1.563c.7 0 .862.373.246 1.914-.63 1.585-1.09 1.984-1.78 1.984h-.002c-.673 0-.907-.39-.278-1.967.47-1.177 1.078-1.93 1.814-1.93zm-12.222 0c.7 0 .86.373.246 1.914-.632 1.585-1.09 1.984-1.78 1.984h-.002c-.672 0-.908-.39-.28-1.967.47-1.177 1.08-1.93 1.816-1.93zm18.102-.033h.377c.687 0 .943.185.71.76-.218.54-.612.874-1.36.874h-.389l.662-1.634zM34.617.135c.144.105.268.224.372.36.264.35.366.767.305 1.244h1.358l-2.046 5.15h2.044l2.05-5.15h2.626l.637-1.605h-7.346zm-4.677 0L27.255 6.89h2.28l.976-2.378c.05.098.625 2.378.625 2.378h2.397s-.436-1.675-.757-2.352c-.082-.174-.168-.37-.283-.532.677-.23 1.658-.725 2.065-1.728.25-.616.235-1.115-.042-1.48-.337-.444-1.02-.662-2.093-.663H29.94zM19.54.132c-1.205 0-2.1.558-2.525 1.603l-2.046 5.15h2.24l1.052-2.647h1.98l.565-1.417h-1.975L19.15 2c.066-.148.225-.265.457-.265h2.336c.02-.025.037-.053.056-.078.493-.64 1.193-1.16 1.85-1.525h-4.31zm-12.167 0c-.667 0-1.314 0-1.894.27-.58.27-1.093.81-1.488 1.888-.085.232-.13.432-.136.606-.006.174.027.322.1.45.088.157.23.305.41.43.18.124.397.225.63.29l.278.073c.147.038.32.084.428.114.064.018.134.04.197.077.063.035.12.082.156.146.024.043.037.09.038.14.002.05-.008.104-.03.16-.053.148-.135.242-.292.3-.156.058-.385.076-.734.08H.688L0 6.885h4.657c.438 0 1.24 0 2.01-.3.77-.3 1.507-.898 1.82-2.097.117-.45.08-.818-.112-1.106-.193-.288-.542-.497-1.05-.63l-.25-.067-.365-.096c-.13-.033-.23-.102-.29-.19-.06-.088-.076-.194-.043-.303.035-.113.12-.204.242-.266.12-.06.282-.095.47-.095h2.707c.02-.025.036-.053.055-.078.495-.64 1.093-1.16 1.75-1.525H7.37zM26.1.035c-.573 0-1.13.12-1.653.347-.747.323-1.423.864-1.976 1.58-.36.466-.666 1.005-.907 1.608-.454 1.14-.448 2.063.016 2.672.262.344.808.755 1.92.756h.004c2.027 0 3.54-1.216 4.496-3.615.253-.635.586-1.82-.023-2.62-.37-.482-1-.727-1.877-.728zm-12.222 0c-.574 0-1.13.12-1.653.347-.747.323-1.424.864-1.977 1.58-.36.466-.666 1.005-.907 1.608-.453 1.14-.448 2.063.016 2.672.263.344.81.755 1.922.756h.005c2.025 0 3.537-1.216 4.495-3.615.253-.635.586-1.82-.024-2.62-.368-.482-.998-.727-1.876-.728z" fill="#EE7F00" mask="url(#c)"/></g></g></g></svg>
