<svg xmlns="http://www.w3.org/2000/svg" width="48" height="32" viewBox="0 0 48 32" aria-hidden="true"><g fill="none" fill-rule="evenodd"><rect width="45.333" height="29.333" x="1.333" y="1.333" fill="#FFF" fill-rule="nonzero" rx="2"></rect><path fill="#DDD" fill-rule="nonzero" d="M44 1.333A2.67 2.67 0 0 1 46.667 4v24A2.67 2.67 0 0 1 44 30.667H4A2.67 2.67 0 0 1 1.333 28V4A2.67 2.67 0 0 1 4 1.333h40zM44 0H4a4.012 4.012 0 0 0-4 4v24a4.012 4.012 0 0 0 4 4h40a4.012 4.012 0 0 0 4-4V4a4.012 4.012 0 0 0-4-4z"></path><path fill="#FD6000" d="M38.45 11.46c-.035.415.078.83.319 1.17a1.05 1.05 0 0 0 1.595.001 1.71 1.71 0 0 0 .322-1.148 1.67 1.67 0 0 0-.331-1.128 1.026 1.026 0 0 0-.8-.38.996.996 0 0 0-.782.374 1.66 1.66 0 0 0-.323 1.11zm-.571 2.446.671.1a.64.64 0 0 0 .234.453c.207.138.453.205.702.191.26.017.52-.05.74-.191a.944.944 0 0 0 .353-.537c.046-.293.063-.59.05-.886a1.42 1.42 0 0 1-1.128.533 1.537 1.537 0 0 1-1.3-.606 2.334 2.334 0 0 1-.46-1.454c-.004-.369.068-.735.21-1.075.125-.309.338-.574.613-.762.28-.182.607-.276.941-.268a1.46 1.46 0 0 1 1.19.583v-.491h.636v3.52a3.34 3.34 0 0 1-.194 1.349 1.417 1.417 0 0 1-.614.627c-.32.162-.675.242-1.033.23a1.95 1.95 0 0 1-1.178-.328 1.109 1.109 0 0 1-.433-.988zm-4.242-.337V9.496h.622v.579a1.464 1.464 0 0 1 1.296-.671 1.7 1.7 0 0 1 .677.132c.183.071.343.191.462.347.107.153.18.327.215.51.032.223.044.447.038.672v2.504h-.69V11.09a1.86 1.86 0 0 0-.08-.63.664.664 0 0 0-.286-.334.909.909 0 0 0-.482-.125 1.118 1.118 0 0 0-.761.28c-.25.294-.367.68-.32 1.063v2.224h-.69zm-1.699 0v-.598c-.28.44-.77.702-1.292.69a1.647 1.647 0 0 1-.673-.138 1.109 1.109 0 0 1-.464-.347 1.3 1.3 0 0 1-.213-.512 3.505 3.505 0 0 1-.042-.644V9.496h.69v2.259c-.008.244.006.487.042.729a.72.72 0 0 0 .276.427.856.856 0 0 0 .522.155c.205.001.406-.054.583-.159a.885.885 0 0 0 .385-.433c.087-.256.126-.526.113-.796V9.496h.69v4.073h-.617zm-7.037 0V9.496h.621v.579a1.464 1.464 0 0 1 1.296-.671 1.7 1.7 0 0 1 .677.132c.183.071.343.191.462.347.107.153.18.327.215.51.032.223.045.447.039.672v2.504h-.69V11.09a1.86 1.86 0 0 0-.081-.63.664.664 0 0 0-.286-.334.909.909 0 0 0-.481-.125 1.118 1.118 0 0 0-.762.28c-.25.294-.366.68-.32 1.063v2.224h-.69zm-4.369 0V7.946h.69v2.018c.3-.363.75-.57 1.22-.56.273-.007.543.054.786.178.21.106.379.28.478.493.11.291.159.602.144.913v2.58h-.69v-2.58c.023-.27-.057-.54-.225-.754a.834.834 0 0 0-.635-.236 1.12 1.12 0 0 0-.577.16.899.899 0 0 0-.385.43c-.087.242-.126.497-.115.753v2.228h-.69zm-1.27-1.492.68.088a1.76 1.76 0 0 1-.57 1.099 1.66 1.66 0 0 1-1.125.397 1.749 1.749 0 0 1-1.345-.547 2.217 2.217 0 0 1-.508-1.566c-.008-.396.066-.79.219-1.155.132-.315.367-.576.665-.742.298-.165.632-.25.972-.247a1.69 1.69 0 0 1 1.086.335c.29.241.483.58.54.954l-.67.103a1.114 1.114 0 0 0-.34-.617.878.878 0 0 0-.589-.208 1.072 1.072 0 0 0-.847.374 1.775 1.775 0 0 0-.326 1.184c-.036.421.075.843.314 1.192.201.245.504.382.82.372a.967.967 0 0 0 .68-.249c.2-.208.323-.479.345-.767zm-6.504-.936h2.275a1.38 1.38 0 0 0-.261-.77 1.058 1.058 0 0 0-.855-.4 1.097 1.097 0 0 0-.8.319 1.26 1.26 0 0 0-.359.851zm2.267 1.116.713.088a1.74 1.74 0 0 1-.625.97 1.88 1.88 0 0 1-1.166.346 1.863 1.863 0 0 1-1.417-.55 2.15 2.15 0 0 1-.523-1.544 2.25 2.25 0 0 1 .529-1.596 1.792 1.792 0 0 1 1.373-.567c.504-.017.991.186 1.335.556.367.435.553.996.517 1.565 0 .04-.001.102-.004.184H12.72c-.001.377.133.742.38 1.028.22.234.53.364.851.356.232.007.46-.063.648-.2.202-.165.35-.386.426-.636zm-7.617-1.83h1.6c.27.01.54-.025.797-.105.18-.06.333-.179.437-.337a.913.913 0 0 0 .15-.504.838.838 0 0 0-.29-.656 1.355 1.355 0 0 0-.914-.257h-1.78v1.86zm-.744 3.142V7.946h2.493c.387-.016.774.035 1.143.152.263.103.483.291.625.535.156.255.237.549.234.848.01.374-.13.737-.387 1.008a1.96 1.96 0 0 1-1.197.522c.162.072.313.166.449.28.236.222.444.473.617.748l.978 1.53h-.936l-.744-1.17a10.654 10.654 0 0 0-.537-.774 1.688 1.688 0 0 0-.377-.376 1.117 1.117 0 0 0-.34-.15 2.235 2.235 0 0 0-.414-.027h-.863v2.497h-.744z"></path><path fill="#DDD" fill-rule="nonzero" d="M6.664 16.942h34.667v2.667H6.664zM6.664 23.091h34.667v2.667H6.664z"></path></g></svg>