<svg xmlns="http://www.w3.org/2000/svg" viewBox="0 0 46 30" xmlns:xlink="http://www.w3.org/1999/xlink">
    <defs>
        <rect id="a" width="46" height="30" rx="4"/>
        <mask id="b" width="46" height="30" x="0" y="0" fill="#fff">
            <use xlink:href="#a"/>
        </mask>
        <linearGradient id="c" x1="2.987%" y1="44.812%" y2="44.812%">
            <stop stop-color="#10155F" offset="0%"/>
            <stop stop-color="#00229B" offset="100%"/>
        </linearGradient>
    </defs>
    <g fill="none" fill-rule="evenodd">
        <use fill="#FFF" stroke="#DADBD2" stroke-width="2" mask="url(#b)" xlink:href="#a"/>
        <path fill="url(#c)" d="M15.163.23c-.01.03-.018.05-.027.072l-5.01 11.91c-.056.134-.113.267-.168.402-.013.033-.03.047-.068.047H6.578c-.042 0-.056-.01-.066-.05l-1.606-6.2c-.326-1.25-.65-2.5-.977-3.76-.03-.1-.06-.19-.1-.29-.1-.28-.28-.49-.53-.64-.27-.16-.56-.28-.85-.4C1.69 1.02.89.79.08.61L0 .588V.562C.022.47.047.376.065.28.073.238.09.228.13.228c1.808 0 3.615.003 5.422 0 .723 0 1.352.472 1.504 1.267.233 1.218.46 2.437.69 3.655l.618 3.26.052.278.03-.064C9.546 5.847 10.65 3.07 11.75.29c.02-.046.04-.062.09-.062 1.083.002 2.165 0 3.247 0h.073zM39.86 12.243l.09.403v.01l-1.076.002h-1.847c-.035 0-.062.002-.07-.046-.122-.583-.246-1.166-.366-1.75-.01-.05-.03-.063-.07-.063H32.5c-.047 0-.068.01-.085.05-.207.58-.418 1.16-.627 1.74-.017.04-.037.06-.09.06H28.38l.02-.06 1.29-3.08c1.17-2.78 2.34-5.56 3.505-8.34.24-.58.766-.98 1.45-.97.684.01 1.366 0 2.05 0h.603c.037 0 .05.01.06.045.082.407.168.81.253 1.217l.54 2.57.58 2.774.59 2.782.55 2.62zM28.52 8.268c.074.92-.127 1.77-.656 2.536-.384.554-.892.97-1.484 1.287-.594.32-1.23.52-1.892.64-.398.07-.798.11-1.202.13-.02 0-.04.01-.06.01h-.532c-.12-.01-.243-.01-.364-.02-.944-.06-1.87-.21-2.763-.54-.066-.02-.13-.05-.195-.08-.03-.01-.04-.02-.033-.06l.4-1.86.17-.81.06.03c.41.197.83.38 1.28.508.42.125.86.208 1.3.23.29.014.58.02.87.008.41-.02.8-.113 1.16-.324.22-.13.41-.3.5-.55.13-.377.05-.71-.23-.997-.203-.21-.444-.37-.7-.51-.33-.18-.668-.35-1-.52-.525-.276-1.025-.585-1.46-.987-.4-.364-.72-.785-.9-1.3-.14-.39-.176-.795-.144-1.21.045-.575.216-1.11.52-1.605.334-.54.782-.962 1.315-1.3.6-.38 1.26-.622 1.95-.77.436-.09.874-.14 1.317-.156.024 0 .047-.006.07-.01h.534c.097.008.19.016.28.02.837.05 1.64.235 2.42.513.04.012.057.025.047.07-.184.848-.365 1.695-.547 2.54l-.01.038-.19-.09c-.58-.24-1.18-.4-1.8-.462-.397-.04-.794-.05-1.19 0-.367.05-.717.15-1.01.388-.19.15-.32.34-.35.59-.024.18.027.345.13.495.113.17.27.3.433.413.313.22.654.39.992.57.48.25.963.502 1.41.82.42.292.8.632 1.08 1.07.26.39.41.82.45 1.29zM19.777.234c-.025.118-.05.233-.073.348-.236 1.097-.47 2.194-.707 3.29l-.716 3.335-.69 3.233-.46 2.174c0 .03-.01.047-.05.047h-3.19l.06-.27.73-3.39.71-3.28.68-3.17.48-2.26c.01-.04.02-.05.06-.05h3.12c.02 0 .03 0 .05.01zM33.36 8.256h2.682l-.974-4.652h-.014l-1.694 4.65z" transform="translate(2 9)"/>
    </g>
</svg>
