<svg width="24" height="24" viewBox="0 0 24 24" fill="none" xmlns="http://www.w3.org/2000/svg">
<g clip-path="url(#clip0)">
<path d="M12 20.628C10.65 22.138 8.90202 23.645 6.87302 23.89L6.87102 23.881C4.87502 24.717 1.02002 22.643 1.02002 18.88C1.02002 16.39 4.21702 10.876 7.60102 3.761C8.49302 1.912 9.41602 0 11.99 0C14.583 0 15.466 1.827 16.552 4.079C22.979 16.892 22.979 17.599 22.979 18.88C22.98 23.284 17.526 26.81 12 20.628ZM21.48 18.88C21.48 16.918 15.101 4.515 15.048 4.412C14.125 2.499 13.57 1.5 12.01 1.5C10.165 1.5 9.68702 2.972 8.79502 4.738C2.52002 17.247 2.52002 17.932 2.52002 18.88C2.52002 21.874 6.20302 24.935 11.006 19.488C9.01202 16.912 8.00002 14.699 8.00002 12.91C8.00002 10.172 10.012 8.74 12 8.74C13.988 8.74 16 10.172 16 12.91C16 14.699 14.989 16.912 12.994 19.488C17.596 24.707 21.48 22.044 21.48 18.88ZM12 10.24C10.756 10.24 9.50002 11.066 9.50002 12.91C9.50002 14.285 10.363 16.151 12 18.318C13.637 16.151 14.5 14.285 14.5 12.91C14.5 11.066 13.244 10.24 12 10.24Z" fill="#FE5B5F"/>
</g>
<defs>
<clipPath id="clip0">
<rect width="24" height="24" fill="white"/>
</clipPath>
</defs>
</svg>
