<?xml version="1.0" encoding="UTF-8"?>
<svg xmlns="http://www.w3.org/2000/svg" xmlns:xlink="http://www.w3.org/1999/xlink" viewBox="0 0 48 48" width="48px" height="48px">
    <g id="surface2721678">
        <path style=" stroke:none;fill-rule:nonzero;fill:rgb(81.176472%,84.705883%,86.274511%);fill-opacity:1;" d="M 5 38 L 5 14 L 43 14 L 43 38 C 43 40.199219 41.199219 42 39 42 L 9 42 C 6.800781 42 5 40.199219 5 38 Z M 5 38 "/>
        <path style=" stroke:none;fill-rule:nonzero;fill:rgb(95.686275%,26.274511%,21.176471%);fill-opacity:1;" d="M 43 10 L 43 16 L 5 16 L 5 10 C 5 7.800781 6.800781 6 9 6 L 39 6 C 41.199219 6 43 7.800781 43 10 Z M 43 10 "/>
        <path style=" stroke:none;fill-rule:nonzero;fill:rgb(71.764708%,10.980392%,10.980392%);fill-opacity:1;" d="M 33 7 C 31.34375 7 30 8.34375 30 10 C 30 11.65625 31.34375 13 33 13 C 34.65625 13 36 11.65625 36 10 C 36 8.34375 34.65625 7 33 7 Z M 15 7 C 13.34375 7 12 8.34375 12 10 C 12 11.65625 13.34375 13 15 13 C 16.65625 13 18 11.65625 18 10 C 18 8.34375 16.65625 7 15 7 Z M 15 7 "/>
        <path style=" stroke:none;fill-rule:nonzero;fill:rgb(69.01961%,74.509805%,77.254903%);fill-opacity:1;" d="M 33 3 C 31.898438 3 31 3.898438 31 5 L 31 10 C 31 11.101562 31.898438 12 33 12 C 34.101562 12 35 11.101562 35 10 L 35 5 C 35 3.898438 34.101562 3 33 3 Z M 15 3 C 13.898438 3 13 3.898438 13 5 L 13 10 C 13 11.101562 13.898438 12 15 12 C 16.101562 12 17 11.101562 17 10 L 17 5 C 17 3.898438 16.101562 3 15 3 Z M 15 3 "/>
        <path style=" stroke:none;fill-rule:nonzero;fill:rgb(56.470591%,64.313728%,68.235296%);fill-opacity:1;" d="M 13 20 L 17 20 L 17 24 L 13 24 Z M 19 20 L 23 20 L 23 24 L 19 24 Z M 25 20 L 29 20 L 29 24 L 25 24 Z M 31 20 L 35 20 L 35 24 L 31 24 Z M 13 26 L 17 26 L 17 30 L 13 30 Z M 19 26 L 23 26 L 23 30 L 19 30 Z M 25 26 L 29 26 L 29 30 L 25 30 Z M 31 26 L 35 26 L 35 30 L 31 30 Z M 13 32 L 17 32 L 17 36 L 13 36 Z M 19 32 L 23 32 L 23 36 L 19 36 Z M 25 32 L 29 32 L 29 36 L 25 36 Z M 31 32 L 35 32 L 35 36 L 31 36 Z M 31 32 "/>
        <path style=" stroke:none;fill-rule:nonzero;fill:rgb(26.274511%,62.7451%,27.843139%);fill-opacity:1;" d="M 48 38 C 48 43.5 43.5 48 38 48 C 32.5 48 28 43.5 28 38 C 28 32.5 32.5 28 38 28 C 43.5 28 48 32.5 48 38 "/>
        <path style=" stroke:none;fill-rule:nonzero;fill:rgb(86.274511%,92.941177%,78.431374%);fill-opacity:1;" d="M 42.5 33.398438 L 36.800781 39 L 34.101562 36.300781 L 32 38.5 L 36.800781 43.300781 L 44.601562 35.5 Z M 42.5 33.398438 "/>
    </g>
</svg>
