<?xml version="1.0" encoding="UTF-8"?>
<svg xmlns="http://www.w3.org/2000/svg" xmlns:xlink="http://www.w3.org/1999/xlink" viewBox="0 0 48 48" width="48px" height="48px">
    <g id="surface3073346">
        <path style=" stroke:none;fill-rule:nonzero;fill:rgb(18.039216%,80.000001%,44.313726%);fill-opacity:1;" d="M 24 2 L 28.507812 7.027344 L 35 5 L 36.464844 11.535156 L 43 13 L 41 19.492188 L 46 24 L 41 28.507812 L 43 35 L 36.464844 36.464844 L 35 43 L 28.507812 40.972656 L 24 46 L 19.492188 40.972656 L 13 43 L 11.535156 36.464844 L 5 35 L 7 28.507812 L 2 24 L 7 19.492188 L 5 13 L 11.535156 11.535156 L 13 5 L 19.492188 7.027344 Z M 24 2 "/>
        <path style=" stroke:none;fill-rule:nonzero;fill:rgb(100%,100%,100%);fill-opacity:1;" d="M 20 32.300781 L 18.300781 31.300781 L 28 15.699219 L 29.699219 16.699219 Z M 19 14 C 17.199219 14 15 15.101562 15 18 L 15 19 C 15 20.800781 16.101562 23 19 23 C 21.101562 23 23 21.601562 23 19 L 23 18 C 23 15.5 21.300781 14 19 14 Z M 20.800781 19 C 20.800781 20.300781 20.101562 21 19 21 C 18.101562 21 17.199219 20.398438 17.199219 19 L 17.199219 18 C 17.199219 16.601562 18.101562 15.898438 19 15.898438 C 20.398438 15.898438 20.800781 17.199219 20.800781 18 Z M 29 34 C 30.800781 34 33 32.898438 33 30 L 33 29 C 33 27.199219 31.898438 25 29 25 C 26.898438 25 25 26.398438 25 29 L 25 30 C 25 32.5 26.699219 34 29 34 Z M 27.199219 29 C 27.199219 27.699219 27.898438 27 29 27 C 29.898438 27 30.800781 27.601562 30.800781 29 L 30.800781 30 C 30.800781 31.398438 29.898438 32.101562 29 32.101562 C 27.601562 32.101562 27.199219 30.800781 27.199219 30 Z M 27.199219 29 "/>
    </g>
</svg>