<svg fill="#3b3b3b" xmlns="http://www.w3.org/2000/svg"  viewBox="0 0 50 50" width="50px" height="50px"><path d="M 49 14 C 47.347656 14 46 12.652344 46 11 C 46 10.449219 45.554688 10 45 10 L 5 10 C 4.449219 10 4 10.449219 4 11 C 4 12.652344 2.652344 14 1 14 C 0.449219 14 0 14.449219 0 15 L 0 35 C 0 35.554688 0.449219 36 1 36 C 2.652344 36 4 37.347656 4 39 C 4 39.554688 4.449219 40 5 40 L 45 40 C 45.554688 40 46 39.554688 46 39 C 46 37.347656 47.347656 36 49 36 C 49.554688 36 50 35.554688 50 35 L 50 15 C 50 14.449219 49.554688 14 49 14 Z M 38 39 L 36 39 L 36 35 L 38 35 Z M 38 33 L 36 33 L 36 29 L 38 29 Z M 38 27 L 36 27 L 36 23 L 38 23 Z M 38 21 L 36 21 L 36 17 L 38 17 Z M 38 15 L 36 15 L 36 11 L 38 11 Z"/></svg>