<svg width="24" height="24" viewBox="0 0 24 24" fill="none" xmlns="http://www.w3.org/2000/svg">
<g clip-path="url(#clip0)">
<path d="M22.9205 9.94614L13.2841 9.94568C12.8586 9.94568 12.5137 10.2905 12.5137 10.7161V13.7945C12.5137 14.2199 12.8586 14.5649 13.2841 14.5649H18.7107C18.1165 16.107 17.0074 17.3985 15.5924 18.2191L17.9063 22.2247C21.6181 20.078 23.8126 16.3114 23.8126 12.095C23.8126 11.4946 23.7683 11.0655 23.6798 10.5822C23.6125 10.2151 23.2938 9.94614 22.9205 9.94614Z" fill="#167EE6"/>
<path d="M12.0001 19.1903C9.34439 19.1903 7.026 17.7393 5.78084 15.5922L1.77539 17.9009C3.81374 21.4336 7.63222 23.8126 12.0001 23.8126C14.1428 23.8126 16.1646 23.2357 17.9063 22.2303V22.2248L15.5924 18.2192C14.534 18.833 13.3092 19.1903 12.0001 19.1903Z" fill="#12B347"/>
<path d="M17.9062 22.2301V22.2246L15.5923 18.219C14.5339 18.8328 13.3092 19.1902 12 19.1902V23.8124C14.1427 23.8124 16.1646 23.2355 17.9062 22.2301Z" fill="#0F993E"/>
<path d="M4.80979 12C4.80979 10.691 5.16702 9.46631 5.78077 8.40794L1.77531 6.09924C0.764374 7.83545 0.1875 9.85178 0.1875 12C0.1875 14.1482 0.764374 16.1645 1.77531 17.9008L5.78077 15.5921C5.16702 14.5337 4.80979 13.309 4.80979 12Z" fill="#FFD500"/>
<path d="M12.0001 4.80979C13.7319 4.80979 15.3226 5.42514 16.5651 6.44872C16.8716 6.70122 17.3171 6.68299 17.5979 6.40221L19.779 4.22105C20.0976 3.90249 20.0749 3.38103 19.7346 3.08581C17.6529 1.27983 14.9443 0.1875 12.0001 0.1875C7.63222 0.1875 3.81374 2.56647 1.77539 6.09924L5.78084 8.40794C7.026 6.26079 9.34439 4.80979 12.0001 4.80979Z" fill="#FF4B26"/>
<path d="M16.565 6.44872C16.8715 6.70122 17.3171 6.68299 17.5978 6.40221L19.779 4.22105C20.0975 3.90249 20.0748 3.38103 19.7345 3.08581C17.6528 1.27979 14.9442 0.1875 12 0.1875V4.80979C13.7317 4.80979 15.3225 5.42514 16.565 6.44872Z" fill="#D93F21"/>
</g>
<defs>
<clipPath id="clip0">
<rect width="23.625" height="23.625" fill="white" transform="translate(0.1875 0.1875)"/>
</clipPath>
</defs>
</svg>
