<svg xmlns="http://www.w3.org/2000/svg"  viewBox="0 0 40 40" width="40px" height="40px"><path fill="#ffeea3" d="M10.747 39.5L17.747 22.5 8.732 22.5 17.341 0.5 31.167 0.5 23.167 15.5 31.894 15.5 10.774 39.5z"/><path fill="#c29653" d="M30.333,1l-7.216,13.529L22.333,16H24h6.788L12.325,36.981l5.6-13.6L18.493,22H17H9.465l8.217-21 H30.333 M32,0H17L8,23h9l-7,17h1l22-25h-9L32,0L32,0z"/><path fill="#fff" d="M18.607 1.37L18.618 1.343 18.627 1.315 18.732 1 17.678 1 9.475 22 10.552 22zM18.493 22L17.925 23.381 12.325 36.981 14.357 34.672 18.849 23.761 19.418 22.381 19.575 22z"/></svg>