<svg width="72" height="64" viewBox="0 0 72 64" fill="none" xmlns="http://www.w3.org/2000/svg">
<g clip-path="url(#clip0)">
<path d="M36 0C27.3013 0 20.25 7.05125 20.25 15.75C20.25 22.7825 30.5438 35.6 34.4875 40.2525C35.2863 41.195 36.715 41.195 37.5125 40.2525C41.4562 35.6 51.75 22.7825 51.75 15.75C51.75 7.05125 44.6988 0 36 0Z" fill="#FF9393"/>
<path d="M2.515 27.1226C1.77272 27.4195 1.13641 27.9319 0.688137 28.5939C0.239861 29.2558 0.000177776 30.0369 0 30.8363L0 62.1263C0 63.5413 1.42875 64.5088 2.7425 63.9838L20 56.1288V26.9938C18.895 24.9963 17.9913 23.0513 17.3438 21.1913L2.515 27.1226ZM36 45.0876C34.2413 45.0876 32.5775 44.3151 31.4363 42.9676C28.9788 40.0676 26.365 36.7651 24 33.3776V56.1276L48 64.1276V33.3788C45.635 36.7651 43.0225 40.0688 40.5638 42.9688C39.4225 44.3151 37.7588 45.0876 36 45.0876ZM69.2575 20.2738L52 28.1288V64.1288L69.485 57.1351C70.2274 56.8383 70.8638 56.3259 71.3121 55.6639C71.7604 55.0019 72 54.2208 72 53.4213V22.1313C72 20.7163 70.5713 19.7488 69.2575 20.2738Z" fill="#003049"/>
<g clip-path="url(#clip1)">
<path d="M35.9997 23.3979C39.7868 23.3979 42.8569 20.3169 42.8569 16.5162C42.8569 12.7155 39.7868 9.63446 35.9997 9.63446C32.2126 9.63446 29.1426 12.7155 29.1426 16.5162C29.1426 20.3169 32.2126 23.3979 35.9997 23.3979Z" stroke="white" stroke-width="3" stroke-linecap="round" stroke-linejoin="round"/>
<path d="M38.0576 14.4516L33.9434 18.5806" stroke="white" stroke-width="3" stroke-linecap="round" stroke-linejoin="round"/>
<path d="M33.9434 14.4516L38.0576 18.5806" stroke="white" stroke-width="3" stroke-linecap="round" stroke-linejoin="round"/>
</g>
</g>
<defs>
<clipPath id="clip0">
<rect width="72" height="64" fill="white"/>
</clipPath>
<clipPath id="clip1">
<rect width="16.4571" height="16.5161" fill="white" transform="translate(27.7715 8.25806)"/>
</clipPath>
</defs>
</svg>
