<svg xmlns="http://www.w3.org/2000/svg"  viewBox="0 0 48 48" width="48px" height="48px"><path fill="#fff" d="M7,24c0,9.4,7.6,17,17,17s17-7.6,17-17c0-9.4-7.6-17-17-17S7,14.6,7,24"/><path fill="#dcedc8" d="M24,44C13,44,4,35,4,24C4,13,13,4,24,4c4.7,0,9.3,1.7,12.9,4.8l-2.6,3C31.5,9.3,27.8,8,24,8 C15.2,8,8,15.2,8,24s7.2,16,16,16V44z"/><path fill="#7cb342" d="M27 12L19 6 27 0z"/><path fill="#b0bec5" d="M11,24c0,0.6-0.4,1-1,1H7v-2h3C10.6,23,11,23.4,11,24z M24,37c-0.6,0-1,0.4-1,1v3h2v-3 C25,37.4,24.6,37,24,37z M38,23c-0.6,0-1,0.4-1,1s0.4,1,1,1h3v-2H38z"/><path fill="#7cb342" d="M24,44C13,44,4,35,4,24c0-4.7,1.7-9.3,4.8-12.9l3,2.6C9.3,16.5,8,20.2,8,24c0,8.8,7.2,16,16,16 s16-7.2,16-16S32.8,8,24,8V4c11,0,20,9,20,20C44,35,35,44,24,44z"/><path fill="#546e7a" d="M23,30h-8v-1.8l3.8-4c0.9-1.1,1.4-1.9,1.4-2.5c0-0.5-0.1-0.9-0.3-1.2c-0.2-0.3-0.5-0.4-1-0.4 c-0.4,0-0.8,0.2-1,0.5c-0.3,0.4-0.4,0.8-0.4,1.3H15c0-0.7,0.2-1.4,0.5-2c0.4-0.6,0.9-1.1,1.5-1.4s1.1-0.5,1.9-0.5 c1.3,0,2.3,0.3,3,0.9c0.7,0.6,1,1.4,1,2.5c0,0.5-0.1,0.9-0.3,1.4c-0.2,0.4-0.4,0.9-0.8,1.4c-0.4,0.5-1,1.1-1.8,1.9L18.6,28H23V30z M31.8,26H33v2h-1.2v2H29v-2h-4.6l-0.2-1.6L29,18h2.8V26z M26.8,26H29v-4.4l-0.2,0.3L26.8,26z"/></svg>