<?xml version="1.0"?><svg fill="#3b3b3b" xmlns="http://www.w3.org/2000/svg"  viewBox="0 0 24 24" width="48px" height="48px">    <path d="M 17.90625 3.0039062 C 17.808828 3.013125 17.710938 3.0376719 17.617188 3.0761719 C 17.243187 3.2311719 17 3.595 17 4 L 17 6 L 2 6 L 2 8 L 17 8 L 17 10 C 17 10.404 17.243188 10.768828 17.617188 10.923828 C 17.741187 10.974828 17.871 11 18 11 C 18.26 11 18.516031 10.898031 18.707031 10.707031 L 21.707031 7.7070312 C 22.098031 7.3160312 22.098031 6.6829688 21.707031 6.2929688 L 18.707031 3.2929688 C 18.492531 3.0784687 18.198516 2.97625 17.90625 3.0039062 z M 6.09375 13.003906 C 5.8014844 12.97625 5.5074687 13.078469 5.2929688 13.292969 L 2.2929688 16.292969 C 1.9019687 16.682969 1.9019687 17.316031 2.2929688 17.707031 L 5.2929688 20.707031 C 5.4839687 20.898031 5.74 21 6 21 C 6.129 21 6.2588125 20.974828 6.3828125 20.923828 C 6.7568125 20.768828 7 20.404 7 20 L 7 18 L 22 18 L 22 16 L 7 16 L 7 14 C 7 13.596 6.7568125 13.231172 6.3828125 13.076172 C 6.2890625 13.037672 6.1911719 13.013125 6.09375 13.003906 z"/></svg>