<?xml version="1.0" encoding="UTF-8"?>
<svg xmlns="http://www.w3.org/2000/svg" xmlns:xlink="http://www.w3.org/1999/xlink" viewBox="0 0 48 48" width="48px" height="48px">
    <g id="surface3831720">
        <path style=" stroke:none;fill-rule:nonzero;fill:rgb(21.568628%,27.843139%,30.980393%);fill-opacity:1;" d="M 40 24.5 L 40 27.5 L 38 28.5 L 37 37.101562 L 31.898438 37.101562 L 30.898438 28.5 L 28.898438 27.5 L 28.898438 24.5 C 28.898438 21.5 31.398438 19 34.398438 19 C 37.5 19 40 21.5 40 24.5 Z M 40 24.5 "/>
        <path style=" stroke:none;fill-rule:nonzero;fill:rgb(27.058825%,35.294119%,39.215687%);fill-opacity:1;" d="M 32 23 L 32 29.5 L 30 30.5 L 29 40.101562 L 22.898438 40.101562 L 21.898438 30.5 L 19.898438 29.5 L 19.898438 23 C 19.898438 19.699219 22.601562 17 25.898438 17 C 29.300781 17 32 19.699219 32 23 Z M 32 23 "/>
        <path style=" stroke:none;fill-rule:nonzero;fill:rgb(100%,71.764708%,30.19608%);fill-opacity:1;" d="M 15.5 13 C 18 13 20 11 20 8.5 C 20 6 18 4 15.5 4 C 13 4 11 6 11 8.5 C 11 11 13 13 15.5 13 "/>
        <path style=" stroke:none;fill-rule:nonzero;fill:rgb(100%,65.490198%,14.901961%);fill-opacity:1;" d="M 26 15 C 28.199219 15 30 13.199219 30 11 C 30 8.800781 28.199219 7 26 7 C 23.800781 7 22 8.800781 22 11 C 22 13.199219 23.800781 15 26 15 "/>
        <path style=" stroke:none;fill-rule:nonzero;fill:rgb(98.431373%,54.901963%,0%);fill-opacity:1;" d="M 35 17 C 36.699219 17 38 15.699219 38 14 C 38 12.300781 36.699219 11 35 11 C 33.300781 11 32 12.300781 32 14 C 32 15.699219 33.300781 17 35 17 "/>
        <path style=" stroke:none;fill-rule:nonzero;fill:rgb(47.058824%,56.470591%,61.176473%);fill-opacity:1;" d="M 23 22.5 L 23 30.5 L 20 32.5 L 19 43.101562 L 11.898438 43.101562 L 10.898438 32.5 L 7.898438 30.5 L 7.898438 22.5 C 7.898438 18.398438 11.300781 15 15.398438 15 C 19.601562 15 23 18.398438 23 22.5 Z M 23 22.5 "/>
        <path style=" stroke:none;fill-rule:nonzero;fill:rgb(74.901962%,21.176471%,4.705882%);fill-opacity:1;" d="M 43 27 L 45 27 L 45 43 L 43 43 Z M 43 27 "/>
        <path style=" stroke:none;fill-rule:nonzero;fill:rgb(74.901962%,21.176471%,4.705882%);fill-opacity:1;" d="M 3 27 L 5 27 L 5 43 L 3 43 Z M 3 27 "/>
        <path style=" stroke:none;fill-rule:nonzero;fill:rgb(74.901962%,21.176471%,4.705882%);fill-opacity:1;" d="M 46 26 C 46 27.105469 45.105469 28 44 28 C 42.894531 28 42 27.105469 42 26 C 42 24.894531 42.894531 24 44 24 C 45.105469 24 46 24.894531 46 26 Z M 46 26 "/>
        <path style=" stroke:none;fill-rule:nonzero;fill:rgb(74.901962%,21.176471%,4.705882%);fill-opacity:1;" d="M 6 26 C 6 27.105469 5.105469 28 4 28 C 2.894531 28 2 27.105469 2 26 C 2 24.894531 2.894531 24 4 24 C 5.105469 24 6 24.894531 6 26 Z M 6 26 "/>
        <path style=" stroke:none;fill-rule:nonzero;fill:rgb(74.901962%,21.176471%,4.705882%);fill-opacity:1;" d="M 24 31 C 14.699219 31 6.199219 29.5 3.398438 27.398438 L 4.601562 25.800781 C 7 27.601562 15.398438 29 24 29 C 33.601562 29 41.5 27.300781 43.5 25.699219 L 44.800781 27.300781 C 42 29.5 33.5 31 24 31 Z M 24 31 "/>
        <path style=" stroke:none;fill-rule:nonzero;fill:rgb(100%,23.921569%,0%);fill-opacity:1;" d="M 48 33.5 L 44.5 30 L 39 35.5 L 33.5 30 L 30 33.5 L 35.5 39 L 30 44.5 L 33.5 48 L 39 42.5 L 44.5 48 L 48 44.5 L 42.5 39 Z M 48 33.5 "/>
    </g>
</svg>