<svg xmlns="http://www.w3.org/2000/svg"  viewBox="0 0 48 48" width="48px" height="48px"><path fill="#ffcc80" d="M26,20v22H11c-3.314,0-6-2.686-6-6V26c0-3.314,2.686-6,6-6H26z"/><path fill="#37474f" d="M16,39V9c0-2.2,1.8-4,4-4h14c2.2,0,4,1.8,4,4v30c0,2.2-1.8,4-4,4H20C17.8,43,16,41.2,16,39z"/><path fill="#42a5f5" d="M34,8H20c-0.6,0-1,0.4-1,1v27c0,0.6,0.4,1,1,1h15c0.6,0,1-0.4,1-1V21h-1V9C35,8.4,34.6,8,34,8z"/><path fill="#78909c" d="M24,39h6v2h-6V39z"/><path fill="#ffcc80" d="M33,22.5c0,1.38,1.12,2.5,2.5,2.5h4c1.38,0,2.5-1.12,2.5-2.5c0-1.38-1.12-2.5-2.5-2.5h-4	C34.12,20,33,21.12,33,22.5z"/><path fill="#ffcc80" d="M33,37.5c0,1.38,1.12,2.5,2.5,2.5h4c1.38,0,2.5-1.12,2.5-2.5S40.88,35,39.5,35h-4	C34.12,35,33,36.12,33,37.5z"/><path fill="#ffcc80" d="M32,27.5c0,1.38,1.12,2.5,2.5,2.5h6c1.38,0,2.5-1.12,2.5-2.5c0-1.38-1.12-2.5-2.5-2.5h-6	C33.12,25,32,26.12,32,27.5z"/><path fill="#ffcc80" d="M32,32.5c0,1.38,1.12,2.5,2.5,2.5h6c1.38,0,2.5-1.12,2.5-2.5S41.88,30,40.5,30h-6	C33.12,30,32,31.12,32,32.5z"/><path fill="#ffcc80" d="M12.527,15.566c0.926-1.031,1.582-2.277,1.914-3.633l0.723-2.953C15.305,8.402,15.816,8,16.398,8	h0.672c1.785,0,2.969,2,2.969,3.293v1.391c0,2.832-0.453,5.613-1.813,8.074l-2.625,4.762l-8.882-3.723L12.527,15.566z"/><path fill="#f2a25a" d="M43,32.5c-2,2-7.5,2.5-7.5,2.5h5C41.88,35,43,33.88,43,32.5z"/><path fill="#f2a25a" d="M43,27.5c-2,2-8.5,2.5-8.5,2.5h6C41.88,30,43,28.88,43,27.5z"/><path fill="#f2a25a" d="M42,22.5c-2,2-6.5,2.5-6.5,2.5h4C40.88,25,42,23.88,42,22.5z"/><path fill="#f2a25a" d="M42,37.5c-2,2-6.5,2.5-6.5,2.5h4C40.88,40,42,38.88,42,37.5z"/></svg>