<svg width="29" height="31" viewBox="0 0 29 31" fill="none" xmlns="http://www.w3.org/2000/svg">
<path d="M19.294 11.0245L15.8216 13.9346V14.8107L14.4875 14.2953L10.8194 10.1552L4.66309 15.0972L7.14636 20.1404L11.0161 22.7509L16.8385 22.937L21.7874 20.6713L24.379 15.4629L19.294 11.0245Z" fill="#BCBEC0"/>
<path d="M19.0492 21.5536L18.5505 20.6646C18.5458 20.6563 18.5433 20.6469 18.5434 20.6373C18.5434 20.6278 18.5459 20.6184 18.5506 20.6101C18.5553 20.6019 18.5621 20.595 18.5702 20.5903C18.5784 20.5855 18.5876 20.583 18.597 20.583H18.7674C18.7768 20.5831 18.7861 20.5806 18.7943 20.5758C18.8024 20.5711 18.8092 20.5642 18.814 20.556C18.8187 20.5477 18.8212 20.5383 18.8212 20.5288C18.8213 20.5192 18.8188 20.5098 18.8141 20.5015L18.3937 19.7525C18.3891 19.7442 18.3867 19.7348 18.3868 19.7253C18.3868 19.7158 18.3893 19.7064 18.394 19.6982C18.3987 19.6899 18.4055 19.6831 18.4136 19.6783C18.4217 19.6735 18.4309 19.671 18.4403 19.671H18.6579C18.6673 19.671 18.6766 19.6685 18.6847 19.6637C18.6928 19.659 18.6996 19.6521 18.7043 19.6438C18.709 19.6356 18.7115 19.6262 18.7116 19.6167C18.7116 19.6071 18.7091 19.5977 18.7045 19.5894L17.7733 17.9296C17.7686 17.9212 17.7618 17.9143 17.7536 17.9095C17.7455 17.9046 17.7362 17.9021 17.7267 17.9021C17.7173 17.9021 17.708 17.9046 17.6998 17.9095C17.6916 17.9143 17.6848 17.9212 17.6802 17.9296L16.7489 19.5894C16.7443 19.5977 16.7418 19.6071 16.7419 19.6167C16.7419 19.6262 16.7444 19.6356 16.7491 19.6438C16.7538 19.6521 16.7606 19.659 16.7687 19.6637C16.7769 19.6685 16.7861 19.671 16.7955 19.671H17.0131C17.0225 19.671 17.0317 19.6735 17.0398 19.6783C17.0479 19.6831 17.0547 19.6899 17.0594 19.6982C17.0641 19.7064 17.0666 19.7158 17.0666 19.7253C17.0667 19.7348 17.0643 19.7442 17.0597 19.7525L16.6394 20.5015C16.6348 20.5098 16.6323 20.5192 16.6324 20.5287C16.6324 20.5383 16.6349 20.5476 16.6396 20.5559C16.6443 20.5641 16.6511 20.571 16.6592 20.5758C16.6674 20.5805 16.6766 20.583 16.686 20.583H16.8564C16.8658 20.583 16.8751 20.5855 16.8832 20.5902C16.8914 20.595 16.8982 20.6018 16.9029 20.6101C16.9077 20.6183 16.9102 20.6277 16.9102 20.6373C16.9102 20.6469 16.9078 20.6563 16.9031 20.6646L16.6913 21.0419C16.6866 21.0503 16.6798 21.0572 16.6717 21.062C16.6635 21.0669 16.6542 21.0694 16.6447 21.0694C16.6352 21.0694 16.626 21.0669 16.6178 21.062C16.6096 21.0572 16.6028 21.0503 16.5981 21.0419L16.3444 20.5897C16.3398 20.5814 16.3374 20.572 16.3375 20.5625C16.3375 20.5529 16.34 20.5436 16.3447 20.5353C16.3494 20.5271 16.3562 20.5202 16.3643 20.5155C16.3724 20.5107 16.3816 20.5082 16.391 20.5081H16.5115C16.5209 20.5081 16.5301 20.5056 16.5383 20.5009C16.5464 20.4961 16.5532 20.4893 16.5579 20.481C16.5626 20.4727 16.5651 20.4634 16.5652 20.4538C16.5652 20.4443 16.5627 20.4349 16.5581 20.4266L15.8733 19.2059C15.8686 19.1976 15.8618 19.1906 15.8537 19.1858C15.8455 19.181 15.8362 19.1784 15.8267 19.1784C15.8173 19.1784 15.808 19.181 15.7998 19.1858C15.7917 19.1906 15.7849 19.1976 15.7802 19.2059L15.0953 20.4266C15.0906 20.4349 15.0882 20.4443 15.0883 20.4538C15.0883 20.4633 15.0909 20.4727 15.0956 20.4809C15.1003 20.4892 15.107 20.496 15.1151 20.5008C15.1232 20.5055 15.1324 20.5081 15.1418 20.5081H15.2624C15.2717 20.5081 15.281 20.5106 15.2891 20.5154C15.2973 20.5201 15.304 20.527 15.3087 20.5352C15.3135 20.5435 15.316 20.5529 15.316 20.5624C15.316 20.572 15.3136 20.5814 15.3089 20.5897L15.0119 21.1192C15.0073 21.1275 15.0049 21.1369 15.0049 21.1464C15.005 21.156 15.0075 21.1653 15.0122 21.1735C15.0169 21.1818 15.0236 21.1886 15.0317 21.1934C15.0399 21.1982 15.0491 21.2007 15.0584 21.2008H15.1435C15.1529 21.2007 15.1621 21.2032 15.1702 21.208C15.1784 21.2128 15.1852 21.2196 15.1899 21.2279C15.1946 21.2361 15.1971 21.2455 15.1971 21.2551C15.1971 21.2646 15.1947 21.274 15.19 21.2823L14.9518 21.7078C14.9471 21.7162 14.9403 21.7231 14.9321 21.728C14.924 21.7328 14.9147 21.7353 14.9052 21.7353C14.8958 21.7353 14.8865 21.7328 14.8783 21.728C14.8701 21.7231 14.8634 21.7162 14.8587 21.7078L14.7122 21.4469C14.7075 21.4386 14.7051 21.4292 14.7051 21.4197C14.7051 21.4101 14.7076 21.4007 14.7123 21.3925C14.7171 21.3842 14.7238 21.3774 14.732 21.3726C14.7401 21.3679 14.7493 21.3654 14.7587 21.3654H14.8257C14.8351 21.3653 14.8443 21.3628 14.8524 21.3581C14.8606 21.3533 14.8673 21.3465 14.8721 21.3382C14.8768 21.33 14.8793 21.3206 14.8794 21.3111C14.8794 21.3015 14.877 21.2921 14.8724 21.2838L14.3219 20.3027C14.3172 20.2943 14.3105 20.2873 14.3023 20.2824C14.2941 20.2776 14.2848 20.275 14.2753 20.275C14.2658 20.275 14.2565 20.2776 14.2483 20.2824C14.2401 20.2873 14.2333 20.2943 14.2287 20.3027L13.6782 21.2838C13.6735 21.2921 13.671 21.3015 13.6711 21.311C13.6711 21.3206 13.6736 21.33 13.6783 21.3382C13.683 21.3465 13.6898 21.3533 13.6979 21.3581C13.7061 21.3629 13.7153 21.3654 13.7247 21.3654H13.7917C13.8011 21.3654 13.8103 21.3679 13.8184 21.3726C13.8266 21.3774 13.8333 21.3842 13.8381 21.3925C13.8428 21.4007 13.8453 21.4101 13.8453 21.4197C13.8453 21.4292 13.8429 21.4386 13.8382 21.4469L13.6083 21.8568C13.6037 21.8651 13.6012 21.8745 13.6013 21.884C13.6013 21.8936 13.6038 21.9029 13.6085 21.9112C13.6132 21.9195 13.62 21.9263 13.6281 21.9311C13.6363 21.9358 13.6455 21.9383 13.6549 21.9383H13.6934C13.7028 21.9384 13.712 21.9409 13.7201 21.9457C13.7282 21.9505 13.7349 21.9573 13.7396 21.9655C13.7443 21.9738 13.7468 21.9831 13.7469 21.9927C13.7469 22.0022 13.7446 22.0116 13.7399 22.0199L13.4607 22.5174C13.456 22.5257 13.4536 22.5351 13.4536 22.5447C13.4536 22.5542 13.4561 22.5636 13.4608 22.5719C13.4656 22.5801 13.4723 22.587 13.4805 22.5918C13.4886 22.5966 13.4978 22.5991 13.5072 22.5991H15.0413C15.0508 22.5991 15.06 22.5966 15.0682 22.5919C15.0763 22.5871 15.0831 22.5802 15.0878 22.572C15.0926 22.5637 15.0951 22.5543 15.0951 22.5447C15.0952 22.5351 15.0927 22.5257 15.0881 22.5174L14.8438 22.082C14.8391 22.0737 14.8367 22.0643 14.8367 22.0548C14.8367 22.0452 14.8392 22.0358 14.8439 22.0276C14.8487 22.0193 14.8554 22.0125 14.8636 22.0077C14.8717 22.003 14.8809 22.0005 14.8903 22.0005H16.7727C16.7821 22.0004 16.7913 21.9979 16.7995 21.9932C16.8076 21.9884 16.8144 21.9816 16.8191 21.9733C16.8238 21.9651 16.8263 21.9557 16.8264 21.9462C16.8264 21.9366 16.824 21.9272 16.8194 21.9189L16.7064 21.7176C16.7017 21.7093 16.6993 21.6999 16.6993 21.6903C16.6994 21.6808 16.7019 21.6714 16.7066 21.6631C16.7113 21.6549 16.718 21.648 16.7262 21.6433C16.7343 21.6385 16.7436 21.636 16.753 21.636H19.0027C19.0121 21.636 19.0213 21.6335 19.0294 21.6288C19.0376 21.624 19.0443 21.6171 19.0491 21.6089C19.0538 21.6006 19.0563 21.5913 19.0563 21.5817C19.0563 21.5722 19.0539 21.5628 19.0492 21.5545" fill="#3C6E71"/>
<path d="M20.6516 4.06399L13.5642 2.60791L7.1834 5.76622L4.39289 9.538L4.2998 10.7595L4.78367 14.9781L10.9236 9.92747L13.7524 13.4014L14.8293 14.4564L18.9776 11.2324L24.5027 15.5429V9.538L20.6516 4.06399Z" fill="#B5070F"/>
<path d="M18.34 8.66459V11.6435C18.3401 11.6898 18.3222 11.7342 18.2902 11.7671C18.2581 11.7999 18.2146 11.8185 18.1691 11.8188H16.0747V13.9483C16.0747 13.9713 16.0703 13.9942 16.0616 14.0155C16.0529 14.0367 16.0402 14.0561 16.0242 14.0724C16.0082 14.0887 15.9891 14.1016 15.9682 14.1104C15.9472 14.1192 15.9248 14.1237 15.9021 14.1236H14.5459L12.7997 12.4571V11.8188H12.1316L10.5327 10.2936V8.66459C10.533 8.61836 10.5513 8.57412 10.5836 8.54158C10.6159 8.50903 10.6595 8.49083 10.705 8.49096H12.7998V6.36149C12.7998 6.33846 12.8042 6.31566 12.8129 6.29438C12.8215 6.2731 12.8342 6.25376 12.8502 6.23747C12.8662 6.22118 12.8852 6.20827 12.9061 6.19946C12.9271 6.19066 12.9495 6.18614 12.9721 6.18616H15.9021C15.9248 6.18611 15.9472 6.19062 15.9682 6.19941C15.9891 6.2082 16.0082 6.22111 16.0242 6.2374C16.0402 6.25369 16.0529 6.27303 16.0616 6.29433C16.0703 6.31562 16.0747 6.33844 16.0747 6.36149V8.49096H18.1691C18.2143 8.49114 18.2577 8.50949 18.2897 8.54201C18.3217 8.57452 18.3398 8.61858 18.34 8.66459Z" fill="white"/>
<path d="M14.4403 1.54968C12.2678 1.54908 10.1439 2.20354 8.33729 3.43029C6.53065 4.65704 5.12244 6.40097 4.29076 8.44151C3.45909 10.482 3.24131 12.7275 3.66497 14.8939C4.08864 17.0603 5.13472 19.0502 6.6709 20.6121C8.20707 22.174 10.1643 23.2376 12.2951 23.6684C14.4259 24.0992 16.6345 23.8779 18.6416 23.0324C20.6486 22.1869 22.364 20.7552 23.5706 18.9184C24.7773 17.0817 25.4211 14.9223 25.4205 12.7135C25.4198 9.75295 24.2627 6.91383 22.2037 4.82036C20.1446 2.72689 17.3521 1.55045 14.4402 1.54968H14.4403ZM14.4402 21.9704C12.6399 21.9711 10.8799 21.4289 9.38273 20.4126C7.88555 19.3962 6.71847 17.9512 6.02909 16.2604C5.3397 14.5697 5.15899 12.709 5.50979 10.9138C5.8606 9.11856 6.72717 7.46943 7.9999 6.17497C9.27263 4.88051 10.8944 3.99887 12.66 3.64154C14.4256 3.28422 16.2558 3.46727 17.919 4.16754C19.5823 4.86781 21.004 6.05385 22.0042 7.57565C23.0044 9.09744 23.5383 10.8866 23.5383 12.7169C23.5383 15.1705 22.5799 17.5237 20.8737 19.2589C19.1676 20.9942 16.8535 21.9695 14.4402 21.9704Z" fill="#003049"/>
<path d="M23.4551 18.9863L21.6157 20.8444L10.9546 11.1993L10.9379 11.1722L10.9312 11.1756L4.86868 15.8768L4.48242 14.4138L10.0591 10.0952L10.6514 9.63682C10.734 9.57293 10.835 9.53833 10.9387 9.53833C11.0425 9.53833 11.1434 9.57293 11.226 9.63682L15.0953 12.6305C15.1829 12.6982 15.2431 12.7963 15.2643 12.9061C15.2855 13.016 15.2664 13.1299 15.2105 13.2263L14.85 13.8486L14.7033 14.113L15.9793 13.3129L16.4355 13.6685L23.4551 18.9863Z" fill="#003049"/>
<path d="M11.9042 11.3293L8.45775 14.2667C8.43962 14.2828 8.42777 14.3049 8.42436 14.3292C8.42094 14.3534 8.42619 14.378 8.43915 14.3986C8.4521 14.4193 8.47191 14.4345 8.49495 14.4415C8.518 14.4485 8.54276 14.4469 8.56473 14.4369L13.2179 12.2171L11.9042 11.3293Z" fill="#003049"/>
<path d="M25.1872 15.1286L24.6116 16.9022L19.1915 11.5366L16.4371 13.6696L15.0149 14.7691L14.4878 14.295L18.9027 10.7236C18.9852 10.6568 19.0874 10.6199 19.1929 10.6187C19.2984 10.6175 19.4013 10.6522 19.4853 10.7171L25.1872 15.1286Z" fill="#003049"/>
<path d="M20.0753 11.8834L18.5713 13.4244C18.561 13.4359 18.5548 13.4506 18.5538 13.4661C18.5529 13.4816 18.5571 13.497 18.5659 13.5097C18.5747 13.5224 18.5875 13.5316 18.6022 13.5359C18.6169 13.5402 18.6326 13.5392 18.6467 13.5332L20.7278 12.5378L20.0753 11.8834Z" fill="#003049"/>
<path fill-rule="evenodd" clip-rule="evenodd" d="M12.3921 23.1089L10.5231 22.8143L6.46533 20.0979C6.73188 20.0504 6.92174 20.0199 7.00846 20.0165C7.08741 20.0199 7.16519 20.0372 7.23834 20.0676C7.24487 20.0676 7.24822 20.071 7.25508 20.0744C7.31502 20.0948 7.38166 20.1219 7.45148 20.1523C7.45859 20.153 7.46546 20.1554 7.47157 20.1591C7.5449 20.1932 7.62476 20.2272 7.70479 20.2676C7.71149 20.2676 7.71484 20.271 7.72154 20.2742L8.0147 20.4131C8.09456 20.4504 8.17778 20.4911 8.25797 20.5284C8.2712 20.535 8.28442 20.5384 8.301 20.5454C8.38103 20.5827 8.45771 20.6165 8.53439 20.6504C8.54347 20.6532 8.55236 20.6566 8.56102 20.6606C8.64105 20.6947 8.71421 20.7216 8.78754 20.7457C8.80429 20.7491 8.81751 20.7559 8.83091 20.7593C8.89496 20.7816 8.96062 20.7986 9.0273 20.8104C9.03734 20.8104 9.04722 20.8138 9.05744 20.8138C9.11006 20.825 9.16429 20.8262 9.21733 20.8172C9.23725 20.8138 9.26756 20.807 9.30104 20.8002C9.30786 20.8007 9.3147 20.7996 9.32097 20.7968C9.35763 20.79 9.39765 20.7798 9.44436 20.7731C9.44519 20.7721 9.44621 20.7713 9.44736 20.7707C9.44851 20.7701 9.44976 20.7697 9.45106 20.7696C9.4976 20.7595 9.55151 20.7493 9.6076 20.7355C9.61413 20.7355 9.62083 20.7321 9.62753 20.7321C9.68412 20.7185 9.74757 20.705 9.81421 20.688C9.8276 20.6846 9.84083 20.6846 9.85405 20.6812C9.90746 20.6676 9.9674 20.6541 10.0242 20.6405C10.064 20.6339 10.104 20.6235 10.1439 20.6169C10.2072 20.5998 10.274 20.5864 10.3448 20.5695C10.4148 20.5559 10.4846 20.5389 10.5546 20.5221C10.5747 20.5187 10.5912 20.5152 10.6112 20.5118C10.6912 20.4916 10.7744 20.4747 10.8576 20.4543C10.879 20.4511 10.9002 20.4465 10.9211 20.4407C11.0078 20.4204 11.0975 20.4002 11.1876 20.3832C11.1959 20.3789 11.205 20.3765 11.2142 20.3763C11.3008 20.3561 11.3909 20.3358 11.4808 20.3154C11.4911 20.3148 11.5012 20.3125 11.5107 20.3086C11.6074 20.2883 11.7004 20.2681 11.7939 20.2477C11.8058 20.2438 11.8181 20.2415 11.8305 20.2408C11.9204 20.2206 12.0103 20.2003 12.0971 20.1833C12.1022 20.1805 12.108 20.1793 12.1138 20.1799C12.2071 20.1597 12.2972 20.1392 12.3835 20.1224C12.3971 20.119 12.407 20.1156 12.4204 20.1122C12.5935 20.0781 12.7601 20.0441 12.9134 20.0139C12.9253 20.0101 12.9375 20.0078 12.9499 20.0071C13.0266 19.9901 13.0966 19.9767 13.1632 19.9666L13.1666 19.9632C13.3678 19.916 13.5731 19.8899 13.7795 19.8853C14.016 19.9293 12.8269 22.1174 12.3938 23.1098" fill="#003049"/>
<path d="M12.7011 14.1799C12.7011 14.1799 12.8402 13.7576 12.4797 13.698C12.174 13.6607 11.9352 13.8172 11.9671 14.0478C11.9989 14.2785 12.0588 14.3241 11.9232 14.366C11.8952 14.3746 11.7476 14.3586 11.7531 14.1482C11.7767 14.0024 11.8507 13.8699 11.9617 13.7744C12.0727 13.679 12.2135 13.6268 12.3588 13.6272C12.734 13.6515 12.9951 13.672 12.9113 14.033C12.8276 14.394 12.7173 14.2991 12.7007 14.1799" fill="#003049"/>
<path d="M12.6675 14.1348C12.6675 14.1348 12.7093 14.3374 12.5786 14.3532C12.5263 14.3543 12.5004 14.2625 12.4229 14.2851C12.4046 14.2974 12.4446 14.3493 12.4927 14.3754C12.5488 14.4048 12.4989 14.4818 12.3842 14.4515C12.2975 14.4303 12.2411 14.4138 12.2531 14.3629C12.2698 14.3277 12.3045 14.3246 12.3499 14.319C12.4291 14.3093 12.3554 14.2453 12.2943 14.2644C12.2461 14.2795 12.1627 14.3388 12.0961 14.2904C12.0294 14.2421 12.0467 14.0833 12.0467 14.0833C12.0467 14.0833 12.0184 14.0128 11.9964 14.1149C11.9745 14.2171 11.9127 14.9548 12.3721 14.9822C12.6723 14.9895 12.8774 14.2477 12.6675 14.1348Z" fill="#003049"/>
<path d="M12.3398 13.4303C12.3976 13.4179 12.458 13.4276 12.5093 13.4574C12.5607 13.4873 12.5995 13.5352 12.6184 13.5922V13.6262C12.5147 13.6055 12.408 13.6059 12.3045 13.6275C12.2011 13.6491 12.1028 13.6914 12.0156 13.752C12.0156 13.752 12.131 13.4691 12.3393 13.4301" fill="#003049"/>
<path d="M12.6786 16.3971C12.7769 16.3433 12.8373 16.3025 12.8971 16.3144C13.0288 16.3404 13.4534 16.3394 13.428 15.9455C13.428 15.9455 13.4204 15.7523 13.2192 15.8454C13.0179 15.9385 12.9774 16.0763 12.8341 16.0763C12.8194 16.0766 12.8046 16.0779 12.7901 16.0803C12.7881 16.1284 12.7752 16.1754 12.7524 16.2175C12.7198 16.2738 12.6947 16.3342 12.6777 16.3971" fill="#003049"/>
<path d="M13.341 15.8803C13.4564 15.8399 13.5656 15.7831 13.6654 15.7116C13.7411 15.6347 13.8315 15.4904 13.9218 15.6694C14.012 15.8485 13.7826 16.0987 13.6777 16.0962C13.5337 16.1052 13.3903 16.1218 13.248 16.1459L13.341 15.8803Z" fill="#003049"/>
<path d="M13.2473 16.0915L12.3984 20.6127L12.5117 20.6347L13.3606 16.1135L13.2473 16.0915Z" fill="#003049"/>
<path d="M13.8686 15.7464L13.8519 15.9813L13.5237 20.3697H13.4082L13.7297 16.0818L13.7548 15.7362L13.8686 15.7464Z" fill="#003049"/>
<path d="M12.7915 16.0798C12.5991 16.1069 12.1018 16.256 12.0471 15.8497C12.0352 15.7458 12.1166 15.3953 12.1003 15.1454L12.1698 14.8341H12.5768C12.6979 15.0142 12.7797 15.2185 12.8167 15.4333C12.8537 15.6482 12.8451 15.8686 12.7915 16.0798Z" fill="#003049"/>
<path d="M12.6782 16.3972C12.4958 16.4984 12.2947 16.5602 12.0877 16.5786C11.5958 16.6166 11.4036 16.244 11.3597 15.8497C11.3597 15.8497 11.3521 16.3594 11.3486 16.7264C11.8444 16.9443 12.3957 16.7919 12.6497 16.6974C12.643 16.5964 12.6526 16.495 12.6782 16.3972Z" fill="#003049"/>
<path d="M11.1765 16.8878C11.1811 16.9687 11.3655 17.0676 11.3805 17.0962C11.4602 17.2494 12.2929 17.2494 12.519 17.1743C12.5477 17.1695 12.5751 17.1586 12.5993 17.1423C12.6236 17.1261 12.6442 17.1047 12.6597 17.0798C12.6753 17.0548 12.6855 17.0268 12.6896 16.9976C12.6938 16.9683 12.6918 16.9385 12.6838 16.9101C12.6838 16.9101 12.6813 16.9021 12.6778 16.8878C12.2878 17.1561 11.4192 16.985 11.1758 16.8878" fill="#003049"/>
<path d="M12.1177 14.7619C12.1177 14.7619 11.2568 13.9661 10.7773 14.3159C10.2978 14.6657 10.5504 14.8928 10.5064 15.2091C10.4623 15.5253 10.4265 16.0655 10.4002 16.4782C10.3691 16.9699 11.2357 17.5365 11.3487 16.7263C11.4569 15.9528 11.1865 14.7478 11.9171 14.8332C12.6443 14.9224 12.118 14.7619 12.118 14.7619" fill="#003049"/>
<path d="M12.6114 17.0217L12.0696 17.1258L11.5498 17.0877L11.2496 16.9546C11.2496 16.9546 11.3229 17.4099 11.2129 17.6556C11.1029 17.9012 11.0957 19.4259 11.0957 19.4259L11.4083 20.5529L11.9374 20.4288L11.6896 19.5224L12.2411 17.6617L12.1592 18.1562C12.1247 18.3639 12.2834 18.5477 12.4058 18.7171C12.4238 18.7483 12.4328 18.784 12.4316 18.8202C12.4304 18.8563 12.4191 18.8914 12.3991 18.9213C12.3772 18.9511 12.1287 20.5948 12.1287 20.5948H12.4877C12.4877 20.5948 13.2488 18.7909 13.3158 18.5457C13.3828 18.3004 12.6126 17.0217 12.6126 17.0217" fill="#003049"/>
<path d="M12.1612 13.8677C12.3106 13.8642 12.3529 14.0124 12.4723 13.921C12.5635 13.8831 12.6647 13.8786 12.7588 13.9083L12.7625 14.0415C12.5714 14.2198 12.5316 13.9992 12.3188 14.0434C12.1112 14.1558 11.9504 14.0759 11.9466 13.9964C11.9429 13.9283 11.9699 13.8742 12.1612 13.8677Z" fill="#003049"/>
<path d="M12.2957 14.9334L12.2585 14.8343L12.0991 14.7744L11.8995 14.7383L11.6504 14.7213L11.7421 14.8405C11.7421 14.8405 12.1063 14.8112 12.1013 15.1639C12.2228 15.4172 12.3671 15.1809 12.3671 15.1809L12.2957 14.9334Z" fill="#003049"/>
<path d="M1.59251 21.247C1.6035 21.2383 1.61681 21.2333 1.63068 21.2325L1.97525 21.186C1.98571 21.1837 1.9966 21.1845 2.00666 21.1882C2.01672 21.1919 2.02556 21.1984 2.03217 21.2069C2.03908 21.2183 2.04353 21.231 2.04523 21.2442C2.06094 21.4603 2.13575 21.6677 2.26122 21.8429C2.37841 22.006 2.48875 22.0553 2.54584 22.0412C2.57892 22.032 2.60984 22.0162 2.63675 21.9946C2.6671 21.9693 2.69009 21.9362 2.70325 21.8987C2.71641 21.8611 2.71924 21.8207 2.71143 21.7816C2.69885 21.6702 2.6738 21.5606 2.63675 21.455C2.59557 21.3375 2.55974 21.2144 2.52927 21.0892C2.49765 20.9631 2.49828 20.831 2.53111 20.7053C2.56578 20.572 2.64595 20.4555 2.7573 20.3768C2.83493 20.3102 2.92727 20.2638 3.02642 20.2415C3.12557 20.2192 3.22856 20.2217 3.32655 20.2488C3.53288 20.319 3.71055 20.4566 3.83185 20.6403C3.97394 20.8287 4.07211 21.0475 4.11898 21.2801C4.12172 21.2906 4.1211 21.3017 4.11721 21.3118C4.11333 21.3219 4.10639 21.3305 4.09739 21.3363C4.08384 21.3437 4.06944 21.3495 4.05453 21.3533L3.74813 21.4276C3.7377 21.4297 3.72689 21.4289 3.71689 21.4252C3.7069 21.4214 3.69813 21.415 3.69154 21.4064L3.6748 21.363C3.61943 21.2234 3.54625 21.0918 3.45714 20.9715C3.32504 20.7887 3.21304 20.7268 3.09182 20.8183C3.06421 20.8429 3.04416 20.875 3.03406 20.9108C3.02396 20.9467 3.02425 20.9847 3.03489 21.0204C3.05336 21.1289 3.08236 21.2353 3.12146 21.338C3.16348 21.4582 3.19886 21.5807 3.22744 21.7048C3.25633 21.8343 3.25212 21.9691 3.21521 22.0964C3.17267 22.2365 3.08452 22.3578 2.96524 22.4404C2.87988 22.5074 2.77842 22.5499 2.67141 22.5636C2.5909 22.5779 2.50853 22.5776 2.42814 22.5626C2.19173 22.4897 1.98808 22.3345 1.85286 22.1243C1.82959 22.0923 1.80146 22.0501 1.76915 21.9963C1.71814 21.9007 1.67529 21.8009 1.64106 21.6979C1.59208 21.5724 1.56664 21.4387 1.56606 21.3036C1.56533 21.2924 1.56746 21.2811 1.57224 21.271C1.57702 21.2608 1.58428 21.2521 1.59335 21.2456" fill="#003049"/>
<path d="M5.55797 22.6429C5.5706 22.655 5.57863 22.6713 5.58065 22.6888C5.58267 22.7063 5.57855 22.724 5.56902 22.7388L4.73072 24.1994L6.06712 23.2132C6.08099 23.2026 6.09807 23.1973 6.11538 23.1982C6.13269 23.1991 6.14914 23.2062 6.16188 23.2181L6.46476 23.5063C6.47164 23.5112 6.47731 23.5177 6.4813 23.5252C6.48529 23.5328 6.48751 23.5411 6.48777 23.5497C6.48803 23.5583 6.48633 23.5668 6.4828 23.5745C6.47927 23.5823 6.47401 23.5891 6.46744 23.5945L4.54102 24.9305C4.52713 24.9411 4.51004 24.9464 4.49271 24.9455C4.47538 24.9447 4.45889 24.9377 4.44609 24.9258L4.05247 24.5513C4.04555 24.5457 4.03978 24.5388 4.03549 24.531C4.0312 24.5232 4.02847 24.5146 4.02745 24.5057C4.02644 24.4968 4.02717 24.4877 4.0296 24.4791C4.03202 24.4705 4.0361 24.4625 4.04159 24.4554L4.73306 23.2566L3.60176 24.0367C3.59521 24.0427 3.58755 24.0474 3.57922 24.0504C3.5709 24.0534 3.56207 24.0547 3.55325 24.0542C3.54442 24.0538 3.53578 24.0515 3.52781 24.0476C3.51984 24.0438 3.51271 24.0383 3.50683 24.0316L3.11203 23.6554C3.09945 23.6433 3.09144 23.6271 3.08939 23.6096C3.08734 23.5922 3.09138 23.5745 3.10081 23.5597L4.28787 21.5191C4.2927 21.5121 4.29907 21.5063 4.30647 21.5023C4.31388 21.4982 4.32211 21.4959 4.33053 21.4956C4.33894 21.4954 4.3473 21.4971 4.35495 21.5006C4.3626 21.5042 4.36933 21.5096 4.3746 21.5162L4.67731 21.8044C4.68992 21.8166 4.69792 21.8328 4.69991 21.8504C4.7019 21.868 4.69775 21.8857 4.68819 21.9004L3.80769 23.3207L5.18612 22.3747C5.20004 22.3641 5.21718 22.3588 5.23455 22.3597C5.25191 22.3606 5.26843 22.3676 5.28122 22.3796L5.55797 22.6429Z" fill="#003049"/>
<path d="M6.68027 23.6531C6.6896 23.6396 6.70376 23.6303 6.71972 23.6273C6.73568 23.6243 6.75217 23.6277 6.76566 23.6369L7.11625 23.8824C7.12378 23.8861 7.13034 23.8917 7.13539 23.8985C7.14045 23.9053 7.14387 23.9132 7.14539 23.9216C7.1469 23.93 7.14646 23.9387 7.14411 23.9469C7.14175 23.9551 7.13754 23.9626 7.13182 23.9688L5.84263 25.8743C5.83886 25.8819 5.83339 25.8886 5.82667 25.8937C5.81994 25.8989 5.81213 25.9024 5.80386 25.9039C5.79558 25.9055 5.78706 25.905 5.77898 25.9027C5.77089 25.9003 5.76345 25.8961 5.75724 25.8903L5.40682 25.6448C5.39376 25.6353 5.38484 25.6209 5.3819 25.6048C5.37897 25.5887 5.38226 25.5721 5.39108 25.5584L6.68027 23.6531Z" fill="#003049"/>
<path d="M6.39528 26.0053C6.40167 25.9927 6.41157 25.9823 6.42374 25.9755L6.71556 25.7833C6.72402 25.7767 6.73413 25.7727 6.74474 25.7717C6.75534 25.7707 6.766 25.7728 6.7755 25.7777C6.78661 25.7847 6.79605 25.7941 6.80313 25.8052C6.90851 25.9936 7.0635 26.1484 7.25066 26.2521C7.42562 26.3481 7.54567 26.345 7.59104 26.3072C7.61684 26.2844 7.638 26.2566 7.65332 26.2255C7.67004 26.1895 7.67676 26.1496 7.67278 26.11C7.6688 26.0704 7.65426 26.0326 7.63072 26.0008C7.57239 25.9056 7.50358 25.8175 7.42562 25.7382C7.33923 25.65 7.25468 25.5547 7.17448 25.4549C7.09281 25.3549 7.0376 25.2353 7.01409 25.1075C6.98935 24.9719 7.01272 24.8317 7.08005 24.7119C7.12212 24.6179 7.18604 24.5356 7.2663 24.4722C7.34656 24.4089 7.44077 24.3663 7.54081 24.3481C7.75691 24.3219 7.97548 24.3691 8.16247 24.4823C8.37029 24.5903 8.55117 24.7451 8.69137 24.9349C8.69815 24.9432 8.70218 24.9535 8.70287 24.9642C8.70356 24.975 8.70089 24.9857 8.69522 24.9948C8.68642 25.0075 8.67607 25.0189 8.66441 25.0289L8.4188 25.229C8.41032 25.2356 8.40019 25.2397 8.38956 25.2407C8.37893 25.2417 8.36824 25.2397 8.35869 25.2348L8.32521 25.2033C8.21626 25.1016 8.09461 25.0148 7.9634 24.9453C7.76717 24.8379 7.64009 24.8305 7.56877 24.9654C7.55426 24.9996 7.54969 25.0373 7.55563 25.0741C7.56156 25.1109 7.57775 25.1452 7.60226 25.1729C7.6648 25.2629 7.73597 25.3463 7.81472 25.4221C7.90322 25.5123 7.98668 25.6075 8.06469 25.7072C8.14554 25.8114 8.19864 25.9351 8.21889 26.0662C8.23951 26.2113 8.21105 26.3591 8.13819 26.4856C8.08933 26.5834 8.01563 26.6662 7.92472 26.7253C7.8581 26.7734 7.78352 26.8089 7.70455 26.8301C7.4603 26.8674 7.21096 26.816 7.00019 26.6851C6.9657 26.6662 6.92234 26.6404 6.8711 26.606C6.78479 26.5417 6.70396 26.4701 6.62951 26.392C6.53214 26.3001 6.45263 26.1904 6.39511 26.0686C6.38992 26.0587 6.38721 26.0477 6.38721 26.0365C6.38721 26.0253 6.38992 26.0143 6.39511 26.0044" fill="#003049"/>
<path d="M8.40985 27.0626C8.41403 27.049 8.42229 27.0371 8.43346 27.0286L8.69414 26.7947C8.70162 26.787 8.71106 26.7815 8.72141 26.7789C8.73175 26.7763 8.7426 26.7767 8.75274 26.78C8.76464 26.7855 8.77526 26.7934 8.78389 26.8034C8.9154 26.9738 9.09109 27.1035 9.29119 27.1778C9.47804 27.2459 9.59607 27.2253 9.63542 27.1816C9.65782 27.1552 9.67489 27.1245 9.68565 27.0914C9.69697 27.0533 9.69786 27.0128 9.68821 26.9742C9.67857 26.9356 9.65875 26.9004 9.6309 26.8725C9.55954 26.7871 9.47876 26.7103 9.39014 26.6437C9.29202 26.5695 9.19458 26.4876 9.10099 26.401C9.00574 26.3144 8.93391 26.2045 8.89238 26.0816C8.84801 25.9514 8.85074 25.8093 8.90008 25.6809C8.92805 25.5816 8.97932 25.4907 9.04949 25.416C9.11966 25.3413 9.20663 25.2851 9.30291 25.2521C9.51271 25.1938 9.73561 25.2077 9.93679 25.2918C10.1579 25.3675 10.3591 25.4934 10.5251 25.66C10.5332 25.6672 10.5387 25.6768 10.541 25.6874C10.5433 25.698 10.5422 25.7091 10.5378 25.719C10.5309 25.7329 10.5224 25.7459 10.5124 25.7577L10.2984 25.9928C10.291 26.0005 10.2816 26.0059 10.2713 26.0085C10.2609 26.0111 10.2501 26.0107 10.24 26.0074L10.2018 25.9814C10.0795 25.897 9.94675 25.8295 9.80703 25.7805C9.59724 25.7034 9.4705 25.7151 9.41944 25.8591C9.41009 25.8952 9.4111 25.9331 9.42235 25.9686C9.4336 26.004 9.45461 26.0355 9.48289 26.0592C9.55765 26.1388 9.64005 26.2106 9.72884 26.2736C9.82937 26.3496 9.92568 26.4312 10.0173 26.5181C10.1123 26.6092 10.1826 26.7235 10.2216 26.8502C10.2629 26.9909 10.2558 27.1419 10.2013 27.2779C10.1671 27.382 10.1061 27.4748 10.0247 27.5467C9.96579 27.6041 9.89723 27.6502 9.82227 27.6829C9.58616 27.7563 9.33218 27.7429 9.10484 27.6449C9.06834 27.6315 9.02113 27.6124 8.96588 27.5857C8.87125 27.5353 8.78107 27.4768 8.69632 27.4107C8.58677 27.3343 8.49232 27.2376 8.41789 27.1258C8.41127 27.1168 8.40699 27.1063 8.40544 27.0952C8.40388 27.0841 8.40512 27.0728 8.40902 27.0623" fill="#003049"/>
<path d="M12.8833 26.038C12.9014 26.0403 12.918 26.0493 12.93 26.0633C12.942 26.0773 12.9484 26.0953 12.9481 26.1139L13.3208 28.5004C13.3208 28.509 13.3188 28.5174 13.3151 28.5251C13.3113 28.5328 13.3059 28.5395 13.2992 28.5446C13.2924 28.5498 13.2846 28.5533 13.2763 28.5549C13.2681 28.5564 13.2595 28.556 13.2514 28.5537L12.8407 28.4953C12.8236 28.4928 12.8078 28.4842 12.7962 28.4711C12.7846 28.458 12.7779 28.4411 12.7773 28.4235L12.7322 28.1361L11.9286 28.0221L11.8114 28.2863C11.806 28.303 11.795 28.3173 11.7802 28.3267C11.7655 28.336 11.748 28.3398 11.7309 28.3373L11.32 28.2791C11.3116 28.2792 11.3033 28.2772 11.2957 28.2734C11.2882 28.2696 11.2816 28.264 11.2766 28.2572C11.2715 28.2503 11.268 28.2424 11.2665 28.234C11.265 28.2255 11.2654 28.2169 11.2678 28.2087L12.2693 26.0174C12.2747 25.9995 12.2862 25.9841 12.3017 25.9741C12.3172 25.964 12.3358 25.9599 12.354 25.9626L12.8833 26.038ZM12.521 26.7064L12.1447 27.545L12.6569 27.6176L12.521 26.7064Z" fill="#003049"/>
<path d="M13.7522 26.9985C13.7489 26.85 13.7798 26.7029 13.8424 26.5688C13.8798 26.4827 13.9321 26.4041 13.9968 26.3368C14.1869 26.1715 14.4317 26.0859 14.6816 26.0975C14.8921 26.0909 15.1019 26.1256 15.2996 26.1996C15.3098 26.2035 15.3188 26.2101 15.3257 26.2187C15.3327 26.2272 15.3373 26.2375 15.3391 26.2485C15.3391 26.2713 15.3178 26.3998 15.2765 26.6366C15.272 26.6473 15.2646 26.6565 15.255 26.663C15.2454 26.6695 15.2342 26.6729 15.2227 26.6728L15.139 26.6487C15.0352 26.6166 14.9273 26.6009 14.8189 26.602C14.6925 26.601 14.5684 26.636 14.4606 26.703C14.4069 26.7357 14.3633 26.7831 14.3348 26.8397C14.3063 26.8964 14.2939 26.9601 14.2992 27.0235L14.3037 27.6814C14.2995 27.7449 14.3128 27.8083 14.342 27.8645C14.3713 27.9207 14.4154 27.9676 14.4695 27.9997C14.5783 28.065 14.7028 28.0981 14.8291 28.0954C14.9373 28.0928 15.0448 28.0757 15.1485 28.0443L15.2322 28.0193C15.2437 28.0187 15.2551 28.0218 15.2648 28.0282C15.2745 28.0345 15.2819 28.0438 15.2862 28.0547C15.3307 28.2887 15.3531 28.4173 15.3541 28.4401C15.3532 28.4515 15.349 28.4623 15.3421 28.4714C15.3352 28.4804 15.3259 28.4873 15.3153 28.4911C15.1185 28.5671 14.9091 28.6038 14.6987 28.5992C14.449 28.6145 14.2031 28.5324 14.0109 28.3698C13.9447 28.3038 13.8913 28.226 13.8532 28.1401C13.7887 28.0069 13.7558 27.8602 13.757 27.7117L13.7522 26.9985Z" fill="#003049"/>
<path d="M16.187 26.526L15.6705 26.6043C15.6544 26.6065 15.6382 26.6023 15.6252 26.5924C15.6122 26.5826 15.6035 26.568 15.601 26.5517L15.5462 26.1781C15.5438 26.1699 15.5433 26.1612 15.5447 26.1528C15.5462 26.1444 15.5496 26.1364 15.5546 26.1295C15.5596 26.1227 15.5661 26.1171 15.5736 26.1132C15.5811 26.1093 15.5894 26.1073 15.5978 26.1073L17.1708 25.869C17.1788 25.8665 17.1873 25.8661 17.1956 25.8675C17.2039 25.869 17.2117 25.8724 17.2185 25.8775C17.2252 25.8826 17.2307 25.8892 17.2345 25.8968C17.2383 25.9044 17.2404 25.9129 17.2404 25.9214L17.295 26.2959C17.2973 26.3122 17.2932 26.3288 17.2836 26.342C17.274 26.3553 17.2596 26.3641 17.2436 26.3667L16.7289 26.4448L17.0003 28.296C17.0027 28.3042 17.0032 28.3128 17.0017 28.3212C17.0003 28.3297 16.9969 28.3376 16.9919 28.3445C16.9869 28.3513 16.9804 28.3569 16.9729 28.3608C16.9654 28.3647 16.9572 28.3667 16.9488 28.3668L16.526 28.431C16.5103 28.4328 16.4944 28.4283 16.4819 28.4184C16.4694 28.4085 16.4612 28.394 16.459 28.378L16.187 26.526Z" fill="#003049"/>
<path d="M17.4823 25.8398C17.4784 25.8238 17.4808 25.8069 17.4891 25.7927C17.4974 25.7785 17.5108 25.7682 17.5265 25.7641L17.9384 25.656C17.9462 25.6527 17.9546 25.6513 17.963 25.6519C17.9714 25.6524 17.9795 25.655 17.9868 25.6594C17.994 25.6637 18.0002 25.6697 18.0047 25.6769C18.0093 25.6841 18.0122 25.6923 18.0131 25.7008L18.581 27.9399C18.5842 27.9478 18.5856 27.9563 18.5851 27.9649C18.5845 27.9734 18.582 27.9817 18.5777 27.9891C18.5734 27.9965 18.5675 28.0028 18.5604 28.0074C18.5534 28.0121 18.5453 28.015 18.537 28.016L18.1249 28.1241C18.1092 28.1277 18.0927 28.125 18.0789 28.1167C18.065 28.1083 18.0548 28.0949 18.0504 28.0791L17.4823 25.8398Z" fill="#003049"/>
<path d="M19.8041 27.6057C19.7869 27.6125 19.7679 27.6129 19.7506 27.6066C19.7332 27.6003 19.7187 27.5879 19.7096 27.5716L18.2443 25.6721C18.2402 25.6647 18.2378 25.6563 18.2374 25.6478C18.237 25.6392 18.2385 25.6307 18.2419 25.6228C18.2453 25.615 18.2505 25.6081 18.2569 25.6026C18.2634 25.5972 18.2711 25.5933 18.2793 25.5914L18.6659 25.4394C18.6821 25.4333 18.7 25.4331 18.7164 25.4389C18.7327 25.4447 18.7466 25.456 18.7556 25.4711L19.7992 26.8433L19.6638 25.114C19.6603 25.0966 19.663 25.0785 19.6713 25.0629C19.6797 25.0473 19.6932 25.0353 19.7095 25.0288L20.0966 24.8779C20.1039 24.8736 20.1121 24.8712 20.1205 24.8708C20.1289 24.8704 20.1373 24.8719 20.145 24.8754C20.1527 24.8789 20.1595 24.8841 20.1649 24.8907C20.1703 24.8973 20.174 24.9051 20.1759 24.9134L20.348 27.3209C20.3526 27.3389 20.3504 27.3579 20.342 27.3744C20.3335 27.3908 20.3193 27.4035 20.3022 27.4099L19.8041 27.6057Z" fill="#003049"/>
<path d="M20.3608 24.7742C20.357 24.7669 20.3546 24.7589 20.3538 24.7507C20.353 24.7424 20.3538 24.7341 20.3562 24.7262C20.3586 24.7183 20.3625 24.711 20.3677 24.7046C20.3729 24.6982 20.3792 24.693 20.3864 24.6891L20.7631 24.4869C20.77 24.4817 20.7779 24.4782 20.7864 24.4767C20.7948 24.4753 20.8034 24.4759 20.8116 24.4784C20.8197 24.481 20.8272 24.4855 20.8333 24.4915C20.8394 24.4976 20.8441 24.505 20.8468 24.5132L21.9093 26.5603C21.9144 26.5673 21.9179 26.5754 21.9193 26.5839C21.9208 26.5925 21.9202 26.6013 21.9177 26.6096C21.9152 26.6178 21.9108 26.6254 21.9048 26.6317C21.8989 26.6379 21.8916 26.6426 21.8835 26.6455L21.507 26.8477C21.4924 26.8552 21.4755 26.8567 21.4599 26.8518C21.4443 26.8469 21.4312 26.836 21.4233 26.8215L20.3608 24.7742Z" fill="#003049"/>
<path d="M21.8054 24.449L21.3701 24.743C21.3566 24.752 21.3401 24.7553 21.3243 24.7521C21.3084 24.749 21.2944 24.7395 21.2853 24.726L21.0794 24.4114C21.0738 24.4051 21.0696 24.3975 21.0674 24.3892C21.0651 24.381 21.0648 24.3723 21.0664 24.364C21.0681 24.3556 21.0716 24.3477 21.0768 24.3409C21.0819 24.3342 21.0886 24.3288 21.0961 24.3251L22.4202 23.4294C22.4264 23.4236 22.4339 23.4194 22.442 23.4172C22.4502 23.4149 22.4587 23.4145 22.467 23.4162C22.4752 23.4178 22.483 23.4214 22.4897 23.4267C22.4964 23.4319 22.5017 23.4387 22.5054 23.4464L22.7108 23.7608C22.7198 23.7746 22.7231 23.7914 22.7199 23.8076C22.7168 23.8238 22.7075 23.8381 22.6941 23.8474L22.2611 24.1404L23.2809 25.6986C23.2866 25.705 23.2907 25.7126 23.2929 25.7208C23.2952 25.7291 23.2955 25.7378 23.2939 25.7462C23.2922 25.7546 23.2887 25.7625 23.2836 25.7693C23.2784 25.7761 23.2718 25.7815 23.2642 25.7852L22.9084 26.0259C22.9017 26.0304 22.8942 26.0334 22.8864 26.0349C22.8785 26.0364 22.8705 26.0362 22.8627 26.0345C22.8549 26.0328 22.8475 26.0295 22.841 26.0248C22.8345 26.0202 22.8289 26.0142 22.8247 26.0074L21.8054 24.449Z" fill="#003049"/>
<path d="M22.6906 23.2641C22.6804 23.2513 22.6755 23.2349 22.677 23.2185C22.6786 23.2021 22.6864 23.1869 22.6988 23.1763L23.0275 22.9004C23.0331 22.8941 23.0401 22.8892 23.0479 22.8861C23.0558 22.8831 23.0642 22.8819 23.0725 22.8827C23.0809 22.8835 23.0889 22.8863 23.096 22.8908C23.1031 22.8953 23.1091 22.9014 23.1135 22.9087L24.5638 24.6933C24.57 24.699 24.5749 24.7062 24.5779 24.7142C24.581 24.7221 24.5822 24.7307 24.5814 24.7392C24.5806 24.7478 24.5778 24.756 24.5733 24.7632C24.5688 24.7705 24.5628 24.7766 24.5555 24.781L24.2274 25.0567C24.2147 25.067 24.1986 25.0718 24.1825 25.0703C24.1663 25.0687 24.1514 25.0609 24.1408 25.0484L22.6906 23.2641Z" fill="#003049"/>
<path d="M25.0996 23.5879L25.7249 22.9373C25.7365 22.9257 25.7521 22.9193 25.7684 22.9193C25.7847 22.9193 25.8003 22.9257 25.8118 22.9373L26.0781 23.2017C26.0848 23.2068 26.0903 23.2134 26.0941 23.221C26.098 23.2286 26.1 23.237 26.1001 23.2455C26.1002 23.2541 26.0983 23.2625 26.0947 23.2702C26.091 23.2779 26.0857 23.2846 26.0791 23.2899L25.1127 24.2942C25.1071 24.3001 25.1004 24.3047 25.093 24.308C25.0856 24.3112 25.0777 24.3129 25.0696 24.313C25.0616 24.3132 25.0536 24.3117 25.0461 24.3086C25.0387 24.3056 25.0319 24.3011 25.0261 24.2954L23.3977 22.6771C23.3863 22.6654 23.3799 22.6496 23.3799 22.6331C23.3799 22.6166 23.3863 22.6008 23.3977 22.5891L24.3638 21.5848C24.3687 21.5778 24.3752 21.5722 24.3827 21.5683C24.3902 21.5644 24.3984 21.5623 24.4068 21.5621C24.4152 21.562 24.4236 21.5639 24.4312 21.5676C24.4387 21.5713 24.4453 21.5768 24.4505 21.5836L24.7165 21.8479C24.7277 21.8598 24.7341 21.8755 24.7343 21.892C24.7344 21.9084 24.7285 21.9243 24.7175 21.9364L24.0922 22.5867L24.4271 22.9198L24.933 22.394C24.938 22.3871 24.9445 22.3814 24.952 22.3775C24.9595 22.3736 24.9677 22.3715 24.9762 22.3714C24.9846 22.3713 24.9929 22.3731 25.0005 22.3769C25.0081 22.3806 25.0147 22.386 25.0199 22.3928L25.2858 22.6573C25.2969 22.6692 25.3032 22.685 25.3032 22.7014C25.3032 22.7178 25.2969 22.7336 25.2858 22.7455L24.7803 23.2717L25.0996 23.5879Z" fill="#003049"/>
<path d="M26.307 22.6065C26.2956 22.5986 26.287 22.5873 26.2822 22.5742L26.134 22.254C26.1288 22.2445 26.1263 22.2337 26.1267 22.2229C26.1272 22.212 26.1306 22.2015 26.1365 22.1925C26.1452 22.1825 26.1558 22.1744 26.1677 22.1689C26.3655 22.088 26.5372 21.9528 26.6638 21.7784C26.781 21.6148 26.794 21.4936 26.7642 21.4429C26.7454 21.4138 26.7211 21.3887 26.6929 21.369C26.6601 21.3473 26.622 21.335 26.5829 21.3337C26.5437 21.3323 26.5049 21.3419 26.4707 21.3613C26.3698 21.4069 26.2743 21.464 26.1861 21.5316C26.0887 21.6068 25.984 21.679 25.8762 21.7464C25.7675 21.815 25.6434 21.8543 25.5155 21.8606C25.3801 21.8676 25.2466 21.8254 25.139 21.7414C25.0531 21.6862 24.9816 21.6106 24.9306 21.5212C24.8797 21.4317 24.8509 21.331 24.8467 21.2277C24.8505 21.0065 24.9261 20.7927 25.0617 20.6197C25.1953 20.4251 25.3707 20.2639 25.5747 20.1483C25.5836 20.1425 25.5942 20.1398 25.6048 20.1405C25.6155 20.1412 25.6256 20.1453 25.6338 20.1522C25.6451 20.1628 25.655 20.1748 25.6632 20.188L25.8255 20.4627C25.8307 20.4722 25.8332 20.4829 25.8328 20.4937C25.8323 20.5046 25.8289 20.515 25.8229 20.524L25.7876 20.554C25.6733 20.6498 25.572 20.7605 25.4863 20.8834C25.3548 21.0668 25.3305 21.1938 25.4528 21.2839C25.4841 21.3032 25.5203 21.3129 25.557 21.3119C25.5937 21.3108 25.6293 21.299 25.6595 21.2779C25.7557 21.2273 25.8467 21.1671 25.9311 21.0982C26.0311 21.0212 26.1352 20.9498 26.243 20.8845C26.3556 20.8174 26.4833 20.7807 26.6139 20.7782C26.7581 20.7768 26.8984 20.8253 27.0118 20.9159C27.1005 20.9784 27.1712 21.0639 27.2166 21.1635C27.2543 21.2372 27.2788 21.3172 27.2888 21.3996C27.2921 21.6509 27.2083 21.8952 27.052 22.0899C27.0289 22.1217 26.9981 22.1621 26.9573 22.209C26.883 22.2874 26.8024 22.3592 26.7162 22.4237C26.6132 22.509 26.4955 22.574 26.3691 22.6155C26.3588 22.6196 26.3476 22.6209 26.3366 22.6193C26.3257 22.6177 26.3153 22.6133 26.3065 22.6065" fill="#003049"/>
<path d="M14.4385 13.7284H14.4373C14.3042 13.7281 14.1766 13.6741 14.0826 13.5782C13.9886 13.4824 13.9359 13.3525 13.936 13.2172C13.9362 13.0818 13.9891 12.9521 14.0833 12.8564C14.1775 12.7608 14.3052 12.707 14.4383 12.707C14.5714 12.707 14.6991 12.7608 14.7933 12.8564C14.8875 12.9521 14.9405 13.0818 14.9406 13.2172C14.9407 13.3525 14.888 13.4824 14.794 13.5782C14.7 13.6741 14.5724 13.7281 14.4393 13.7284" fill="#003049"/>
<path d="M14.4385 13.7284H14.4373C14.3042 13.7281 14.1766 13.6741 14.0826 13.5782C13.9886 13.4824 13.9359 13.3525 13.936 13.2172C13.9362 13.0818 13.9891 12.9521 14.0833 12.8564C14.1775 12.7608 14.3052 12.707 14.4383 12.707C14.5714 12.707 14.6991 12.7608 14.7933 12.8564C14.8875 12.9521 14.9405 13.0818 14.9406 13.2172C14.9407 13.3525 14.888 13.4824 14.794 13.5782C14.7 13.6741 14.5724 13.7281 14.4393 13.7284" fill="#003049"/>
<path d="M14.4385 13.7284H14.4373C14.3042 13.7281 14.1766 13.6741 14.0826 13.5782C13.9886 13.4824 13.9359 13.3525 13.936 13.2172C13.9362 13.0818 13.9891 12.9521 14.0833 12.8564C14.1775 12.7608 14.3052 12.707 14.4383 12.707C14.5714 12.707 14.6991 12.7608 14.7933 12.8564C14.8875 12.9521 14.9405 13.0818 14.9406 13.2172C14.9407 13.3525 14.888 13.4824 14.794 13.5782C14.7 13.6741 14.5724 13.7281 14.4393 13.7284" fill="#003049"/>
<path d="M14.4385 13.7284H14.4373C14.3042 13.7281 14.1766 13.6741 14.0826 13.5782C13.9886 13.4824 13.9359 13.3525 13.936 13.2172C13.9362 13.0818 13.9891 12.9521 14.0833 12.8564C14.1775 12.7608 14.3052 12.707 14.4383 12.707C14.5714 12.707 14.6991 12.7608 14.7933 12.8564C14.8875 12.9521 14.9405 13.0818 14.9406 13.2172C14.9407 13.3525 14.888 13.4824 14.794 13.5782C14.7 13.6741 14.5724 13.7281 14.4393 13.7284" fill="#003049"/>
</svg>
