<svg xmlns="http://www.w3.org/2000/svg"  viewBox="0 0 48 48" width="48px" height="48px"><path fill="#455A64" d="M32,5h-8c0,1.104-1,3-3,3s-3-1.896-3-3h-8C7.791,5,6,6.791,6,9v30c0,2.209,1.791,4,4,4h22c2.209,0,4-1.791,4-4V9C36,6.791,34.209,5,32,5"/><path fill="#FFF" d="M32,40H10c-0.552,0-1-0.448-1-1V9c0-0.552,0.448-1,1-1h22c0.552,0,1,0.448,1,1v30C33,39.552,32.552,40,32,40z"/><path fill="#90A4AE" d="M23,5c0,1.104-0.895,2-2,2s-2-0.896-2-2h-2v4c0,1.105,0.895,2,2,2h4c1.105,0,2-0.895,2-2V5H23z"/><path fill="#90A4AE" d="M21,1c-2.206,0-4,1.794-4,4s1.794,4,4,4s4-1.794,4-4S23.206,1,21,1 M21,7c-1.104,0-2-0.896-2-2s0.896-2,2-2s2,0.896,2,2S22.104,7,21,7"/><path fill="#FF9800" d="M21,31.02c-2.395,0-2.5-3.52-2.5-3.52v-3h5v3C23.5,27.5,23.395,31.02,21,31.02"/><path fill="#FFA726" d="M26.5 21.5c0 .552-.448 1-1 1s-1-.448-1-1 .448-1 1-1S26.5 20.948 26.5 21.5M17.5 21.5c0 .552-.448 1-1 1s-1-.448-1-1 .448-1 1-1S17.5 20.948 17.5 21.5"/><path fill="#FFB74D" d="M25.5,18.5c0-3.818-9-2.485-9,0V22c0,2.485,2.015,4.5,4.5,4.5s4.5-2.015,4.5-4.5V18.5z"/><path fill="#424242" d="M21,14c-3.038,0-5,2.462-5,5.5v1.142l1,0.858V19l6-2l2,2v2.5l1-0.87V19.5c0-2.012-0.52-4.007-3-4.5l-0.5-1H21z"/><path fill="#784719" d="M22.5 21.5c0 .276.224.5.5.5.275 0 .5-.224.5-.5S23.275 21 23 21C22.724 21 22.5 21.224 22.5 21.5M18.5 21.5c0 .276.224.5.5.5.275 0 .5-.224.5-.5S19.275 21 19 21C18.724 21 18.5 21.224 18.5 21.5"/><path fill="#2196F3" d="M23.5,27.5L23.5,27.5c0,0-0.877,1-2.5,1c-1.624,0-2.5-1-2.5-1S13,28.493,13,34h16C29,28.513,23.5,27.5,23.5,27.5"/><path fill="#F44336" d="M42,37c0,5.523-4.477,10-10,10s-10-4.477-10-10s4.477-10,10-10S42,31.477,42,37"/><g><path fill="#FFF" d="M30.5 31H33.5V43H30.5z" transform="rotate(134.999 32 37)"/><path fill="#FFF" d="M30.501 31H33.501000000000005V42.999H30.501z" transform="rotate(-134.999 32 37)"/></g></svg>