<svg fill="#000000" xmlns="http://www.w3.org/2000/svg"  viewBox="0 0 50 50" width="50px" height="50px"><path d="M 25.15625 3 C 24.671875 2.925781 24.214844 3.222656 24.0625 3.6875 C 18.65625 19.898438 6.621094 27.054688 6.5 27.125 C 6.160156 27.324219 5.957031 27.703125 6 28.09375 C 6.042969 28.484375 6.3125 28.816406 6.6875 28.9375 L 16 32 L 23.78125 32 C 23.535156 31.722656 23.320313 31.390625 23.1875 31.03125 C 22.847656 30.109375 22.972656 29.085938 23.53125 28.28125 C 23.6875 28.035156 27.652344 21.550781 25.03125 7.5625 C 24.835938 6.515625 25.226563 5.445313 26 4.75 L 26 4 C 26 3.511719 25.640625 3.078125 25.15625 3 Z M 27.78125 6 C 27.679688 6.019531 27.59375 6.070313 27.5 6.125 C 27.125 6.339844 26.921875 6.765625 27 7.1875 C 29.867188 22.480469 25.234375 29.339844 25.1875 29.40625 C 24.992188 29.679688 24.945313 30.027344 25.0625 30.34375 C 25.179688 30.660156 25.425781 30.886719 25.75 30.96875 L 29.78125 32 L 43.09375 32 C 42.984375 27.625 41.230469 17.253906 28.65625 6.25 C 28.414063 6.035156 28.085938 5.9375 27.78125 6 Z M 6.40625 34 C 5.0625 34.101563 4 34.59375 4 36 C 4 37.765625 5.15625 39.300781 6.875 40.625 C 7.328125 40.363281 7.847656 40.21875 8.375 40.21875 C 9.042969 40.21875 9.722656 40.460938 10.25 40.875 C 11.179688 41.605469 12.816406 41.9375 13.9375 41.9375 C 15.058594 41.9375 16.667969 41.601563 17.59375 40.875 C 18.121094 40.457031 18.792969 40.21875 19.46875 40.21875 C 20.140625 40.21875 20.789063 40.460938 21.3125 40.875 C 22.246094 41.605469 23.878906 41.9375 25 41.9375 C 26.121094 41.9375 27.757813 41.605469 28.6875 40.875 C 29.214844 40.460938 29.859375 40.21875 30.53125 40.21875 C 31.203125 40.21875 31.882813 40.460938 32.40625 40.875 C 33.339844 41.605469 34.941406 41.9375 36.0625 41.9375 C 37.183594 41.9375 38.824219 41.605469 39.75 40.875 C 40.277344 40.457031 40.953125 40.21875 41.625 40.21875 C 41.96875 40.21875 42.304688 40.292969 42.625 40.40625 C 43.699219 39.640625 44.757813 38.753906 45.75 37.6875 C 46.523438 36.855469 47.402344 35.902344 46.96875 34.90625 C 46.5625 33.976563 45.382813 34 45 34 L 7 34 C 6.800781 34 6.597656 33.984375 6.40625 34 Z M 8.375 42.21875 C 8.15625 42.21875 7.960938 42.292969 7.78125 42.4375 C 6.378906 43.539063 4.238281 43.9375 2.84375 43.9375 C 2.289063 43.9375 1.757813 43.90625 1.15625 43.8125 C 0.617188 43.730469 0.0859375 44.109375 0 44.65625 C -0.0859375 45.203125 0.296875 45.699219 0.84375 45.78125 C 1.546875 45.890625 2.1875 45.9375 2.84375 45.9375 C 4.441406 45.9375 6.640625 45.527344 8.375 44.4375 C 10.109375 45.527344 12.339844 45.9375 13.9375 45.9375 C 15.535156 45.9375 17.734375 45.527344 19.46875 44.4375 C 21.203125 45.527344 23.402344 45.9375 25 45.9375 C 26.597656 45.9375 28.796875 45.527344 30.53125 44.4375 C 32.265625 45.527344 34.464844 45.9375 36.0625 45.9375 C 37.660156 45.9375 39.890625 45.527344 41.625 44.4375 C 43.359375 45.527344 45.558594 45.9375 47.15625 45.9375 C 47.949219 45.9375 48.671875 45.832031 49.34375 45.59375 C 49.863281 45.410156 50.121094 44.832031 49.9375 44.3125 C 49.753906 43.792969 49.175781 43.503906 48.65625 43.6875 C 48.203125 43.847656 47.71875 43.9375 47.15625 43.9375 C 45.761719 43.9375 43.617188 43.539063 42.21875 42.4375 C 41.855469 42.152344 41.363281 42.152344 41 42.4375 C 39.601563 43.539063 37.457031 43.9375 36.0625 43.9375 C 34.667969 43.9375 32.558594 43.542969 31.15625 42.4375 C 30.796875 42.152344 30.265625 42.152344 29.90625 42.4375 C 28.503906 43.539063 26.394531 43.9375 25 43.9375 C 23.605469 43.9375 21.464844 43.542969 20.0625 42.4375 C 19.699219 42.152344 19.207031 42.152344 18.84375 42.4375 C 17.445313 43.539063 15.332031 43.9375 13.9375 43.9375 C 12.542969 43.9375 10.402344 43.542969 9 42.4375 C 8.820313 42.296875 8.59375 42.21875 8.375 42.21875 Z M 8.375 46.21875 C 8.15625 46.21875 7.960938 46.292969 7.78125 46.4375 C 6.378906 47.539063 4.238281 47.9375 2.84375 47.9375 C 2.289063 47.9375 1.757813 47.90625 1.15625 47.8125 C 0.617188 47.730469 0.0859375 48.109375 0 48.65625 C -0.0859375 49.203125 0.296875 49.699219 0.84375 49.78125 C 1.546875 49.890625 2.1875 49.9375 2.84375 49.9375 C 4.441406 49.9375 6.640625 49.527344 8.375 48.4375 C 10.109375 49.527344 12.339844 49.9375 13.9375 49.9375 C 15.535156 49.9375 17.734375 49.527344 19.46875 48.4375 C 21.203125 49.527344 23.402344 49.9375 25 49.9375 C 26.597656 49.9375 28.796875 49.527344 30.53125 48.4375 C 32.265625 49.527344 34.464844 49.9375 36.0625 49.9375 C 37.660156 49.9375 39.890625 49.527344 41.625 48.4375 C 43.359375 49.527344 45.558594 49.9375 47.15625 49.9375 C 47.949219 49.9375 48.671875 49.832031 49.34375 49.59375 C 49.863281 49.410156 50.121094 48.832031 49.9375 48.3125 C 49.753906 47.792969 49.175781 47.5 48.65625 47.6875 C 48.203125 47.847656 47.71875 47.9375 47.15625 47.9375 C 45.761719 47.9375 43.617188 47.539063 42.21875 46.4375 C 41.855469 46.152344 41.363281 46.152344 41 46.4375 C 39.601563 47.539063 37.457031 47.9375 36.0625 47.9375 C 34.667969 47.9375 32.558594 47.542969 31.15625 46.4375 C 30.796875 46.152344 30.265625 46.152344 29.90625 46.4375 C 28.503906 47.539063 26.394531 47.9375 25 47.9375 C 23.605469 47.9375 21.464844 47.542969 20.0625 46.4375 C 19.699219 46.152344 19.207031 46.152344 18.84375 46.4375 C 17.445313 47.539063 15.332031 47.9375 13.9375 47.9375 C 12.542969 47.9375 10.402344 47.542969 9 46.4375 C 8.820313 46.296875 8.59375 46.21875 8.375 46.21875 Z"/></svg>