<svg fill="#000000" xmlns="http://www.w3.org/2000/svg"  viewBox="0 0 50 50" width="50px" height="50px"><path d="M 34.984375 3.9863281 A 1.0001 1.0001 0 0 0 34 5 L 34 7 A 1.0001 1.0001 0 0 0 34.001953 7.0585938 C 29.830165 7.5193709 26.520251 10.828477 26.058594 15 L 24 15 A 1.0001 1.0001 0 0 0 23 16 L 23 23 L 18.183594 23 C 18.532778 22.076417 18.762535 21.066616 18.861328 20 L 19 20 A 1.0001 1.0001 0 1 0 19 18 L 18.128906 18 C 18.513735 17.07716 18.76109 16.082209 18.861328 15 L 19 15 A 1.0001 1.0001 0 1 0 19 13 L 18.128906 13 C 18.513735 12.07716 18.76109 11.082209 18.861328 10 L 19 10 A 1.0001 1.0001 0 1 0 19 8 L 18 8 L 5 8 L 4 8 A 1.0001 1.0001 0 1 0 4 10 L 4.1386719 10 C 4.2389098 11.082209 4.4862644 12.07716 4.8710938 13 L 4 13 A 1.0001 1.0001 0 1 0 4 15 L 4.1386719 15 C 4.2389098 16.082209 4.4862644 17.07716 4.8710938 18 L 4 18 A 1.0001 1.0001 0 1 0 4 20 L 4.1386719 20 C 4.2374654 21.066616 4.4672216 22.076417 4.8164062 23 L 1 23 C 0.447 23 0 23.447 0 24 L 0 34 C 0 36.757 2.243 39 5 39 C 6.641 39 8.088 38.19375 9 36.96875 C 9.912 38.19375 11.359 39 13 39 C 14.641 39 16.088 38.19375 17 36.96875 C 17.912 38.19375 19.359 39 21 39 C 22.641 39 24.088 38.19375 25 36.96875 C 25.912 38.19375 27.359 39 29 39 C 30.641 39 32.088 38.19375 33 36.96875 C 33.912 38.19375 35.359 39 37 39 C 38.641 39 40.088 38.19375 41 36.96875 C 41.912 38.19375 43.359 39 45 39 C 47.757 39 50 36.757 50 34 L 50 24 C 50 23.447 49.553 23 49 23 L 47 23 L 47 16 A 1.0001 1.0001 0 0 0 46 15 L 43.941406 15 C 43.479749 10.828477 40.169835 7.5193709 35.998047 7.0585938 A 1.0001 1.0001 0 0 0 36 7 L 36 5 A 1.0001 1.0001 0 0 0 34.984375 3.9863281 z M 6.1386719 10 L 16.861328 10 C 16.731037 11.132001 16.432011 12.153631 15.958984 13 L 7.0410156 13 C 6.5679889 12.153631 6.2689629 11.132001 6.1386719 10 z M 6.1386719 15 L 6.4082031 15 L 16.591797 15 L 16.861328 15 C 16.731037 16.132001 16.432011 17.153631 15.958984 18 L 7.0410156 18 C 6.5679889 17.153631 6.2689629 16.132001 6.1386719 15 z M 25 17 L 45 17 L 45 23 L 25 23 L 25 17 z M 6.1386719 20 L 6.4082031 20 L 16.591797 20 L 16.861328 20 C 16.731037 21.132001 16.432011 22.153631 15.958984 23 L 7.0410156 23 C 6.5679889 22.153631 6.2689629 21.132001 6.1386719 20 z M 4 40.919922 L 4 45 C 4 45.55 4.45 46 5 46 C 5.55 46 6 45.55 6 45 L 6 40.929688 C 5.67 40.979688 5.34 41 5 41 C 4.66 41 4.33 40.979922 4 40.919922 z M 46 40.919922 C 45.67 40.979922 45.34 41 45 41 C 44.66 41 44.33 40.979687 44 40.929688 L 44 45 C 44 45.55 44.45 46 45 46 C 45.55 46 46 45.55 46 45 L 46 40.919922 z"/></svg>