<svg fill="#000000" xmlns="http://www.w3.org/2000/svg"  viewBox="0 0 50 50" width="100px" height="100px"><path d="M 1.3125 0.09375 L 0.09375 1.6875 C 18.941406 16.214844 4 23.253906 4 31.59375 C 4 33.226563 4.359375 34.542969 5.125 35.71875 C 5.890625 36.894531 6.972656 37.957031 8.46875 39.5 L 9.90625 38.09375 C 8.402344 36.539063 7.398438 35.523438 6.8125 34.625 C 6.226563 33.726563 6 32.960938 6 31.59375 C 6 26.132813 20.867188 15.167969 1.3125 0.09375 Z M 16.4375 2.9375 C 16.191406 2.945313 15.945313 3 15.71875 3.125 C 14.820313 3.523438 14.3125 4.726563 14.8125 5.625 L 17.90625 12.3125 C 18.007813 12.511719 18.207031 12.804688 18.40625 12.90625 L 21.90625 16 C 22.507813 16.5 22.3125 16.40625 22.8125 16.90625 L 18 27.59375 C 17.898438 27.695313 17.914063 27.800781 17.8125 28 L 15.8125 34.5 L 7.46875 42.6875 C 6.570313 43.585938 6.570313 45.097656 7.46875 46 C 7.867188 46.398438 8.460938 46.6875 9.0625 46.6875 C 9.664063 46.6875 10.25 46.5 10.75 46 L 11.5625 45.3125 L 20.125 36.84375 L 21.84375 31.875 C 22.023438 31.355469 22.601563 31.070313 23.125 31.25 C 23.648438 31.429688 23.929688 32.007813 23.75 32.53125 L 21.9375 37.71875 C 21.886719 37.863281 21.828125 38.015625 21.71875 38.125 L 13.3125 46.40625 C 12.742188 47.304688 12.847656 48.535156 13.625 49.3125 C 14.125 49.8125 14.617188 50 15.21875 50 C 15.820313 50 16.414063 49.8125 16.8125 49.3125 L 25.3125 41 C 25.511719 40.800781 25.710938 40.488281 25.8125 40.1875 L 28.1875 33.90625 L 34.1875 23 L 38.1875 23.59375 C 38.386719 23.59375 38.488281 23.6875 38.6875 23.6875 L 38.90625 23.6875 L 48.28125 22.6875 C 49.28125 22.585938 50.101563 21.695313 50 20.59375 C 49.902344 19.59375 49.003906 18.804688 47.90625 18.90625 L 38.90625 19.8125 L 33.40625 18.3125 C 29.40625 17.3125 27.707031 15.988281 24.40625 13.1875 L 21.1875 10.40625 L 18.21875 4.03125 C 17.917969 3.355469 17.171875 2.910156 16.4375 2.9375 Z M 33 6 C 30.238281 6 28 8.238281 28 11 C 28 13.761719 30.238281 16 33 16 C 35.761719 16 38 13.761719 38 11 C 38 8.238281 35.761719 6 33 6 Z"/></svg>