<svg fill="#000000" xmlns="http://www.w3.org/2000/svg"  viewBox="0 0 80 80" width="50px" height="50px"><path d="M 9 16 C 5.144531 16 2 19.144531 2 23 L 2 59.929688 L 15.0625 60.875 C 15.492188 64.316406 18.441406 67 22 67 C 25.515625 67 28.429688 64.382813 28.921875 61 L 54.078125 61 C 54.570313 64.382813 57.484375 67 61 67 C 64.515625 67 67.429688 64.382813 67.921875 61 L 76 61 C 77.09375 61 78 60.09375 78 59 L 78 41.597656 L 72.199219 21.09375 C 71.34375 18.085938 68.589844 16 65.464844 16 Z M 9 18 L 65.464844 18 C 67.707031 18 69.664063 19.480469 70.273438 21.640625 L 71.792969 27 L 4 27 L 4 23 C 4 20.226563 6.226563 18 9 18 Z M 14 19 C 13.449219 19 13 19.449219 13 20 C 13 20.550781 13.449219 21 14 21 C 14.550781 21 15 20.550781 15 20 C 15 19.449219 14.550781 19 14 19 Z M 26 19 C 25.449219 19 25 19.449219 25 20 C 25 20.550781 25.449219 21 26 21 C 26.550781 21 27 20.550781 27 20 C 27 19.449219 26.550781 19 26 19 Z M 38 19 C 37.449219 19 37 19.449219 37 20 C 37 20.550781 37.449219 21 38 21 C 38.550781 21 39 20.550781 39 20 C 39 19.449219 38.550781 19 38 19 Z M 50 19 C 49.449219 19 49 19.449219 49 20 C 49 20.550781 49.449219 21 50 21 C 50.550781 21 51 20.550781 51 20 C 51 19.449219 50.550781 19 50 19 Z M 62 19 C 61.449219 19 61 19.449219 61 20 C 61 20.550781 61.449219 21 62 21 C 62.550781 21 63 20.550781 63 20 C 63 19.449219 62.550781 19 62 19 Z M 14 23 C 13.449219 23 13 23.449219 13 24 C 13 24.550781 13.449219 25 14 25 C 14.550781 25 15 24.550781 15 24 C 15 23.449219 14.550781 23 14 23 Z M 26 23 C 25.449219 23 25 23.449219 25 24 C 25 24.550781 25.449219 25 26 25 C 26.550781 25 27 24.550781 27 24 C 27 23.449219 26.550781 23 26 23 Z M 38 23 C 37.449219 23 37 23.449219 37 24 C 37 24.550781 37.449219 25 38 25 C 38.550781 25 39 24.550781 39 24 C 39 23.449219 38.550781 23 38 23 Z M 50 23 C 49.449219 23 49 23.449219 49 24 C 49 24.550781 49.449219 25 50 25 C 50.550781 25 51 24.550781 51 24 C 51 23.449219 50.550781 23 50 23 Z M 62 23 C 61.449219 23 61 23.449219 61 24 C 61 24.550781 61.449219 25 62 25 C 62.550781 25 63 24.550781 63 24 C 63 23.449219 62.550781 23 62 23 Z M 4 29 L 72.359375 29 L 76 41.875 L 76 47.410156 C 74.488281 46.671875 71.589844 45.285156 67.511719 43.578125 C 62.101563 41.3125 55.929688 39 52 39 L 4 39 Z M 14 31 C 13.449219 31 13 31.449219 13 32 C 13 32.550781 13.449219 33 14 33 C 14.550781 33 15 32.550781 15 32 C 15 31.449219 14.550781 31 14 31 Z M 26 31 C 25.449219 31 25 31.449219 25 32 C 25 32.550781 25.449219 33 26 33 C 26.550781 33 27 32.550781 27 32 C 27 31.449219 26.550781 31 26 31 Z M 38 31 C 37.449219 31 37 31.449219 37 32 C 37 32.550781 37.449219 33 38 33 C 38.550781 33 39 32.550781 39 32 C 39 31.449219 38.550781 31 38 31 Z M 50 31 C 49.449219 31 49 31.449219 49 32 C 49 32.550781 49.449219 33 50 33 C 50.550781 33 51 32.550781 51 32 C 51 31.449219 50.550781 31 50 31 Z M 62 31 C 61.449219 31 61 31.449219 61 32 C 61 32.550781 61.449219 33 62 33 C 62.550781 33 63 32.550781 63 32 C 63 31.449219 62.550781 31 62 31 Z M 14 35 C 13.449219 35 13 35.449219 13 36 C 13 36.550781 13.449219 37 14 37 C 14.550781 37 15 36.550781 15 36 C 15 35.449219 14.550781 35 14 35 Z M 26 35 C 25.449219 35 25 35.449219 25 36 C 25 36.550781 25.449219 37 26 37 C 26.550781 37 27 36.550781 27 36 C 27 35.449219 26.550781 35 26 35 Z M 38 35 C 37.449219 35 37 35.449219 37 36 C 37 36.550781 37.449219 37 38 37 C 38.550781 37 39 36.550781 39 36 C 39 35.449219 38.550781 35 38 35 Z M 50 35 C 49.449219 35 49 35.449219 49 36 C 49 36.550781 49.449219 37 50 37 C 50.550781 37 51 36.550781 51 36 C 51 35.449219 50.550781 35 50 35 Z M 62 35 C 61.449219 35 61 35.449219 61 36 C 61 36.550781 61.449219 37 62 37 C 62.550781 37 63 36.550781 63 36 C 63 35.449219 62.550781 35 62 35 Z M 62 39 C 61.449219 39 61 39.449219 61 40 C 61 40.550781 61.449219 41 62 41 C 62.550781 41 63 40.550781 63 40 C 63 39.449219 62.550781 39 62 39 Z M 4 41 L 52 41 C 55.070313 41 61.398438 43.1875 66.738281 45.421875 C 71.570313 47.445313 75.257813 49.261719 76 49.628906 L 76 59 L 67.921875 59 C 67.429688 55.617188 64.515625 53 61 53 C 57.484375 53 54.570313 55.617188 54.078125 59 L 28.921875 59 C 28.429688 55.617188 25.515625 53 22 53 C 18.53125 53 15.644531 55.550781 15.097656 58.871094 L 4 58.070313 Z M 22 55 C 24.773438 55 27 57.226563 27 60 C 27 62.773438 24.773438 65 22 65 C 19.226563 65 17 62.773438 17 60 C 17 57.226563 19.226563 55 22 55 Z M 61 55 C 63.773438 55 66 57.226563 66 60 C 66 62.773438 63.773438 65 61 65 C 58.226563 65 56 62.773438 56 60 C 56 57.226563 58.226563 55 61 55 Z M 22 59 C 21.449219 59 21 59.449219 21 60 C 21 60.550781 21.449219 61 22 61 C 22.550781 61 23 60.550781 23 60 C 23 59.449219 22.550781 59 22 59 Z M 61 59 C 60.449219 59 60 59.449219 60 60 C 60 60.550781 60.449219 61 61 61 C 61.550781 61 62 60.550781 62 60 C 62 59.449219 61.550781 59 61 59 Z"/></svg>