<svg fill="#000000" xmlns="http://www.w3.org/2000/svg"  viewBox="0 0 50 50" width="50px" height="50px"><path d="M 11.5 3 C 9.019 3 7 5.019 7 7.5 C 7 9.981 9.019 12 11.5 12 C 13.981 12 16 9.981 16 7.5 C 16 5.019 13.981 3 11.5 3 z M 47.019531 3.0527344 A 1.0001 1.0001 0 0 0 46.320312 3.328125 L 31.863281 16.707031 C 31.485351 15.572434 30.345377 14.830738 29.119141 15.029297 L 23.556641 15.884766 C 20.390641 13.843766 20.325156 13.80525 20.285156 13.78125 C 19.386156 13.24225 18.369688 12.982953 17.304688 13.001953 C 16.915688 13.012953 16.526313 13.065437 16.195312 13.148438 L 10.261719 14.496094 C 8.3207187 14.912094 6.5934844 16.108297 5.5214844 17.779297 L 2.3964844 22.650391 C 2.0174844 23.241391 1.9029844 23.964531 2.0839844 24.644531 L 4.0839844 32.144531 C 4.3400076 33.102692 5.1191479 33.775828 6.03125 33.951172 L 2.1113281 41.541016 A 1.000202 1.000202 0 1 0 3.8886719 42.458984 L 8.4726562 33.582031 L 30.710938 20.466797 A 1.0001 1.0001 0 0 0 30.882812 20.339844 L 47.679688 4.796875 A 1.0001 1.0001 0 0 0 47.019531 3.0527344 z M 47.003906 11.998047 A 1.0001 1.0001 0 0 0 46.835938 12.013672 C 46.835938 12.013672 45.006947 12.345289 43.197266 14.015625 C 41.387584 15.685961 39.525238 18.707119 39.005859 23.900391 A 1.0001 1.0001 0 1 0 40.994141 24.097656 C 41.474762 19.291928 43.112416 16.813789 44.552734 15.484375 C 45.993053 14.154961 47.164064 13.986328 47.164062 13.986328 A 1.0001 1.0001 0 0 0 47.003906 11.998047 z M 46.980469 16.992188 A 1.0001 1.0001 0 0 0 46.445312 17.166016 C 46.445312 17.166016 46.088972 17.426569 45.744141 17.867188 C 45.399309 18.307806 44.978571 18.986191 44.572266 20.001953 C 43.759656 22.033478 43 25.407138 43 30.998047 L 43 33.998047 A 1.0001 1.0001 0 1 0 45 33.998047 L 45 30.998047 C 45 25.588956 45.740344 22.464569 46.427734 20.746094 C 46.771429 19.886856 47.100691 19.377741 47.318359 19.099609 C 47.536028 18.821478 47.554687 18.830078 47.554688 18.830078 A 1.0001 1.0001 0 0 0 46.980469 16.992188 z M 18.527344 18.976562 L 21.644531 20.601562 C 22.158531 20.933563 22.776859 21.068656 23.380859 20.972656 L 26.8125 20.445312 L 20.148438 24.375 L 18.527344 18.976562 z M 9.4550781 21.863281 L 11.703125 29.355469 L 8.9375 30.986328 C 8.9282874 30.942617 8.9276694 30.899138 8.9160156 30.855469 L 7.1992188 24.421875 L 9.4550781 21.863281 z M 25.267578 25.998047 L 14.402344 32.40625 C 15.144344 32.78125 15.978469 32.995 16.855469 33 C 17.011469 33 17.168937 32.995469 17.335938 32.980469 C 17.411938 32.974469 26.757812 31.998047 26.757812 31.998047 L 30.878906 36.121094 C 31.464906 36.707094 32.232 37 33 37 C 33.768 37 34.535094 36.707094 35.121094 36.121094 C 36.293094 34.950094 36.293094 33.050906 35.121094 31.878906 L 30.414062 27.171875 C 29.659063 26.415875 28.653938 25.998047 27.585938 25.998047 L 25.267578 25.998047 z M 39.984375 26.984375 A 1.0001 1.0001 0 0 0 39 27.998047 C 39 30.797221 38.74628 34.457729 37.675781 37.703125 C 36.605282 40.948521 34.777984 43.720429 31.605469 45.080078 A 1.0001 1.0001 0 1 0 32.394531 46.917969 C 36.222016 45.277618 38.394718 41.905932 39.574219 38.330078 C 40.75372 34.754224 41 30.913873 41 27.998047 A 1.0001 1.0001 0 0 0 39.984375 26.984375 z M 24.076172 34.289062 C 19.769172 34.738062 17.565625 34.968656 17.515625 34.972656 C 17.283625 34.993656 17.068469 35 16.855469 35 C 16.743469 34.999 16.635437 34.977656 16.523438 34.972656 L 19 37.667969 L 19 44 C 19 45.657 20.343 47 22 47 C 23.657 47 25 45.657 25 44 L 25 36.5 C 25 35.817 24.766797 35.156 24.341797 34.625 C 24.336797 34.619 24.236172 34.491062 24.076172 34.289062 z M 43.984375 36.984375 A 1.0001 1.0001 0 0 0 43 37.998047 C 43 40.83138 42.301785 42.635697 41.642578 43.734375 C 40.983371 44.833053 40.445312 45.166016 40.445312 45.166016 A 1.0001 1.0001 0 1 0 41.554688 46.830078 C 41.554688 46.830078 42.516629 46.164994 43.357422 44.763672 C 44.198215 43.36235 45 41.164714 45 37.998047 A 1.0001 1.0001 0 0 0 43.984375 36.984375 z"/></svg>