<?xml version="1.0"?><svg fill="#000000" xmlns="http://www.w3.org/2000/svg"  viewBox="0 0 50 50" width="50px" height="50px">    <path d="M 25 0.03125 C 24.683594 0.03125 24.375 0.171875 24.1875 0.4375 L 17.46875 10 L 32.53125 10 L 25.8125 0.4375 C 25.625 0.171875 25.316406 0.03125 25 0.03125 Z M 4.5 6 C 4.085938 6 3.710938 6.238281 3.5625 6.625 L 0.3125 15 L 8.6875 15 L 5.4375 6.625 C 5.289063 6.238281 4.914063 6 4.5 6 Z M 45.5 6 C 45.089844 6 44.710938 6.238281 44.5625 6.625 L 41.3125 15 L 49.6875 15 L 46.4375 6.625 C 46.289063 6.238281 45.910156 6 45.5 6 Z M 17 12 L 17 23 L 22 23 L 22 19 C 22 17.300781 23.300781 16 25 16 C 26.699219 16 28 17.300781 28 19 L 28 23 L 33 23 L 33 12 Z M 13 13 C 12.585938 13 12.210938 13.265625 12.0625 13.65625 L 10.0625 18.9375 C 10.019531 19.050781 10 19.191406 10 19.3125 L 10 23 L 16 23 L 16 19.3125 C 16 19.191406 15.980469 19.050781 15.9375 18.9375 L 13.9375 13.65625 C 13.789063 13.265625 13.414063 13 13 13 Z M 37 13 C 36.585938 13 36.210938 13.265625 36.0625 13.65625 L 34.0625 18.9375 C 34.019531 19.050781 34 19.191406 34 19.3125 L 34 23 L 40 23 L 40 19.3125 C 40 19.191406 39.980469 19.050781 39.9375 18.9375 L 37.9375 13.65625 C 37.789063 13.265625 37.414063 13 37 13 Z M 0 17 L 0 49 C 0 49.554688 0.449219 50 1 50 L 13.90625 50 C 14.457031 50 14.90625 49.554688 14.90625 49 C 14.90625 41.550781 22.984375 36.492188 25 35.34375 C 27.015625 36.488281 35.09375 41.535156 35.09375 49 C 35.09375 49.554688 35.539063 50 36.09375 50 L 49 50 C 49.554688 50 50 49.554688 50 49 L 50 17 L 41 17 L 41 24 L 9 24 L 9 17 Z M 10.3125 30.5 L 11.1875 31.40625 C 11.789063 32.007813 12.1875 32.886719 12.1875 33.6875 L 12.1875 37.90625 L 8.40625 37.90625 L 8.40625 33.6875 C 8.40625 32.789063 8.707031 32.007813 9.40625 31.40625 Z M 39.8125 30.5 L 40.6875 31.40625 C 41.289063 32.007813 41.6875 32.886719 41.6875 33.6875 L 41.6875 37.90625 L 37.90625 37.90625 L 37.90625 33.6875 C 37.90625 32.789063 38.207031 32.007813 38.90625 31.40625 Z"/></svg>