<svg fill="#000000" xmlns="http://www.w3.org/2000/svg"  viewBox="0 0 30 30" width="50px" height="50px"><path d="M 8 3 A 1.0001 1.0001 0 1 0 8 5 L 11 5 C 11.666667 5 12.530651 5.3889236 13.195312 5.8320312 C 13.534456 6.0581266 13.808233 6.2770359 14 6.4414062 L 14 10 L 16 10 L 16 6.4414062 C 16.191767 6.2770359 16.465544 6.0581265 16.804688 5.8320312 C 17.469349 5.3889237 18.333333 5 19 5 L 22 5 A 1.0001 1.0001 0 1 0 22 3 L 19 3 C 17.666667 3 16.530651 3.6110764 15.695312 4.1679688 C 15.408797 4.358979 15.211328 4.5269929 15 4.6972656 C 14.788672 4.5269929 14.591203 4.358979 14.304688 4.1679688 C 13.469349 3.6110763 12.333333 3 11 3 L 8 3 z M 14 12 L 14 20.271484 A 2 2 0 0 0 13.269531 21 L 10 21 L 10 19 C 10 17.895 9.105 17 8 17 C 6.895 17 6 17.895 6 19 L 6 25 C 6 26.105 6.895 27 8 27 C 9.105 27 10 26.105 10 25 L 10 23 L 13.271484 23 A 2 2 0 0 0 15 24 A 2 2 0 0 0 16.730469 23 L 20 23 L 20 25 C 20 26.105 20.895 27 22 27 C 23.105 27 24 26.105 24 25 L 24 19 C 24 17.895 23.105 17 22 17 C 20.895 17 20 17.895 20 19 L 20 21 L 16.728516 21 A 2 2 0 0 0 16 20.269531 L 16 12 L 14 12 z"/></svg>