<svg fill="#000000" xmlns="http://www.w3.org/2000/svg"  viewBox="0 0 50 50" width="50px" height="50px"><path d="M 36 3.0585938 C 33.519 3.0585938 31.5 5.0775938 31.5 7.5585938 C 31.5 10.039594 33.519 12.058594 36 12.058594 C 37.59 12.058594 38.982203 11.224563 39.783203 9.9765625 C 39.930203 10.376563 40.14575 10.765844 40.46875 11.089844 C 41.29275 11.913844 42.541266 12.058594 43.322266 12.058594 C 43.723266 12.058594 44.001203 12.019625 44.033203 12.015625 L 44.402344 11.962891 L 44.455078 11.59375 C 44.469078 11.49875 44.776297 9.2743437 43.529297 8.0273438 C 42.618297 7.1153438 41.191219 7.0364531 40.449219 7.0644531 C 40.199219 4.8164531 38.312 3.0585938 36 3.0585938 z M 36 13.958984 C 35.363 13.958984 34.742672 14.015187 34.138672 14.117188 L 36 18.460938 L 37.861328 14.119141 C 37.257328 14.017141 36.637 13.958984 36 13.958984 z M 39.816406 14.634766 L 36.919922 21.392578 C 36.761922 21.761578 36.4 22 36 22 C 35.6 22 35.237078 21.762531 35.080078 21.394531 L 32.185547 14.636719 C 28.606547 15.962719 26.083984 19.093281 26.083984 22.738281 L 26.083984 28 L 30 28 L 30 26 C 30 25.447 30.448 25 31 25 C 31.552 25 32 25.447 32 26 L 32 28 L 40 28 L 40 26 C 40 25.447 40.448 25 41 25 C 41.552 25 42 25.447 42 26 L 42 28 L 45.917969 28 L 45.917969 22.736328 C 45.917969 19.092328 43.395406 15.961766 39.816406 14.634766 z M 6 18 C 5.596 18 5.2311719 18.243188 5.0761719 18.617188 C 4.9211719 18.991188 5.0069687 19.421031 5.2929688 19.707031 L 5.5859375 20 L 4 20 C 3.448 20 3 20.447 3 21 C 3 21.553 3.448 22 4 22 L 5 22 L 5 28 L 7 28 L 7 22 L 20 22 L 20 28 L 22 28 L 22 22 L 23 22 C 23.552 22 24 21.553 24 21 C 24 20.447 23.552 20 23 20 L 13.414062 20 L 13.707031 19.707031 C 13.993031 19.421031 14.078828 18.991187 13.923828 18.617188 C 13.768828 18.243188 13.404 18 13 18 L 6 18 z M 10 26 C 9.596 26 9.2311719 26.243188 9.0761719 26.617188 C 8.9211719 26.991188 9.0069687 27.421031 9.2929688 27.707031 L 9.5859375 28 L 17.414062 28 L 17.707031 27.707031 C 17.993031 27.421031 18.078828 26.991187 17.923828 26.617188 C 17.768828 26.243188 17.404 26 17 26 L 10 26 z M 3 30 C 2.448 30 2 30.447 2 31 C 2 31.553 2.448 32 3 32 L 4 32 L 4 46 C 4 46.553 4.448 47 5 47 L 45 47 C 45.552 47 46 46.553 46 46 L 46 32 L 47 32 C 47.552 32 48 31.553 48 31 C 48 30.447 47.552 30 47 30 L 3 30 z"/></svg>