<svg fill="#000000" xmlns="http://www.w3.org/2000/svg"  viewBox="0 0 50 50" width="50px" height="50px"><path d="M 29.90625 2.96875 C 29.863281 2.976563 29.820313 2.988281 29.78125 3 C 29.316406 3.105469 28.988281 3.523438 29 4 L 29 5 C 28.96875 5 28.9375 5 28.90625 5 C 28.875 5 28.84375 5 28.8125 5 C 28.261719 5.050781 27.855469 5.542969 27.90625 6.09375 C 27.957031 6.644531 28.449219 7.050781 29 7 L 29 10 L 27 10 C 26.96875 10 26.9375 10 26.90625 10 C 26.875 10 26.84375 10 26.8125 10 C 26.335938 10.089844 25.992188 10.511719 26 11 L 26 14 L 23 14 C 22.96875 14 22.9375 14 22.90625 14 C 22.484375 14.039063 22.136719 14.339844 22.03125 14.75 L 18.21875 29 L 3 29 C 2.445313 29 2 29.449219 2 30 L 2 36 C 2 36.214844 2.058594 36.421875 2.1875 36.59375 L 4.59375 39.78125 C 3.945313 39.933594 3.339844 40 2.84375 40 C 2.222656 40 1.703125 39.9375 1.1875 39.84375 C 0.644531 39.738281 0.121094 40.097656 0.015625 40.640625 C -0.0898438 41.183594 0.269531 41.707031 0.8125 41.8125 C 1.40625 41.917969 2.082031 42 2.84375 42 C 4.40625 42 6.5625 41.460938 8.375 40.125 C 10.191406 41.476563 12.371094 42 13.9375 42 C 15.5 42 17.625 41.460938 19.4375 40.125 C 21.253906 41.472656 23.433594 42 25 42 C 26.566406 42 28.746094 41.476563 30.5625 40.125 C 32.375 41.460938 34.5 42 36.0625 42 C 37.628906 42 39.808594 41.476563 41.625 40.125 C 43.4375 41.460938 45.59375 42 47.15625 42 C 48.039063 42 48.773438 41.839844 49.375 41.59375 C 49.894531 41.386719 50.144531 40.800781 49.9375 40.28125 C 49.730469 39.761719 49.144531 39.511719 48.625 39.71875 C 48.242188 39.875 47.785156 40 47.15625 40 C 46.3125 40 45.109375 39.785156 44 39.3125 C 45.445313 37.785156 49 33.394531 49 27.0625 C 49 26.511719 48.550781 26.066406 48 26.0625 L 39 26.03125 L 39 20.21875 L 40.9375 15.375 C 41.0625 15.066406 41.023438 14.714844 40.835938 14.4375 C 40.648438 14.160156 40.335938 13.996094 40 14 L 34 14 L 34 11 C 34 10.449219 33.550781 10 33 10 L 31 10 L 31 7 C 31.359375 7.003906 31.695313 6.816406 31.878906 6.503906 C 32.058594 6.191406 32.058594 5.808594 31.878906 5.496094 C 31.695313 5.183594 31.359375 4.996094 31 5 L 31 4 C 31.011719 3.710938 30.894531 3.433594 30.6875 3.238281 C 30.476563 3.039063 30.191406 2.941406 29.90625 2.96875 Z M 28 12 L 32 12 L 32 14 L 28 14 Z M 23.78125 16 L 38.5 16 L 37.3125 19 L 36 19 L 36 23 L 37 23 L 37 26.03125 L 30 26 C 29.664063 26 29.34375 26.160156 29.15625 26.4375 L 27.46875 29 L 20.3125 29 Z M 7 17 C 6.445313 17 6 17.449219 6 18 L 6 28 L 13.53125 28 L 10.96875 17.75 C 10.855469 17.304688 10.460938 17 10 17 Z M 26 19 L 26 23 L 29 23 L 29 19 Z M 31 19 L 31 23 L 34 23 L 34 19 Z M 33 30 C 33.550781 30 34 30.449219 34 31 C 34 31.550781 33.550781 32 33 32 C 32.449219 32 32 31.550781 32 31 C 32 30.449219 32.449219 30 33 30 Z M 37 30 C 37.550781 30 38 30.449219 38 31 C 38 31.550781 37.550781 32 37 32 C 36.449219 32 36 31.550781 36 31 C 36 30.449219 36.449219 30 37 30 Z M 41 30 C 41.550781 30 42 30.449219 42 31 C 42 31.550781 41.550781 32 41 32 C 40.449219 32 40 31.550781 40 31 C 40 30.449219 40.449219 30 41 30 Z M 8.21875 42 C 8.03125 42.035156 7.859375 42.121094 7.71875 42.25 C 6.355469 43.507813 4.167969 44 2.84375 44 C 2.222656 44 1.703125 43.9375 1.1875 43.84375 C 0.644531 43.738281 0.121094 44.097656 0.015625 44.640625 C -0.0898438 45.183594 0.269531 45.707031 0.8125 45.8125 C 1.40625 45.917969 2.082031 46 2.84375 46 C 4.40625 46 6.5625 45.460938 8.375 44.125 C 10.191406 45.476563 12.371094 46 13.9375 46 C 15.5 46 17.625 45.460938 19.4375 44.125 C 21.253906 45.472656 23.433594 46 25 46 C 26.566406 46 28.746094 45.476563 30.5625 44.125 C 32.375 45.460938 34.5 46 36.0625 46 C 37.628906 46 39.808594 45.476563 41.625 44.125 C 43.4375 45.460938 45.59375 46 47.15625 46 C 48.039063 46 48.773438 45.839844 49.375 45.59375 C 49.894531 45.386719 50.144531 44.800781 49.9375 44.28125 C 49.730469 43.761719 49.144531 43.511719 48.625 43.71875 C 48.242188 43.875 47.785156 44 47.15625 44 C 45.832031 44 43.644531 43.507813 42.28125 42.25 C 41.898438 41.902344 41.320313 41.902344 40.9375 42.25 C 39.574219 43.507813 37.386719 44 36.0625 44 C 34.738281 44 32.582031 43.507813 31.21875 42.25 C 30.835938 41.902344 30.257813 41.902344 29.875 42.25 C 28.511719 43.507813 26.324219 44 25 44 C 23.675781 44 21.488281 43.507813 20.125 42.25 C 19.742188 41.902344 19.164063 41.902344 18.78125 42.25 C 17.417969 43.507813 15.261719 44 13.9375 44 C 12.613281 44 10.425781 43.507813 9.0625 42.25 C 8.835938 42.039063 8.523438 41.949219 8.21875 42 Z"/></svg>