<svg height="50" viewBox="0 0 48 48" width="50" xmlns="http://www.w3.org/2000/svg" xmlns:xlink="http://www.w3.org/1999/xlink"><linearGradient id="a"><stop offset=".621" stop-color="#393840"/><stop offset=".841" stop-color="#343339"/><stop offset="1" stop-color="#2d2c30"/></linearGradient><radialGradient id="b" cx="25.632" cy="35.438" gradientTransform="matrix(1 0 0 1.1591 0 -5.636)" gradientUnits="userSpaceOnUse" r="13.321" xlink:href="#a"/><radialGradient id="c" cx="23.956" cy="37.073" gradientTransform="matrix(1 0 0 1.1675 0 -6.208)" gradientUnits="userSpaceOnUse" r="9.194"><stop offset=".732" stop-color="#f3f4f1"/><stop offset=".822" stop-color="#eff1ee"/><stop offset=".904" stop-color="#e4e6e3"/><stop offset=".983" stop-color="#d2d4d1"/><stop offset="1" stop-color="#cdcfcc"/></radialGradient><linearGradient id="d" gradientUnits="userSpaceOnUse" x1="24.406" x2="32.657" y1="36.5" y2="36.5"><stop offset="0" stop-color="#f3f4f1" stop-opacity="0"/><stop offset=".754" stop-color="#d7d9d6" stop-opacity=".754"/><stop offset="1" stop-color="#cdcfcc"/></linearGradient><linearGradient id="e" gradientUnits="userSpaceOnUse" x1="15.157" x2="23.426" y1="36.5" y2="36.5"><stop offset="0" stop-color="#cdcfcc"/><stop offset=".246" stop-color="#d7d9d6" stop-opacity=".754"/><stop offset="1" stop-color="#f3f4f1" stop-opacity="0"/></linearGradient><radialGradient id="f" cx="30.105" cy="7.584" gradientTransform="matrix(.9677 .2028 -.3422 1.672 3.893 -11.201)" gradientUnits="userSpaceOnUse" r="4.143"><stop offset="0" stop-color="#1f1f21" stop-opacity="0"/><stop offset=".35" stop-color="#212124" stop-opacity=".35"/><stop offset=".582" stop-color="#28282d" stop-opacity=".582"/><stop offset=".78" stop-color="#33333c" stop-opacity=".78"/><stop offset=".957" stop-color="#424251" stop-opacity=".957"/><stop offset="1" stop-color="#474757"/></radialGradient><radialGradient id="g" cx="-567.606" cy="9.875" gradientTransform="matrix(-.9881 .0178 .0437 2.4792 -542.23 -4.48)" gradientUnits="userSpaceOnUse" r="4.143"><stop offset="0" stop-color="#1f1f21" stop-opacity="0"/><stop offset=".332" stop-color="#212124" stop-opacity=".332"/><stop offset=".571" stop-color="#28282d" stop-opacity=".571"/><stop offset=".78" stop-color="#34343d" stop-opacity=".78"/><stop offset=".971" stop-color="#444453" stop-opacity=".971"/><stop offset="1" stop-color="#474757"/></radialGradient><radialGradient id="h" cx="23.728" cy="18.43" gradientTransform="matrix(.9883 0 0 1.0101 .68 2.068)" gradientUnits="userSpaceOnUse" r="11.632" xlink:href="#a"/><linearGradient id="i"><stop offset="0" stop-color="#413f4a"/><stop offset=".387" stop-color="#3e3c46" stop-opacity=".613"/><stop offset=".808" stop-color="#343239" stop-opacity=".192"/><stop offset="1" stop-color="#2d2c30" stop-opacity="0"/></linearGradient><radialGradient id="j" cx="27.274" cy="10.305" gradientTransform="matrix(.9883 0 0 1.0101 .68 2.068)" gradientUnits="userSpaceOnUse" r="3.666" xlink:href="#i"/><linearGradient id="k"><stop offset="0" stop-color="#232326"/><stop offset=".398" stop-color="#1f1f21" stop-opacity="0"/></linearGradient><linearGradient id="l" gradientUnits="userSpaceOnUse" x1="35.237" x2="34.055" xlink:href="#k" y1="14.079" y2="15"/><radialGradient id="m" cx="96.08" cy="10.305" gradientTransform="matrix(-.9883 0 0 1.0101 115.32 2.068)" gradientUnits="userSpaceOnUse" r="3.666" xlink:href="#i"/><linearGradient id="n" gradientTransform="matrix(-1 0 0 1 116 0)" gradientUnits="userSpaceOnUse" x1="103.237" x2="102.055" xlink:href="#k" y1="14.079" y2="15"/><radialGradient id="o" cx="23.836" cy="16.743" gradientTransform="matrix(.9952 0 0 .8573 .279 5.054)" gradientUnits="userSpaceOnUse" r="8.879"><stop offset=".712" stop-color="#f3f4f1"/><stop offset=".805" stop-color="#ecedea"/><stop offset=".943" stop-color="#d7d9d6"/><stop offset="1" stop-color="#cdcfcc"/></radialGradient><radialGradient id="p" cx="23.655" cy="27.782" gradientTransform="matrix(.9883 0 0 1.0841 .68 -6.165)" gradientUnits="userSpaceOnUse" r="5.955"><stop offset=".712" stop-color="#f3f4f1" stop-opacity="0"/><stop offset=".805" stop-color="#ecedea" stop-opacity=".322"/><stop offset=".943" stop-color="#d7d9d6" stop-opacity=".801"/><stop offset="1" stop-color="#cdcfcc"/></radialGradient><linearGradient id="q" gradientUnits="userSpaceOnUse" x1="24" x2="24" y1="26.868" y2="24.779"><stop offset=".69" stop-color="#36353b"/><stop offset=".691" stop-color="#35343a"/><stop offset=".74" stop-color="#2b2a2f"/><stop offset=".809" stop-color="#252428"/><stop offset="1" stop-color="#232226"/></linearGradient><radialGradient id="r" cx="17.268" cy="109.159" gradientTransform="matrix(0 .7143 -.639 0 93.748 5.961)" gradientUnits="userSpaceOnUse" r="16.644"><stop offset=".587" stop-color="#4f2f3f"/><stop offset=".648" stop-color="#8e6279"/><stop offset=".704" stop-color="#aa7b91"/><stop offset=".709" stop-color="#bd8da2"/><stop offset=".796" stop-color="#cc98af"/><stop offset=".894" stop-color="#be8ba2"/><stop offset="1" stop-color="#aa778f"/></radialGradient><linearGradient id="s" gradientUnits="userSpaceOnUse" x1="24" x2="24" y1="24.172" y2="27.878"><stop offset=".205" stop-color="#684154"/><stop offset=".447" stop-color="#a07087"/><stop offset=".457" stop-color="#ad7b93"/><stop offset="1" stop-color="#bd8da2" stop-opacity="0"/></linearGradient><radialGradient id="t" cx="22.571" cy="32.261" gradientTransform="matrix(.9583 0 0 .9222 2.417 -8.727)" gradientUnits="userSpaceOnUse" r="5.982"><stop offset=".712" stop-color="#f3f4f1"/><stop offset=".887" stop-color="#d9dad7"/><stop offset="1" stop-color="#cdcfcc"/></radialGradient><radialGradient id="u" cx="22.475" cy="14.842" gradientTransform="matrix(.9583 0 0 1.0102 2.417 10.054)" gradientUnits="userSpaceOnUse" r="4.668"><stop offset="0" stop-color="#cdcfcc"/><stop offset=".319" stop-color="#d9dad7" stop-opacity=".606"/><stop offset=".809" stop-color="#f3f4f1" stop-opacity="0"/></radialGradient><radialGradient id="v" cx="26.149" cy="21.22" gradientTransform="matrix(.8625 0 0 1 1.458 0)" gradientUnits="userSpaceOnUse" r="2.585"><stop offset="0" stop-color="#322e33"/><stop offset=".179" stop-color="#2f2b30"/><stop offset="1" stop-color="#232024"/></radialGradient><linearGradient id="w"><stop offset="0" stop-color="#778fab"/><stop offset=".178" stop-color="#748ca7"/><stop offset=".345" stop-color="#6c829c"/><stop offset=".507" stop-color="#5f7189"/><stop offset=".666" stop-color="#4c596e"/><stop offset=".824" stop-color="#333a4c"/><stop offset=".978" stop-color="#161523"/><stop offset="1" stop-color="#110f1c"/></linearGradient><radialGradient id="x" cx="-760.779" cy="113.799" gradientTransform="matrix(-.593 0 0 .6 -430.158 -51.78)" gradientUnits="userSpaceOnUse" r="1.992" xlink:href="#w"/><linearGradient id="y"><stop offset="0" stop-color="#1c1911"/><stop offset=".999" stop-color="#171714"/></linearGradient><radialGradient id="z" cx="-600.162" cy="86.779" gradientTransform="matrix(-.835 0 0 .8449 -480.185 -56.821)" gradientUnits="userSpaceOnUse" r=".598" xlink:href="#y"/><radialGradient id="A" cx="-864.011" cy="113.799" gradientTransform="matrix(.593 0 0 .6 539.412 -51.78)" gradientUnits="userSpaceOnUse" r="1.992" xlink:href="#w"/><radialGradient id="B" cx="-673.47" cy="86.779" gradientTransform="matrix(.835 0 0 .8449 589.44 -56.821)" gradientUnits="userSpaceOnUse" r=".598" xlink:href="#y"/><path d="m15 23s-3 8.105-3 16c0 5 1 7 1 7h29s-1-9-5-13c0 0-3.008-8.869-4-10z" fill="url(#b)"/><path d="m31 32c1-3 0-5 0-5s-2 3-7 3-7-3-7-3-1 3 0 5c0 0-1-1-2-1 0 0-1 12 1 15h16c2-4 1-15 1-15-1 1-2 1-2 1z" fill="url(#c)"/><path d="m31 32c1-3 0-5 0-5s-2 3-7 3l.02 16h7.98c2-4 1-15 1-15-1 1-2 1-2 1z" fill="url(#d)"/><path d="m24.02 46h-8.02c-2-3-1-15-1-15 .94 0 1.88.88 1.99.99-.99-2 .01-4.99.01-4.99s2 3 7 3z" fill="url(#e)"/><path d="m17 27s2 3 7 3 7-3 7-3 .167.327.292.917c.022.121.041.252.059.393.053.433.072.952.019 1.548-1.201 1.359-2.567 2.544-3.867 3.39-1.316.857-2.563 1.37-3.503 1.37s-2.186-.515-3.505-1.374c-1.302-.849-2.673-2.036-3.883-3.395-.013-.528.02-1.037.078-1.479.02-.15.043-.292.066-.423.117-.573.244-.947.244-.947z" fill="#f2f3f0" opacity=".026"/><path d="m17 27s2 3 7 3 7-3 7-3 .169.331.293.927c.018.121.034.252.047.394.041.435.043.954-.022 1.546-1.186 1.339-2.535 2.506-3.817 3.341-1.316.857-2.562 1.369-3.502 1.369-.939 0-2.185-.514-3.503-1.373-1.284-.837-2.637-2.006-3.833-3.345-.026-.526-.008-1.035.036-1.478.015-.15.035-.291.053-.423.119-.579.248-.958.248-.958z" fill="#f1f2ef" opacity=".051"/><path d="m17 27s2 3 7 3 7-3 7-3 .171.335.295.937c.014.122.027.253.036.394.027.438.015.956-.062 1.545-1.172 1.318-2.502 2.467-3.767 3.291-1.315.857-2.562 1.369-3.501 1.369s-2.184-.514-3.501-1.372c-1.267-.826-2.601-1.977-3.783-3.294-.04-.523-.037-1.032-.005-1.477.011-.15.026-.291.041-.423.117-.586.247-.97.247-.97z" fill="#f0f1ee" opacity=".077"/><path d="m17 27s2 3 7 3 7-3 7-3 .173.338.297.948c.01.122.02.254.024.395.014.44-.014.958-.103 1.543-1.158 1.297-2.469 2.429-3.717 3.242-1.315.856-2.561 1.368-3.501 1.368-.938 0-2.183-.513-3.5-1.371-1.25-.815-2.566-1.948-3.732-3.244-.053-.521-.066-1.029-.047-1.476.006-.149.018-.291.029-.424.118-.592.25-.981.25-.981z" fill="#eff0ed" opacity=".103"/><path d="m17 27s2 3 7 3 7-3 7-3 .175.342.299.958c.007.123.013.254.013.395.001.443-.042.96-.144 1.541-1.144 1.277-2.437 2.39-3.668 3.192-1.315.856-2.561 1.368-3.5 1.368-.938 0-2.182-.513-3.498-1.37-1.233-.803-2.53-1.918-3.682-3.194-.066-.519-.094-1.026-.089-1.475.002-.149.01-.291.017-.424.118-.597.252-.991.252-.991z" fill="#eeefec" opacity=".128"/><path d="m17 27s2 3 7 3 7-3 7-3 .177.346.301.968c.003.123.005.255.002.396-.012.445-.071.962-.185 1.539-1.129 1.256-2.404 2.352-3.618 3.142-1.314.856-2.56 1.367-3.499 1.367-.938 0-2.181-.512-3.496-1.368-1.215-.792-2.494-1.889-3.631-3.144-.079-.517-.123-1.023-.131-1.474-.003-.149.002-.291.005-.424.117-.603.252-1.002.252-1.002z" fill="#edeeeb" opacity=".154"/><path d="m17 27s2 3 7 3 7-3 7-3 .179.35.302.978c-.001.124-.002.256-.01.396-.025.448-.099.964-.226 1.538-1.115 1.235-2.371 2.313-3.568 3.093-1.314.855-2.559 1.367-3.498 1.367-.937 0-2.18-.512-3.495-1.367-1.198-.781-2.458-1.859-3.581-3.093-.092-.515-.151-1.019-.173-1.473-.007-.148-.006-.29-.008-.424.12-.611.257-1.015.257-1.015z" fill="#ecedea" opacity=".179"/><path d="m17 27s2 3 7 3 7-3 7-3 .18.353.304.988c-.005.124-.009.257-.021.397-.038.451-.128.965-.267 1.536-1.101 1.215-2.339 2.275-3.519 3.043-1.313.855-2.558 1.366-3.497 1.366-.937 0-2.179-.511-3.493-1.366-1.181-.769-2.422-1.83-3.531-3.043-.106-.512-.18-1.016-.215-1.472-.011-.148-.014-.29-.02-.424.12-.616.259-1.025.259-1.025z" fill="#ebece9" opacity=".205"/><path d="m17 27s2 3 7 3 7-3 7-3 .182.357.306.998c-.009.125-.017.257-.033.397-.052.454-.156.967-.307 1.534-1.086 1.194-2.306 2.236-3.469 2.993-1.313.855-2.558 1.366-3.497 1.366-.937 0-2.178-.511-3.492-1.365-1.164-.758-2.387-1.801-3.48-2.993-.119-.51-.208-1.013-.256-1.471-.016-.148-.022-.29-.032-.425.12-.62.26-1.034.26-1.034z" fill="#eaebe8" opacity=".231"/><path d="m17 27s2 3 7 3 7-3 7-3 .184.361.308 1.008c-.013.125-.024.258-.044.398-.066.457-.184.969-.348 1.532-1.072 1.173-2.273 2.198-3.419 2.944-1.313.855-2.557 1.365-3.496 1.365-.936 0-2.177-.511-3.49-1.364-1.147-.747-2.351-1.771-3.43-2.943-.132-.508-.236-1.01-.298-1.47-.02-.147-.031-.29-.044-.425.119-.627.261-1.045.261-1.045z" fill="#e9ebe8" opacity=".256"/><path d="m17 27s2 3 7 3 7-3 7-3 .186.365.31 1.018c-.016.126-.032.259-.056.398-.079.459-.213.971-.389 1.531-1.058 1.152-2.241 2.159-3.37 2.894-1.313.854-2.557 1.365-3.495 1.365-.936 0-2.176-.51-3.488-1.363-1.129-.735-2.315-1.742-3.38-2.892-.145-.506-.264-1.006-.34-1.469-.024-.147-.039-.29-.056-.425.12-.634.264-1.057.264-1.057z" fill="#e8eae7" opacity=".282"/><path d="m17 27s2 3 7 3 7-3 7-3 .188.368.311 1.028c-.02.126-.039.26-.067.399-.093.462-.241.973-.43 1.529-1.043 1.132-2.208 2.121-3.32 2.845-1.312.854-2.556 1.364-3.495 1.364-.935 0-2.175-.51-3.487-1.362-1.112-.724-2.279-1.712-3.329-2.842-.158-.504-.292-1.003-.382-1.468-.028-.147-.047-.29-.068-.425.122-.64.267-1.068.267-1.068z" fill="#e7e9e6" opacity=".308"/><path d="m17 27s2 3 7 3 7-3 7-3 .19.372.313 1.038c-.024.127-.047.26-.078.399-.107.465-.27.975-.471 1.527-1.029 1.111-2.175 2.082-3.27 2.795-1.312.854-2.555 1.364-3.494 1.364-.935 0-2.174-.509-3.485-1.361-1.095-.712-2.244-1.683-3.279-2.792-.171-.501-.32-1-.424-1.467-.032-.146-.055-.289-.081-.425.122-.645.269-1.078.269-1.078z" fill="#e6e8e5" opacity=".333"/><path d="m17 27s2 3 7 3 7-3 7-3 .192.376.315 1.048c-.028.127-.054.261-.09.4-.121.468-.298.977-.512 1.525-1.015 1.09-2.143 2.044-3.221 2.745-1.312.853-2.555 1.363-3.493 1.363-.935 0-2.173-.509-3.483-1.36-1.078-.701-2.208-1.654-3.228-2.742-.185-.499-.348-.996-.465-1.466-.037-.146-.063-.289-.093-.425.121-.65.27-1.088.27-1.088z" fill="#e5e7e4" opacity=".359"/><path d="m17 27s2 3 7 3 7-3 7-3 .194.38.317 1.058c-.032.128-.062.262-.101.4-.135.471-.327.979-.552 1.524-1.001 1.07-2.11 2.005-3.171 2.696-1.311.853-2.554 1.363-3.492 1.363-.934 0-2.172-.508-3.482-1.359-1.061-.69-2.172-1.624-3.178-2.691-.198-.497-.376-.993-.507-1.465-.041-.146-.071-.289-.105-.426.121-.657.271-1.1.271-1.1z" fill="#e4e6e3" opacity=".385"/><path d="m17 27s2 3 7 3 7-3 7-3 .196.383.319 1.068c-.036.128-.069.263-.113.401-.149.474-.355.981-.593 1.522-.986 1.049-2.077 1.967-3.121 2.646-1.312.853-2.554 1.362-3.492 1.362-.934 0-2.171-.508-3.48-1.358-1.043-.678-2.136-1.595-3.128-2.641-.211-.495-.403-.99-.549-1.464-.045-.145-.079-.289-.117-.426.122-.662.274-1.11.274-1.11z" fill="#e3e5e2" opacity=".41"/><path d="m17 27s2 3 7 3 7-3 7-3 .198.387.32 1.078c-.039.128-.077.264-.124.401-.164.477-.384.983-.634 1.52-.972 1.028-2.045 1.928-3.071 2.596-1.311.853-2.553 1.362-3.491 1.362-.933 0-2.17-.507-3.478-1.356-1.026-.667-2.1-1.566-3.077-2.591-.224-.493-.431-.987-.591-1.463-.049-.145-.088-.289-.129-.426.121-.668.275-1.121.275-1.121z" fill="#e2e4e1" opacity=".436"/><path d="m17 27s2 3 7 3 7-3 7-3 .2.391.322 1.089c-.043.129-.085.264-.136.402-.178.48-.412.985-.675 1.518-.958 1.008-2.012 1.89-3.022 2.547-1.31.852-2.552 1.361-3.49 1.361-.933 0-2.169-.507-3.477-1.355-1.009-.656-2.065-1.536-3.027-2.541-.237-.49-.458-.983-.633-1.462-.053-.145-.096-.288-.142-.426.125-.676.28-1.133.28-1.133z" fill="#e1e3e0" opacity=".462"/><path d="m17 27s2 3 7 3 7-3 7-3 .202.395.324 1.099c-.047.129-.092.265-.147.402-.192.483-.44.987-.716 1.517-.943.987-1.98 1.851-2.972 2.497-1.31.852-2.552 1.361-3.489 1.361-.933 0-2.168-.506-3.475-1.354-.992-.644-2.029-1.507-2.976-2.49-.251-.488-.485-.98-.675-1.461-.057-.144-.104-.288-.154-.426.123-.683.28-1.145.28-1.145z" fill="#e0e2df" opacity=".487"/><path d="m17 27s2 3 7 3 7-3 7-3 .204.399.326 1.109c-.051.13-.1.266-.158.403-.207.486-.469.989-.757 1.515-.929.966-1.947 1.813-2.922 2.448-1.31.852-2.551 1.36-3.488 1.36-.932 0-2.167-.506-3.474-1.353-.975-.633-1.993-1.478-2.926-2.44-.264-.486-.513-.977-.716-1.46-.061-.144-.112-.288-.166-.427.122-.688.281-1.155.281-1.155z" fill="#e0e1de" opacity=".513"/><path d="m17 27s2 3 7 3 7-3 7-3 .205.402.328 1.119c-.055.13-.108.267-.17.403-.222.488-.497.991-.797 1.513-.915.946-1.914 1.774-2.873 2.398-1.31.851-2.55 1.36-3.488 1.36-.932 0-2.166-.506-3.472-1.352-.957-.622-1.957-1.448-2.876-2.39-.277-.484-.54-.974-.758-1.459-.065-.144-.12-.288-.178-.427.124-.693.284-1.165.284-1.165z" fill="#dfe0dd" opacity=".538"/><path d="m17 27s2 3 7 3 7-3 7-3 .207.406.329 1.129c-.059.131-.116.267-.181.404-.236.491-.526.992-.838 1.511-.9.925-1.882 1.736-2.823 2.348-1.309.851-2.55 1.359-3.487 1.359-.932 0-2.165-.505-3.47-1.351-.94-.61-1.921-1.419-2.825-2.34-.29-.482-.567-.971-.8-1.458-.069-.143-.128-.288-.19-.427.123-.698.285-1.175.285-1.175z" fill="#dedfdc" opacity=".564"/><path d="m17 27s2 3 7 3 7-3 7-3 .209.41.331 1.139c-.062.131-.123.268-.193.404-.251.494-.554.994-.879 1.51-.886.904-1.849 1.697-2.773 2.299-1.309.85-2.549 1.358-3.486 1.358-.931 0-2.164-.505-3.469-1.35-.923-.599-1.886-1.389-2.775-2.289-.303-.479-.594-.968-.842-1.458-.073-.143-.136-.288-.203-.427.126-.704.289-1.186.289-1.186z" fill="#dddedb" opacity=".59"/><path d="m17 27s2 3 7 3 7-3 7-3 .211.414.333 1.149c-.066.132-.131.269-.204.405-.266.496-.583.996-.92 1.508-.872.884-1.816 1.659-2.724 2.249-1.309.851-2.548 1.358-3.485 1.358-.931 0-2.163-.504-3.467-1.349-.906-.588-1.85-1.36-2.725-2.239-.317-.477-.621-.965-.884-1.457-.076-.143-.145-.287-.215-.427.126-.71.291-1.197.291-1.197z" fill="#dcddda" opacity=".615"/><path d="m17 27s2 3 7 3 7-3 7-3 .213.417.335 1.159c-.07.132-.139.269-.216.405-.281.499-.611.998-.961 1.506-.858.863-1.784 1.62-2.674 2.2-1.308.85-2.548 1.358-3.485 1.358-.93 0-2.162-.504-3.465-1.348-.888-.576-1.814-1.331-2.674-2.189-.33-.475-.648-.962-.926-1.456-.08-.143-.153-.287-.227-.427.126-.716.293-1.208.293-1.208z" fill="#dbdcd9" opacity=".641"/><path d="m17 27s2 3 7 3 7-3 7-3 .215.421.337 1.169c-.074.133-.147.27-.227.406-.296.501-.64 1-1.002 1.504-.843.842-1.751 1.582-2.624 2.15-1.308.85-2.547 1.358-3.484 1.358-.93 0-2.161-.503-3.464-1.347-.871-.565-1.778-1.301-2.624-2.139-.343-.473-.675-.959-.967-1.455-.084-.142-.161-.287-.239-.428.126-.721.294-1.218.294-1.218z" fill="#dadbd8" opacity=".667"/><path d="m17 27s2 3 7 3 7-3 7-3 .217.425.338 1.179c-.078.133-.155.271-.238.406-.311.504-.668 1.002-1.042 1.503-.829.822-1.718 1.543-2.575 2.1-1.308.85-2.546 1.357-3.483 1.357-.93 0-2.16-.503-3.462-1.346-.854-.554-1.743-1.272-2.573-2.089-.356-.471-.702-.957-1.009-1.454-.088-.142-.169-.287-.251-.428.125-.727.295-1.228.295-1.228z" fill="#d9dad7" opacity=".692"/><path d="m17 27s2 3 7 3 7-3 7-3 .219.429.34 1.189c-.081.134-.162.271-.25.407-.326.506-.696 1.004-1.083 1.501-.815.801-1.686 1.505-2.525 2.051-1.307.849-2.546 1.357-3.482 1.357-.929 0-2.159-.502-3.46-1.344-.837-.542-1.707-1.243-2.523-2.038-.369-.468-.729-.954-1.051-1.453-.092-.142-.177-.287-.264-.428.126-.736.298-1.242.298-1.242z" fill="#d8d9d6" opacity=".718"/><path d="m17 27s2 3 7 3 7-3 7-3 .221.432.342 1.199c-.085.134-.17.272-.261.407-.341.508-.725 1.006-1.124 1.499-.8.78-1.653 1.467-2.475 2.001-1.307.849-2.545 1.356-3.481 1.356-.929 0-2.158-.502-3.459-1.343-.82-.531-1.671-1.213-2.473-1.988-.382-.466-.755-.951-1.093-1.452-.096-.142-.185-.286-.276-.428.127-.74.3-1.251.3-1.251z" fill="#d7d8d5" opacity=".744"/><path d="m17 27s2 3 7 3 7-3 7-3 .223.436.344 1.209c-.089.135-.178.272-.273.408-.356.51-.753 1.008-1.165 1.497-.786.759-1.62 1.428-2.425 1.951-1.307.849-2.545 1.356-3.481 1.356-.928 0-2.157-.502-3.457-1.342-.802-.52-1.635-1.184-2.422-1.938-.396-.464-.782-.949-1.135-1.451-.1-.142-.194-.286-.288-.428.127-.746.302-1.262.302-1.262z" fill="#d6d8d5" opacity=".769"/><path d="m17 27s2 3 7 3 7-3 7-3 .225.44.346 1.219c-.093.135-.186.273-.284.408-.372.513-.782 1.01-1.206 1.495-.772.739-1.588 1.39-2.376 1.902-1.306.849-2.544 1.355-3.48 1.355-.928 0-2.156-.501-3.456-1.341-.785-.508-1.599-1.154-2.372-1.888-.409-.462-.809-.946-1.176-1.45-.103-.142-.202-.286-.3-.429.127-.75.304-1.271.304-1.271z" fill="#d5d7d4" opacity=".795"/><path d="m17 27s2 3 7 3 7-3 7-3 .227.444.347 1.229c-.097.136-.194.273-.296.409-.387.515-.81 1.012-1.247 1.494-.757.718-1.555 1.351-2.326 1.852-1.306.848-2.543 1.355-3.479 1.355-.928 0-2.155-.501-3.454-1.34-.768-.497-1.564-1.125-2.321-1.837-.422-.46-.836-.944-1.218-1.449-.107-.142-.21-.286-.312-.429.128-.758.306-1.284.306-1.284z" fill="#d4d6d3" opacity=".821"/><path d="m17 27s2 3 7 3 7-3 7-3 .228.447.349 1.24c-.101.136-.202.274-.307.409-.402.517-.839 1.014-1.287 1.492-.743.697-1.522 1.313-2.276 1.803-1.306.848-2.543 1.354-3.478 1.354-.927 0-2.154-.5-3.452-1.339-.751-.486-1.528-1.096-2.271-1.787-.435-.457-.862-.941-1.26-1.448-.111-.141-.218-.286-.325-.429.127-.764.307-1.295.307-1.295z" fill="#d3d5d2" opacity=".846"/><path d="m17 27s2 3 7 3 7-3 7-3 .23.451.351 1.25c-.104.137-.209.275-.318.41-.417.519-.867 1.016-1.328 1.49-.729.677-1.49 1.274-2.227 1.753-1.305.848-2.542 1.354-3.478 1.354-.927 0-2.153-.5-3.451-1.338-.734-.474-1.492-1.066-2.221-1.737-.448-.455-.889-.939-1.302-1.447-.115-.141-.226-.285-.337-.429.129-.77.311-1.306.311-1.306z" fill="#d2d4d1" opacity=".872"/><path d="m17 27s2 3 7 3 7-3 7-3 .232.455.353 1.26c-.108.137-.217.275-.33.41-.433.521-.896 1.018-1.369 1.488-.715.656-1.457 1.236-2.177 1.703-1.305.847-2.541 1.353-3.477 1.353-.927 0-2.152-.499-3.449-1.337-.716-.463-1.456-1.037-2.17-1.687-.462-.453-.916-.937-1.344-1.446-.119-.141-.234-.285-.349-.429.129-.775.312-1.315.312-1.315z" fill="#d1d3d0" opacity=".897"/><path d="m17 27s2 3 7 3 7-3 7-3 .234.459.355 1.27c-.112.138-.225.276-.341.411-.448.523-.924 1.019-1.41 1.487-.7.635-1.424 1.197-2.127 1.654-1.305.847-2.541 1.353-3.476 1.353-.926 0-2.151-.499-3.447-1.336-.699-.452-1.42-1.007-2.12-1.636-.475-.451-.942-.935-1.386-1.445-.123-.141-.242-.285-.361-.429.128-.784.313-1.329.313-1.329z" fill="#d0d2cf" opacity=".923"/><path d="m17 27s2 3 7 3 7-3 7-3 .236.462.356 1.28c-.116.138-.233.276-.353.411-.463.524-.952 1.021-1.451 1.485-.686.615-1.392 1.159-2.078 1.604-1.304.847-2.54 1.352-3.475 1.352-.926 0-2.15-.498-3.446-1.335-.682-.44-1.385-.978-2.07-1.586-.488-.449-.969-.932-1.427-1.444-.126-.141-.251-.285-.373-.43.13-.787.317-1.337.317-1.337z" fill="#cfd1ce" opacity=".949"/><path d="m17 27s2 3 7 3 7-3 7-3 .238.466.358 1.29c-.12.139-.241.276-.364.412-.479.525-.981 1.023-1.492 1.483-.672.594-1.359 1.12-2.028 1.554-1.304.847-2.539 1.352-3.475 1.352-.925 0-2.149-.498-3.444-1.334-.665-.429-1.349-.949-2.019-1.536-.501-.446-.995-.931-1.469-1.443-.13-.141-.259-.285-.386-.43.131-.793.319-1.348.319-1.348z" fill="#ced0cd" opacity=".974"/><path d="m31.36 28.3c-.605.682-1.251 1.321-1.908 1.894s-1.326 1.082-1.978 1.505c-1.304.846-2.539 1.351-3.474 1.351-.925 0-2.147-.497-3.442-1.332-.648-.417-1.313-.919-1.969-1.486-.656-.566-1.301-1.197-1.909-1.872.13-.8.32-1.36.32-1.36s2 3 7 3 7-3 7-3 .24.47.36 1.3z" fill="#cdcfcc"/><path d="m16.323 12.826s-1.26-1.245-1.26-3.112.63-4.357 1.26-6.847c.306-1.207.63-1.867 1.26-1.867s1.891 0 5.042 6.847z" fill="#1f1f21"/><path d="m31.677 12.826s1.26-1.245 1.26-3.112-.63-4.357-1.26-6.847c-.306-1.207-.63-1.867-1.26-1.867s-1.891 0-5.042 6.847z" fill="#1f1f21"/><path d="m31.677 12.826s1.26-1.245 1.26-3.112-.63-4.357-1.26-6.847c-.306-1.207-.63-1.867-1.26-1.867s-1.891 0-5.042 6.847z" fill="url(#f)"/><path d="m16.323 12.826s-1.26-1.245-1.26-3.112.63-4.357 1.26-6.847c.306-1.207.63-1.867 1.26-1.867s1.891 0 5.042 6.847z" fill="url(#g)"/><path d="m30.681 12s1.319 0 1.319-2.745c0-1.409-.495-3.576-.99-5.455-.24-.911-.495-1.409-.99-1.409s-1.979.686-3.958 6.177z" fill="#bfbbb8"/><path d="m30.671 11.991s1.312 0 1.312-2.73c0-1.401-.492-3.556-.984-5.424-.239-.906-.492-1.401-.984-1.401s-1.968.683-3.936 6.143z" fill="#bebab7"/><path d="m30.662 11.982s1.305 0 1.305-2.715c0-1.393-.489-3.536-.979-5.394-.237-.9-.489-1.393-.978-1.393s-1.957.679-3.914 6.108z" fill="#beb9b6"/><path d="m30.653 11.973s1.297 0 1.297-2.7c0-1.385-.487-3.516-.973-5.363-.236-.896-.487-1.385-.973-1.385s-1.946.675-3.892 6.074z" fill="#bdb8b5"/><path d="m30.644 11.964s1.29 0 1.29-2.684c0-1.377-.484-3.497-.968-5.333-.235-.891-.484-1.377-.968-1.377s-1.935.671-3.87 6.039z" fill="#bdb7b4"/><path d="m30.635 11.955s1.283 0 1.283-2.669c0-1.37-.481-3.477-.962-5.303-.233-.886-.481-1.37-.962-1.37s-1.924.667-3.848 6.005z" fill="#bcb6b3"/><path d="m30.625 11.947s1.275 0 1.275-2.654c0-1.362-.478-3.457-.957-5.272-.232-.881-.478-1.362-.957-1.362s-1.913.663-3.826 5.971z" fill="#bbb5b2"/><path d="m30.616 11.938s1.268 0 1.268-2.638c0-1.354-.476-3.437-.951-5.242-.231-.876-.476-1.354-.951-1.354-.476 0-1.902.66-3.804 5.936z" fill="#bbb5b1"/><path d="m30.607 11.929s1.261 0 1.261-2.623c0-1.346-.473-3.417-.946-5.212-.229-.871-.473-1.346-.946-1.346s-1.891.656-3.782 5.902z" fill="#bab4b0"/><path d="m30.598 11.92s1.253 0 1.253-2.608c0-1.338-.47-3.397-.94-5.181-.228-.866-.47-1.338-.94-1.338s-1.88.652-3.76 5.868z" fill="#bab3af"/><path d="m30.589 11.911s1.246 0 1.246-2.593c0-1.33-.467-3.377-.935-5.151-.227-.86-.467-1.33-.935-1.33s-1.869.648-3.738 5.833z" fill="#b9b2ae"/><path d="m30.58 11.902s1.239 0 1.239-2.577c0-1.323-.464-3.357-.929-5.121-.225-.855-.464-1.323-.929-1.323s-1.858.644-3.716 5.799z" fill="#b8b1ad"/><path d="m30.57 11.893s1.231 0 1.231-2.562c0-1.315-.462-3.337-.923-5.09-.224-.85-.462-1.315-.923-1.315s-1.847.64-3.694 5.764z" fill="#b8b0ac"/><path d="m30.561 11.884s1.224 0 1.224-2.547c0-1.307-.459-3.317-.918-5.06-.223-.845-.459-1.307-.918-1.307s-1.836.637-3.672 5.73z" fill="#b7afab"/><path d="m30.552 11.875s1.217 0 1.217-2.531c0-1.299-.456-3.298-.912-5.03-.221-.84-.456-1.299-.912-1.299s-1.825.633-3.65 5.696z" fill="#b6aeaa"/><path d="m30.543 11.866s1.209 0 1.209-2.516c0-1.291-.453-3.278-.907-4.999-.22-.835-.453-1.291-.907-1.291-.453 0-1.814.629-3.628 5.661z" fill="#b6ada9"/><path d="m30.534 11.857s1.202 0 1.202-2.501c0-1.283-.451-3.258-.901-4.969-.219-.83-.451-1.283-.901-1.283-.451 0-1.803.625-3.606 5.627z" fill="#b5aca8"/><path d="m30.524 11.848s1.195 0 1.195-2.486c0-1.275-.448-3.238-.896-4.938-.217-.825-.448-1.275-.896-1.275s-1.792.621-3.584 5.593z" fill="#b5aba7"/><path d="m30.515 11.84s1.187 0 1.187-2.47c0-1.268-.445-3.218-.89-4.908-.216-.82-.445-1.268-.89-1.268s-1.781.618-3.562 5.558z" fill="#b4aaa6"/><path d="m30.506 11.831s1.18 0 1.18-2.455c0-1.26-.442-3.198-.885-4.878-.215-.815-.442-1.26-.885-1.26-.442 0-1.77.614-3.54 5.524z" fill="#b3a9a5"/><path d="m30.497 11.822s1.173 0 1.173-2.44c0-1.252-.44-3.178-.879-4.847-.213-.81-.44-1.252-.879-1.252s-1.759.61-3.518 5.489z" fill="#b3a9a4"/><path d="m30.488 11.813s1.165 0 1.165-2.424c0-1.244-.437-3.158-.874-4.817-.212-.805-.437-1.244-.874-1.244s-1.748.606-3.496 5.455z" fill="#b2a8a3"/><path d="m30.479 11.804s1.158 0 1.158-2.409c0-1.236-.434-3.138-.868-4.787-.211-.8-.434-1.236-.868-1.236s-1.737.602-3.474 5.421z" fill="#b2a7a2"/><path d="m30.469 11.795s1.151 0 1.151-2.394c0-1.228-.431-3.118-.863-4.756-.209-.795-.431-1.228-.863-1.228-.431 0-1.726.598-3.452 5.386z" fill="#b1a6a1"/><path d="m30.46 11.786s1.143 0 1.143-2.379c0-1.221-.429-3.098-.857-4.726-.208-.789-.429-1.221-.857-1.221s-1.715.595-3.43 5.352z" fill="#b0a5a0"/><path d="m30.451 11.777s1.136 0 1.136-2.363c0-1.213-.426-3.079-.852-4.696-.207-.784-.426-1.213-.852-1.213s-1.704.591-3.408 5.318z" fill="#b0a49f"/><path d="m30.442 11.768s1.129 0 1.129-2.348c0-1.205-.423-3.059-.846-4.665-.205-.779-.423-1.205-.846-1.205s-1.693.587-3.386 5.283z" fill="#afa39e"/><path d="m30.433 11.759s1.121 0 1.121-2.333c0-1.197-.42-3.039-.841-4.635-.204-.774-.42-1.197-.841-1.197s-1.682.583-3.363 5.249z" fill="#afa29d"/><path d="m30.424 11.75s1.114 0 1.114-2.317c0-1.189-.418-3.019-.835-4.604-.203-.769-.418-1.189-.835-1.189s-1.671.579-3.341 5.214z" fill="#aea19c"/><path d="m30.414 11.742s1.106 0 1.106-2.302c0-1.181-.415-2.999-.83-4.574-.201-.764-.415-1.181-.83-1.181s-1.66.576-3.319 5.18z" fill="#ada09b"/><path d="m30.405 11.733s1.099 0 1.099-2.287c0-1.174-.412-2.979-.824-4.544-.2-.759-.412-1.174-.824-1.174s-1.649.572-3.297 5.146z" fill="#ad9f9a"/><path d="m30.396 11.724s1.092 0 1.092-2.272c0-1.166-.409-2.959-.819-4.513-.199-.754-.409-1.166-.819-1.166s-1.638.568-3.275 5.111z" fill="#ac9e99"/><path d="m30.387 11.715s1.084 0 1.084-2.256c0-1.158-.407-2.939-.813-4.483-.197-.749-.407-1.158-.813-1.158s-1.627.564-3.253 5.077z" fill="#ab9d98"/><path d="m30.378 11.706s1.077 0 1.077-2.241c0-1.15-.404-2.919-.808-4.453-.196-.744-.404-1.15-.808-1.15s-1.616.56-3.231 5.042z" fill="#ab9d97"/><path d="m30.368 11.697s1.07 0 1.07-2.226c0-1.142-.401-2.899-.802-4.422-.195-.739-.401-1.142-.802-1.142s-1.605.556-3.209 5.008z" fill="#aa9c96"/><path d="m30.359 11.688s1.062 0 1.062-2.211c0-1.134-.398-2.88-.797-4.392-.193-.734-.398-1.134-.797-1.134s-1.594.553-3.187 4.974z" fill="#aa9b95"/><path d="m30.35 11.679s1.055 0 1.055-2.195c0-1.127-.396-2.86-.791-4.362-.192-.729-.396-1.127-.791-1.127-.396 0-1.583.549-3.165 4.939z" fill="#a99a94"/><path d="m30.341 11.67s1.048 0 1.048-2.18c0-1.119-.393-2.84-.786-4.331-.191-.724-.393-1.119-.786-1.119s-1.572.545-3.143 4.905z" fill="#a89993"/><path d="m30.332 11.661s1.04 0 1.04-2.165c0-1.111-.39-2.82-.78-4.301-.189-.718-.39-1.111-.78-1.111s-1.561.541-3.121 4.871z" fill="#a89892"/><path d="m30.323 11.652s1.033 0 1.033-2.149c0-1.103-.387-2.8-.775-4.271-.188-.713-.387-1.103-.775-1.103s-1.55.537-3.099 4.836z" fill="#a79792"/><path d="m30.313 11.643s1.026 0 1.026-2.134c0-1.095-.385-2.78-.769-4.24-.187-.708-.385-1.095-.769-1.095s-1.539.534-3.077 4.802z" fill="#a79691"/><path d="m30.304 11.635s1.018 0 1.018-2.119c0-1.087-.382-2.76-.764-4.21-.185-.703-.382-1.087-.764-1.087s-1.528.53-3.055 4.767z" fill="#a69590"/><path d="m30.295 11.626s1.011 0 1.011-2.104c0-1.079-.379-2.74-.758-4.179-.184-.698-.379-1.079-.758-1.079s-1.517.526-3.033 4.733z" fill="#a5948f"/><path d="m30.286 11.617s1.004 0 1.004-2.088c0-1.072-.376-2.72-.753-4.149-.183-.693-.376-1.072-.753-1.072-.376 0-1.505.522-3.011 4.699z" fill="#a5938e"/><path d="m30.277 11.608s.996 0 .996-2.073c0-1.064-.374-2.7-.747-4.119-.181-.688-.374-1.064-.747-1.064-.374 0-1.494.518-2.989 4.664z" fill="#a4928d"/><path d="m30.267 11.599s.989 0 .989-2.058c0-1.056-.371-2.68-.742-4.088-.18-.683-.371-1.056-.742-1.056s-1.483.514-2.967 4.63z" fill="#a4928c"/><path d="m30.258 11.59s.982 0 .982-2.042c0-1.048-.368-2.661-.736-4.058-.179-.678-.368-1.048-.736-1.048s-1.472.511-2.945 4.596z" fill="#a3918b"/><path d="m30.249 11.581s.974 0 .974-2.027c0-1.04-.365-2.641-.731-4.028-.177-.673-.365-1.04-.731-1.04s-1.461.507-2.923 4.561z" fill="#a2908a"/><path d="m30.24 11.572s.967 0 .967-2.012c0-1.032-.363-2.621-.725-3.997-.176-.668-.363-1.032-.725-1.032-.363 0-1.45.503-2.901 4.527z" fill="#a28f89"/><path d="m30.231 11.563s.96 0 .96-1.997c0-1.025-.36-2.601-.72-3.967-.175-.663-.36-1.025-.72-1.025s-1.439.499-2.879 4.492z" fill="#a18e88"/><path d="m30.222 11.554s.952 0 .952-1.981c0-1.017-.357-2.581-.714-3.937-.173-.658-.357-1.017-.714-1.017s-1.428.495-2.857 4.458z" fill="#a08d87"/><path d="m30.212 11.545s.945 0 .945-1.966c0-1.009-.354-2.561-.709-3.906-.172-.653-.354-1.009-.709-1.009-.354 0-1.417.492-2.835 4.424z" fill="#a08c86"/><path d="m30.203 11.536s.938 0 .938-1.951c0-1.001-.352-2.541-.703-3.876-.171-.647-.352-1.001-.703-1.001-.352 0-1.406.488-2.813 4.389z" fill="#9f8b85"/><path d="m30.194 11.528s.93 0 .93-1.935c0-.993-.349-2.521-.698-3.846-.169-.642-.349-.993-.698-.993s-1.395.484-2.791 4.355z" fill="#9f8a84"/><path d="m30.185 11.519s.923 0 .923-1.92c0-.985-.346-2.501-.692-3.815-.168-.637-.346-.985-.692-.985s-1.384.48-2.769 4.32z" fill="#9e8983"/><path d="m30.176 11.51s.916 0 .916-1.905c0-.978-.343-2.481-.687-3.785-.167-.632-.343-.978-.687-.978-.343 0-1.373.476-2.747 4.286z" fill="#9d8882"/><path d="m30.166 11.501s.908 0 .908-1.89c0-.97-.341-2.462-.681-3.754-.165-.627-.341-.97-.681-.97-.341 0-1.362.472-2.725 4.252z" fill="#9d8781"/><path d="m30.157 11.492s.901 0 .901-1.874c0-.962-.338-2.442-.676-3.724-.164-.622-.338-.962-.676-.962s-1.351.469-2.703 4.217z" fill="#9c8680"/><path d="m30.148 11.483s.894 0 .894-1.859c0-.954-.335-2.422-.67-3.694-.163-.617-.335-.954-.67-.954s-1.34.465-2.681 4.183z" fill="#9c867f"/><path d="m30.139 11.474s.886 0 .886-1.844c0-.946-.332-2.402-.665-3.663-.161-.612-.332-.946-.665-.946-.332 0-1.329.461-2.658 4.149z" fill="#9b857e"/><path d="m30.13 11.465s.879 0 .879-1.829c0-.938-.33-2.382-.659-3.633-.16-.607-.33-.938-.659-.938s-1.318.457-2.636 4.114z" fill="#9a847d"/><path d="m30.121 11.456s.871 0 .871-1.813c0-.93-.327-2.362-.654-3.603-.159-.602-.327-.93-.654-.93s-1.307.453-2.614 4.08z" fill="#9a837c"/><path d="m30.111 11.447s.864 0 .864-1.798c0-.923-.324-2.342-.648-3.572-.157-.597-.324-.923-.648-.923s-1.296.45-2.592 4.046z" fill="#99827b"/><path d="m30.102 11.438s.857 0 .857-1.783c0-.915-.321-2.322-.643-3.542-.156-.592-.321-.915-.643-.915-.321 0-1.285.446-2.57 4.011z" fill="#99817a"/><path d="m30.093 11.43s.849 0 .849-1.767c0-.907-.319-2.302-.637-3.512-.155-.587-.319-.907-.637-.907-.319 0-1.274.442-2.548 3.977z" fill="#988079"/><path d="m30.084 11.421s.842 0 .842-1.752c0-.899-.316-2.282-.632-3.481-.153-.582-.316-.899-.632-.899s-1.263.438-2.526 3.942z" fill="#977f78"/><path d="m30.075 11.412s.835 0 .835-1.737c0-.891-.313-2.262-.626-3.451-.152-.576-.313-.891-.626-.891s-1.252.434-2.504 3.908z" fill="#977e77"/><path d="m30.066 11.403s.827 0 .827-1.722c0-.883-.31-2.243-.621-3.42-.151-.571-.31-.883-.621-.883-.31 0-1.241.43-2.482 3.874z" fill="#967d76"/><path d="m30.056 11.394s.82 0 .82-1.706c0-.876-.308-2.223-.615-3.39-.149-.566-.308-.876-.615-.876s-1.23.427-2.46 3.839z" fill="#957c75"/><path d="m30.047 11.385s.813 0 .813-1.691c0-.868-.305-2.203-.61-3.36-.148-.561-.305-.868-.61-.868s-1.219.423-2.438 3.805z" fill="#957b74"/><path d="m30.038 11.376s.805 0 .805-1.676c0-.86-.302-2.183-.604-3.329-.146-.556-.302-.86-.604-.86s-1.208.419-2.416 3.77z" fill="#947a73"/><path d="m30.029 11.367s.798 0 .798-1.66c0-.852-.299-2.163-.599-3.299-.145-.551-.299-.852-.599-.852-.299 0-1.197.415-2.394 3.736z" fill="#947a72"/><path d="m30.02 11.358s.791 0 .791-1.645c0-.844-.297-2.143-.593-3.269-.145-.546-.297-.844-.594-.844s-1.186.411-2.372 3.702z" fill="#937971"/><path d="m30.01 11.349s.783 0 .783-1.63c0-.836-.294-2.123-.588-3.238-.142-.541-.294-.836-.588-.836s-1.175.407-2.35 3.667z" fill="#927870"/><path d="m30.001 11.34s.776 0 .776-1.615c0-.829-.291-2.103-.582-3.208-.141-.536-.291-.829-.582-.829s-1.164.404-2.328 3.633z" fill="#92776f"/><path d="m29.992 11.331s.769 0 .769-1.599c0-.821-.288-2.083-.576-3.178-.14-.531-.288-.821-.576-.821s-1.153.4-2.306 3.598z" fill="#91766e"/><path d="m29.983 11.323s.761 0 .761-1.584c0-.813-.285-2.063-.571-3.147-.138-.526-.285-.813-.571-.813s-1.142.396-2.284 3.564z" fill="#91756d"/><path d="m29.974 11.314s.754 0 .754-1.569c0-.805-.283-2.044-.565-3.117-.137-.521-.283-.805-.565-.805-.283 0-1.131.392-2.262 3.53z" fill="#90746c"/><path d="m17.319 12s-1.319 0-1.319-2.745c0-1.409.495-3.576.99-5.455.24-.911.495-1.409.99-1.409s1.979.686 3.958 6.177z" fill="#bfbbb8"/><path d="m17.329 11.991s-1.312 0-1.312-2.73c0-1.401.492-3.556.984-5.424.239-.906.492-1.401.984-1.401s1.968.683 3.936 6.143z" fill="#bebab7"/><path d="m17.338 11.982s-1.305 0-1.305-2.715c0-1.393.489-3.536.979-5.394.237-.901.489-1.393.979-1.393.489 0 1.957.679 3.914 6.108z" fill="#beb9b6"/><path d="m17.347 11.973s-1.297 0-1.297-2.7c0-1.385.487-3.516.973-5.363.236-.896.487-1.385.973-1.385s1.946.675 3.892 6.074z" fill="#bdb8b5"/><path d="m17.356 11.964s-1.29 0-1.29-2.684c0-1.377.484-3.497.968-5.333.235-.891.484-1.377.968-1.377s1.935.671 3.87 6.039z" fill="#bdb7b4"/><path d="m17.365 11.955s-1.283 0-1.283-2.669c0-1.37.481-3.477.962-5.303.233-.886.481-1.37.962-1.37s1.924.667 3.848 6.005z" fill="#bcb6b3"/><path d="m17.375 11.947s-1.275 0-1.275-2.654c0-1.362.478-3.457.957-5.272.232-.881.478-1.362.957-1.362.478 0 1.913.663 3.826 5.971z" fill="#bbb5b2"/><path d="m17.384 11.938s-1.268 0-1.268-2.638c0-1.354.476-3.437.951-5.242.231-.876.476-1.354.951-1.354s1.902.66 3.804 5.936z" fill="#bbb5b1"/><path d="m17.393 11.929s-1.261 0-1.261-2.623c0-1.346.473-3.417.946-5.212.229-.871.473-1.346.946-1.346s1.891.656 3.782 5.902z" fill="#bab4b0"/><path d="m17.402 11.92s-1.253 0-1.253-2.608c0-1.338.47-3.397.94-5.181.228-.866.47-1.338.94-1.338s1.88.652 3.76 5.868z" fill="#bab3af"/><path d="m17.411 11.911s-1.246 0-1.246-2.593c0-1.33.467-3.377.934-5.151.227-.86.467-1.33.935-1.33s1.869.648 3.738 5.833z" fill="#b9b2ae"/><path d="m17.42 11.902s-1.239 0-1.239-2.577c0-1.323.464-3.357.929-5.121.225-.855.464-1.323.929-1.323s1.858.644 3.716 5.799z" fill="#b8b1ad"/><path d="m17.43 11.893s-1.231 0-1.231-2.562c0-1.315.462-3.337.923-5.09.224-.85.462-1.315.923-1.315.462 0 1.847.64 3.694 5.764z" fill="#b8b0ac"/><path d="m17.439 11.884s-1.224 0-1.224-2.547c0-1.307.459-3.317.918-5.06.223-.845.459-1.307.918-1.307s1.836.637 3.672 5.73z" fill="#b7afab"/><path d="m17.448 11.875s-1.217 0-1.217-2.531c0-1.299.456-3.298.912-5.03.221-.84.456-1.299.912-1.299s1.825.633 3.65 5.696z" fill="#b6aeaa"/><path d="m17.457 11.866s-1.209 0-1.209-2.516c0-1.291.453-3.278.907-4.999.22-.835.453-1.291.907-1.291.453 0 1.814.629 3.628 5.661z" fill="#b6ada9"/><path d="m17.466 11.857s-1.202 0-1.202-2.501c0-1.283.451-3.258.901-4.969.219-.83.451-1.283.901-1.283.451 0 1.803.625 3.606 5.627z" fill="#b5aca8"/><path d="m17.476 11.848s-1.195 0-1.195-2.486c0-1.275.448-3.238.896-4.938.217-.825.448-1.275.896-1.275s1.792.621 3.584 5.593z" fill="#b5aba7"/><path d="m17.485 11.84s-1.187 0-1.187-2.47c0-1.268.445-3.218.89-4.908.216-.82.445-1.268.89-1.268s1.781.618 3.562 5.558z" fill="#b4aaa6"/><path d="m17.494 11.831s-1.18 0-1.18-2.455c0-1.26.442-3.198.885-4.878.215-.815.442-1.26.885-1.26s1.77.614 3.54 5.524z" fill="#b3a9a5"/><path d="m17.503 11.822s-1.173 0-1.173-2.44c0-1.252.44-3.178.879-4.847.213-.81.44-1.252.879-1.252.44 0 1.759.61 3.518 5.489z" fill="#b3a9a4"/><path d="m17.512 11.813s-1.165 0-1.165-2.424c0-1.244.437-3.158.874-4.817.212-.805.437-1.244.874-1.244s1.748.606 3.496 5.455z" fill="#b2a8a3"/><path d="m17.521 11.804s-1.158 0-1.158-2.409c0-1.236.434-3.138.868-4.787.211-.8.434-1.236.868-1.236s1.737.602 3.474 5.421z" fill="#b2a7a2"/><path d="m17.531 11.795s-1.151 0-1.151-2.394c0-1.228.431-3.118.863-4.756.209-.795.431-1.228.863-1.228.431 0 1.726.598 3.452 5.386z" fill="#b1a6a1"/><path d="m17.54 11.786s-1.143 0-1.143-2.379c0-1.221.429-3.098.857-4.726.208-.789.429-1.221.857-1.221.429 0 1.715.595 3.43 5.352z" fill="#b0a5a0"/><path d="m17.549 11.777s-1.136 0-1.136-2.363c0-1.213.426-3.079.852-4.696.207-.784.426-1.213.852-1.213s1.704.591 3.408 5.318z" fill="#b0a49f"/><path d="m17.558 11.768s-1.129 0-1.129-2.348c0-1.205.423-3.059.846-4.665.205-.779.423-1.205.846-1.205s1.693.587 3.386 5.283z" fill="#afa39e"/><path d="m17.567 11.759s-1.121 0-1.121-2.333c0-1.197.42-3.039.841-4.635.204-.774.42-1.197.841-1.197.42 0 1.682.583 3.363 5.249z" fill="#afa29d"/><path d="m17.576 11.75s-1.114 0-1.114-2.317c0-1.189.418-3.019.835-4.604.203-.769.418-1.189.835-1.189.418 0 1.671.579 3.341 5.214z" fill="#aea19c"/><path d="m17.586 11.742s-1.106 0-1.106-2.302c0-1.181.415-2.999.83-4.574.201-.764.415-1.181.83-1.181s1.66.576 3.319 5.18z" fill="#ada09b"/><path d="m17.595 11.733s-1.099 0-1.099-2.287c0-1.174.412-2.979.824-4.544.2-.759.412-1.174.824-1.174s1.649.572 3.297 5.146z" fill="#ad9f9a"/><path d="m17.604 11.724s-1.092 0-1.092-2.272c0-1.166.409-2.959.819-4.513.199-.754.409-1.166.819-1.166.409 0 1.638.568 3.275 5.111z" fill="#ac9e99"/><path d="m17.613 11.715s-1.084 0-1.084-2.256c0-1.158.407-2.939.813-4.483.197-.749.407-1.158.813-1.158s1.627.564 3.253 5.077z" fill="#ab9d98"/><path d="m17.622 11.706s-1.077 0-1.077-2.241c0-1.15.404-2.919.808-4.453.196-.744.404-1.15.808-1.15s1.616.56 3.231 5.042z" fill="#ab9d97"/><path d="m17.632 11.697s-1.07 0-1.07-2.226c0-1.142.401-2.899.802-4.422.195-.739.401-1.142.802-1.142s1.605.556 3.209 5.008z" fill="#aa9c96"/><path d="m17.641 11.688s-1.062 0-1.062-2.211c0-1.134.398-2.88.797-4.392.193-.734.398-1.134.797-1.134.398 0 1.594.553 3.187 4.974z" fill="#aa9b95"/><path d="m17.65 11.679s-1.055 0-1.055-2.195c0-1.127.396-2.86.791-4.362.192-.729.396-1.127.791-1.127.396 0 1.583.549 3.165 4.939z" fill="#a99a94"/><path d="m17.659 11.67s-1.048 0-1.048-2.18c0-1.119.393-2.84.786-4.331.191-.724.393-1.119.786-1.119s1.572.545 3.143 4.905z" fill="#a89993"/><path d="m17.668 11.661s-1.04 0-1.04-2.165c0-1.111.39-2.82.78-4.301.189-.718.39-1.111.78-1.111s1.561.541 3.121 4.871z" fill="#a89892"/><path d="m17.677 11.652s-1.033 0-1.033-2.149c0-1.103.387-2.8.775-4.271.188-.713.387-1.103.775-1.103s1.55.537 3.099 4.836z" fill="#a79792"/><path d="m17.687 11.643s-1.026 0-1.026-2.134c0-1.095.385-2.78.769-4.24.187-.708.385-1.095.769-1.095s1.539.534 3.077 4.802z" fill="#a79691"/><path d="m17.696 11.635s-1.018 0-1.018-2.119c0-1.087.382-2.76.764-4.21.185-.703.382-1.087.764-1.087s1.528.53 3.055 4.767z" fill="#a69590"/><path d="m17.705 11.626s-1.011 0-1.011-2.104c0-1.079.379-2.74.758-4.179.184-.698.379-1.079.758-1.079s1.517.526 3.033 4.733z" fill="#a5948f"/><path d="m17.714 11.617s-1.004 0-1.004-2.088c0-1.072.376-2.72.753-4.149.183-.693.376-1.072.753-1.072.376 0 1.505.522 3.011 4.699z" fill="#a5938e"/><path d="m17.723 11.608s-.996 0-.996-2.073c0-1.064.374-2.7.747-4.119.181-.688.374-1.064.747-1.064s1.494.518 2.989 4.664z" fill="#a4928d"/><path d="m17.733 11.599s-.989 0-.989-2.058c0-1.056.371-2.68.742-4.088.18-.683.371-1.056.742-1.056s1.483.514 2.967 4.63z" fill="#a4928c"/><path d="m17.742 11.59s-.982 0-.982-2.042c0-1.048.368-2.661.736-4.058.179-.678.368-1.048.736-1.048s1.472.511 2.945 4.596z" fill="#a3918b"/><path d="m17.751 11.581s-.974 0-.974-2.027c0-1.04.365-2.641.731-4.028.177-.673.365-1.04.731-1.04s1.461.507 2.923 4.561z" fill="#a2908a"/><path d="m17.76 11.572s-.967 0-.967-2.012c0-1.032.363-2.621.725-3.997.176-.668.363-1.032.725-1.032s1.45.503 2.901 4.527z" fill="#a28f89"/><path d="m17.769 11.563s-.96 0-.96-1.997c0-1.025.36-2.601.72-3.967.175-.663.36-1.025.72-1.025s1.439.499 2.879 4.492z" fill="#a18e88"/><path d="m17.778 11.554s-.952 0-.952-1.981c0-1.017.357-2.581.714-3.937.173-.658.357-1.017.714-1.017s1.428.495 2.857 4.458z" fill="#a08d87"/><path d="m17.788 11.545s-.945 0-.945-1.966c0-1.009.354-2.561.709-3.906.172-.653.354-1.009.709-1.009s1.417.492 2.835 4.424z" fill="#a08c86"/><path d="m17.797 11.537s-.938 0-.938-1.951c0-1.001.352-2.541.703-3.876.171-.647.352-1.001.703-1.001s1.406.488 2.813 4.389z" fill="#9f8b85"/><path d="m17.806 11.528s-.93 0-.93-1.935c0-.993.349-2.521.698-3.846.169-.642.349-.993.698-.993s1.395.484 2.791 4.355z" fill="#9f8a84"/><path d="m17.815 11.519s-.923 0-.923-1.92c0-.985.346-2.501.692-3.815.168-.637.346-.985.692-.985s1.384.48 2.769 4.32z" fill="#9e8983"/><path d="m17.824 11.51s-.916 0-.916-1.905c0-.978.343-2.481.687-3.785.167-.632.343-.978.687-.978s1.373.476 2.747 4.286z" fill="#9d8882"/><path d="m17.834 11.501s-.908 0-.908-1.89c0-.97.341-2.462.681-3.754.165-.627.341-.97.681-.97.341 0 1.362.472 2.725 4.252z" fill="#9d8781"/><path d="m17.843 11.492s-.901 0-.901-1.874c0-.962.338-2.442.676-3.724.164-.622.338-.962.676-.962s1.351.469 2.703 4.217z" fill="#9c8680"/><path d="m17.852 11.483s-.894 0-.894-1.859c0-.954.335-2.422.67-3.694.163-.617.335-.954.67-.954s1.34.465 2.681 4.183z" fill="#9c867f"/><path d="m17.861 11.474s-.886 0-.886-1.844c0-.946.332-2.402.665-3.663.161-.612.332-.946.665-.946s1.329.461 2.658 4.149z" fill="#9b857e"/><path d="m17.87 11.465s-.879 0-.879-1.829c0-.938.33-2.382.659-3.633.16-.607.33-.938.659-.938.33 0 1.318.457 2.636 4.114z" fill="#9a847d"/><path d="m17.879 11.456s-.871 0-.871-1.813c0-.93.327-2.362.654-3.603.159-.602.327-.93.654-.93s1.307.453 2.614 4.08z" fill="#9a837c"/><path d="m17.889 11.447s-.864 0-.864-1.798c0-.923.324-2.342.648-3.572.157-.597.324-.923.648-.923s1.296.449 2.592 4.045z" fill="#99827b"/><path d="m17.898 11.438s-.857 0-.857-1.783c0-.915.321-2.322.643-3.542.156-.592.321-.915.643-.915.321 0 1.285.446 2.57 4.011z" fill="#99817a"/><path d="m17.907 11.43s-.849 0-.849-1.767c0-.907.319-2.302.637-3.512.155-.587.319-.907.637-.907.319 0 1.274.442 2.548 3.977z" fill="#988079"/><path d="m17.916 11.421s-.842 0-.842-1.752c0-.899.316-2.282.632-3.481.153-.582.316-.899.632-.899s1.263.438 2.526 3.942z" fill="#977f78"/><path d="m17.925 11.412s-.835 0-.835-1.737c0-.891.313-2.262.626-3.451.152-.576.313-.891.626-.891s1.252.434 2.504 3.908z" fill="#977e77"/><path d="m17.934 11.403s-.827 0-.827-1.722c0-.883.31-2.243.621-3.42.151-.571.31-.883.621-.883s1.241.43 2.482 3.874z" fill="#967d76"/><path d="m17.944 11.394s-.82 0-.82-1.706c0-.876.308-2.223.615-3.39.149-.566.308-.876.615-.876s1.23.427 2.46 3.839z" fill="#957c75"/><path d="m17.953 11.385s-.813 0-.813-1.691c0-.868.305-2.203.61-3.36.148-.561.305-.868.61-.868s1.219.423 2.438 3.805z" fill="#957b74"/><path d="m17.962 11.376s-.805 0-.805-1.676c0-.86.302-2.183.604-3.329.146-.556.302-.86.604-.86s1.208.419 2.416 3.77z" fill="#947a73"/><path d="m17.971 11.367s-.798 0-.798-1.66c0-.852.299-2.163.599-3.299.145-.551.299-.852.599-.852.299 0 1.197.415 2.394 3.736z" fill="#947a72"/><path d="m17.98 11.358s-.791 0-.791-1.645c0-.844.297-2.143.593-3.269.145-.546.297-.844.594-.844s1.186.411 2.372 3.702z" fill="#937971"/><path d="m17.99 11.349s-.783 0-.783-1.63c0-.836.294-2.123.588-3.238.142-.541.294-.836.588-.836s1.175.407 2.35 3.667z" fill="#927870"/><path d="m17.999 11.34s-.776 0-.776-1.615c0-.829.291-2.103.582-3.208.141-.536.291-.829.582-.829s1.164.404 2.328 3.633z" fill="#92776f"/><path d="m18.008 11.331s-.769 0-.769-1.599c0-.821.288-2.083.576-3.178.14-.531.288-.821.576-.821s1.153.4 2.306 3.598z" fill="#91766e"/><path d="m18.017 11.323s-.761 0-.761-1.584c0-.813.285-2.063.571-3.147.138-.526.285-.813.571-.813s1.142.396 2.284 3.564z" fill="#91756d"/><path d="m18.026 11.314s-.754 0-.754-1.569c0-.805.283-2.044.565-3.117.137-.521.283-.805.565-.805s1.131.392 2.262 3.53z" fill="#90746c"/><path d="m32.936 9.811s.001.703-1.374.703c-2.062 0-4.4-3.514-6.187-3.514h-2.75c-1.787 0-4.125 3.514-6.188 3.514-1.375 0-1.362-.703-1.362-.703s-2.075 7.027-2.075 10.54c0 5.622 7.562 12.649 11 12.649s11-7.027 11-12.649c0-3.513-2.064-10.54-2.064-10.54z" fill="url(#h)"/><path d="m35 20.351c0 5.446-7.088 12.199-10.656 12.628-.124.014-.234.021-.344.021v-26h1.375c1.787 0 4.125 3.514 6.188 3.514 1.375 0 1.374-.703 1.374-.703s2.063 7.027 2.063 10.54z" fill="url(#j)"/><path d="m35 20.35v.11c-1.76-7.38-3.12-9.9-3.12-9.96.01 0 .03-.01.04-.01.88-.09 1-.53 1.01-.65.01-.02.01-.03.01-.03s.13.45.32 1.17c.53 2.01 1.55 6.12 1.72 8.81.01.19.02.38.02.56z" fill="url(#l)"/><path d="m13 20.351c0 5.446 7.088 12.199 10.656 12.628.124.014.234.021.344.021v-26h-1.375c-1.787 0-4.125 3.514-6.188 3.514-1.375 0-1.374-.703-1.374-.703s-2.063 7.027-2.063 10.54z" fill="url(#m)"/><path d="m13 20.35v.11c1.76-7.38 3.12-9.9 3.12-9.96-.01 0-.03-.01-.04-.01-.88-.09-1-.53-1.01-.65-.01-.02-.01-.03-.01-.03s-.13.45-.32 1.17c-.53 2.01-1.55 6.12-1.72 8.81-.01.19-.02.38-.02.56z" fill="url(#n)"/><path d="m29.852 14.661c-.664-1.433-2.062-2.661-3.083-2.661-1.385 0-2.077 1.504-2.077 2.815 0 1.693.692 4.222.692 4.222s-.692-.383-1.384-.383-1.385.383-1.385.383.692-2.618.692-4.222c0-1.407-.692-2.815-2.077-2.815-1.021 0-2.419 1.228-3.082 2.661-.424.916-3.148 2.265-3.148 5.08 0 2.096 2.056 4.042 3.462 6.333 1.669 2.721 2.907 4.926 5.538 4.926 2.657 0 3.868-2.167 5.538-4.926 1.377-2.274 3.462-4.261 3.462-6.333 0-2.815-2.724-4.164-3.148-5.08z" fill="url(#o)"/><path d="m24 19c-.373 0-2.062 2.424-4.125 2.424-1.285 1.43-2.013 3.77-1.375 4.788 1.657 2.645 2.887 4.788 5.5 4.788 2.638 0 3.841-2.107 5.5-4.788.622-1.006-.099-3.36-1.375-4.788-1.375 0-3.751-2.424-4.125-2.424z" fill="url(#p)"/><path d="m21 24.652s1.136 2.348 1.757 2.348h2.485c.622 0 1.758-2.348 1.758-2.348z" fill="url(#q)"/><path d="m25.597 24c-.458.065-.985.105-1.597.105s-1.139-.04-1.597-.105c0 0-.403 1.198-.403 2.775 0 1.221.895 2.225 2 2.225s2-1.004 2-2.225c0-1.577-.403-2.775-.403-2.775z" fill="url(#r)"/><path d="m24 28c.059 0 .108-.056.112-.127l.208-3.774c-.105.003-.209.006-.32.006s-.215-.003-.32-.006l.208 3.774c.004.071.053.127.112.127z" fill="url(#s)"/><path d="m22.667 19.361-2.667 1.991s-.015 3.687 1.464 3.687h5.072c1.479 0 1.464-3.687 1.464-3.687l-2.667-1.991s-.666-.361-1.333-.361c-.672 0-1.333.361-1.333.361z" fill="url(#t)"/><path d="m20 21s-.015 4.039 1.464 4.039h5.072c1.479 0 1.464-4.039 1.464-4.039z" fill="url(#u)"/><path d="m24.286 20.478h-.571s-1.714 0-1.714 1.159 1.143 2.319 1.714 2.319h.571c.571 0 1.714-1.159 1.714-2.319 0-1.159-1.714-1.159-1.714-1.159z" fill="url(#v)"/><path d="m24.286 20.478h-.571s-1.714 0-1.714 1.159c0 0 .5-.58 2-.58s2 .58 2 .58c-.001-1.159-1.715-1.159-1.715-1.159z" fill="#322e33"/><g fill="#06050a"><path d="m24.318 22.366c-.058-.393.169-.766.505-.833.337-.067.657.197.714.59.059.392-1.161.636-1.219.243z"/><path d="m22.455 22.122c.058-.393.377-.657.714-.59s.563.44.505.833c-.057.394-1.277.15-1.219-.243z"/><path d="m22.625 17.022s-.666-2.022-1.332-2.022c-1.332 0-2.664 1.348-2.664 1.348s.658 1.348 2.331 1.348c.999 0 1.665-.674 1.665-.674z"/></g><ellipse cx="20.96" cy="16.5" fill="url(#x)" rx="1.181" ry="1.195"/><ellipse cx="20.96" cy="16.5" fill="url(#z)" rx=".5" ry=".505"/><ellipse cx="20.641" cy="16.145" fill="#fff" rx=".2" ry=".202"/><path d="m25.415 17.022s.666-2.022 1.332-2.022c1.332 0 2.664 1.348 2.664 1.348s-.658 1.348-2.331 1.348c-.999 0-1.665-.674-1.665-.674z" fill="#06050a"/><ellipse cx="27.08" cy="16.5" fill="url(#A)" rx="1.181" ry="1.195"/><ellipse cx="27.08" cy="16.5" fill="url(#B)" rx=".5" ry=".505"/><ellipse cx="27.399" cy="16.145" fill="#fff" rx=".2" ry=".202"/></svg>