<svg fill="#000000" xmlns="http://www.w3.org/2000/svg"  viewBox="0 0 50 50" width="50px" height="50px"><path d="M 28.990234 8.9902344 A 1.0001 1.0001 0 0 0 28.292969 10.707031 C 28.792969 11.207031 29.408209 11.706707 30.335938 11.861328 C 31.103608 11.989273 32.463831 11.976538 34.195312 11.976562 C 34.213152 12.051354 34.221738 12.094822 34.242188 12.179688 C 34.379933 12.751336 34.575892 13.54653 34.810547 14.492188 C 34.931761 14.980681 35.114476 15.707504 35.253906 16.265625 L 24.234375 22.199219 L 16.605469 13.986328 C 18.94399 13.917824 20 13.209772 20 12.546875 C 20 11.949875 19.5 12 18.625 12 L 12 12 C 11.448 12 11 12.448 11 13 L 11 13.443359 C 11 14.671359 11.375 15 12 15 C 12.575314 15 13.369266 14.67176 14.25 14.388672 L 22.414062 23.179688 L 18.240234 25.427734 C 16.445379 22.770491 13.440514 21 10 21 C 4.486 21 0 25.486 0 31 C 0 36.514 4.486 41 10 41 C 13.1802 41 14.784096 40.257683 16.652344 39.298828 C 17.397844 40.388583 18.620729 40.998047 19.878906 40.998047 C 20.539906 40.998047 21.209312 40.831469 21.820312 40.480469 L 23.496094 39.521484 C 23.727094 39.389484 23.895844 39.170109 23.964844 38.912109 C 24.032844 38.655109 23.997281 38.380391 23.863281 38.150391 L 23.679688 37.833984 L 25.46875 36.882812 A 1.0001 1.0001 0 0 0 24.980469 34.994141 A 1.0001 1.0001 0 0 0 24.53125 35.117188 L 22.673828 36.105469 L 21.421875 33.957031 L 23.464844 32.886719 A 1.0001 1.0001 0 0 0 22.986328 30.994141 A 1.0001 1.0001 0 0 0 22.535156 31.113281 L 20.414062 32.224609 L 19.990234 31.496094 C 19.714234 31.021094 19.108859 30.861812 18.630859 31.132812 L 16.953125 32.09375 C 16.047125 32.61175 15.400859 33.450078 15.130859 34.455078 C 14.862859 35.456078 15.004391 36.502437 15.525391 37.398438 L 15.626953 37.574219 C 13.948153 38.432162 12.650634 39 10 39 C 5.589 39 2 35.411 2 31 C 2 26.589 5.589 23 10 23 C 12.680439 23 15.044549 24.335265 16.494141 26.367188 L 8.53125 30.654297 A 1.0005836 1.0005836 0 1 0 9.4804688 32.416016 L 35.755859 18.267578 C 36.023275 19.333097 36.249869 20.240341 36.53125 21.357422 C 36.563361 21.484902 36.563614 21.483981 36.595703 21.611328 C 32.757032 23.009653 30 26.685827 30 31 C 30 36.511003 34.488997 41 40 41 C 45.511003 41 50 36.511003 50 31 C 50 25.488997 45.511003 21 40 21 C 39.500265 21 39.013545 21.049855 38.533203 21.121094 C 38.501347 20.994677 38.500626 20.995688 38.46875 20.869141 C 37.843896 18.388469 37.220144 15.896576 36.751953 14.009766 C 36.517858 13.06636 36.32319 12.274051 36.1875 11.710938 C 36.11966 11.429379 36.066118 11.205805 36.03125 11.052734 C 36.01382 10.976204 36.001001 10.916205 35.994141 10.882812 C 35.990941 10.867422 35.988081 10.859728 35.988281 10.861328 L 35.988281 10.859375 A 1.0001 1.0001 0 0 0 35 10 C 32.5 10 31.236334 9.9840504 30.664062 9.8886719 C 30.091791 9.7932933 30.207031 9.7929688 29.707031 9.2929688 A 1.0001 1.0001 0 0 0 28.990234 8.9902344 z M 40 23 C 44.430123 23 48 26.569877 48 31 C 48 35.430123 44.430123 39 40 39 C 35.569877 39 32 35.430123 32 31 C 32 27.600329 34.105871 24.714665 37.085938 23.552734 C 38.010576 27.213785 39.03125 31.246094 39.03125 31.246094 A 1.0001 1.0001 0 1 0 40.96875 30.753906 C 40.96875 30.753906 39.947823 26.723454 39.023438 23.064453 C 39.343971 23.02566 39.668712 23 40 23 z"/></svg>