<svg fill="#000000" xmlns="http://www.w3.org/2000/svg"  viewBox="0 0 50 50" width="50px" height="50px"><path d="M 5.984375 3.9863281 A 1.0001 1.0001 0 0 0 5.8398438 4 L 1 4 A 1.0001 1.0001 0 0 0 0 5 L 0 9.8320312 A 1.0001 1.0001 0 0 0 0 10.158203 L 0 17.832031 A 1.0001 1.0001 0 0 0 0 18.158203 L 0 23 A 1.0001 1.0001 0 0 0 1 24 L 5.8320312 24 A 1.0001 1.0001 0 0 0 6.1582031 24 L 10.832031 24 A 1.0001 1.0001 0 0 0 11.158203 24 L 16 24 A 1.0001 1.0001 0 0 0 17 23 L 17 18.167969 A 1.0001 1.0001 0 0 0 17 17.841797 L 17 10.167969 A 1.0001 1.0001 0 0 0 17 9.8417969 L 17 5 A 1.0001 1.0001 0 0 0 16 4 L 11.154297 4 A 1.0001 1.0001 0 0 0 10.984375 3.9863281 A 1.0001 1.0001 0 0 0 10.839844 4 L 6.1542969 4 A 1.0001 1.0001 0 0 0 5.984375 3.9863281 z M 2 6 L 5 6 L 5 9 L 2 9 L 2 6 z M 7 6 L 10 6 L 10 9 A 1.0001 1.0001 0 1 0 10 11 L 10.152344 11 C 10.318318 11.877791 10.616313 12.757038 11.177734 13.568359 A 1.0001 1.0001 0 1 0 12.822266 12.431641 C 12.522383 11.998269 12.332216 11.518787 12.201172 11 L 15 11 L 15 17 L 12 17 A 1.0001 1.0001 0 1 0 10 17 A 1.0001 1.0001 0 1 0 10 19 L 10 21.958984 L 10 22 L 7 22 L 7 19 A 1.0001 1.0001 0 0 0 7.1132812 17.005859 C 7.2234605 16.450122 7.4135957 16.007834 7.7148438 15.699219 A 1.0001 1.0001 0 0 0 6.96875 13.990234 A 1.0001 1.0001 0 0 0 6.2851562 14.300781 C 5.5537353 15.050091 5.2161151 16.00045 5.0800781 17 L 2 17 L 2 11 L 5 11 A 1.0001 1.0001 0 1 0 7 11 A 1.0001 1.0001 0 1 0 7 9 L 7 6 z M 12 6 L 15 6 L 15 9 L 12 9 L 12 6 z M 40.490234 7.0195312 A 4.468 4.468 0 0 0 40.490234 15.955078 A 4.468 4.468 0 0 0 40.490234 7.0195312 z M 33.46875 15.015625 L 26.421875 15.023438 C 25.508875 15.023438 24.633062 15.492594 24.039062 16.433594 L 20.380859 22.013672 C 20.046859 22.591672 19.957859 23.265156 20.130859 23.910156 C 20.302859 24.555156 20.716922 25.093734 21.294922 25.427734 C 22.487922 26.115734 24.0195 25.705828 24.6875 24.548828 L 27.734375 19.984375 L 31.53125 19.984375 L 27.947266 27.195312 C 27.173266 28.739313 27.619766 30.604859 29.009766 31.630859 L 36.693359 37.306641 L 34.408203 44.773438 C 34.292203 45.430437 34.438312 46.093625 34.820312 46.640625 C 35.203313 47.188625 35.774641 47.553922 36.431641 47.669922 C 36.579641 47.695922 36.728 47.708984 36.875 47.708984 C 37.382 47.708984 37.876781 47.554813 38.300781 47.257812 C 38.848781 46.875813 39.213359 46.302266 39.318359 45.697266 L 41.904297 36.783203 C 41.952297 36.496203 41.949531 36.199438 41.894531 35.898438 C 41.807531 35.213437 41.458125 34.615141 40.953125 34.244141 L 35.837891 29.445312 L 39.365234 21.623047 C 40.088234 20.021047 39.423563 18.153188 37.851562 17.367188 L 35.447266 15.5 C 34.771266 15.163 34.22175 15.015625 33.46875 15.015625 z M 2 19 L 5 19 L 5 22 L 2 22 L 2 19 z M 12 19 L 15 19 L 15 22 L 12 22 L 12 21.958984 L 12 19 z M 41.078125 20.455078 C 41.013125 20.867078 40.912422 21.278734 40.732422 21.677734 L 38.828125 25.898438 L 39.462891 26.767578 L 39.464844 26.767578 C 39.474844 26.782578 39.483328 26.795781 39.486328 26.800781 C 39.518328 26.849781 39.553656 26.895125 39.597656 26.953125 C 39.663656 27.043125 39.732563 27.129047 39.851562 27.248047 C 40.328562 27.715047 41.000516 27.951172 41.853516 27.951172 L 47.478516 27.941406 C 48.839516 27.939406 49.988328 26.771578 49.986328 25.392578 C 49.985328 24.016578 48.955219 23.015625 47.574219 23.015625 C 47.572219 23.015625 47.325219 23.007812 47.324219 23.007812 L 43 22.996094 L 41.078125 20.455078 z M 26.835938 31.275391 L 24.767578 35.056641 L 18.021484 35.056641 C 16.642484 35.056641 15.582031 35.996 15.582031 37.375 C 15.582031 38.754 16.703031 39.875 18.082031 39.875 L 26.082031 39.875 C 26.458031 39.875 26.831953 39.785766 27.126953 39.634766 C 27.709953 39.439766 28.19775 39.044359 28.46875 38.568359 L 30.998047 34.972656 L 28.271484 32.960938 C 27.650484 32.502938 27.179938 31.918391 26.835938 31.275391 z"/></svg>