<svg fill="#000000" xmlns="http://www.w3.org/2000/svg"  viewBox="0 0 50 50" width="50px" height="50px"><path d="M 34.984375 1.9863281 A 1.0001 1.0001 0 0 0 34 3 C 34 3.888391 33.814434 4.344325 33.558594 4.7070312 C 33.302754 5.0697375 32.918099 5.3617834 32.419922 5.7167969 C 31.921745 6.0718104 31.308325 6.488187 30.8125 7.1777344 C 30.316675 7.8672817 30 8.8105045 30 10 A 1.0001 1.0001 0 1 0 32 10 C 32 9.1349955 32.183325 8.699187 32.4375 8.3457031 C 32.691675 7.9922192 33.078255 7.7033146 33.580078 7.3457031 C 34.081901 6.9880916 34.697246 6.55995 35.191406 5.859375 C 35.685566 5.1588 36 4.206609 36 3 A 1.0001 1.0001 0 0 0 34.984375 1.9863281 z M 38.984375 4.9863281 A 1.0001 1.0001 0 0 0 38 6 C 38 6.5255038 37.890897 6.7662115 37.722656 6.9980469 C 37.554416 7.2298823 37.276827 7.4535546 36.904297 7.7304688 C 36.531767 8.0073829 36.064042 8.3345838 35.667969 8.8652344 C 35.271895 9.3958849 35 10.134898 35 11 A 1.0001 1.0001 0 1 0 37 11 C 37 10.501602 37.103105 10.285474 37.269531 10.0625 C 37.435958 9.8395255 37.718233 9.6145703 38.095703 9.3339844 C 38.473173 9.0533985 38.945584 8.7151646 39.339844 8.171875 C 39.734103 7.6285854 40 6.8809962 40 6 A 1.0001 1.0001 0 0 0 38.984375 4.9863281 z M 25 14 C 24.448 14 24 14.447 24 15 L 24 34.275391 C 24 35.608391 24.255172 36.868 24.701172 38 L 43.298828 38 C 43.674838 37.046487 43.904335 35.998242 43.970703 34.894531 C 45.077882 34.663089 46.03147 34.053596 46.759766 33.244141 C 47.693581 32.206262 48.329487 30.86688 48.798828 29.427734 C 49.737511 26.549443 50 23.238947 50 21 C 50 19.35503 48.64497 18 47 18 L 44 18 L 44 15 C 44 14.447 43.552 14 43 14 L 25 14 z M 18.5 17 C 16.832 17 15.339453 17.921312 14.564453 19.320312 C 13.439453 18.836313 12.075 18.915875 11 19.546875 C 10.393 19.190875 9.705 19 9 19 C 7.103 19 5.5105625 20.326562 5.1015625 22.101562 C 3.6515625 22.435562 2.5155781 23.566 2.1425781 25 L 1 25 C 0.448 25 0 25.447 0 26 L 0 28.908203 C 0 32.436203 1.6222969 35.581 3.9042969 38 L 22.582031 38 C 22.210031 36.839 22 35.586391 22 34.275391 L 22 25 L 4.2675781 25 C 4.6145781 24.402 5.261 24 6 24 C 6.552 24 7 23.553 7 23 C 7 21.897 7.897 21 9 21 C 9.621 21 10.065078 21.283484 10.330078 21.521484 C 10.710078 21.863484 11.289922 21.863484 11.669922 21.521484 C 11.934922 21.283484 12.379 21 13 21 C 13.511 21 13.999953 21.198594 14.376953 21.558594 C 14.640953 21.811594 15.022094 21.899109 15.371094 21.787109 C 15.719094 21.676109 15.979828 21.383437 16.048828 21.023438 C 16.274828 19.850438 17.306 19 18.5 19 C 19.464 19 20.352719 19.569125 20.761719 20.453125 C 20.941719 20.841125 21.353438 21.073344 21.773438 21.027344 L 22 21 L 22 18.697266 C 21.157 17.645266 19.875 17 18.5 17 z M 44 20 L 47 20 C 47.56503 20 48 20.43497 48 21 C 48 23.073053 47.726052 26.262932 46.896484 28.806641 C 46.481701 30.078495 45.926528 31.180379 45.273438 31.90625 C 44.87889 32.344765 44.465829 32.63552 44 32.810547 L 44 20 z M 1 40 C 0.653 40 0.3304375 40.179609 0.1484375 40.474609 C -0.0335625 40.769609 -0.04953125 41.137266 0.10546875 41.447266 L 1.2421875 43.722656 C 1.9341875 45.105656 3.5343125 46 5.3203125 46 L 44.679688 46 C 46.464688 46 48.065812 45.105656 48.757812 43.722656 L 49.894531 41.447266 C 50.049531 41.137266 50.034562 40.769609 49.851562 40.474609 C 49.668563 40.179609 49.347 40 49 40 L 1 40 z"/></svg>