<svg width="20" height="21" viewBox="0 0 20 21" fill="none" xmlns="http://www.w3.org/2000/svg">
<g clip-path="url(#clip0_4306_423)">
<path d="M2.9165 10.4998C2.9165 14.4165 6.08317 17.5832 9.99984 17.5832C13.9165 17.5832 17.0832 14.4165 17.0832 10.4998C17.0832 6.58317 13.9165 3.4165 9.99984 3.4165C6.08317 3.4165 2.9165 6.58317 2.9165 10.4998Z" fill="white"/>
<path d="M9.99984 18.8332C5.4165 18.8332 1.6665 15.0832 1.6665 10.4998C1.6665 5.9165 5.4165 2.1665 9.99984 2.1665C11.9582 2.1665 13.8748 2.87484 15.3748 4.1665L14.2915 5.4165C13.1248 4.37484 11.5832 3.83317 9.99984 3.83317C6.33317 3.83317 3.33317 6.83317 3.33317 10.4998C3.33317 14.1665 6.33317 17.1665 9.99984 17.1665V18.8332Z" fill="#DCEDC8"/>
<path d="M11.2498 5.5L7.9165 3L11.2498 0.5V5.5Z" fill="#7CB342"/>
<path d="M4.58317 10.5002C4.58317 10.7502 4.4165 10.9168 4.1665 10.9168H2.9165V10.0835H4.1665C4.4165 10.0835 4.58317 10.2502 4.58317 10.5002ZM9.99984 15.9168C9.74984 15.9168 9.58317 16.0835 9.58317 16.3335V17.5835H10.4165V16.3335C10.4165 16.0835 10.2498 15.9168 9.99984 15.9168ZM15.8332 10.0835C15.5832 10.0835 15.4165 10.2502 15.4165 10.5002C15.4165 10.7502 15.5832 10.9168 15.8332 10.9168H17.0832V10.0835H15.8332Z" fill="#B0BEC5"/>
<path d="M9.99984 18.8332C5.4165 18.8332 1.6665 15.0832 1.6665 10.4998C1.6665 8.5415 2.37484 6.62484 3.6665 5.12484L4.9165 6.20817C3.87484 7.37484 3.33317 8.9165 3.33317 10.4998C3.33317 14.1665 6.33317 17.1665 9.99984 17.1665C13.6665 17.1665 16.6665 14.1665 16.6665 10.4998C16.6665 6.83317 13.6665 3.83317 9.99984 3.83317V2.1665C14.5832 2.1665 18.3332 5.9165 18.3332 10.4998C18.3332 15.0832 14.5832 18.8332 9.99984 18.8332Z" fill="#7CB342"/>
</g>
<defs>
<clipPath id="clip0_4306_423">
<rect width="20" height="20" fill="white" transform="translate(0 0.5)"/>
</clipPath>
</defs>
</svg>
