<svg fill="#000000" xmlns="http://www.w3.org/2000/svg"  viewBox="0 0 50 50" width="50px" height="50px"><path d="M 25.013672 0.8046875 C 24.780297 0.8020625 24.545031 0.90659375 24.394531 1.1210938 L 24.203125 1.3964844 C 24.203125 1.3974844 24.200219 1.3983906 24.199219 1.4003906 L 19 8.3300781 L 16.800781 5.4003906 C 16.610781 5.1403906 16.320234 4.99 15.990234 5 C 15.670234 5 15.369453 5.1599219 15.189453 5.4199219 L 6.9199219 17 L 13.279297 17 L 15 17 L 18.169922 17 L 18.75 17.529297 L 20.339844 19 L 43 19 L 44 19 L 45 19 L 45.949219 19 L 46 19 C 43.566 15.855 41.131266 12.709453 38.697266 9.5644531 L 37.638672 8.1855469 C 37.323672 7.7755469 36.708766 7.768875 36.384766 8.171875 L 33.070312 12.310547 L 25.623047 1.1367188 C 25.478047 0.91871875 25.247047 0.8073125 25.013672 0.8046875 z M 5.8808594 19 C 5.4008594 19 5 19.400859 5 19.880859 L 5 24.119141 C 5 24.599141 5.4008594 25 5.8808594 25 L 10 25 L 10 37.439453 C 7.54 37.649453 4.5892969 37.829453 1.0292969 37.939453 C 2.0092969 38.569453 3.0004687 39.200078 3.9804688 39.830078 C 7.5904687 42.130078 11.189063 44.43 14.789062 46.75 C 14.819062 46.77 14.860625 46.790547 14.890625 46.810547 C 15.800625 47.390547 16.699375 47.970781 17.609375 48.550781 C 31.269375 47.020781 43.940156 44.029609 45.410156 37.599609 C 45.640156 35.899609 44.950625 34.640781 44.890625 34.550781 C 43.580625 31.910781 39.659375 31.470781 35.859375 31.050781 C 33.349375 30.760781 30.500078 30.439219 29.830078 29.449219 C 29.520078 28.979219 29.579687 28.690703 29.679688 28.470703 C 30.619688 26.420703 37.74 24.18 47 23 C 47.05 23 47.100625 23.000234 47.140625 22.990234 C 47.160625 22.990234 47.179219 22.980469 47.199219 22.980469 C 47.229219 22.970469 47.259297 22.969219 47.279297 22.949219 C 47.289297 22.959219 47.290781 22.959219 47.300781 22.949219 C 47.310781 22.949219 47.310313 22.949453 47.320312 22.939453 C 47.340312 22.939453 47.349141 22.939688 47.369141 22.929688 C 47.379141 22.929688 47.380625 22.919922 47.390625 22.919922 C 47.420625 22.909922 47.460234 22.889141 47.490234 22.869141 C 47.530234 22.849141 47.569375 22.819063 47.609375 22.789062 C 47.619375 22.779063 47.640391 22.77 47.650391 22.75 C 47.690391 22.73 47.72 22.690156 47.75 22.660156 C 47.78 22.620156 47.810078 22.590781 47.830078 22.550781 C 47.850078 22.520781 47.870859 22.500703 47.880859 22.470703 C 47.890859 22.460703 47.890391 22.449453 47.900391 22.439453 C 47.900391 22.429453 47.910156 22.410391 47.910156 22.400391 L 47.939453 22.339844 C 47.959453 22.299844 47.970469 22.249219 47.980469 22.199219 C 47.990469 22.169219 47.990234 22.139609 47.990234 22.099609 C 48.000234 22.069609 48 22.039766 48 22.009766 L 48 22 C 48 21.95 48.000234 21.899375 47.990234 21.859375 C 47.990234 21.839375 47.980469 21.820781 47.980469 21.800781 C 47.970469 21.770781 47.969219 21.740703 47.949219 21.720703 C 47.959219 21.710703 47.959219 21.709219 47.949219 21.699219 C 47.949219 21.689219 47.949453 21.689688 47.939453 21.679688 C 47.939453 21.659688 47.939687 21.650859 47.929688 21.630859 L 47.900391 21.570312 L 47.869141 21.509766 C 47.849141 21.459766 47.819063 21.420625 47.789062 21.390625 C 47.789063 21.390625 47.789297 21.380859 47.779297 21.380859 C 47.759297 21.350859 47.730938 21.319063 47.710938 21.289062 C 47.690938 21.279063 47.680156 21.26 47.660156 21.25 C 47.620156 21.22 47.590781 21.189922 47.550781 21.169922 C 47.510781 21.139922 47.459922 21.109609 47.419922 21.099609 C 47.289922 21.029609 47.15 21 47 21 L 44.970703 21 L 37 21 C 34.59375 21.00875 30.863516 21.262129 27.416016 22.4375 C 26.923516 22.60541 26.437188 22.7925 25.960938 23 C 24.640938 23.57 23.399844 24.31 22.339844 25.25 C 21.649844 25.86 20.369531 27.000547 20.019531 28.810547 C 19.629531 30.830547 20.619844 32.37 21.339844 33.5 C 21.649844 33.99 22.049531 34.610078 22.019531 34.830078 C 21.979531 34.900078 21.2 36.309766 12 37.259766 L 12 25 L 17.439453 25 L 19.300781 23 L 20.419922 21.789062 L 19.560547 21 L 17.390625 19 L 5.8808594 19 z"/></svg>