<svg fill="#000000" xmlns="http://www.w3.org/2000/svg"  viewBox="0 0 50 50" width="50px" height="50px"><path d="M 10.042969 2.992188 C 9.75 2.980469 9.464844 3.101563 9.265625 3.320313 C 9.265625 3.320313 5 7.96875 5 16 C 4.996094 16.359375 5.183594 16.695313 5.496094 16.878906 C 5.808594 17.058594 6.191406 17.058594 6.503906 16.878906 C 6.816406 16.695313 7.003906 16.359375 7 16 C 7 8.660156 10.734375 4.679688 10.734375 4.679688 C 11.003906 4.394531 11.082031 3.976563 10.933594 3.613281 C 10.785156 3.246094 10.4375 3.003906 10.042969 2.992188 Z M 26 3 C 23.238281 3 21 5.238281 21 8 C 21 8.167969 21.011719 8.332031 21.03125 8.5 C 20.898438 8.53125 20.773438 8.589844 20.660156 8.671875 L 6.40625 18.964844 C 6.34375 19.011719 6.289063 19.066406 6.238281 19.125 C 6.21875 19.144531 6.191406 19.148438 6.171875 19.171875 C 6.171875 19.167969 6.171875 19.167969 6.171875 19.171875 C 4.617188 20.722656 4.617188 23.273438 6.171875 24.828125 C 7.722656 26.382813 10.273438 26.382813 11.828125 24.828125 C 12.105469 24.550781 12.171875 24.191406 12.167969 23.960938 C 12.160156 23.730469 12.113281 23.570313 12.058594 23.421875 C 11.953125 23.125 11.804688 22.867188 11.625 22.589844 C 11.261719 22.03125 10.761719 21.414063 10.214844 20.828125 C 9.792969 20.382813 9.351563 19.980469 8.90625 19.628906 L 21.640625 10.433594 C 22.519531 12.015625 24.1875 12.996094 26 13 C 28.761719 13 31 10.761719 31 8 C 31 5.238281 28.761719 3 26 3 Z M 16.050781 3.992188 C 15.828125 3.984375 15.605469 4.050781 15.421875 4.183594 C 15.421875 4.183594 12 6.605469 12 11 C 11.996094 11.359375 12.183594 11.695313 12.496094 11.878906 C 12.808594 12.058594 13.191406 12.058594 13.503906 11.878906 C 13.816406 11.695313 14.003906 11.359375 14 11 C 14 7.632813 16.578125 5.816406 16.578125 5.816406 C 16.929688 5.574219 17.089844 5.128906 16.972656 4.714844 C 16.851563 4.300781 16.484375 4.011719 16.050781 3.992188 Z M 32.859375 6.617188 C 33.113281 7.890625 33.015625 9.238281 32.527344 10.507813 L 34.300781 11.460938 L 28.355469 14.191406 L 28.351563 14.199219 C 26.945313 14.6875 26.003906 16.011719 26 17.5 C 26 17.890625 26.070313 18.28125 26.199219 18.652344 L 26.199219 18.65625 L 30.15625 33.90625 L 25.339844 43.234375 L 25.34375 43.238281 C 25.121094 43.621094 25 44.054688 25 44.5 C 25 45.878906 26.121094 47 27.5 47 C 28.511719 47 29.421875 46.390625 29.808594 45.457031 L 34.933594 35.167969 L 36.097656 26.199219 C 36.300781 24.597656 36.199219 23 35.699219 21.402344 L 34.199219 15.597656 L 38.824219 13.835938 L 38.824219 13.820313 C 39.539063 13.496094 40 12.785156 40 12 C 40 11.335938 39.671875 10.71875 39.125 10.34375 L 39.125 10.339844 Z M 7.414063 20.996094 C 7.78125 21.246094 8.289063 21.699219 8.757813 22.199219 C 9.21875 22.691406 9.640625 23.222656 9.90625 23.625 C 9.148438 24.042969 8.234375 24.0625 7.585938 23.414063 C 6.910156 22.738281 6.933594 21.765625 7.414063 20.996094 Z M 37.894531 27.902344 L 36.875 35.757813 L 36.128906 37.253906 L 39.097656 45.171875 L 39.101563 45.167969 C 39.394531 46.222656 40.351563 47 41.5 47 C 42.882813 47 44 45.882813 44 44.5 C 44 44.132813 43.914063 43.785156 43.773438 43.472656 L 43.78125 43.46875 Z"/></svg>