<svg width="20" height="21" viewBox="0 0 20 21" fill="none" xmlns="http://www.w3.org/2000/svg">
<path d="M15.3332 12.2502L10.6248 7.54183L11.6665 6.75016L10.8332 5.91683H5.20817L1.6665 5.0835V11.7502L4.12484 12.1668L9.12484 17.2502C9.45817 17.5835 9.95817 17.5835 10.2915 17.2502C10.6248 16.9168 10.6248 16.4168 10.2915 16.0835L10.2498 16.0418C10.1665 15.9585 10.1665 15.8335 10.2498 15.7502C10.3332 15.6668 10.4582 15.6668 10.5415 15.7502L10.8748 16.0835C11.2082 16.4168 11.7082 16.4168 12.0415 16.0835C12.3748 15.7502 12.3748 15.2502 12.0415 14.9168L11.9165 14.7918C11.8332 14.7085 11.8332 14.5835 11.9165 14.5002C11.9998 14.4168 12.1248 14.4168 12.2082 14.5002L12.6248 14.9168C12.9582 15.2502 13.4582 15.2502 13.7915 14.9168C14.1248 14.5835 14.1248 14.0835 13.7915 13.7502L13.6665 13.6252C13.5832 13.5418 13.5832 13.4168 13.6665 13.3335C13.7498 13.2502 13.8748 13.2502 13.9582 13.3335L14.0832 13.4585C14.4165 13.7918 14.9165 13.7918 15.2498 13.4585C15.6665 13.1252 15.6665 12.5835 15.3332 12.2502Z" fill="#FFB74D"/>
<path d="M11.4168 8.37479L9.4585 9.12479C8.29183 9.58312 7.00016 9.29146 6.16683 8.37479C6.00016 8.20812 6.04183 7.91646 6.29183 7.79146L11.8335 5.08312C12.5002 4.74979 13.2918 4.83312 13.8752 5.24979L14.0418 5.37479C14.5002 5.70812 15.1252 5.79146 15.6668 5.66646L18.3335 5.08312V11.7498L15.8752 12.1665L15.5418 12.4998L11.4168 8.37479ZM7.50016 16.7498C7.8335 17.0831 8.3335 17.0831 8.66683 16.7498L8.9585 16.4581C9.29183 16.1248 9.29183 15.6248 8.9585 15.2915C8.62516 14.9581 8.12516 14.9581 7.79183 15.2915L7.50016 15.5831C7.16683 15.9165 7.16683 16.4165 7.50016 16.7498ZM6.29183 15.5831C6.62516 15.9165 7.12516 15.9165 7.4585 15.5831L7.75016 15.2915C8.0835 14.9581 8.0835 14.4581 7.75016 14.1248C7.41683 13.7915 6.91683 13.7915 6.5835 14.1248L6.29183 14.4165C6.00016 14.7081 6.00016 15.2498 6.29183 15.5831ZM5.12516 14.4165C5.4585 14.7498 5.9585 14.7498 6.29183 14.4165L6.5835 14.1248C6.91683 13.7915 6.91683 13.2915 6.5835 12.9581C6.25016 12.6248 5.75016 12.6248 5.41683 12.9581L5.12516 13.2498C4.79183 13.5415 4.79183 14.0831 5.12516 14.4165ZM3.9585 13.2081C4.29183 13.5415 4.79183 13.5415 5.12516 13.2081L5.41683 12.9165C5.75016 12.5831 5.75016 12.0831 5.41683 11.7498C5.0835 11.4165 4.5835 11.4165 4.25016 11.7498L3.9585 12.0415C3.62516 12.3748 3.62516 12.8748 3.9585 13.2081Z" fill="#C77600"/>
<path d="M8.5415 16.2917L7.9165 15.7083L8.08317 15.5417C8.24984 15.375 8.45817 15.375 8.62484 15.5417L8.6665 15.5833C8.83317 15.75 8.83317 15.9583 8.6665 16.125L8.5415 16.2917ZM7.33317 15.125L6.74984 14.5417L6.9165 14.375C7.08317 14.2083 7.2915 14.2083 7.45817 14.375L7.49984 14.4167C7.6665 14.5833 7.6665 14.7917 7.49984 14.9583L7.33317 15.125ZM6.1665 13.9583L5.58317 13.375L5.74984 13.2083C5.9165 13.0417 6.12484 13.0417 6.2915 13.2083L6.33317 13.25C6.49984 13.4167 6.49984 13.625 6.33317 13.7917L6.1665 13.9583ZM4.99984 12.7917L4.4165 12.1667L4.58317 12C4.74984 11.8333 4.95817 11.8333 5.12484 12L5.1665 12.0417C5.33317 12.2083 5.33317 12.4167 5.1665 12.5833L4.99984 12.7917Z" fill="#EBAE55"/>
</svg>
