<svg fill="#000000" xmlns="http://www.w3.org/2000/svg"  viewBox="0 0 50 50" width="50px" height="50px"><path d="M 25 8 C 23.347656 8 22 9.347656 22 11 L 22 13 L 28 13 L 28 11 C 28 9.347656 26.652344 8 25 8 Z M 2 9.1875 C 0.898438 9.1875 0 10.085938 0 11.1875 L 0 12.8125 C 0 13.914063 0.898438 14.8125 2 14.8125 L 20 14 L 20 11 C 20 10.664063 20.03125 10.320313 20.09375 10 Z M 47.90625 9.1875 L 29.90625 10 C 29.972656 10.316406 30 10.664063 30 11 L 30 14 L 47.90625 14.8125 L 48 14.8125 C 49.101563 14.8125 50 13.914063 50 12.8125 L 50 11.1875 C 50 10.085938 49.097656 9.1875 47.90625 9.1875 Z M 21.78125 15 C 20.84375 15 20.054688 15.652344 19.84375 16.5625 L 19.5 18.09375 C 18.820313 16.847656 17.515625 16 16 16 C 13.792969 16 12 17.792969 12 20 C 12 22.207031 13.792969 24 16 24 C 16.859375 24 17.660156 23.714844 18.3125 23.25 L 17.65625 26.09375 C 16.140625 26.460938 15 27.84375 15 29.46875 L 15 33 C 15 34.105469 15.898438 35 17 35 L 33 35 C 34.105469 35 35 34.105469 35 33 L 35 29.46875 C 35 27.84375 33.859375 26.460938 32.34375 26.09375 L 31.6875 23.25 C 32.339844 23.714844 33.140625 24 34 24 C 36.207031 24 38 22.207031 38 20 C 38 17.792969 36.207031 16 34 16 C 32.484375 16 31.179688 16.847656 30.5 18.09375 L 30.15625 16.5625 C 29.945313 15.652344 29.15625 15 28.21875 15 Z M 13.84375 26.5625 L 2.71875 28.0625 C 1.738281 28.195313 1 29.042969 1 30.03125 C 1 31.125 1.90625 32 3 32 L 13 32 L 13 29.46875 C 13 28.40625 13.308594 27.410156 13.84375 26.5625 Z M 36.15625 26.5625 C 36.6875 27.410156 37 28.40625 37 29.46875 L 37 32 L 47.03125 32 C 48.125 32 49 31.125 49 30.03125 C 49 29.042969 48.265625 28.195313 47.28125 28.0625 Z M 5 33 C 3.894531 33 3 33.894531 3 35 C 3 36.105469 3.894531 37 5 37 C 6.105469 37 7 36.105469 7 35 C 7 33.894531 6.105469 33 5 33 Z M 10 33 C 8.894531 33 8 33.894531 8 35 C 8 36.105469 8.894531 37 10 37 C 11.105469 37 12 36.105469 12 35 C 12 33.894531 11.105469 33 10 33 Z M 40 33 C 38.894531 33 38 33.894531 38 35 C 38 36.105469 38.894531 37 40 37 C 41.105469 37 42 36.105469 42 35 C 42 33.894531 41.105469 33 40 33 Z M 45 33 C 43.894531 33 43 33.894531 43 35 C 43 36.105469 43.894531 37 45 37 C 46.105469 37 47 36.105469 47 35 C 47 33.894531 46.105469 33 45 33 Z M 20.5 36 C 19.121094 36 18 37.121094 18 38.5 L 18 39.5 C 18 40.878906 19.121094 42 20.5 42 C 21.878906 42 23 40.878906 23 39.5 L 23 36 L 21 36 L 21 36.0625 C 20.835938 36.027344 20.671875 36 20.5 36 Z M 27 36 L 27 39.5 C 27 40.878906 28.121094 42 29.5 42 C 30.878906 42 32 40.878906 32 39.5 L 32 38.5 C 32 37.121094 30.878906 36 29.5 36 C 29.328125 36 29.164063 36.027344 29 36.0625 L 29 36 Z"/></svg>