<svg fill="#000000" xmlns="http://www.w3.org/2000/svg"  viewBox="0 0 50 50" width="50px" height="50px"><path d="M 28.75 0.0625 C 28.570313 0.078125 28.390625 0.121094 28.21875 0.21875 C 27.539063 0.609375 27.449219 1.234375 27.78125 2.0625 C 28.027344 2.585938 31.625 9.429688 31.625 10.40625 C 31.625 11.292969 29.109375 16.289063 28.40625 16.78125 C 27.976563 17.082031 26.574219 17 25 17 C 23.425781 17 21.710938 17.058594 21.375 16.71875 C 20.496094 15.839844 18.800781 12.8125 18.09375 11.71875 C 17.679688 11.078125 17.660156 10.664063 17.90625 10.09375 C 18.285156 9.226563 22.289063 2.980469 22.5 2.46875 C 23.113281 1.367188 22.6875 0.632813 22.03125 0.3125 C 21.164063 -0.113281 20.449219 0.242188 19.46875 1.5625 C 18.808594 2.453125 14.246094 9.125 13.84375 10.15625 C 13.503906 11.023438 14.140625 11.976563 14.59375 12.84375 C 16.261719 16.042969 19.59375 20.3125 19.59375 20.3125 L 19.59375 29.65625 C 19.59375 31.78125 19.96875 36.753906 19.96875 38.78125 C 19.96875 39.835938 20.964844 45.925781 21.375 47.625 C 21.871094 49.683594 22.824219 50 23.46875 50 C 24.386719 50 24.851563 49.101563 24.8125 47.1875 C 24.75 44.0625 24.070313 39.117188 24.0625 38.1875 C 24.050781 36.691406 25 31.0625 25 31.0625 C 25 31.0625 28.898438 32.726563 30.59375 33.53125 C 31.21875 33.828125 31.328125 34.03125 30.8125 34.5 C 30.125 35.125 27.375 37.75 26.5625 38.625 C 26.042969 39.183594 25.921875 40.351563 26.1875 40.75 C 26.5 41.21875 27.363281 41.355469 28.875 40.5625 C 30.1875 39.875 34.035156 36.84375 36.09375 35.21875 C 36.632813 34.792969 37.539063 33.652344 36.4375 32.4375 C 33.734375 29.453125 30.28125 27.40625 30.28125 27.40625 C 30.28125 24.113281 30.375 21.972656 30.375 20.59375 C 30.375 20.59375 33.015625 16.488281 34.53125 13.21875 C 35.25 11.671875 35.546875 10.8125 35.09375 9.90625 C 34.417969 8.558594 31.007813 2.210938 30.46875 1.34375 C 29.882813 0.371094 29.289063 0.0195313 28.75 0.0625 Z M 25 8 C 22.789063 8 21 9.789063 21 12 C 21 14.210938 22.789063 16 25 16 C 27.210938 16 29 14.210938 29 12 C 29 9.789063 27.210938 8 25 8 Z"/></svg>