<svg fill="#000000" xmlns="http://www.w3.org/2000/svg"  viewBox="0 0 30 30" width="60px" height="60px"><path d="M 9.984375 1.9863281 A 1.0001 1.0001 0 0 0 9 3 L 9 3.7910156 C 5.993006 5.7555747 4 9.1448384 4 13 C 4 14.097205 4.1649526 15.155864 4.4648438 16.15625 A 1.0001 1.0001 0 0 0 5.2070312 17.990234 C 6.3247696 20.176086 8.15053 21.935663 10.382812 22.972656 L 8.15625 26.462891 A 1.0002001 1.0002001 0 1 0 9.84375 27.537109 L 9.984375 27.316406 L 12.757812 23.769531 C 13.48201 23.919903 14.231612 24 15 24 C 18.693515 24 21.957583 22.168616 23.953125 19.371094 L 26.171875 18.984375 A 1.0001 1.0001 0 1 0 25.828125 17.015625 L 25.648438 17.046875 L 25.199219 17.103516 C 25.711248 15.834271 26 14.451287 26 13 C 26 6.9307901 21.06921 2 15 2 C 13.578133 2 12.222749 2.2789944 10.974609 2.7714844 A 1.0001 1.0001 0 0 0 9.984375 1.9863281 z M 15 3 C 20.52877 3 25 7.4712302 25 13 C 25 14.522769 24.650016 15.959005 24.042969 17.25 L 20.515625 17.699219 L 16.628906 16.642578 C 16.399906 15.814578 16 14.074 16 12 A 2 2 0 0 0 15.230469 10.427734 A 2 2 0 0 0 15.230469 10.425781 L 11.304688 7.3496094 L 11.001953 3.8359375 C 12.226801 3.3015767 13.576758 3 15 3 z M 16 5 A 2 2 0 0 0 14 7 A 2 2 0 0 0 16 9 A 2 2 0 0 0 18 7 A 2 2 0 0 0 16 5 z M 9 5.0097656 L 9 8 A 1.0001 1.0001 0 0 0 9.2929688 8.7070312 L 11.544922 10.958984 L 11.548828 10.966797 L 5.3496094 15.583984 C 5.1296148 14.758655 5 13.895286 5 13 C 5 9.7268527 6.5740977 6.833272 9 5.0097656 z M 11.697266 13.992188 C 11.892942 16.381357 12.929688 18.191406 12.929688 18.191406 L 10.994141 22.015625 L 10.921875 22.126953 C 8.8221826 21.188594 7.1115032 19.549421 6.078125 17.503906 L 11.697266 13.992188 z M 22.480469 19.626953 C 20.649394 21.692729 17.981961 23 15 23 C 14.475275 23 13.963693 22.948725 13.460938 22.871094 L 15.705078 20 L 20 20 L 20.042969 19.978516 L 20.066406 19.982422 A 1.0001 1.0001 0 0 0 20.425781 19.984375 L 22.480469 19.626953 z"/></svg>