<?xml version="1.0"?><svg fill="#000000" xmlns="http://www.w3.org/2000/svg"  viewBox="0 0 128 128" width="128px" height="128px">    <path d="M 49.439453 82.253906 C 48.262891 82.150781 47.1 82.750781 46.5 83.800781 L 38.599609 98.5 L 23.400391 93 C 16.700391 90.6 9.2007812 94.100781 6.8007812 100.80078 C 4.4007812 107.50078 7.8996094 115.00039 14.599609 117.40039 L 18.599609 118.80078 C 17.299609 119.40078 15.900391 119.69922 14.400391 119.69922 C 11.400391 119.69922 8.6007812 118.50078 6.8007812 116.30078 C 5.7007813 115.00078 3.7996094 114.9 2.5996094 116 C 1.2996094 117.1 1.2007813 118.99922 2.3007812 120.19922 C 5.3007812 123.69922 9.7 125.69922 14.5 125.69922 C 18.2 125.69922 21.600391 124.50039 24.400391 122.40039 C 27.200391 124.60039 30.600781 125.69922 34.300781 125.69922 C 38.000781 125.69922 41.399219 124.50039 44.199219 122.40039 C 46.999219 124.60039 50.399609 125.69922 54.099609 125.69922 C 57.699609 125.69922 61.200391 124.50039 63.900391 122.40039 C 66.700391 124.60039 70.200391 125.90039 73.900391 125.90039 L 74.099609 125.90039 C 77.799609 125.90039 81.399219 124.60039 84.199219 122.40039 C 84.199219 122.40039 84.300781 122.4 84.300781 122.5 C 84.400781 122.6 84.499609 122.59922 84.599609 122.69922 C 84.899609 122.89922 85.199609 123.20039 85.599609 123.40039 C 85.699609 123.50039 85.9 123.59922 86 123.69922 C 86.3 123.89922 86.7 124.09922 87 124.19922 C 87.1 124.29922 87.300391 124.30039 87.400391 124.40039 C 87.900391 124.60039 88.300781 124.8 88.800781 125 C 88.900781 125 88.999609 124.99961 89.099609 125.09961 C 89.499609 125.19961 89.900391 125.30039 90.400391 125.40039 C 90.600391 125.40039 90.700391 125.5 90.900391 125.5 C 91.300391 125.6 91.6 125.59922 92 125.69922 C 92.2 125.69922 92.3 125.70078 92.5 125.80078 C 93 125.90078 93.599609 125.90039 94.099609 125.90039 C 97.799609 125.90039 101.2 124.69961 104 122.59961 C 106.7 124.69961 110 125.90039 113.5 125.90039 C 115.2 125.90039 116.49961 124.6 116.59961 123 C 116.59961 121.3 115.29922 120.00039 113.69922 119.90039 C 110.79922 119.80039 108.20039 118.6 106.40039 116.5 C 105.80039 115.8 104.99961 115.40039 104.09961 115.40039 C 103.19961 115.40039 102.40078 115.8 101.80078 116.5 C 100.00078 118.7 97.199219 119.90039 94.199219 119.90039 C 91.599219 119.90039 89.100781 118.90078 87.300781 117.30078 C 87.000781 117.10078 86.799609 116.8 86.599609 116.5 C 86.499609 116.3 86.299609 116.19961 86.099609 116.09961 C 86.099609 116.09961 86 116.1 86 116 C 85.9 115.9 85.699609 115.80078 85.599609 115.80078 C 85.499609 115.80078 85.500391 115.79922 85.400391 115.69922 C 85.300391 115.59922 85.1 115.59961 85 115.59961 L 84.800781 115.59961 L 84.400391 115.59961 L 84.300781 115.59961 L 84.099609 115.59961 L 83.800781 115.59961 C 83.700781 115.59961 83.600391 115.59922 83.400391 115.69922 C 83.300391 115.69922 83.299219 115.70078 83.199219 115.80078 C 83.099219 115.80078 83.000391 115.90039 82.900391 115.90039 C 82.800391 115.90039 82.799219 116 82.699219 116 C 82.599219 116.1 82.500391 116.09922 82.400391 116.19922 C 82.400391 116.19922 82.300781 116.20078 82.300781 116.30078 L 82.099609 116.5 L 82 116.59961 L 81.699219 117 C 79.899219 119.1 77.099219 120.30078 74.199219 120.30078 L 74.099609 120.30078 C 71.199609 120.30078 68.399609 119.00039 66.599609 116.90039 L 66.400391 116.69922 C 65.800391 115.99922 64.999609 115.59961 64.099609 115.59961 C 63.199609 115.59961 62.400781 115.99922 61.800781 116.69922 C 60.000781 118.89922 57.199219 120.09961 54.199219 120.09961 C 51.199219 120.09961 48.399609 118.89922 46.599609 116.69922 C 45.999609 115.99922 45.200781 115.59961 44.300781 115.59961 C 43.400781 115.59961 42.6 115.99922 42 116.69922 C 40.2 118.89922 37.400391 120.09961 34.400391 120.09961 C 31.400391 120.09961 28.600781 118.89922 26.800781 116.69922 C 26.500781 115.99922 25.899609 115.49922 25.099609 115.19922 L 16.900391 112.19922 C 13.300391 110.89922 11.399219 106.89922 12.699219 103.19922 C 13.999219 99.599219 17.999219 97.7 21.699219 99 L 39.400391 105.40039 C 39.500391 105.40039 39.499609 105.4 39.599609 105.5 L 39.800781 105.5 C 40.000781 105.5 40.200391 105.59961 40.400391 105.59961 L 65.5 105.59961 L 96.199219 105.59961 C 99.699219 105.59961 103.19922 106.49961 103.19922 110.59961 C 103.19922 112.29961 104.49922 113.59961 106.19922 113.59961 L 109.40039 113.59961 C 111.10039 113.59961 112.40039 112.50039 112.40039 110.90039 L 112.40039 105.59961 C 116.30039 105.09961 119.40039 101.69922 119.40039 97.699219 C 119.00039 92.799219 115.4 89.300781 111 89.300781 L 100.80078 89.300781 C 96.400781 89.300781 92.800781 92.900781 92.800781 97.300781 L 92.800781 99.300781 L 69.300781 99.300781 L 70 97.199219 C 70.5 95.599219 69.699609 93.900391 68.099609 93.400391 C 66.499609 92.900391 64.800781 93.700781 64.300781 95.300781 L 63 99.300781 L 45.099609 99.300781 L 51.800781 86.699219 C 52.600781 85.199219 51.999609 83.399609 50.599609 82.599609 C 50.224609 82.399609 49.831641 82.288281 49.439453 82.253906 z M 123.5 115.30078 C 121.8 115.30078 120.5 116.60078 120.5 118.30078 C 120.5 120.00078 121.8 121.30078 123.5 121.30078 C 125.2 121.30078 126.5 120.00078 126.5 118.30078 C 126.5 116.60078 125.2 115.30078 123.5 115.30078 z"/></svg>