<svg fill="#000000" xmlns="http://www.w3.org/2000/svg"  viewBox="0 0 24 24" width="48px" height="48px"><path d="M 17 1.007813 C 17 3.589844 17.6875 5.039063 17.6875 5.039063 L 17.46875 6.125 L 14.839844 7 L 13.734375 7 L 14.96875 8.996094 L 14.980469 9 L 15 9 C 15.105469 9 15.214844 8.984375 15.316406 8.949219 L 17.015625 8.382813 L 16.546875 10.730469 L 14.292969 9.796875 L 12.847656 7.484375 C 12.671875 7.191406 12.359375 7.007813 12.019531 7 C 12.011719 7 12.007813 7 12 7 L 11 7 C 10.21875 7.015625 9.9375 7.105469 9.71875 7.765625 L 8 13 L 2.769531 13 C 1.789063 13.003906 1 13.789063 1 14.765625 L 1 14.777344 C 1 15.511719 1.5 16.066406 2.140625 16.4375 C 3.851563 17.417969 6.992188 18.621094 8.777344 18.921875 C 9.039063 18.972656 9.289063 19 9.5 19 C 10.199219 19 11.300781 18.800781 12 18 C 12.699219 18.800781 13.800781 19 14.5 19 C 14.617188 19 14.757813 18.984375 14.894531 18.96875 L 16.089844 13 L 11.488281 13 L 12.324219 10.421875 L 12.765625 11.125 C 12.875 11.304688 13.039063 11.441406 13.230469 11.523438 L 16.144531 12.730469 L 16.089844 13 L 16.90625 13 C 16.972656 13.007813 17.042969 13.007813 17.109375 13 L 15.96875 18.699219 C 17.453125 18.382813 19.886719 17.570313 21.859375 16.4375 C 22.5 16.066406 23 15.511719 23 14.777344 L 23 14.765625 C 23 13.789063 22.210938 13.003906 21.230469 13 L 17.117188 13 C 17.554688 12.953125 17.90625 12.628906 17.992188 12.199219 C 18.074219 11.769531 17.871094 11.332031 17.484375 11.125 L 18.105469 8.019531 L 18.316406 7.949219 C 18.839844 7.773438 19.121094 7.207031 18.949219 6.683594 C 18.867188 6.4375 18.695313 6.253906 18.484375 6.132813 L 18.667969 5.214844 C 20.503906 3.945313 20.980469 1.007813 20.980469 1.007813 Z M 12 2 C 10.894531 2 10 2.894531 10 4 C 10 5.105469 10.894531 6 12 6 C 13.105469 6 14 5.105469 14 4 C 14 2.894531 13.105469 2 12 2 Z M 2 19 L 2 21 C 2.699219 21.800781 3.800781 22 4.5 22 C 5.199219 22 6.300781 21.800781 7 21 C 7.699219 21.800781 8.800781 22 9.5 22 C 10.199219 22 11.300781 21.800781 12 21 C 12.308594 21.355469 12.703125 21.578125 13.097656 21.730469 C 13.328125 21.078125 13.632813 20.476563 13.949219 19.957031 C 13.304688 19.871094 12.535156 19.613281 12 19 C 11.300781 19.800781 10.199219 20 9.5 20 C 8.800781 20 7.699219 19.800781 7 19 C 6.300781 19.800781 5.199219 20 4.5 20 C 3.800781 20 2.699219 19.800781 2 19 Z M 17 19 C 16.792969 19.234375 16.550781 19.40625 16.296875 19.546875 C 16.65625 20.015625 16.972656 21.03125 17 21 C 17.699219 21.800781 18.800781 22 19.5 22 C 20.199219 22 21.300781 21.800781 22 21 L 22 19 C 21.300781 19.800781 20.199219 20 19.5 20 C 18.800781 20 17.699219 19.800781 17 19 Z"/></svg>