<svg fill="#000000" xmlns="http://www.w3.org/2000/svg"  viewBox="0 0 50 50" width="50px" height="50px"><path d="M 25 2 C 23.527344 2 21.929688 2.390625 20.859375 2.6875 C 19.820313 2.980469 19.015625 3.808594 18.753906 4.851563 L 18.636719 5.328125 C 18.332031 5.089844 18.039063 4.851563 17.667969 4.585938 C 16.589844 3.832031 15.46875 3 14.097656 3 C 13.601563 3 13.175781 3.070313 12.792969 3.285156 C 12.410156 3.5 12.117188 3.917969 12.035156 4.289063 C 11.875 5.023438 12.230469 5.492188 12.230469 5.492188 C 12.40625 5.804688 12.738281 6 13.097656 6 L 16.074219 6 C 16.261719 6.113281 16.339844 6.097656 16.515625 6.226563 C 17.003906 6.566406 17.457031 6.917969 17.796875 7.199219 C 17.976563 7.34375 17.992188 7.363281 18.105469 7.460938 L 18.03125 7.757813 C 18.007813 7.835938 18 7.917969 18 8 L 17 8 C 16.449219 8 16 8.445313 16 9 L 16 9.179688 L 11.804688 10.019531 C 11.445313 10.082031 11.148438 10.332031 11.027344 10.675781 C 10.910156 11.019531 10.984375 11.402344 11.226563 11.671875 C 11.46875 11.941406 11.839844 12.0625 12.195313 11.980469 L 16.03125 11.214844 C 16.105469 11.539063 16.328125 11.816406 16.648438 11.9375 L 24 14 L 26 14 L 33.351563 11.9375 C 33.671875 11.816406 33.894531 11.539063 33.96875 11.214844 L 37.804688 11.980469 C 38.160156 12.0625 38.53125 11.941406 38.773438 11.671875 C 39.015625 11.402344 39.089844 11.019531 38.972656 10.675781 C 38.851563 10.332031 38.554688 10.082031 38.195313 10.019531 L 34 9.179688 L 34 9 C 34 8.445313 33.550781 8 33 8 L 32 8 C 32 7.917969 31.988281 7.835938 31.96875 7.757813 L 31.914063 7.53125 C 32.015625 7.4375 32.078125 7.382813 32.300781 7.199219 C 32.644531 6.917969 33.097656 6.566406 33.582031 6.226563 C 33.761719 6.097656 33.835938 6.113281 34.027344 6 L 37 6 C 37.359375 6 37.695313 5.804688 37.871094 5.492188 C 37.871094 5.492188 38.222656 5.019531 38.0625 4.285156 C 37.980469 3.917969 37.6875 3.5 37.304688 3.285156 C 36.921875 3.070313 36.496094 3 36 3 C 34.632813 3 33.507813 3.832031 32.433594 4.585938 C 32.027344 4.871094 31.699219 5.136719 31.378906 5.390625 L 31.246094 4.851563 C 30.984375 3.8125 30.179688 2.980469 29.140625 2.691406 C 28.066406 2.390625 26.472656 2 25 2 Z M 25 4 C 26.09375 4 27.609375 4.339844 28.601563 4.617188 C 28.601563 4.617188 28.601563 4.617188 28.605469 4.617188 C 28.953125 4.714844 29.214844 4.984375 29.304688 5.335938 L 29.96875 8 L 20.03125 8 L 20.695313 5.335938 C 20.785156 4.984375 21.046875 4.714844 21.398438 4.617188 C 22.390625 4.339844 23.90625 4 25 4 Z M 17.40625 14.226563 C 17.363281 14.261719 17.304688 14.277344 17.265625 14.316406 C 15.394531 16.332031 15.039063 20.460938 15.003906 20.925781 C 15.003906 20.933594 15.007813 20.941406 15.003906 20.949219 L 15 20.949219 C 14.996094 21.042969 15 23.25 15.765625 27.109375 C 14.753906 27.289063 13.8125 27.691406 13 28.261719 L 13 31.03125 C 13.910156 29.804688 15.359375 29 17 29 C 17.308594 29 17.597656 28.859375 17.785156 28.617188 C 17.972656 28.375 18.042969 28.0625 17.972656 27.765625 C 17.699219 26.640625 17.503906 25.664063 17.363281 24.816406 C 18.527344 26.65625 19.566406 28.414063 20.363281 29.613281 L 21.179688 30.191406 C 22.539063 31.152344 24.992188 30.996094 25 31 C 25.085938 31.003906 27.546875 31.152344 28.902344 30.191406 L 29.71875 29.613281 C 30.507813 28.425781 31.503906 26.6875 32.628906 24.871094 C 32.488281 25.703125 32.296875 26.667969 32.03125 27.765625 C 31.957031 28.0625 32.023438 28.378906 32.214844 28.621094 C 32.40625 28.859375 32.691406 29 33 29 C 34.640625 29 36.089844 29.804688 37 31.03125 L 37 28.261719 C 36.1875 27.691406 35.246094 27.289063 34.234375 27.109375 C 35 23.375 35.003906 21.042969 35 20.949219 L 34.996094 20.949219 C 34.992188 20.941406 34.996094 20.933594 34.996094 20.925781 C 34.960938 20.460938 34.605469 16.332031 32.734375 14.316406 C 32.695313 14.277344 32.640625 14.261719 32.59375 14.226563 L 26.539063 15.925781 L 26.277344 16 L 26 16 L 26 23 C 26 23.128906 25.972656 23.246094 25.925781 23.359375 C 25.792969 23.710938 25.460938 23.957031 25.070313 23.984375 C 25.046875 23.988281 25.023438 24 25 24 C 24.449219 24 24 23.554688 24 23 L 24 16 L 23.722656 16 L 23.460938 15.925781 Z M 16.5 31 C 15.121094 31 14 32.121094 14 33.5 L 14 45.5 C 14 46.878906 15.121094 48 16.5 48 C 17.878906 48 19 46.878906 19 45.5 L 19 33.5 C 19 32.121094 17.878906 31 16.5 31 Z M 33.5 31 C 32.121094 31 31 32.121094 31 33.5 L 31 38 L 29 38 L 29 32.246094 C 27.613281 32.9375 25.375 33 25.042969 33 C 24.996094 33 24.964844 33 24.957031 33 C 24.957031 32.996094 22.582031 33.03125 21 32.246094 L 21 38 L 19 38 L 19 40 L 21.71875 40 C 23.195313 40.925781 24.617188 41 24.964844 41 L 25.035156 41 C 25.382813 41 26.804688 40.925781 28.28125 40 L 31 40 L 31 45.5 C 31 46.878906 32.121094 48 33.5 48 C 34.878906 48 36 46.878906 36 45.5 L 36 33.5 C 36 32.121094 34.878906 31 33.5 31 Z"/></svg>