<svg fill="#000000" xmlns="http://www.w3.org/2000/svg"  viewBox="0 0 26 26" width="50px" height="50px"><path d="M 14.5 0 C 13.671875 0 13 0.671875 13 1.5 C 13 1.929688 13.179688 2.320313 13.46875 2.59375 L 11.90625 2.96875 C 11.953125 2.824219 12 2.664063 12 2.5 C 12 1.671875 11.328125 1 10.5 1 C 9.671875 1 9 1.671875 9 2.5 C 9 2.914063 9.167969 3.292969 9.4375 3.5625 L 1.75 5.46875 L 2.25 7.40625 L 12.34375 4.90625 C 12.503906 5.246094 12.695313 5.738281 12.84375 6.40625 C 13.054688 7.34375 13.042969 8.261719 12.5 9 L 9 9 L 9 11 L 17 11 L 17 9 L 14.78125 9 C 15.105469 7.957031 15.007813 6.847656 14.8125 5.96875 C 14.679688 5.371094 14.488281 4.859375 14.3125 4.4375 L 24.25 1.96875 L 23.75 0.03125 L 15.90625 1.96875 C 15.953125 1.824219 16 1.664063 16 1.5 C 16 0.671875 15.328125 0 14.5 0 Z M 6.59375 12 L 6.28125 12.28125 C 6.28125 12.28125 5.652344 12.941406 5.09375 14.0625 C 4.535156 15.183594 4 16.832031 4 19 C 4 21.167969 4.535156 22.816406 5.09375 23.9375 C 5.652344 25.058594 6.28125 25.71875 6.28125 25.71875 L 6.59375 26 L 19.4375 26 L 19.71875 25.6875 C 19.71875 25.6875 22 23.28125 22 19 C 22 14.71875 19.71875 12.3125 19.71875 12.3125 L 19.4375 12 Z M 7.53125 14 L 12 14 L 12 19 L 6 19 C 6 17.167969 6.464844 15.816406 6.90625 14.9375 C 7.246094 14.261719 7.410156 14.132813 7.53125 14 Z M 14 14 L 18.5 14 C 18.820313 14.363281 20 15.832031 20 19 L 14 19 Z"/></svg>