<svg fill="#000000" xmlns="http://www.w3.org/2000/svg"  viewBox="0 0 50 50" width="50px" height="50px"><path d="M 27 2 C 24.238281 2 22 4.238281 22 7 C 22 9.761719 24.238281 12 27 12 C 29.761719 12 32 9.761719 32 7 C 32 4.238281 29.761719 2 27 2 Z M 17 12 C 16.242188 12 15.507813 12.292969 14.953125 12.816406 C 14.882813 12.863281 14.820313 12.914063 14.761719 12.976563 L 8.382813 19.855469 C 8.332031 19.910156 8.289063 19.972656 8.25 20.039063 C 7.441406 21.027344 7 22.246094 7 23.5 C 7 26.53125 9.46875 29 12.5 29 C 13.035156 29 13.558594 28.921875 14.058594 28.773438 C 14.023438 28.519531 14 28.261719 14 28 C 14 27.335938 14.113281 26.675781 14.339844 26.03125 L 17.085938 15.183594 C 17.308594 14.113281 17.960938 13.210938 18.828125 12.640625 C 18.320313 12.246094 17.691406 12 17 12 Z M 36.984375 12.285156 C 36.433594 12.292969 35.992188 12.746094 36 13.296875 L 36 18.765625 L 32 20.671875 L 26.40625 15.578125 C 26.140625 15.3125 25.800781 15.128906 25.433594 15.046875 L 25.425781 15.042969 L 21.527344 14.070313 L 21.523438 14.074219 C 21.351563 14.023438 21.175781 14 21 14 C 20.039063 14 19.214844 14.683594 19.035156 15.628906 L 16.277344 26.519531 L 16.28125 26.535156 C 16.097656 27.003906 16 27.5 16 28 C 16 29.285156 16.621094 30.488281 17.660156 31.238281 L 25 37.5 L 25 45.5 C 25 46.878906 26.121094 48 27.5 48 C 28.878906 48 30 46.878906 30 45.5 L 30 35 C 30 34.460938 29.78125 33.949219 29.398438 33.574219 L 29.394531 33.566406 L 24 28 L 26 20.839844 L 30.609375 24.433594 C 30.980469 24.796875 31.480469 25 32 25 C 32.328125 25 32.648438 24.917969 32.9375 24.765625 L 32.941406 24.765625 L 36 23.210938 L 36 47 C 35.996094 47.359375 36.183594 47.695313 36.496094 47.878906 C 36.808594 48.058594 37.191406 48.058594 37.503906 47.878906 C 37.816406 47.695313 38.003906 47.359375 38 47 L 38 22.195313 L 38.519531 21.929688 C 39.394531 21.695313 40 20.902344 40 20 C 40 18.894531 39.105469 18 38 18 L 38 13.296875 C 38.003906 13.027344 37.898438 12.769531 37.707031 12.578125 C 37.515625 12.386719 37.253906 12.28125 36.984375 12.285156 Z M 15.570313 32.03125 L 13.71875 37.976563 L 9.554688 43.925781 L 9.5625 43.933594 C 9.214844 44.363281 9 44.902344 9 45.5 C 9 46.882813 10.117188 48 11.5 48 C 12.410156 48 13.199219 47.507813 13.636719 46.78125 L 13.640625 46.78125 L 18.15625 39.980469 L 19.753906 35.628906 Z"/></svg>