<?xml version="1.0"?><svg fill="#000000" xmlns="http://www.w3.org/2000/svg"  viewBox="0 0 50 50" width="100px" height="100px">    <path d="M 25 1.9980469 C 24.8425 1.9980469 24.684062 2.034375 24.539062 2.109375 L 3.5390625 13.109375 C 3.2090625 13.289375 3 13.63 3 14 L 3 16 L 47 16 L 47 14 C 47 13.63 46.790937 13.289375 46.460938 13.109375 L 25.460938 2.109375 C 25.315938 2.034375 25.1575 1.9980469 25 1.9980469 z M 5 18 L 5 19.400391 C 5 20.650391 5.84 21.669687 7 21.929688 L 7 38 L 15 38 L 15 21.929688 C 16.16 21.669688 17 20.650391 17 19.400391 L 17 18 L 5 18 z M 19 18 L 19 19.400391 C 19 20.650391 19.84 21.669687 21 21.929688 L 21 38 L 29 38 L 29 21.929688 C 30.16 21.669688 31 20.650391 31 19.400391 L 31 18 L 19 18 z M 33 18 L 33 19.400391 C 33 20.650391 33.84 21.669687 35 21.929688 L 35 38 L 43 38 L 43 21.929688 C 44.16 21.669688 45 20.650391 45 19.400391 L 45 18 L 33 18 z M 4 40 C 3.56 40 3.0707031 40.159219 2.7207031 40.449219 C 2.2607031 40.839219 2 41.419297 2 42.029297 L 2 44.779297 C 2 46.019297 2.9196094 47 4.0996094 47 L 45.800781 47 C 46.960781 47 47.900391 46.050859 47.900391 44.880859 L 47.900391 42.130859 C 47.900391 40.960859 46.960781 40.009766 45.800781 40.009766 C 45.800781 40.009766 4.08 40 4 40 z"/></svg>