<svg fill="#000000" xmlns="http://www.w3.org/2000/svg"  viewBox="0 0 50 50" width="50px" height="50px"><path d="M 1 0 C 0.53125 0 0.132813 0.320313 0.03125 0.78125 C -0.0703125 1.242188 0.167969 1.710938 0.59375 1.90625 C 0.71875 1.960938 13.03125 7.691406 13 16 C 12.988281 18.953125 10.210938 21.167969 7.28125 23.5 C 3.863281 26.222656 0 29.28125 0 34.21875 C 0 45.890625 13.582031 49.929688 13.71875 49.96875 C 13.808594 49.992188 13.90625 50 14 50 L 46 50 C 46.507813 50 46.941406 49.628906 47 49.125 C 47.058594 48.621094 46.742188 48.148438 46.25 48.03125 C 46.046875 47.980469 26 43.023438 26 34 C 26 31.082031 26.738281 28.390625 27.4375 25.78125 C 28.730469 20.964844 29.9375 16.421875 26.59375 11.28125 C 24.011719 7.3125 19.46875 4.105469 16.15625 1.78125 C 15.339844 1.207031 14.582031 0.671875 13.9375 0.1875 C 13.761719 0.0546875 13.5625 0 13.34375 0 Z M 43.25 0.0625 C 42.996094 0.078125 42.746094 0.199219 42.5625 0.40625 C 41.847656 1.222656 41.144531 2.042969 40.5 2.875 C 40.121094 2.746094 39.742188 2.6875 39.34375 2.6875 C 38.023438 2.6875 36.800781 3.386719 36.15625 4.53125 C 35.957031 4.882813 35.734375 5.253906 35.5 5.65625 C 34.292969 7.746094 32.78125 10.34375 31.96875 12.75 C 31.65625 13.667969 31.722656 14.660156 32.15625 15.53125 C 32.589844 16.402344 33.355469 17.066406 34.28125 17.375 C 34.660156 17.503906 35.042969 17.5625 35.4375 17.5625 C 37.003906 17.5625 38.40625 16.574219 38.90625 15.09375 C 39.488281 13.371094 40.765625 11.121094 41.8125 9.3125 C 42.058594 8.886719 42.289063 8.464844 42.5 8.09375 C 42.976563 7.246094 43.105469 6.28125 42.84375 5.34375 C 42.707031 4.859375 42.464844 4.410156 42.15625 4.03125 C 42.757813 3.257813 43.394531 2.476563 44.0625 1.71875 C 44.425781 1.304688 44.382813 0.675781 43.96875 0.3125 C 43.761719 0.128906 43.503906 0.046875 43.25 0.0625 Z M 47.21875 11.96875 C 45.871094 11.96875 34 18.15625 34 40.40625 C 34 40.554688 34.003906 40.804688 34.03125 41.0625 C 35.925781 42.167969 38.042969 43.144531 40.0625 43.9375 C 40.023438 43.65625 40 43.375 40 43.125 C 40 29.820313 42.554688 20.097656 47.625 14.25 C 48.09375 13.707031 48.519531 13.25 48.21875 12.59375 C 48.042969 12.207031 47.671875 11.96875 47.21875 11.96875 Z M 32.28125 18.5625 C 28.90625 29.328125 30.308594 37.691406 30.375 38.0625 C 30.460938 38.546875 30.898438 38.875 31.375 38.875 C 31.433594 38.875 31.472656 38.886719 31.53125 38.875 C 32.074219 38.777344 32.441406 38.261719 32.34375 37.71875 C 32.328125 37.632813 30.984375 29.625 34.125 19.40625 C 33.960938 19.367188 33.785156 19.335938 33.625 19.28125 C 33.132813 19.117188 32.703125 18.84375 32.28125 18.5625 Z M 48.875 21.34375 C 48.148438 21.34375 46.332031 22.699219 44.46875 24.28125 C 43.449219 27.398438 42.765625 31.007813 42.375 35.09375 C 44.683594 30.480469 47.460938 26.515625 48.875 24.5 C 49.816406 23.15625 49.957031 22.953125 50 22.59375 C 50.039063 22.257813 49.929688 21.957031 49.71875 21.71875 C 49.527344 21.507813 49.160156 21.34375 48.875 21.34375 Z"/></svg>