<svg fill="#000000" xmlns="http://www.w3.org/2000/svg"  viewBox="0 0 30 30" width="60px" height="60px"><path d="M 21.984375 2.4863281 A 1.0001 1.0001 0 0 0 21 3.5 L 21 4 L 20.5 4 A 1.0001 1.0001 0 1 0 20.5 6 L 21 6 L 21 6.5 A 1.0001 1.0001 0 1 0 23 6.5 L 23 6 L 23.5 6 A 1.0001 1.0001 0 1 0 23.5 4 L 23 4 L 23 3.5 A 1.0001 1.0001 0 0 0 21.984375 2.4863281 z M 8.5136719 6.046875 A 1.0001 1.0001 0 0 0 8.4335938 6.0507812 C 5.3980951 6.3391319 3 8.8892308 3 12 C 3 13.574112 3.6175159 15.00727 4.6171875 16.080078 C 3.6339019 16.899532 3 18.11811 3 19.5 C 3 21.985 5.015 24 7.5 24 L 22.5 24 C 24.985 24 27 21.985 27 19.5 C 27 17.535 25.731562 15.881578 23.976562 15.267578 C 23.853562 12.892578 21.906 11 19.5 11 C 19.014 11 18.555188 11.096281 18.117188 11.238281 C 16.991187 9.3032812 14.9 8 12.5 8 C 11.209979 8 10.011452 8.3801109 9.0019531 9.0292969 C 9.0018572 9.019295 9 9.0100264 9 9 C 9 8.4758733 9.1462539 7.989825 9.4003906 7.5390625 A 1.0001 1.0001 0 0 0 8.5136719 6.046875 z M 25.984375 7.9863281 A 1.0001 1.0001 0 0 0 25 9 A 1.0001 1.0001 0 1 0 25 11 A 1.0001 1.0001 0 1 0 27 11 A 1.0001 1.0001 0 1 0 27 9 A 1.0001 1.0001 0 0 0 25.984375 7.9863281 z M 7.1367188 8.4941406 C 7.1156199 8.674507 7 8.8132397 7 9 C 7 11.749516 9.2504839 14 12 14 C 12.18676 14 12.325493 13.88438 12.505859 13.863281 C 11.84329 15.131864 10.539523 16 9 16 C 6.7796254 16 5 14.220375 5 12 C 5 10.460477 5.8681356 9.1567102 7.1367188 8.4941406 z"/></svg>