<svg fill="#000000" xmlns="http://www.w3.org/2000/svg"  viewBox="0 0 16 16" width="64px" height="64px"><path d="M 11 1 L 11 2 C 12.110906 2 13 2.8890941 13 4 C 13 5.0030253 12.46824 5.6948721 11.71875 6.2050781 C 11.34765 6.4577002 10.923354 6.6506915 10.513672 6.7871094 C 10.808374 6.2294576 11 5.6325557 11 5 C 11 3.6282895 10.152959 2.7752217 9.2460938 2.3984375 C 8.3392279 2.0216533 7.3601475 2 6.8066406 2 A 0.50005 0.50005 0 0 0 6.7675781 2.0039062 C 6.760316 2.0039409 6.749332 1.9998901 6.7421875 2 C 4.5012234 2.0369759 3 3.6666667 3 5.25 C 3 6.2050435 3.4631861 6.9562622 4.0429688 7.4082031 C 4.0956243 7.4492482 4.1528147 7.4766881 4.2070312 7.5136719 C 3.2093857 7.8539298 2.4082031 8.0078125 2.4082031 8.0078125 A 0.50005 0.50005 0 0 0 2.015625 8.6210938 C 2.015625 8.6210938 2.1567887 9.2016004 2.5566406 9.7832031 C 2.9564925 10.364806 3.6845238 11 4.75 11 C 6.1896182 11 7.0013605 9.971178 7.0859375 9.8613281 C 8.0191171 9.4062346 8.9437605 8.7813063 9.6621094 7.9960938 C 10.456486 7.9073206 11.426419 7.6131653 12.28125 7.03125 C 13.21376 6.396456 14 5.3729747 14 4 C 14 2.3489059 12.651094 1 11 1 z M 6.7578125 3 C 6.8035936 2.9992963 6.9337041 3.0208182 7.046875 3.0371094 C 7.1577102 3.0597687 7.2887681 3.092304 7.4238281 3.1621094 C 7.7262955 3.3184348 8 3.5362381 8 4.25 C 8 4.87125 7.7130177 5.3904408 7.2148438 5.8730469 C 6.7781533 6.2960907 6.1760023 6.6539744 5.5527344 6.9550781 C 5.3273458 6.9528019 4.9631758 6.8588201 4.6582031 6.6210938 C 4.2867358 6.3315347 4 5.8919565 4 5.25 C 4 4.3333333 4.9987766 3.0290241 6.7578125 3 z M 8.7363281 3.3007812 C 8.7785741 3.3160673 8.8204051 3.3033115 8.8613281 3.3203125 C 9.5339624 3.5997786 10 3.9967105 10 5 C 10 5.7708333 9.6054565 6.5705433 8.9570312 7.2910156 C 8.3086062 8.011488 7.4186858 8.6363841 6.5390625 9.046875 A 0.50005 0.50005 0 0 0 6.3496094 9.1992188 C 6.3496094 9.1992188 5.7333333 10 4.75 10 C 4.0654762 10 3.6685075 9.6351941 3.3808594 9.2167969 C 3.2393416 9.0109529 3.248643 8.961005 3.1855469 8.8046875 C 3.617786 8.7124252 4.4376094 8.5716267 5.7050781 8.0039062 C 5.755707 7.9812287 5.8047861 7.9493372 5.8554688 7.9257812 C 5.8786549 7.9210852 5.9027532 7.9236614 5.9257812 7.9179688 L 5.9199219 7.890625 C 6.6310092 7.5546287 7.341418 7.1427621 7.9101562 6.5917969 C 8.5369823 5.9845592 9 5.19125 9 4.25 C 9 3.863227 8.8646624 3.5822438 8.7363281 3.3007812 z M 12 9 C 12 9.551 11.552 10 11 10 C 10.47 10 10.046672 9.5835 10.013672 9.0625 C 9.7426719 9.3225 9.4571094 9.5641563 9.1621094 9.7851562 C 9.4671094 10.498156 10.177 11 11 11 C 11.601287 11 12.135045 10.727829 12.501953 10.306641 C 12.869527 10.727118 13.402132 11 14 11 C 15.098531 11 16 10.098531 16 9 L 15 9 C 15 9.5574686 14.557469 10 14 10 C 13.442531 10 13 9.5574686 13 9 L 12 9 z M 0 12 C 0 13.098531 0.9014686 14 2 14 C 2.5988505 14 3.1323881 13.72636 3.5 13.304688 C 3.8676119 13.72636 4.4011495 14 5 14 C 5.5988505 14 6.1323881 13.72636 6.5 13.304688 C 6.8676119 13.72636 7.4011495 14 8 14 C 8.5988505 14 9.1323881 13.72636 9.5 13.304688 C 9.8676119 13.72636 10.401149 14 11 14 C 11.59885 14 12.132388 13.72636 12.5 13.304688 C 12.867612 13.72636 13.40115 14 14 14 C 15.098531 14 16 13.098531 16 12 L 15 12 C 15 12.557469 14.557469 13 14 13 C 13.442531 13 13 12.557469 13 12 L 12 12 C 12 12.557469 11.557469 13 11 13 C 10.442531 13 10 12.557469 10 12 L 9 12 C 9 12.557469 8.5574686 13 8 13 C 7.4425314 13 7 12.557469 7 12 L 6 12 C 6 12.557469 5.5574686 13 5 13 C 4.4425314 13 4 12.557469 4 12 L 3 12 C 3 12.557469 2.5574686 13 2 13 C 1.4425314 13 1 12.557469 1 12 L 0 12 z"/></svg>