<svg fill="#000000" xmlns="http://www.w3.org/2000/svg"  viewBox="0 0 50 50" width="50px" height="50px"><path d="M 6.53125 21 C 3.375 21 0.734375 23.226563 0.125 26.1875 C 0.0390625 26.609375 0 27.050781 0 27.5 L 0 40.15625 C 0 40.34375 0.0273438 40.539063 0.0625 40.71875 C 0.0898438 40.847656 0.113281 40.96875 0.15625 41.09375 C 0.171875 41.132813 0.203125 41.179688 0.21875 41.21875 C 0.28125 41.375 0.347656 41.515625 0.4375 41.65625 C 0.4375 41.660156 0.433594 41.683594 0.4375 41.6875 C 0.527344 41.832031 0.632813 41.9375 0.75 42.0625 C 0.75 42.066406 0.746094 42.089844 0.75 42.09375 C 1.269531 42.65625 2.019531 43 2.84375 43 L 3.40625 43 C 2.554688 43.734375 2 44.792969 2 46 C 2 48.207031 3.792969 50 6 50 C 7.859375 50 9.398438 48.722656 9.84375 47 L 6 47 C 5.449219 47 5 46.554688 5 46 C 5 45.445313 5.449219 45 6 45 L 9.84375 45 C 9.640625 44.214844 9.214844 43.523438 8.625 43 L 12.375 43 C 11.785156 43.523438 11.359375 44.214844 11.15625 45 L 15 45 C 15.550781 45 16 45.445313 16 46 C 16 46.554688 15.550781 47 15 47 L 11.15625 47 C 11.601563 48.722656 13.140625 50 15 50 C 17.207031 50 19 48.207031 19 46 C 19 44.792969 18.445313 43.734375 17.59375 43 L 32.40625 43 C 31.554688 43.734375 31 44.792969 31 46 C 31 48.207031 32.792969 50 35 50 C 36.855469 50 38.398438 48.722656 38.84375 47 L 35 47 C 34.445313 47 34 46.554688 34 46 C 34 45.445313 34.445313 45 35 45 L 38.84375 45 C 38.640625 44.214844 38.214844 43.523438 37.625 43 L 41.375 43 C 40.785156 43.523438 40.359375 44.214844 40.15625 45 L 44 45 C 44.554688 45 45 45.445313 45 46 C 45 46.554688 44.554688 47 44 47 L 40.15625 47 C 40.601563 48.722656 42.144531 50 44 50 C 46.207031 50 48 48.207031 48 46 C 48 44.792969 47.445313 43.734375 46.59375 43 L 47.15625 43 C 47.980469 43 48.730469 42.65625 49.25 42.09375 C 49.253906 42.089844 49.246094 42.066406 49.25 42.0625 C 49.363281 41.941406 49.46875 41.828125 49.5625 41.6875 C 49.5625 41.683594 49.558594 41.660156 49.5625 41.65625 C 49.652344 41.515625 49.71875 41.375 49.78125 41.21875 C 49.796875 41.179688 49.828125 41.132813 49.84375 41.09375 C 49.886719 40.96875 49.914063 40.851563 49.9375 40.71875 C 49.972656 40.539063 50 40.34375 50 40.15625 L 50 27.5 C 50 27.273438 49.992188 27.0625 49.96875 26.84375 C 49.632813 23.570313 46.847656 21 43.46875 21 Z M 6.75 26 L 10.25 26 C 11.21875 26 12 26.820313 12 27.8125 L 12 33.1875 C 12 34.179688 11.21875 35 10.25 35 L 6.75 35 C 5.78125 35 5 34.179688 5 33.1875 L 5 27.8125 C 5 26.820313 5.78125 26 6.75 26 Z M 17.75 26 L 21.25 26 C 22.21875 26 23 26.820313 23 27.8125 L 23 33.1875 C 23 34.179688 22.21875 35 21.25 35 L 17.75 35 C 16.78125 35 16 34.179688 16 33.1875 L 16 27.8125 C 16 26.820313 16.78125 26 17.75 26 Z M 28.75 26 L 32.25 26 C 33.21875 26 34 26.820313 34 27.8125 L 34 33.1875 C 34 34.179688 33.21875 35 32.25 35 L 28.75 35 C 27.78125 35 27 34.179688 27 33.1875 L 27 27.8125 C 27 26.820313 27.78125 26 28.75 26 Z M 39.75 26 L 43.25 26 C 44.21875 26 45 26.820313 45 27.8125 L 45 33.1875 C 45 34.179688 44.21875 35 43.25 35 L 39.75 35 C 38.78125 35 38 34.179688 38 33.1875 L 38 27.8125 C 38 26.820313 38.78125 26 39.75 26 Z"/></svg>