<svg fill="#000000" xmlns="http://www.w3.org/2000/svg"  viewBox="0 0 50 50" width="50px" height="50px"><path d="M 6.5 0 C 2.34375 0 0.210938 4.324219 0.03125 7.40625 C -0.0742188 9.25 0.492188 10.566406 1.5 11.0625 L 5.78125 29.09375 C 6.230469 28.636719 6.785156 28.296875 7.4375 28.15625 L 3.46875 11.46875 C 20.609375 14.144531 33.84375 26.628906 40.34375 37.03125 L 27.40625 39.21875 C 27.632813 39.816406 27.671875 40.457031 27.5625 41.0625 L 41.96875 38.65625 C 42.1875 38.722656 42.433594 38.78125 42.6875 38.78125 C 45.210938 38.78125 50 34.972656 50 32.40625 C 50 26.289063 44.335938 18.183594 35.21875 11.28125 C 25.878906 4.210938 15.144531 0 6.5 0 Z M 8.125 30.09375 C 7.453125 30.132813 6.898438 30.582031 6.8125 31.28125 L 6 36.5 C 6 36.800781 5.988281 37.207031 6.1875 37.40625 L 8.1875 40.5 L 6.46875 44.5625 C 5.867188 45.863281 6.363281 47.355469 7.5625 48.15625 L 9.34375 49.28125 C 10.742188 50.179688 12.65625 49.769531 13.65625 48.46875 L 16 45.1875 L 19.90625 45.09375 C 20.207031 45.09375 20.386719 45.011719 20.6875 44.8125 L 25.09375 41.53125 C 25.695313 41.132813 25.773438 40.257813 25.375 39.65625 C 24.976563 39.054688 24.101563 38.84375 23.5 39.34375 L 19.5 42.3125 L 16.1875 42.40625 L 10.59375 39.1875 L 8.8125 36.40625 L 9.59375 31.6875 C 9.695313 30.886719 9.207031 30.195313 8.40625 30.09375 C 8.304688 30.082031 8.222656 30.089844 8.125 30.09375 Z M 15.5 33 C 13.566406 33 12 34.566406 12 36.5 C 12 38.433594 13.566406 40 15.5 40 C 17.433594 40 19 38.433594 19 36.5 C 19 34.566406 17.433594 33 15.5 33 Z"/></svg>