<svg fill="#000000" xmlns="http://www.w3.org/2000/svg"  viewBox="0 0 50 50" width="50px" height="50px"><path d="M 7.46875 0.09375 C 7.46875 0.09375 7.253906 1.265625 4.59375 4.4375 C 3.242188 6.113281 3.277344 7.710938 3.75 9 L 11.25 9 C 11.945313 6.589844 11.109375 4.117188 10.46875 3.25 C 10.351563 5.484375 8.988281 4.652344 9.21875 3.59375 C 9.796875 1.480469 7.46875 0.09375 7.46875 0.09375 Z M 3 10 C 2.449219 10 2 10.449219 2 11 L 2 12 C 2 12.550781 2.449219 13 3 13 L 12 13 C 12.550781 13 13 12.550781 13 12 L 13 11 C 13 10.449219 12.550781 10 12 10 Z M 26 11 C 25.730469 11 25.203125 14.96875 24.8125 18.09375 C 24.445313 18.148438 24.097656 18.210938 23.75 18.3125 C 21.882813 15.796875 19.457031 12.722656 19.1875 12.8125 C 18.917969 12.902344 20.382813 16.507813 21.625 19.34375 C 21.261719 19.597656 20.925781 19.878906 20.625 20.1875 C 17.765625 18.957031 14.367188 17.542969 14.1875 17.8125 C 14.097656 18.082031 16.917969 20.273438 19.375 22.09375 C 19.207031 22.519531 19.082031 22.945313 19.03125 23.40625 C 17.363281 23.597656 15.542969 23.847656 14.3125 24.09375 C 13.847656 24.179688 13.613281 24.332031 13.5625 24.5 C 12.511719 22.128906 11.675781 20.105469 10.8125 17.3125 C 10.511719 15.011719 10 14 10 14 L 5.5 14 C 4.5 14.800781 4.40625 17.300781 7.40625 18 C 8.007813 23.101563 9.394531 28.589844 9.59375 29.1875 C 10.492188 31.988281 10.28125 31.28125 10.28125 31.28125 C 11.128906 33.804688 12.332031 37.273438 12.96875 39.125 C 14.011719 36.828125 14.773438 33.316406 15.15625 30.375 C 15.210938 29.96875 15.277344 29.566406 15.3125 29.1875 L 15.34375 28.46875 C 14.710938 27.089844 14.179688 25.914063 13.6875 24.8125 C 13.832031 24.925781 14.070313 25.03125 14.40625 25.09375 C 15.78125 25.335938 17.664063 25.59375 19.34375 25.78125 C 19.382813 25.890625 19.453125 25.988281 19.5 26.09375 C 19.503906 22.75 22.113281 20.5 26 20.5 C 29.949219 20.5 32.5 22.691406 32.5 26.09375 C 32.5 26.109375 32.5 26.140625 32.5 26.15625 C 32.558594 26.023438 32.640625 25.886719 32.6875 25.75 C 35.785156 25.359375 39.59375 24.859375 39.59375 24.59375 C 39.59375 24.324219 36.074219 23.828125 32.96875 23.4375 C 32.917969 22.972656 32.792969 22.523438 32.625 22.09375 C 35.082031 20.257813 37.902344 17.992188 37.8125 17.8125 C 37.722656 17.542969 34.246094 18.957031 31.375 20.1875 C 31.082031 19.882813 30.765625 19.589844 30.40625 19.34375 C 31.640625 16.460938 33.082031 12.996094 32.8125 12.90625 C 32.546875 12.730469 30.222656 15.824219 28.3125 18.34375 C 27.941406 18.230469 27.582031 18.152344 27.1875 18.09375 C 26.796875 14.964844 26.269531 11 26 11 Z M 26 22.5 C 23.308594 22.5 21.5 23.941406 21.5 26.09375 C 21.5 28.613281 23.433594 32.5 26 32.5 C 28.566406 32.5 30.5 28.609375 30.5 26.09375 C 30.5 23.839844 28.816406 22.5 26 22.5 Z M 17.34375 28.90625 L 17.3125 29.375 C 17.125 31.28125 16.390625 38.96875 12.8125 42.90625 C 11.9375 43.84375 11.515625 44.042969 10.8125 44.3125 C 10.492188 44.433594 10.101563 44.53125 9.65625 44.53125 C 9.304688 44.53125 8.910156 44.460938 8.5 44.3125 C 8.523438 44.339844 8.570313 44.382813 8.59375 44.40625 C 8.636719 44.449219 8.671875 44.488281 8.71875 44.53125 C 8.90625 44.703125 9.125 44.851563 9.34375 45 C 9.429688 45.058594 9.5 45.101563 9.59375 45.15625 C 10.203125 45.519531 10.933594 45.796875 11.75 45.96875 C 11.8125 45.984375 11.875 46 11.9375 46 C 12.433594 46.09375 12.957031 46.160156 13.53125 46.1875 C 15.320313 44.691406 16.757813 41.921875 17.28125 40.625 C 17.488281 40.109375 18.050781 39.855469 18.5625 40.0625 C 19.074219 40.265625 19.332031 40.859375 19.125 41.375 C 18.886719 41.964844 17.234375 45.882813 14.53125 47.9375 C 14.925781 48.582031 15.304688 49.183594 15.5625 49.5625 C 15.75 49.832031 16.078125 50 16.40625 50 L 33 50 C 32.726563 49.222656 32.769531 48.335938 33.15625 47.59375 L 37.71875 38.84375 C 37.773438 38.738281 37.839844 38.625 37.90625 38.53125 C 38.089844 38.257813 38.292969 38.023438 38.53125 37.8125 C 37.148438 35.375 35.226563 34 33 34 L 24.59375 34 C 23.46875 34 20.046875 31.417969 17.34375 28.90625 Z M 8.96875 33.65625 C 8.539063 34.742188 8.113281 35.914063 7.78125 36.96875 C 7.769531 37 7.761719 37.03125 7.75 37.0625 C 7.613281 37.511719 7.496094 37.925781 7.40625 38.3125 C 7.398438 38.351563 7.382813 38.398438 7.375 38.4375 C 7.226563 39.089844 7.152344 39.660156 7.125 40.15625 C 7.570313 41.246094 8.296875 41.898438 8.34375 41.9375 C 9.222656 42.667969 9.757813 42.566406 10.09375 42.4375 C 10.542969 42.265625 10.992188 41.867188 11.40625 41.3125 C 11.460938 41.277344 11.539063 41.058594 11.5625 41.125 C 11.222656 40.066406 10.605469 38.382813 10.25 37.34375 C 9.851563 36.183594 9.382813 34.882813 8.96875 33.65625 Z M 40.90625 38.84375 C 40.378906 38.898438 39.875 39.1875 39.5625 39.65625 C 39.542969 39.683594 39.546875 39.71875 39.53125 39.75 L 34.90625 48.53125 C 34.746094 48.839844 34.753906 49.230469 34.9375 49.53125 C 35.117188 49.828125 35.460938 50 35.8125 50 L 44.90625 50 C 45.277344 50 45.605469 49.796875 45.78125 49.46875 L 48.5 44.375 C 48.539063 44.300781 48.542969 44.230469 48.5625 44.15625 C 48.796875 43.226563 48.433594 42.296875 47.65625 41.90625 L 41.84375 39 C 41.546875 38.851563 41.222656 38.8125 40.90625 38.84375 Z"/></svg>