<svg xmlns="http://www.w3.org/2000/svg"  viewBox="0 0 128 128" width="50px" height="50px"><path fill="#fff" d="M81.6,46h-35c-7.6,0-14,5.7-14.9,13.2L29,82h70l-2.5-22.7C95.6,51.7,89.2,46,81.6,46z"/><path fill="#fff" d="M81.6,46H64v36h35l-2.5-22.7C95.6,51.7,89.2,46,81.6,46z"/><path fill="#e9eef4" d="M96,55H67c-1.7,0-3,1.3-3,3v24h35L96,55z"/><path fill="#676f77" d="M29 76H99V110H29z"/><path fill="#444b54" d="M109,110V92c0-5.5-4.5-10-10-10l0,0c-5.5,0-10,4.5-10,10v18"/><path fill="#444b54" d="M112,107V92c0-6.2-4.4-11.5-10.3-12.7L99.5,59c-1-9.1-8.7-16-17.9-16h-35c-9.1,0-16.8,6.8-17.9,15.9l-2.4,20.4C20.4,80.5,16,85.8,16,92v15c-1.7,0-3,1.3-3,3s1.3,3,3,3h6v11c0,1.7,1.3,3,3,3h8h62h8h6c1.7,0,3-1.3,3-3s-1.3-3-3-3h-3v-8h6c1.7,0,3-1.3,3-3S113.7,107,112,107z M32.3,79.4c10.5-1.5,21.1-2.2,31.7-2.2V107H42V92C42,86,37.9,80.9,32.3,79.4L32.3,79.4z M92,121H36v-8h56V121z M33.1,73.2l1.6-13.6c0.7-6,5.8-10.6,11.9-10.6h35c6.1,0,11.3,4.6,11.9,10.7L95,73.2C74.4,70.5,53.6,70.5,33.1,73.2z"/><path fill="#fff" d="M75.4 107H52.6V94.1c0-6.3 5.1-11.4 11.4-11.4l0 0c6.3 0 11.4 5.1 11.4 11.4V107zM29 87A5 5 0 1 0 29 97 5 5 0 1 0 29 87zM99 87A5 5 0 1 0 99 97 5 5 0 1 0 99 87z"/><path fill="#444b54" d="M124,127c-0.2,0-0.4,0-0.6-0.1c-0.2,0-0.4-0.1-0.6-0.2s-0.3-0.2-0.5-0.3c-0.2-0.1-0.3-0.2-0.5-0.4c-0.6-0.6-0.9-1.3-0.9-2.1s0.3-1.6,0.9-2.1c1.1-1.1,3.1-1.1,4.2,0c0.6,0.6,0.9,1.3,0.9,2.1s-0.3,1.6-0.9,2.1C125.6,126.7,124.8,127,124,127z"/></svg>