<?xml version="1.0"?><svg fill="#000000" xmlns="http://www.w3.org/2000/svg"  viewBox="0 0 24 24" width="50px" height="50px">    <path d="M 8.6679688 3 C 8.3709687 3 8.0894375 3.131375 7.8984375 3.359375 L 6.5292969 5 L 4 5 A 1.0001 1.0001 0 1 0 4 7 L 6.8046875 7 L 11.628906 8.9296875 C 11.747906 8.9766875 11.874 9 12 9 C 12.126 9 12.252094 8.9766875 12.371094 8.9296875 L 17.195312 7 L 20 7 A 1.0001 1.0001 0 1 0 20 5 L 17.470703 5 L 16.101562 3.359375 C 15.910563 3.131375 15.629031 3 15.332031 3 L 8.6679688 3 z M 6 9 A 1.0001 1.0001 0 1 0 6 11 L 6.8066406 11 L 11 12.675781 L 11 15 A 1.0001 1.0001 0 1 0 13 15 L 13 12.675781 L 17.193359 11 L 18 11 A 1.0001 1.0001 0 1 0 18 9 L 17 9 A 1.0001 1.0001 0 0 0 16.628906 9.0722656 L 12 10.923828 L 7.3710938 9.0722656 A 1.0001 1.0001 0 0 0 7 9 L 6 9 z M 6 13 C 5.3283446 13 4.6455896 13.09975 4.0371094 13.498047 C 3.4286291 13.896344 3 14.677515 3 15.5 L 3 16 L 3 18 L 3 18.5 C 3 19.322485 3.4286291 20.103656 4.0371094 20.501953 C 4.6455896 20.90025 5.3283446 21 6 21 C 6.6716554 21 7.3544104 20.90025 7.9628906 20.501953 C 8.5713709 20.103656 9 19.322485 9 18.5 L 9 18 L 9 16 L 9 15.5 C 9 14.677515 8.5713709 13.896344 7.9628906 13.498047 C 7.3544104 13.09975 6.6716554 13 6 13 z M 18 13 C 17.328345 13 16.64559 13.09975 16.037109 13.498047 C 15.428629 13.896344 15 14.677515 15 15.5 L 15 16 L 15 18 L 15 18.5 C 15 19.322485 15.428629 20.103656 16.037109 20.501953 C 16.64559 20.90025 17.328345 21 18 21 C 18.671655 21 19.35441 20.90025 19.962891 20.501953 C 20.571371 20.103656 21 19.322485 21 18.5 L 21 18 L 21 16 L 21 15.5 C 21 14.677515 20.571371 13.896344 19.962891 13.498047 C 19.35441 13.09975 18.671655 13 18 13 z M 6 15 C 6.4333446 15 6.7519177 15.09642 6.8671875 15.171875 C 6.9824573 15.247328 7 15.217485 7 15.5 L 7 16 L 7 18 L 7 18.5 C 7 18.782515 6.9824573 18.752672 6.8671875 18.828125 C 6.7519177 18.903578 6.4333446 19 6 19 C 5.5666554 19 5.2480823 18.903578 5.1328125 18.828125 C 5.0175427 18.752672 5 18.782515 5 18.5 L 5 18 L 5 16 L 5 15.5 C 5 15.217485 5.0175427 15.247328 5.1328125 15.171875 C 5.2480823 15.096422 5.5666554 15 6 15 z M 18 15 C 18.433345 15 18.751918 15.09642 18.867188 15.171875 C 18.982457 15.247328 19 15.217485 19 15.5 L 19 16 L 19 18 L 19 18.5 C 19 18.782515 18.98246 18.752672 18.867188 18.828125 C 18.751918 18.903578 18.433345 19 18 19 C 17.566655 19 17.248082 18.903578 17.132812 18.828125 C 17.017543 18.752672 17 18.782515 17 18.5 L 17 18 L 17 16 L 17 15.5 C 17 15.217485 17.01754 15.247328 17.132812 15.171875 C 17.248082 15.096422 17.566655 15 18 15 z"/></svg>