<svg fill="#000000" xmlns="http://www.w3.org/2000/svg"  viewBox="0 0 50 50" width="50px" height="50px"><path d="M 36.46875 3.3125 L 27.21875 5.75 L 27.4375 6.71875 C 27.472656 6.855469 28.304688 10.039063 29.5 12.53125 C 30.507813 14.628906 32.371094 16.886719 34.5625 16.90625 L 39.46875 37.65625 C 38.675781 38.578125 37.300781 40.660156 38.53125 47.15625 C 37.324219 47.414063 36.011719 47.5625 34.59375 47.5625 C 34.207031 47.5625 33.832031 47.542969 33.4375 47.5 C 32.25 45.554688 29.027344 41.105469 23.34375 39.46875 C 23.253906 38.144531 24.8125 36.3125 24.8125 36.3125 C 24.8125 36.3125 28.5 38.15625 32.9375 38.15625 C 34.480469 38.15625 35.828125 38.019531 36.96875 37.84375 C 37.074219 37.625 37.195313 37.410156 37.3125 37.21875 L 36.625 34.3125 C 35.582031 34.558594 34.269531 34.75 32.78125 34.75 C 31.671875 34.75 30.59375 34.394531 29.59375 33.90625 C 29.242188 33.964844 28.867188 34 28.5 34 C 24.914063 34 22 31.085938 22 27.5 C 22 23.988281 24.796875 21.113281 28.28125 21 C 29.546875 20.15625 31.070313 19.625 33.0625 19.28125 L 32.90625 18.625 C 31.371094 18.136719 30.164063 17.042969 29.28125 15.9375 C 25.402344 17.058594 19.332031 19.816406 18 26.21875 C 11.984375 30.261719 10.53125 37.046875 10.21875 39.0625 C 3.148438 39.539063 0.21875 46.207031 0.09375 46.5 C -0.121094 47.007813 0.0859375 47.59375 0.59375 47.8125 C 1.097656 48.03125 1.6875 47.789063 1.90625 47.28125 C 2.015625 47.023438 4.691406 41 11 41 C 14.203125 41 17.863281 42.933594 21.75 45 C 25.976563 47.242188 30.34375 49.5625 34.59375 49.5625 C 36.160156 49.5625 37.605469 49.40625 38.9375 49.125 L 38.9375 49.15625 L 39.03125 49.125 C 45.898438 47.648438 49.601563 43.132813 49.78125 42.90625 C 50.128906 42.476563 50.054688 41.847656 49.625 41.5 C 49.195313 41.15625 48.566406 41.222656 48.21875 41.65625 C 48.203125 41.675781 47.683594 42.238281 46.8125 43 C 46.15625 41.324219 44.621094 38.449219 41.375 37.09375 L 36.46875 16.21875 C 38.035156 14.933594 38.039063 12.164063 38.03125 10.53125 C 38.019531 7.644531 36.832031 4.328125 36.78125 4.1875 Z M 28.5 23 C 26.015625 23 24 25.015625 24 27.5 C 24 29.984375 26.015625 32 28.5 32 C 30.984375 32 33 29.984375 33 27.5 C 33 25.015625 30.984375 23 28.5 23 Z"/></svg>