<?xml version="1.0"?><svg fill="#000000" xmlns="http://www.w3.org/2000/svg"  viewBox="0 0 128 128" width="50px" height="50px">    <path d="M 39.699219 1 C 18.999219 1 1.5 17.299609 1 38.099609 C 0.5 59.499609 17.7 77 39 77 C 59.9 77 76.9 59.999609 77 39.099609 C 77 37.599609 76.099609 36.3 74.599609 36 C 72.699609 35.7 71 37.1 71 39 C 71 57.4 55.399219 72.200391 36.699219 70.900391 C 20.999219 69.800391 8.1996094 57.000781 7.0996094 41.300781 C 5.7996094 22.600781 20.6 7 39 7 L 81 7 C 98.7 7 113 21.3 113 39 L 113 70.699219 C 113 71.099219 112.70078 71.499609 112.30078 71.599609 C 108.00078 73.099609 105 77.2 105 82 L 105 115.69922 C 105 121.39922 109.20039 126.4 114.90039 127 C 121.40039 127.6 127 122.49961 127 116.09961 L 127 82 C 127 77.2 123.89922 73.199609 119.69922 71.599609 C 119.29922 71.499609 119 71.099219 119 70.699219 L 119 39 C 119 18 102 1 81 1 L 39.699219 1 z M 38.900391 17 C 25.900391 17 15.6 28.3 17 41.5 C 18.1 51.6 26.300781 59.700781 36.300781 60.800781 C 49.700781 62.300781 61 52 61 39 L 61 35.400391 C 61 29.200391 65.600781 23.699609 71.800781 23.099609 C 79.000781 22.399609 85 28 85 35 L 85 70.699219 C 85 71.099219 84.700781 71.499609 84.300781 71.599609 C 80.100781 73.199609 77 77.2 77 82 L 77 115.69922 C 77 121.39922 81.200391 126.4 86.900391 127 C 93.400391 127.6 99 122.49961 99 116.09961 L 99 82 C 99 77.2 95.899219 73.199609 91.699219 71.599609 C 91.299219 71.499609 91 71.099219 91 70.699219 L 91 35.400391 C 91 25.700391 83.399219 17.3 73.699219 17 C 63.499219 16.6 55 24.8 55 35 L 55 38.5 C 55 47.1 48.400781 54.500391 39.800781 54.900391 C 30.600781 55.400391 23 48.1 23 39 C 23 30.2 30.100781 23.1 38.800781 23 C 40.400781 23 41.800391 21.799219 41.900391 20.199219 C 42.000391 18.499219 40.600391 17 38.900391 17 z M 52 17 A 3 3 0 0 0 49 20 A 3 3 0 0 0 52 23 A 3 3 0 0 0 55 20 A 3 3 0 0 0 52 17 z M 88 77 C 90.8 77 93 79.2 93 82 L 93 116 C 93 118.8 90.8 121 88 121 C 85.2 121 83 118.8 83 116 L 83 82 C 83 79.2 85.2 77 88 77 z M 116 77 C 118.8 77 121 79.2 121 82 L 121 116 C 121 118.8 118.8 121 116 121 C 113.2 121 111 118.8 111 116 L 111 82 C 111 79.2 113.2 77 116 77 z"/></svg>