<svg fill="#000000" xmlns="http://www.w3.org/2000/svg"  viewBox="0 0 50 50" width="50px" height="50px"><path d="M 6.984375 1.9863281 A 1.0001 1.0001 0 0 0 6 3 L 6 8 L 5 8 C 4.447 8 4 8.447 4 9 L 4 19 L 8 19 L 8 14 C 8 12.346 9.346 11 11 11 L 14 11 L 14 9 C 14 8.447 13.553 8 13 8 L 12 8 L 12 3 A 1.0001 1.0001 0 0 0 10.984375 1.9863281 A 1.0001 1.0001 0 0 0 10 3 L 10 8 L 8 8 L 8 3 A 1.0001 1.0001 0 0 0 6.984375 1.9863281 z M 42.984375 4.9863281 A 1.0001 1.0001 0 0 0 42 6 L 42 12 L 40 12 L 40 9 A 1.0001 1.0001 0 0 0 38.984375 7.9863281 A 1.0001 1.0001 0 0 0 38 9 L 38 12 L 37 12 C 36.448 12 36 12.447 36 13 L 36 15 L 46 15 L 46 13 C 46 12.447 45.552 12 45 12 L 44 12 L 44 6 A 1.0001 1.0001 0 0 0 42.984375 4.9863281 z M 11 13 C 10.447 13 10 13.447 10 14 L 10 19 L 16 19 L 16 14 C 16 13.447 15.553 13 15 13 L 11 13 z M 35 17 C 34.459 17 34.017 17.430703 34 17.970703 L 33.798828 24.626953 C 34.372828 24.818953 34.925031 25.055125 35.457031 25.328125 C 35.938031 25.124125 36.458 25 37 25 C 39.206 25 41 26.794 41 29 C 41 29.539 40.877781 30.05325 40.675781 30.53125 C 40.959781 31.08125 41.185812 31.664766 41.382812 32.259766 C 42.906812 32.825766 44 34.282 44 36 C 44 37.721 42.901047 39.178188 41.373047 39.742188 C 41.180047 40.321188 40.946922 40.884734 40.669922 41.427734 C 40.876922 41.913734 41 42.441 41 43 C 41 45.2 39.206 46.990234 37 46.990234 C 36.941 46.990234 36.885172 46.973703 36.826172 46.970703 C 36.874172 47.366703 36.914219 47.708 36.949219 48 L 48.910156 48 L 48 17.970703 C 47.983 17.430703 47.541 17 47 17 L 35 17 z M 3 21 C 2.45 21 2 21.45 2 22 L 2 37.259766 C 4.175 34.897766 7.595 33 12.5 33 C 14.561 33 16.392 33.413078 18 34.080078 L 18 22 C 18 21.45 17.55 21 17 21 L 3 21 z M 30 24 C 28.9 24 28 24.9 28 26 C 28 26.069213 28.024639 26.130208 28.03125 26.197266 C 26.743189 26.455757 25.548273 26.966686 24.490234 27.669922 C 24.123694 27.259913 23.590795 27 23 27 C 21.9 27 21 27.9 21 29 C 21 29.592765 21.261443 30.127492 21.673828 30.494141 C 20.775323 31.850469 20.19129 33.432326 20.044922 35.140625 C 20.772922 35.597625 21.435203 36.104437 22.033203 36.648438 C 22.016203 36.434437 22 36.219 22 36 C 22 31.589 25.589 28 30 28 C 34.411 28 38 31.589 38 36 C 38 38.356 36.97075 40.4725 35.34375 41.9375 L 35.9375 44.027344 C 35.938974 44.026251 35.939933 44.024531 35.941406 44.023438 L 36.160156 44.789062 C 36.420156 44.919062 36.7 44.990234 37 44.990234 C 38.11 44.990234 39 44.1 39 43 C 39 42.4 38.742676 41.866602 38.332031 41.501953 C 39.033602 40.447471 39.52792 39.250091 39.787109 37.966797 C 39.859261 37.97448 39.925332 38 40 38 C 41.1 38 42 37.1 42 36 C 42 34.9 41.1 34 40 34 C 39.930889 34 39.869696 34.022705 39.802734 34.029297 C 39.544387 32.741749 39.036299 31.544541 38.333984 30.486328 C 38.741622 30.119907 39 29.588825 39 29 C 39 27.9 38.1 27 37 27 C 36.411175 27 35.880093 27.258378 35.513672 27.666016 C 34.455459 26.963701 33.258251 26.455613 31.970703 26.197266 C 31.977295 26.130304 32 26.069111 32 26 C 32 24.9 31.1 24 30 24 z M 30 34 A 2 2 0 0 0 28 36 A 2 2 0 0 0 28.1875 36.837891 L 25.011719 48 L 27.091797 48 L 29.9375 37.996094 A 2 2 0 0 0 30 38 A 2 2 0 0 0 30.0625 37.996094 L 31.712891 43.798828 C 31.259685 43.900491 30.79202 43.964179 30.3125 43.982422 L 29.742188 45.986328 C 29.828188 45.989328 29.913 46 30 46 C 30.780187 46 31.53424 45.897563 32.261719 45.724609 L 32.908203 48 L 34.988281 48 L 31.8125 36.837891 A 2 2 0 0 0 32 36 A 2 2 0 0 0 30 34 z M 12.5 35 C 3.875 35 1 41.375 1 44 C 1 46.209 2.791 48 5 48 C 6.014 48 6.9404844 47.622 7.6464844 47 C 8.4774844 46.267 9.625 45 12.5 45 C 15.375 45 16.523516 46.267 17.353516 47 C 18.058516 47.622 18.985 48 20 48 C 22.209 48 24 46.209 24 44 C 24 41.375 20.125 35 12.5 35 z"/></svg>