<svg fill="#000000" xmlns="http://www.w3.org/2000/svg"  viewBox="0 0 24 24" width="48px" height="48px"><path d="M 19 3 C 17.894531 3 17 3.894531 17 5 C 17 6.105469 17.894531 7 19 7 C 20.105469 7 21 6.105469 21 5 C 21 3.894531 20.105469 3 19 3 Z M 5.5 3.15625 L 4.6875 4.4375 L 13.59375 10.03125 L 13.59375 10 L 15 9.15625 C 15.019531 10.316406 15.550781 11.433594 16.5625 12.03125 L 16.59375 12.0625 L 19.5625 13.9375 L 20.625 12.25 L 17.625 10.34375 L 17.59375 10.34375 C 17.25 10.148438 17 9.699219 17 9.09375 L 17 7.1875 C 17 7.179688 17 7.097656 17 7.09375 C 17 5.894531 16.210938 5 14.8125 5 C 13.167969 5 11.835938 5.929688 11.0625 6.65625 Z M 9.1875 8.5 L 8.8125 8.90625 C 7.8125 9.90625 8.113281 11.492188 9.3125 12.09375 L 12.875 13.84375 L 9.25 15.90625 L 3.09375 12.40625 L 2.09375 14.09375 L 14.59375 21.1875 C 15.394531 21.6875 16.414063 21.90625 17.3125 21.90625 C 18.210938 21.90625 19.011719 21.710938 19.8125 21.3125 L 21.40625 20.40625 L 20.40625 20 C 19.007813 20.699219 16.992188 20.300781 15.59375 19.5 L 11.28125 17.0625 L 13.90625 15.5625 L 13.9375 15.5625 C 14.601563 15.148438 15.015625 14.449219 15.0625 13.71875 C 15.105469 13.015625 14.738281 12.257813 14.09375 11.8125 L 14.09375 11.78125 C 14.070313 11.761719 14.054688 11.769531 14.03125 11.75 C 12.699219 10.804688 11.105469 9.800781 10.875 9.65625 C 10.859375 9.644531 10.71875 9.5625 10.71875 9.5625 Z"/></svg>