<svg fill="#000000" xmlns="http://www.w3.org/2000/svg"  viewBox="0 0 50 50" width="50px" height="50px"><path d="M 4.8125 8 C 4.566406 8.019531 4.320313 8.0625 4.09375 8.1875 C 3.09375 8.789063 2.710938 10 3.3125 11 L 9.09375 22.1875 C 9.492188 22.886719 10.113281 23.292969 10.8125 23.59375 C 12.113281 23.992188 14.300781 24.6875 17 25.1875 L 18.6875 33.3125 L 15.6875 40.09375 C 14.886719 41.894531 15.605469 44.011719 17.40625 44.8125 C 19.207031 45.613281 21.195313 44.292969 22.09375 43.09375 L 25.09375 39.59375 L 28.09375 43.09375 C 29.09375 44.394531 31.011719 45.613281 32.8125 44.8125 C 34.613281 44.011719 35.300781 41.894531 34.5 40.09375 L 31.5 33.3125 L 34.09375 25 C 36.292969 24.5 38.207031 23.992188 39.40625 23.59375 C 40.105469 23.394531 40.695313 22.886719 41.09375 22.1875 L 46.6875 11 C 47.289063 10 46.90625 8.789063 45.90625 8.1875 C 45.007813 7.6875 43.8125 8.101563 43.3125 9 L 38.3125 17.6875 C 38.3125 17.6875 31 20 25 20 C 19 20 11.6875 17.6875 11.6875 17.6875 L 6.6875 9 C 6.3125 8.324219 5.554688 7.945313 4.8125 8 Z M 25 8 C 22.238281 8 20 10.238281 20 13 C 20 15.761719 22.238281 18 25 18 C 27.761719 18 30 15.761719 30 13 C 30 10.238281 27.761719 8 25 8 Z"/></svg>