<svg fill="#000000" xmlns="http://www.w3.org/2000/svg"  viewBox="0 0 30 30" width="60px" height="60px"><path d="M 2 6 L 2 13 L 2 16 A 1.0001 1.0001 0 1 0 2 18 L 3 18 L 3 22 L 2 22 A 1.0001 1.0001 0 1 0 2 24 L 3.8320312 24 A 1.0001 1.0001 0 0 0 4.1582031 24 L 15.832031 24 A 1.0001 1.0001 0 0 0 16.158203 24 L 22 24 C 25.74916 24 28.77423 21.00665 28.939453 17.296875 A 1.0001 1.0001 0 0 0 28.980469 17.095703 C 28.98095 17.061909 29 17.033906 29 17 C 29 14.791 27.209 13 25 13 L 16.800781 13 L 15.509766 9.7714844 C 14.598766 7.4934844 12.3905 6 9.9375 6 L 2 6 z M 5 18 L 15 18 L 15 22 L 5 22 L 5 18 z M 17 18 L 26.798828 18 C 26.325376 20.271869 24.418215 22 22 22 L 17 22 L 17 18 z"/></svg>