<svg fill="#000000" xmlns="http://www.w3.org/2000/svg"  viewBox="0 0 128 128" width="50px" height="50px"><path d="M73 115.9c-1.7 0-3 1.3-3 3v5.1c0 1.7 1.3 3 3 3s3-1.3 3-3v-5.1C76 117.3 74.7 115.9 73 115.9zM85 115c-1.7 0-3 1.3-3 3v6c0 1.7 1.3 3 3 3s3-1.3 3-3v-6C88 116.3 86.7 115 85 115zM97 111c-1.7 0-3 1.3-3 3v10c0 1.7 1.3 3 3 3s3-1.3 3-3v-10C100 112.3 98.7 111 97 111zM119.1 52.7c-.7-.7-1.4-1.5-2.1-2.2l7-13.8c2.9-5.7 1.1-12.8-4.1-16.5L96.5 3.6c-5.2-3.7-12.5-3-16.9 1.6L68.9 16.4C68 16 67 15.6 66.1 15.2c-9.9-4.1-15.9-4.4-18.5-.8-2.1 2.9-1 7.1 3.3 12.8-11 6.3-18 17-18 28.8 0 4.3.9 8.4 2.6 12.2-2 0-4.1.5-5.9 1.5-3.5 1.8-6 5.2-6.8 9.1-.7 3.5.1 6.9 2.1 9.8-9.3 4.1-17.3 10.2-23.4 17.9-1 1.3-.8 3.2.5 4.2.5.4 1.2.6 1.8.6.9 0 1.8-.4 2.4-1.2 5.8-7.4 13.8-13.2 22.9-16.9 11.3 11 27 17.2 43.7 17.2 10.2 0 20.3-2.4 29.2-6.9 3.8-1.9 6.3-5.4 6.9-9.6.6-4.2-.8-8.4-3.9-11.3-1.1-1.1-2.4-1.9-3.7-2.5 3.3-2.9 6.1-6.4 8.1-10.3 4.3 1.7 7.8 2.5 10.5 2.5 2.7 0 4.7-.8 5.9-2.5C128.5 66.3 126.3 60.7 119.1 52.7zM111.8 64.3c.2-.7.4-1.5.6-2.2.3-1.6-.7-3.2-2.3-3.5-1.6-.3-3.2.7-3.5 2.3-.3 1.3-.7 2.7-1.2 4 0 0 0 0 0 0 0 0 0 0 0 0 0 0 0 0 0 0C100.7 76.6 87.7 84.5 73 84.5c-18.7 0-34-12.8-34-28.5 0-12.2 9.3-23.1 23.1-27 1.6-.5 2.5-2.1 2.1-3.7s-2.1-2.5-3.7-2.1c-1.4.4-2.7.8-4 1.3-2.9-3.7-3.8-5.8-3.8-6.7 2.8-.8 16.6 3.2 38.2 18.5 21.6 15.3 29.9 27 30.1 29.9C120.1 66.5 117.4 66.4 111.8 64.3z"/></svg>