<?xml version="1.0"?><svg fill="#000000" xmlns="http://www.w3.org/2000/svg"  viewBox="0 0 24 24" width="48px" height="48px">    <path d="M 14 3 A 1.0001 1.0001 0 1 0 14 5 L 14.464844 5 L 15.335938 6.3046875 C 14.159346 6.7188551 13.168782 7.4812075 12.382812 8.09375 C 11.927812 8.44875 11.24 8.983 11 9 C 10.055 9 8.4433906 7.9202344 7.6503906 7.2402344 C 7.4703906 7.0852344 7.238 7 7 7 L 2 7 C 1.447 7 1 7.448 1 8 L 1 11 C 1 11.451 1.3032812 11.846844 1.7382812 11.964844 L 4.9277344 12.830078 L 1.390625 15.550781 A 1.0001 1.0001 0 0 0 1 16.34375 L 1 17.171875 C 1 18.065101 1.6278673 19 2.6679688 19 L 7 19 C 7 19 8.2052743 19.0034 9.53125 18.414062 C 10.798191 17.850978 12.2489 16.648299 12.878906 14.533203 L 17 14.533203 L 17 17 L 16 17 A 1.0001 1.0001 0 1 0 16 19 L 20.273438 19 C 21.375484 19 22.348037 18.394976 22.865234 17.5 A 1.0001 1.0001 0 0 0 22.015625 15.988281 A 1.0001 1.0001 0 0 0 21.134766 16.5 C 20.961963 16.799024 20.647391 17 20.273438 17 L 19 17 L 19 14.332031 L 18.939453 14.332031 L 21.423828 13.171875 C 21.775828 13.007875 22 12.655578 22 12.267578 L 22 10.833984 C 22 10.560984 21.888406 10.300328 21.691406 10.111328 L 17.771484 6.3535156 L 15.832031 3.4453125 A 1.0001 1.0001 0 0 0 15 3 L 14 3 z M 7.3535156 13.490234 L 10.810547 14.427734 C 10.325066 15.650132 9.5094761 16.234503 8.71875 16.585938 C 7.7947257 16.996614 7 17 7 17 L 3 17 L 3 16.835938 L 7.3535156 13.490234 z"/></svg>