<svg fill="#000000" xmlns="http://www.w3.org/2000/svg"  viewBox="0 0 50 50" width="50px" height="50px"><path d="M 39 2 C 36.238281 2 34 4.238281 34 7 C 34 9.761719 36.238281 12 39 12 C 41.761719 12 44 9.761719 44 7 C 44 4.238281 41.761719 2 39 2 Z M 16 3 C 14.894531 3 14 3.894531 14 5 C 14 5.449219 14.152344 5.882813 14.425781 6.234375 L 14.421875 6.242188 L 19.691406 12.472656 L 25.667969 14.5 L 19.417969 19.9375 L 19.40625 19.960938 C 18.515625 20.71875 18.003906 21.828125 18 23 L 18 30.5 L 10.40625 34.242188 L 10.410156 34.25 C 9.550781 34.667969 9 35.542969 9 36.5 C 9 37.878906 10.121094 39 11.5 39 C 11.964844 39 12.417969 38.871094 12.8125 38.625 L 21.40625 34.0625 C 22.386719 33.542969 23 32.523438 23 31.414063 L 23 27.597656 L 28.859375 31.765625 L 27.074219 38.875 L 27.082031 38.878906 C 27.027344 39.082031 27 39.289063 27 39.5 C 27 40.878906 28.121094 42 29.5 42 C 30.796875 42 31.875 41.011719 31.988281 39.71875 L 33.9375 31.484375 L 33.9375 31.480469 C 33.980469 31.324219 34 31.160156 34 31 C 34 30.355469 33.6875 29.75 33.160156 29.375 L 33.15625 29.371094 C 33.144531 29.363281 33.136719 29.355469 33.128906 29.347656 L 27.746094 25.09375 L 34.191406 19.25 L 43.699219 26.515625 C 44.058594 26.828125 44.523438 27 45 27 C 46.105469 27 47 26.105469 47 25 C 47 24.382813 46.714844 23.800781 46.226563 23.421875 L 32 12 L 22.300781 9.199219 L 17.566406 3.757813 C 17.1875 3.277344 16.609375 3 16 3 Z M 4.5 38 C 3.671875 38 3 38.671875 3 39.5 C 3 40.222656 3.515625 40.84375 4.226563 40.972656 C 5.332031 41.316406 23.855469 46.910156 45.996094 47 C 45.996094 47 46 47 46 47 C 46.550781 47 47 46.550781 47 46 C 47 45.511719 46.644531 45.09375 46.160156 45.015625 L 46.160156 45.011719 L 4.792969 38.019531 L 4.789063 38.027344 C 4.695313 38.007813 4.597656 38 4.5 38 Z M 5.050781 43.296875 L 3 47 C 3 47 7.609375 46.871094 10.617188 44.722656 C 8.1875 44.15625 6.285156 43.648438 5.050781 43.296875 Z"/></svg>