<svg fill="#000000" xmlns="http://www.w3.org/2000/svg"  viewBox="0 0 50 50" width="50px" height="50px"><path d="M 15.40625 4 C 6.90625 4 0 10.429688 0 18.5 C 0 26.570313 6.90625 33 15.40625 33 C 19.957031 33 24.863281 31.980469 28.90625 30.21875 L 49.40625 21.53125 C 49.914063 21.308594 50.148438 20.710938 49.921875 20.203125 C 49.699219 19.695313 49.101563 19.464844 48.59375 19.6875 L 28.09375 28.375 C 24.335938 30.011719 19.65625 31 15.40625 31 C 7.90625 31 2 25.429688 2 18.5 C 2 11.570313 7.90625 6 15.40625 6 C 19.714844 6 23.417969 7.859375 25.9375 10.75 C 26.300781 11.171875 26.9375 11.222656 27.359375 10.859375 C 27.78125 10.496094 27.832031 9.859375 27.46875 9.4375 C 24.585938 6.128906 20.296875 4 15.40625 4 Z M 46.09375 8.6875 C 45.09375 8.6875 44.1875 9.492188 44.1875 10.59375 C 44.1875 10.894531 44.28125 11.1875 44.40625 11.4375 C 43.867188 11.640625 43.367188 11.832031 42.84375 12.03125 C 42.640625 11.234375 41.925781 10.59375 41 10.59375 C 40 10.59375 39.09375 11.398438 39.09375 12.5 C 39.09375 12.828125 39.210938 13.105469 39.375 13.375 C 38.121094 13.9375 37.527344 15.171875 37.96875 16.5 L 39.15625 19.4375 C 39.429688 20.585938 40.398438 21.375 41.5625 21.375 C 41.921875 21.375 42.269531 21.289063 42.5625 21.15625 L 49.375 18.53125 C 49.757813 18.382813 50 18.003906 50 17.59375 L 50 10.90625 C 50 10.355469 49.554688 9.90625 49 9.90625 C 48.613281 9.90625 48.269531 9.988281 47.9375 10.09375 C 47.714844 9.257813 46.933594 8.6875 46.09375 8.6875 Z M 33.09375 13.5 C 32.09375 13.5 31.1875 14.304688 31.1875 15.40625 C 31.1875 15.792969 31.335938 16.132813 31.53125 16.4375 C 31.03125 16.628906 30.605469 16.804688 29.875 17.09375 C 29.769531 16.183594 29.019531 15.40625 28 15.40625 C 27 15.40625 26.09375 16.210938 26.09375 17.3125 C 26.09375 17.746094 26.253906 18.109375 26.53125 18.4375 C 26.347656 18.511719 26.113281 18.585938 25.9375 18.65625 C 23.933594 19.421875 22.625 21.605469 22.125 24.9375 C 22.003906 25.664063 22.199219 26.425781 22.6875 27 C 23.1875 27.589844 23.933594 27.9375 24.6875 27.9375 C 25.039063 27.9375 25.386719 27.84375 25.65625 27.71875 L 36.6875 23.5 C 37.382813 23.269531 37.917969 22.730469 38.1875 22.03125 C 38.464844 21.316406 38.425781 20.503906 38.0625 19.8125 L 36.875 16.84375 C 36.519531 16.042969 35.828125 15.542969 35 15.4375 L 35 15.40625 C 35 14.40625 34.195313 13.5 33.09375 13.5 Z M 48 24.3125 L 46 25.09375 L 46 46 L 48 46 Z M 1 27.8125 L 1 46.59375 L 3 46 L 3 30.3125 C 3 30.3125 1.601563 29.3125 1 27.8125 Z M 30 31.59375 L 28 32.5 L 28 46 L 30 46 Z"/></svg>