<?xml version="1.0"?><svg fill="#000000" xmlns="http://www.w3.org/2000/svg"  viewBox="0 0 30 30" width="50px" height="50px">    <path d="M 14 2 C 12.895 2 12 2.895 12 4 C 12 5.104 12.895 6 14 6 C 15.105 6 16 5.104 16 4 C 16 2.895 15.105 2 14 2 z M 20.998047 4.7832031 A 1.0001 1.0001 0 0 0 20.375 4.9921875 L 20.169922 5.1464844 L 16.560547 7.640625 L 13.5 8 L 12 8 C 11.028412 8 10.220306 8.6931062 10.039062 9.6113281 L 10.037109 9.6132812 L 9.046875 14.580078 C 9.0442178 14.592476 9.0414889 14.604705 9.0390625 14.617188 L 9.0351562 14.636719 L 9.0371094 14.642578 C 9.0289112 14.687795 9.0285431 14.735027 9.0234375 14.78125 A 1.0001 1.0001 0 0 0 9 14.998047 C 9 14.998047 9 15 9 15 A 1.0001 1.0001 0 0 0 9 15.003906 L 9.0195312 20 L 5 20 C 3.895 20 3 20.895 3 22 L 3 23.003906 C 3.456 23.004906 3.910125 23.107547 4.328125 23.310547 C 4.722125 23.502547 5.97 24 7 24 C 8.03 24 9.2772031 23.501406 9.6582031 23.316406 C 10.493203 22.898406 11.487125 22.901547 12.328125 23.310547 C 12.722125 23.502547 13.97 24 15 24 C 16.03 24 17.277203 23.501406 17.658203 23.316406 C 18.189203 23.050406 18.782328 22.974922 19.361328 23.044922 L 19.646484 20.685547 L 20.445312 14.197266 C 20.697445 14.078148 20.904115 13.864904 20.986328 13.576172 C 21.099578 13.177922 20.954234 12.767422 20.650391 12.523438 L 21.361328 6.7539062 L 21.580078 6.5898438 A 1.0001 1.0001 0 0 0 20.998047 4.7832031 z M 20.251953 7.59375 L 19.6875 12.169922 L 17.748047 11.619141 L 15.960938 12.3125 L 15.697266 13.027344 L 15.699219 13.029297 C 15.804219 13.115297 15.927594 13.179797 16.058594 13.216797 L 19.441406 14.177734 L 18.724609 20 L 16.791016 20 L 15.982422 15.810547 A 1.0001 1.0001 0 0 0 15.152344 15.011719 L 13.267578 14.417969 L 14.425781 10.761719 L 17.644531 9.5136719 A 1.0001 1.0001 0 0 0 17.884766 9.3789062 L 20.251953 7.59375 z M 13.681641 17.367188 L 14.662109 20 L 11.029297 20 L 11.658203 17.511719 L 13.681641 17.367188 z M 27 18 C 26.79777 18 26.620288 18.074389 26.462891 18.177734 L 26.445312 18.167969 C 25.382313 18.749969 23.917484 19.444156 21.771484 19.785156 L 21.298828 23.685547 C 21.815828 23.851547 22.438 24 23 24 C 23.547 24 24.153156 23.859219 24.660156 23.699219 C 27.442156 22.252219 28 19.863 28 19 C 28 18.448 27.552 18 27 18 z M 2.9648438 24.994141 A 1.0001 1.0001 0 0 0 2.5527344 26.894531 C 2.5527344 26.894531 4.6666667 28 7 28 C 8.9465696 28 10.458804 27.333203 11 27.078125 C 11.541196 27.333203 13.05343 28 15 28 C 16.94657 28 18.458804 27.333203 19 27.078125 C 19.541196 27.333203 21.05343 28 23 28 C 25.333333 28 27.447266 26.894531 27.447266 26.894531 A 1.0001163 1.0001163 0 1 0 26.552734 25.105469 C 26.552734 25.105469 24.666667 26 23 26 C 21.333333 26 19.447266 25.105469 19.447266 25.105469 A 1.0001 1.0001 0 0 0 18.552734 25.105469 C 18.552734 25.105469 16.666667 26 15 26 C 13.333333 26 11.447266 25.105469 11.447266 25.105469 A 1.0001 1.0001 0 0 0 10.552734 25.105469 C 10.552734 25.105469 8.6666667 26 7 26 C 5.3333333 26 3.4472656 25.105469 3.4472656 25.105469 A 1.0001 1.0001 0 0 0 2.9648438 24.994141 z"/></svg>