<svg fill="#000000" xmlns="http://www.w3.org/2000/svg"  viewBox="0 0 24 24" width="50px" height="50px"><path d="M 2 2 L 2 3.6875 L 11 5.34375 L 11 10.5625 L 10.5625 11 L 8.15625 11 C 7.671875 11 7.210938 11.175781 6.84375 11.5 L 5.84375 12.375 C 4.980469 13.132813 4.960938 14.507813 5.78125 15.3125 L 8.40625 17.875 C 9.671875 19.113281 11.625 19.355469 13.15625 18.46875 L 13.21875 18.4375 L 13.25 18.40625 L 16.46875 16 L 21 16 L 21 14 L 16.5 14 C 16.066406 13.996094 15.628906 14.113281 15.28125 14.375 L 12 15.84375 L 12 12.4375 L 14.28125 10.15625 L 12.84375 8.71875 L 12 9.5625 L 12 5.5 L 22 7.34375 L 22 5.625 L 14.90625 4.34375 C 14.949219 4.230469 15 4.128906 15 4 C 15 3.449219 14.550781 3 14 3 C 13.449219 3 13 3.449219 13 4 L 10.78125 3.59375 C 10.910156 3.425781 11 3.226563 11 3 C 11 2.449219 10.550781 2 10 2 C 9.449219 2 9 2.449219 9 3 C 9 3.101563 9.035156 3.1875 9.0625 3.28125 Z M 4 8 C 2.894531 8 2 8.894531 2 10 C 2 11.105469 2.894531 12 4 12 C 5.105469 12 6 11.105469 6 10 C 6 8.894531 5.105469 8 4 8 Z M 8.78125 13 L 11 13 L 11 15.21875 Z M 16.15625 17.40625 L 14.09375 18.96875 L 15.3125 19.28125 L 19.5625 22 L 20.65625 20.3125 Z"/></svg>