<svg fill="#000000" xmlns="http://www.w3.org/2000/svg"  viewBox="0 0 50 50" width="50px" height="50px"><path d="M 22.003906 2 C 19.238281 2 17 4.238281 17 7 C 17 9.761719 19.238281 12 22.003906 12 C 24.761719 12 27 9.761719 27 7 C 27 4.238281 24.761719 2 22.003906 2 Z M 45 2 C 44.515625 2 44.128906 2.355469 44.035156 2.8125 L 44.015625 2.8125 C 42.554688 10.371094 39.121094 18.566406 30 22.808594 L 30.015625 22.84375 L 30 22.816406 L 30 25.058594 L 20.996094 28.972656 L 21 29 L 16.242188 42.828125 C 16.082031 43.199219 16 43.597656 16 44 C 16 45.65625 17.34375 47 19 47 C 20.355469 47 21.542969 46.089844 21.894531 44.777344 L 26 33 L 34.394531 29.390625 L 35.003906 36.0625 C 35.035156 37.691406 36.367188 39 38 39 C 39.65625 39 41 37.65625 41 36 C 41 35.949219 40.996094 35.898438 40.992188 35.84375 L 41.003906 35.84375 L 39.988281 24.710938 C 39.996094 24.640625 40 24.570313 40 24.5 C 40 23.121094 38.878906 22 37.5 22 C 37.054688 22 36.617188 22.121094 36.234375 22.347656 L 31.015625 24.621094 L 30.976563 24.554688 C 40.71875 19.957031 44.46875 11.027344 45.984375 3.1875 L 45.964844 3.1875 C 45.976563 3.125 46 3.066406 46 3 C 46 2.449219 45.554688 2 45 2 Z M 30 22.808594 L 30 18.8125 L 39.421875 7.128906 L 39.40625 7.117188 C 39.789063 6.664063 40 6.089844 40 5.5 C 40 4.121094 38.878906 3 37.5 3 C 36.597656 3 35.769531 3.488281 35.328125 4.273438 L 28 13 L 14.230469 17.730469 L 10.703125 12.320313 C 10.269531 11.507813 9.421875 11 8.5 11 C 7.121094 11 6 12.121094 6 13.5 C 6 14.042969 6.179688 14.574219 6.507813 15.007813 L 11.171875 22.199219 C 11.433594 22.691406 11.945313 23 12.5 23 C 12.648438 23 12.792969 22.976563 12.9375 22.9375 L 12.941406 22.933594 C 12.945313 22.933594 12.945313 22.933594 12.945313 22.933594 L 20 21 L 20.738281 26.902344 L 30 22.820313 Z M 31 33.023438 L 29 33.777344 L 29 47 C 28.996094 47.359375 29.183594 47.695313 29.496094 47.878906 C 29.808594 48.058594 30.191406 48.058594 30.503906 47.878906 C 30.816406 47.695313 31.003906 47.359375 31 47 Z"/></svg>