<svg fill="#000000" xmlns="http://www.w3.org/2000/svg"  viewBox="0 0 50 50" width="50px" height="50px"><path d="M 25 6 C 25 6 21.011719 10.007813 19.3125 14.40625 C 19.613281 14.605469 19.792969 14.707031 20.09375 14.90625 C 21.894531 16.007813 22.988281 16.789063 23.6875 17.6875 C 23.988281 18.1875 24.292969 18.59375 24.59375 19.09375 L 25.09375 19.09375 C 25.195313 18.992188 25.398438 19 25.5 19 C 25.800781 18.5 26.105469 18.09375 26.40625 17.59375 C 27.007813 16.695313 28.199219 16.011719 30 14.8125 C 30.300781 14.613281 30.511719 14.511719 30.8125 14.3125 C 29.011719 10.011719 25 6 25 6 Z M 13 11 C 12.601563 12.199219 12.101563 14.011719 12 16.3125 C 12 17.8125 11.914063 22.292969 13.8125 26.09375 C 15.710938 26.292969 17.40625 26.699219 18.90625 27.5 C 18.40625 25.5 18 23.59375 18 23.09375 C 18 21.492188 19.210938 19.789063 22.3125 19.1875 C 22.210938 19.085938 22.101563 18.914063 22 18.8125 C 21 17.511719 16.898438 15.492188 15 13.59375 C 14 12.59375 13.398438 11.601563 13 11 Z M 37 11 C 36.601563 11.699219 36 12.59375 35 13.59375 C 33.101563 15.492188 29 17.605469 28 18.90625 C 27.898438 19.007813 27.789063 19.113281 27.6875 19.3125 C 30.789063 19.914063 31.90625 21.492188 31.90625 23.09375 C 31.90625 23.59375 31.5 25.5 31 27.5 C 32.5 26.800781 34.195313 26.292969 36.09375 26.09375 C 38.195313 22.195313 38.101563 17.710938 38 16.3125 C 38 14.011719 37.398438 12.199219 37 11 Z M 4 14.90625 C 4 15.605469 3.707031 21.207031 6.90625 25.90625 C 8.207031 26.007813 9.695313 26 11.59375 26 C 10.792969 24.101563 10.195313 21.6875 10.09375 18.6875 C 7.492188 17.488281 5.5 16.105469 4 14.90625 Z M 46 14.90625 C 44.5 16.105469 42.5 17.488281 40 18.6875 C 39.898438 21.6875 39.300781 24.101563 38.5 26 C 40.300781 26 41.792969 26.007813 43.09375 25.90625 C 46.292969 21.207031 46 15.605469 46 14.90625 Z M 25 21 C 22.238281 21 20 21.894531 20 23 C 20 24.105469 22.238281 25 25 25 C 27.761719 25 30 24.105469 30 23 C 30 21.894531 27.761719 21 25 21 Z M 20.6875 26.3125 C 20.886719 27.113281 21.113281 28 21.3125 29 C 22.011719 29.601563 22.710938 30.292969 23.3125 31.09375 L 23.6875 31.6875 L 23.90625 31.6875 C 24.304688 31.6875 24.601563 31.804688 25 31.90625 C 25.300781 31.804688 25.695313 31.6875 26.09375 31.6875 L 26.3125 31.6875 L 26.6875 31.09375 C 27.289063 30.292969 27.988281 29.601563 28.6875 29 C 28.886719 28.199219 29.113281 27.210938 29.3125 26.3125 C 28.113281 26.8125 26.5 27 25 27 C 23.5 27 21.886719 26.8125 20.6875 26.3125 Z M 2 27 C 2.101563 28.601563 2.488281 30.804688 3.6875 32.40625 C 4.6875 33.605469 5.886719 34.5 7.1875 35 L 10 35 C 15.800781 35 19.488281 33.40625 21.6875 32.40625 C 19.988281 30.007813 17.207031 28 11.90625 28 C 7.105469 28 4.101563 28 2 27 Z M 47.90625 27 C 45.804688 28 42.894531 28 38.09375 28 C 32.792969 28 30.011719 30.007813 28.3125 32.40625 C 30.613281 33.40625 34.199219 35 40 35 L 42.6875 35 C 43.988281 34.5 45.289063 33.605469 46.1875 32.40625 C 47.386719 30.804688 47.804688 28.601563 47.90625 27 Z M 23.8125 33.6875 C 23.710938 33.6875 23.507813 33.710938 23.40625 33.8125 C 23.007813 34.011719 22.5 34.207031 22 34.40625 C 21.5 34.605469 20.792969 34.886719 20.09375 35.1875 C 17.792969 36.085938 14.5 37 10 37 C 11.101563 40.101563 13.101563 42 17.5 42 C 23.699219 42 25 36 25 36 C 25 36 26.300781 42 32.5 42 C 36.898438 42 38.898438 40.101563 40 37 C 32.898438 37 28.601563 34.710938 26.5 33.8125 C 26.398438 33.710938 26.195313 33.6875 26.09375 33.6875 C 25.894531 33.6875 25.789063 33.710938 25.6875 33.8125 L 25.59375 33.8125 C 25.492188 33.8125 25.414063 33.898438 25.3125 34 C 25.210938 34.101563 25.09375 34.210938 25.09375 34.3125 L 25.09375 34.40625 C 25.09375 34.507813 25 34.613281 25 34.8125 L 25 34.6875 C 25 34.585938 25.007813 34.414063 24.90625 34.3125 C 24.804688 34.210938 24.789063 34.101563 24.6875 34 C 24.585938 33.898438 24.507813 33.914063 24.40625 33.8125 L 24.3125 33.8125 C 24.210938 33.8125 24.105469 33.6875 23.90625 33.6875 Z"/></svg>