<svg fill="#000000" xmlns="http://www.w3.org/2000/svg"  viewBox="0 0 50 50" width="50px" height="50px"><path d="M 33 1.992188 C 33 1.992188 8.378906 4.808594 2 31 L 20.605469 39 C 26.53125 14.929688 33 1.992188 33 1.992188 Z M 44 10 C 41.828125 10 40 11.828125 40 14 C 40 16.171875 41.828125 18 44 18 C 46.171875 18 48 16.171875 48 14 C 48 11.828125 46.171875 10 44 10 Z M 30 18 C 28.914063 18 28 18.914063 28 20 C 28 20.640625 28.324219 21.21875 28.8125 21.589844 L 28.808594 21.589844 L 28.832031 21.605469 C 28.871094 21.632813 28.910156 21.660156 28.953125 21.6875 L 33.269531 24.648438 C 33.601563 24.878906 33.996094 25 34.402344 25 L 38 25 L 35.527344 32 L 30 32 C 29.460938 32 28.964844 32.226563 28.597656 32.585938 L 28.582031 32.59375 L 23.0625 37.46875 L 23.066406 37.472656 C 22.429688 37.929688 22 38.671875 22 39.5 C 22 40.855469 23.144531 42 24.5 42 C 25.140625 42 25.730469 41.738281 26.179688 41.328125 L 26.191406 41.339844 L 31.375 37 L 38.5 37 C 40.046875 37 41.378906 35.933594 41.828125 34.511719 L 41.84375 34.5 L 44.839844 24.9375 L 44.832031 24.929688 C 44.933594 24.632813 45 24.324219 45 24 C 45 22.371094 43.628906 21 42 21 L 35 21 L 31.109375 18.34375 L 31.085938 18.328125 L 31.082031 18.332031 C 30.769531 18.125 30.398438 18 30 18 Z M 19.988281 43.984375 C 19.925781 43.988281 19.863281 43.996094 19.796875 44.007813 C 19.796875 44.007813 19.792969 44.007813 19.792969 44.011719 C 19.5625 44.058594 19.359375 44.179688 19.214844 44.359375 C 19.011719 44.550781 17.394531 46 15 46 C 12.613281 46 11 44.558594 10.789063 44.363281 C 10.59375 44.121094 10.296875 43.984375 9.988281 43.988281 C 9.984375 43.988281 9.984375 43.988281 9.980469 43.988281 C 9.96875 43.992188 9.960938 43.992188 9.953125 43.992188 C 9.664063 44.003906 9.394531 44.136719 9.214844 44.359375 C 9.011719 44.550781 7.394531 46 5 46 C 4.640625 45.996094 4.304688 46.183594 4.121094 46.496094 C 3.941406 46.808594 3.941406 47.191406 4.121094 47.503906 C 4.304688 47.816406 4.640625 48.003906 5 48 C 7.320313 48 9.082031 46.96875 10 46.289063 C 10.917969 46.96875 12.679688 48 15 48 C 17.320313 48 19.082031 46.96875 20 46.289063 C 20.917969 46.96875 22.679688 48 25 48 C 27.320313 48 29.082031 46.96875 30 46.289063 C 30.917969 46.96875 32.679688 48 35 48 C 37.320313 48 39.082031 46.96875 40 46.289063 C 40.917969 46.96875 42.679688 48 45 48 C 45.359375 48.003906 45.695313 47.816406 45.878906 47.503906 C 46.058594 47.191406 46.058594 46.808594 45.878906 46.496094 C 45.695313 46.183594 45.359375 45.996094 45 46 C 42.65625 46 41.070313 44.621094 40.8125 44.382813 C 40.574219 44.070313 40.179688 43.925781 39.796875 44.007813 C 39.796875 44.007813 39.792969 44.007813 39.792969 44.011719 C 39.5625 44.058594 39.359375 44.179688 39.214844 44.359375 C 39.011719 44.550781 37.394531 46 35 46 C 32.65625 46 31.070313 44.621094 30.8125 44.382813 C 30.574219 44.070313 30.179688 43.925781 29.796875 44.007813 C 29.796875 44.007813 29.792969 44.007813 29.792969 44.011719 C 29.5625 44.058594 29.359375 44.179688 29.214844 44.359375 C 29.011719 44.550781 27.394531 46 25 46 C 22.65625 46 21.070313 44.621094 20.8125 44.382813 C 20.617188 44.125 20.3125 43.980469 19.988281 43.984375 Z"/></svg>